<svg width="22" height="16" viewBox="0 0 22 16" fill="none" xmlns="http://www.w3.org/2000/svg">
<path fill-rule="evenodd" clip-rule="evenodd" d="M15.1583 4.23285C15.1583 6.58254 13.2851 8.4666 10.949 8.4666C8.61292 8.4666 6.73974 6.58254 6.73974 4.23285C6.73974 1.88227 8.61292 0 10.949 0C13.2851 0 15.1583 1.88227 15.1583 4.23285ZM10.949 16C7.51785 16 4.58809 15.456 4.58809 13.2802C4.58809 11.1034 7.49904 10.5396 10.949 10.5396C14.3802 10.5396 17.31 11.0836 17.31 13.2604C17.31 15.4362 14.399 16 10.949 16ZM16.9571 4.30922C16.9571 5.50703 16.5998 6.62288 15.973 7.55051C15.9086 7.64597 15.9659 7.77476 16.0796 7.79457C16.2363 7.82159 16.3984 7.8369 16.5631 7.8414C18.2062 7.88463 19.6809 6.82102 20.0883 5.21974C20.6918 2.84123 18.9198 0.705896 16.6634 0.705896C16.4181 0.705896 16.1835 0.732013 15.9551 0.778845C15.9238 0.78605 15.8907 0.800459 15.8728 0.828378C15.8513 0.862601 15.8674 0.908532 15.8889 0.938252C16.5667 1.8938 16.9571 3.05918 16.9571 4.30922ZM19.6782 9.51257C20.7823 9.72962 21.5084 10.1727 21.8093 10.8166C22.0636 11.3453 22.0636 11.9586 21.8093 12.4864C21.349 13.4851 19.8654 13.8058 19.2887 13.8886C19.1696 13.9066 19.0738 13.8031 19.0864 13.6833C19.3809 10.9157 17.0377 9.60353 16.4315 9.30183C16.4055 9.28832 16.4002 9.2676 16.4028 9.255C16.4046 9.24599 16.4154 9.23158 16.4351 9.22888C17.7468 9.20456 19.1571 9.38468 19.6782 9.51257ZM5.43711 7.84131C5.60186 7.83681 5.76304 7.8224 5.92063 7.79448C6.03434 7.77467 6.09165 7.64588 6.02718 7.55042C5.4004 6.62279 5.04313 5.50694 5.04313 4.30913C5.04313 3.05909 5.43353 1.89371 6.11135 0.938162C6.13284 0.908442 6.14806 0.862511 6.12746 0.828288C6.10956 0.80127 6.07553 0.78596 6.04509 0.778755C5.81586 0.731923 5.58127 0.705806 5.33593 0.705806C3.07951 0.705806 1.30751 2.84114 1.91191 5.21965C2.31932 6.82093 3.79405 7.88454 5.43711 7.84131ZM5.59694 9.25446C5.59962 9.26796 5.59425 9.28778 5.56918 9.30219C4.9621 9.60389 2.61883 10.9161 2.91342 13.6827C2.92595 13.8034 2.83104 13.9061 2.71195 13.889C2.13531 13.8061 0.651629 13.4855 0.191392 12.4867C-0.0637974 11.9581 -0.0637974 11.3457 0.191392 10.817C0.492248 10.1731 1.21752 9.72998 2.32156 9.51203C2.84358 9.38504 4.25294 9.20492 5.5656 9.22924C5.5853 9.23194 5.59515 9.24635 5.59694 9.25446Z" fill="#F89320"/>
</svg>
