<svg width="24" height="25" viewBox="0 0 24 25" fill="none" xmlns="http://www.w3.org/2000/svg">
<path d="M12 0.232788C5.37259 0.232788 0 5.60538 0 12.2328C0 18.8602 5.37259 24.2328 12 24.2328C18.6274 24.2328 24 18.8602 24 12.2328C24 5.60538 18.6274 0.232788 12 0.232788ZM15.1683 7.42472C15.1683 7.42472 13.9404 7.32796 13.4568 7.50656C12.6572 7.80186 12.6382 8.49253 12.6382 9.15114V10.4961H15.0827L14.7255 13.069H12.6382V19.4203H9.87725V13.069H7.58174V10.4961H9.87739V8.31402C9.87739 6.00349 11.6559 5.16632 12.7163 5.06586C13.7767 4.96543 15.1683 5.26679 15.1683 5.26679V7.42472Z" fill="#F79320"/>
</svg>
