<svg width="32" height="32" viewBox="0 0 32 32" fill="none" xmlns="http://www.w3.org/2000/svg">
<path d="M16.4235 15.4468L9.61884 8.48228C10.0573 8.02033 10.5794 7.65259 11.1552 7.40013C11.7311 7.14767 12.3493 7.01545 12.9744 7.01104C13.5996 7.00663 14.2195 7.13013 14.7986 7.37444C15.3777 7.61876 15.9045 7.9791 16.3491 8.43483L19.8086 11.9379L16.4235 15.4468Z" fill="url(#paint0_linear_1581_188)"/>
<path d="M20.7072 19.8456L24.2183 23.4614C25.1184 24.392 26.3378 24.9146 27.6091 24.9146C28.8805 24.9146 30.0999 24.392 31 23.4614L24.0723 16.3663L20.7072 19.8456Z" fill="url(#paint1_linear_1581_188)"/>
<path d="M30.8453 8.51193L16.2689 23.494L15.5879 24.191L15.3017 24.4877L14.7952 24.9237C13.2782 26.2629 11.351 26.9989 9.3584 27C7.14304 26.9969 5.01924 26.0834 3.45247 24.4599C1.88571 22.8364 1.00378 20.6352 1 18.3388V7.47081C1 6.81551 1.25113 6.18705 1.69815 5.72368C2.14516 5.26032 2.75144 5 3.38362 5C4.01579 5 4.62208 5.26032 5.06909 5.72368C5.51611 6.18705 5.76724 6.81551 5.76724 7.47081V9.59755H7.30099C7.8199 9.61799 8.31142 9.8442 8.67407 10.2295C9.03672 10.6147 9.24281 11.1296 9.24979 11.6679C9.25676 12.2061 9.06409 12.7265 8.71156 13.1218C8.35903 13.517 7.87355 13.7568 7.35536 13.7917L5.78727 13.8095V18.3388C5.78727 18.4426 5.78727 18.5464 5.78727 18.6503C5.86781 19.5753 6.27856 20.4359 6.93909 21.0636C7.59961 21.6912 8.46236 22.0407 9.3584 22.0435C10.2661 22.0487 11.1421 21.698 11.8107 21.0617L11.9395 20.9283L12.0539 20.8126L24.1065 8.46448C24.5512 8.00741 25.0786 7.64594 25.6585 7.40083C26.2383 7.15572 26.8592 7.03181 27.4854 7.03622C28.1116 7.04063 28.7308 7.17328 29.3074 7.42653C29.884 7.67978 30.4067 8.04864 30.8453 8.51193Z" fill="url(#paint2_linear_1581_188)"/>
<path d="M30.8453 8.51193L16.2689 23.494L15.5879 24.194C14.716 24.9571 13.6518 25.4459 12.5208 25.6027C11.3898 25.7594 10.2391 25.5777 9.2044 25.0789C8.16974 24.58 7.29426 23.7849 6.68121 22.7872C6.06817 21.7896 5.74312 20.631 5.74441 19.4482C5.74457 19.1804 5.76081 18.913 5.79305 18.6473C5.87279 19.5722 6.28233 20.433 6.94165 21.0616C7.60097 21.6902 8.46269 22.0414 9.35846 22.0465C10.2661 22.0517 11.1421 21.701 11.8108 21.0647L11.9395 20.9313L12.054 20.8156L24.1065 8.46448C24.5514 8.00777 25.0789 7.64663 25.6588 7.40175C26.2386 7.15686 26.8594 7.03307 27.4855 7.03748C28.1116 7.04189 28.7307 7.17441 29.3073 7.42744C29.8838 7.68047 30.4065 8.049 30.8453 8.51193Z" fill="url(#paint3_linear_1581_188)"/>
<defs>
<linearGradient id="paint0_linear_1581_188" x1="1" y1="16.0002" x2="31" y2="16.0002" gradientUnits="userSpaceOnUse">
<stop stop-color="#F15A24"/>
<stop offset="0.04" stop-color="#F26427"/>
<stop offset="0.23" stop-color="#F78731"/>
<stop offset="0.42" stop-color="#FAA239"/>
<stop offset="0.61" stop-color="#FDB53E"/>
<stop offset="0.8" stop-color="#FEC142"/>
<stop offset="1" stop-color="#FFC543"/>
</linearGradient>
<linearGradient id="paint1_linear_1581_188" x1="1" y1="15.9773" x2="31" y2="15.9773" gradientUnits="userSpaceOnUse">
<stop stop-color="#F15A24"/>
<stop offset="0.04" stop-color="#F26427"/>
<stop offset="0.23" stop-color="#F78731"/>
<stop offset="0.42" stop-color="#FAA239"/>
<stop offset="0.61" stop-color="#FDB53E"/>
<stop offset="0.8" stop-color="#FEC142"/>
<stop offset="1" stop-color="#FFC543"/>
</linearGradient>
<linearGradient id="paint2_linear_1581_188" x1="0.600191" y1="19.9405" x2="28.6165" y2="4.25151" gradientUnits="userSpaceOnUse">
<stop stop-color="#F15A24"/>
<stop offset="0.03" stop-color="#F36828"/>
<stop offset="0.12" stop-color="#F78530"/>
<stop offset="0.22" stop-color="#FA9C37"/>
<stop offset="0.33" stop-color="#FCAF3D"/>
<stop offset="0.46" stop-color="#FEBB40"/>
<stop offset="0.63" stop-color="#FFC342"/>
<stop offset="1" stop-color="#FFC543"/>
</linearGradient>
<linearGradient id="paint3_linear_1581_188" x1="11.2269" y1="26.3179" x2="24.336" y2="4.41146" gradientUnits="userSpaceOnUse">
<stop stop-color="#F15A24"/>
<stop offset="0.11" stop-color="#F5772C"/>
<stop offset="0.25" stop-color="#F89335"/>
<stop offset="0.4" stop-color="#FBA93B"/>
<stop offset="0.56" stop-color="#FDB93F"/>
<stop offset="0.74" stop-color="#FFC242"/>
<stop offset="1" stop-color="#FFC543"/>
</linearGradient>
</defs>
</svg>
