<svg width="24" height="25" viewBox="0 0 24 25" fill="none" xmlns="http://www.w3.org/2000/svg">
<path d="M14.7542 7.14792H9.24575C8.9397 7.14792 8.63663 7.20821 8.35391 7.32533C8.07114 7.44245 7.8142 7.61409 7.59781 7.83048C7.38138 8.04691 7.20974 8.30381 7.09262 8.58657C6.9755 8.86934 6.91521 9.17242 6.91521 9.47846V14.9869C6.91521 15.605 7.16077 16.1978 7.59781 16.6348C7.81425 16.8513 8.07114 17.0229 8.35391 17.14C8.63663 17.2572 8.9397 17.3174 9.24575 17.3174H14.7542C15.3723 17.3174 15.9651 17.0719 16.4021 16.6348C16.8392 16.1978 17.0847 15.605 17.0847 14.9869V9.47846C17.0847 9.17242 17.0244 8.86934 16.9073 8.58657C16.7902 8.30385 16.6186 8.04691 16.4021 7.83053C16.1857 7.61409 15.9288 7.44245 15.6461 7.32533C15.3633 7.20821 15.0603 7.14792 14.7542 7.14792ZM12 15.4385C11.366 15.4385 10.7461 15.2505 10.219 14.8982C9.69172 14.546 9.28084 14.0453 9.0382 13.4595C8.79556 12.8737 8.73205 12.2291 8.85575 11.6073C8.97945 10.9854 9.28477 10.4142 9.73314 9.96581C10.1815 9.51749 10.7527 9.21216 11.3746 9.08846C11.9964 8.96477 12.641 9.02822 13.2268 9.27086C13.8126 9.5135 14.3133 9.92443 14.6655 10.4516C15.0178 10.9788 15.2058 11.5986 15.2058 12.2327C15.2058 12.6537 15.1229 13.0705 14.9618 13.4595C14.8007 13.8484 14.5645 14.2019 14.2668 14.4996C13.9691 14.7972 13.6158 15.0334 13.2268 15.1945C12.8379 15.3556 12.421 15.4385 12 15.4385ZM15.3394 9.68174C15.1886 9.68174 15.0411 9.63701 14.9157 9.55325C14.7903 9.46944 14.6925 9.3503 14.6348 9.21096C14.5771 9.07157 14.5619 8.91821 14.5914 8.77027C14.6208 8.62233 14.6934 8.4864 14.8001 8.37974C14.9067 8.27309 15.0427 8.20042 15.1906 8.17099C15.3385 8.14157 15.4919 8.15669 15.6313 8.21438C15.7706 8.27213 15.8898 8.36985 15.9736 8.49528C16.0574 8.62075 16.1021 8.76821 16.1021 8.91902C16.1021 9.12129 16.0218 9.31531 15.8787 9.45835C15.7357 9.60139 15.5417 9.68174 15.3394 9.68174Z" fill="#F79320"/>
<path d="M12 10.149C11.5879 10.149 11.185 10.2713 10.8423 10.5003C10.4996 10.7292 10.2325 11.0547 10.0748 11.4354C9.91709 11.8162 9.87581 12.2352 9.95621 12.6394C10.0366 13.0436 10.2351 13.415 10.5265 13.7064C10.818 13.9978 11.1892 14.1963 11.5935 14.2767C11.9977 14.3571 12.4167 14.3158 12.7975 14.1581C13.1782 14.0004 13.5036 13.7333 13.7327 13.3906C13.9616 13.0479 14.0838 12.645 14.0838 12.2329C14.0838 11.6802 13.8643 11.1502 13.4735 10.7594C13.0827 10.3686 12.5527 10.149 12 10.149Z" fill="#F79320"/>
<path d="M12 0.232788C5.37259 0.232788 0 5.60538 0 12.2328C0 18.8602 5.37259 24.2328 12 24.2328C18.6274 24.2328 24 18.8602 24 12.2328C24 5.60538 18.6274 0.232788 12 0.232788ZM18.25 14.8812C18.2499 15.8364 17.8705 16.7525 17.1951 17.4279C16.5197 18.1033 15.6036 18.4827 14.6484 18.4828H9.35155C8.3964 18.4827 7.48032 18.1033 6.80491 17.4279C6.1295 16.7525 5.75002 15.8364 5.74997 14.8812V9.58434C5.75002 8.62919 6.12946 7.71311 6.80491 7.0377C7.48032 6.36229 8.3964 5.98285 9.35155 5.9828H14.6484C15.6036 5.98285 16.5197 6.36229 17.1951 7.0377C17.8705 7.71311 18.2499 8.62919 18.25 9.58434V14.8812Z" fill="#F79320"/>
</svg>
