<svg width="20" height="20" viewBox="0 0 20 20" fill="none" xmlns="http://www.w3.org/2000/svg">
<path d="M19.4196 0.644217C18.9196 0.133217 18.1796 -0.0557834 17.4896 0.144217L1.39961 4.79322C0.671608 4.99522 0.155608 5.57222 0.0166077 6.30422C-0.125392 7.05022 0.370608 7.99822 1.01861 8.39422L6.04961 11.4662C6.56561 11.7822 7.23161 11.7032 7.65861 11.2752L13.4196 5.51422C13.7096 5.21322 14.1896 5.21322 14.4796 5.51422C14.7696 5.80322 14.7696 6.27422 14.4796 6.57422L8.70861 12.3352C8.28061 12.7632 8.20061 13.4272 8.51561 13.9442L11.5896 18.9942C11.9496 19.5932 12.5696 19.9342 13.2496 19.9342C13.3296 19.9342 13.4196 19.9342 13.4996 19.9232C14.2796 19.8242 14.8996 19.2932 15.1296 18.5432L19.8996 2.57422C20.1096 1.89422 19.9196 1.15422 19.4196 0.644217Z" fill="white"/>
<path d="M4.76342 16.0662C4.57142 16.0662 4.37942 15.9932 4.23342 15.8462C3.94042 15.5532 3.94042 15.0792 4.23342 14.7862L5.59842 13.4202C5.89142 13.1282 6.36642 13.1282 6.65942 13.4202C6.95142 13.7132 6.95142 14.1882 6.65942 14.4812L5.29342 15.8462C5.14742 15.9932 4.95542 16.0662 4.76342 16.0662Z" fill="white"/>
<path d="M1.00268 14.8738C0.81068 14.8738 0.61868 14.8008 0.47268 14.6538C0.17968 14.3608 0.17968 13.8868 0.47268 13.5938L1.83768 12.2278C2.13068 11.9358 2.60568 11.9358 2.89868 12.2278C3.19068 12.5208 3.19068 12.9958 2.89868 13.2888L1.53268 14.6538C1.38668 14.8008 1.19468 14.8738 1.00268 14.8738Z" fill="white"/>
<path d="M5.5476 19.854C5.3556 19.854 5.1636 19.781 5.0176 19.634C4.7246 19.341 4.7246 18.867 5.0176 18.574L6.3826 17.208C6.6756 16.916 7.1506 16.916 7.4436 17.208C7.7356 17.501 7.7356 17.976 7.4436 18.269L6.0776 19.634C5.9316 19.781 5.7396 19.854 5.5476 19.854Z" fill="white"/>
</svg>