<svg width="42" height="49" viewBox="0 0 42 49" fill="none" xmlns="http://www.w3.org/2000/svg">
<path fill-rule="evenodd" clip-rule="evenodd" d="M34.3557 13.2202V16.9769C38.5754 18.2941 41.65 22.114 41.65 26.6766V38.772C41.65 44.4204 36.9672 49 31.1939 49H10.4586C4.68282 49 0 44.4204 0 38.772V26.6766C0 22.114 3.07707 18.2941 7.29435 16.9769V13.2202C7.31925 5.91623 13.3688 0 20.7877 0C28.3061 0 34.3557 5.91623 34.3557 13.2202ZM20.8379 4.26057C25.8917 4.26057 29.9994 8.27776 29.9994 13.2201V16.4485H11.6515V13.1714C11.6764 8.25342 15.7842 4.26057 20.8379 4.26057ZM23.0042 35.4146C23.0042 36.6076 22.0333 37.5571 20.8134 37.5571C19.6184 37.5571 18.6475 36.6076 18.6475 35.4146V30.0096C18.6475 28.841 19.6184 27.8915 20.8134 27.8915C22.0333 27.8915 23.0042 28.841 23.0042 30.0096V35.4146Z" fill="#F89320"/>
</svg>
