<svg width="120" height="40" viewBox="0 0 120 40" fill="none" xmlns="http://www.w3.org/2000/svg">
<path fill-rule="evenodd" clip-rule="evenodd" d="M17.5151 3.0001L17.515 3L1 19.6362L4.94923 23.6144L4.94931 23.6143L14.2839 33.0174L18.2332 29.0392L8.89854 19.6361L17.515 10.9564L26.8496 20.3595L30.7989 16.3813L17.5151 3.00008L17.5151 3.0001Z" fill="url(#paint0_linear_807_3905)"/>
<path fill-rule="evenodd" clip-rule="evenodd" d="M27.3367 25.1901L31.0508 21.4489L35 25.4271L23.5113 37L19.5621 33.0218L23.3875 29.1684L14.2838 19.9979L18.233 16.0197L27.3367 25.1901Z" fill="#D9D9D9"/>
<path fill-rule="evenodd" clip-rule="evenodd" d="M27.3367 25.1901L31.0508 21.4489L35 25.4271L23.5113 37L19.5621 33.0218L23.3875 29.1684L14.2838 19.9979L18.233 16.0197L27.3367 25.1901Z" fill="url(#paint1_linear_807_3905)"/>
<path d="M54.19 26.15V30.5H51.58C49.72 30.5 48.27 30.05 47.23 29.15C46.19 28.23 45.67 26.74 45.67 24.68V18.02H43.63V13.76H45.67V9.68H50.8V13.76H54.16V18.02H50.8V24.74C50.8 25.24 50.92 25.6 51.16 25.82C51.4 26.04 51.8 26.15 52.36 26.15H54.19ZM71.6275 21.86C71.6275 22.34 71.5975 22.84 71.5375 23.36H59.9275C60.0075 24.4 60.3375 25.2 60.9175 25.76C61.5175 26.3 62.2475 26.57 63.1075 26.57C64.3875 26.57 65.2775 26.03 65.7775 24.95H71.2375C70.9575 26.05 70.4475 27.04 69.7075 27.92C68.9875 28.8 68.0775 29.49 66.9775 29.99C65.8775 30.49 64.6475 30.74 63.2875 30.74C61.6475 30.74 60.1875 30.39 58.9075 29.69C57.6275 28.99 56.6275 27.99 55.9075 26.69C55.1875 25.39 54.8275 23.87 54.8275 22.13C54.8275 20.39 55.1775 18.87 55.8775 17.57C56.5975 16.27 57.5975 15.27 58.8775 14.57C60.1575 13.87 61.6275 13.52 63.2875 13.52C64.9075 13.52 66.3475 13.86 67.6075 14.54C68.8675 15.22 69.8475 16.19 70.5475 17.45C71.2675 18.71 71.6275 20.18 71.6275 21.86ZM66.3775 20.51C66.3775 19.63 66.0775 18.93 65.4775 18.41C64.8775 17.89 64.1275 17.63 63.2275 17.63C62.3675 17.63 61.6375 17.88 61.0375 18.38C60.4575 18.88 60.0975 19.59 59.9575 20.51H66.3775ZM72.1138 22.13C72.1138 20.39 72.4638 18.87 73.1638 17.57C73.8838 16.27 74.8738 15.27 76.1338 14.57C77.4138 13.87 78.8738 13.52 80.5138 13.52C82.6138 13.52 84.3638 14.07 85.7638 15.17C87.1838 16.27 88.1138 17.82 88.5538 19.82H83.0938C82.6338 18.54 81.7438 17.9 80.4238 17.9C79.4838 17.9 78.7338 18.27 78.1738 19.01C77.6138 19.73 77.3338 20.77 77.3338 22.13C77.3338 23.49 77.6138 24.54 78.1738 25.28C78.7338 26 79.4838 26.36 80.4238 26.36C81.7438 26.36 82.6338 25.72 83.0938 24.44H88.5538C88.1138 26.4 87.1838 27.94 85.7638 29.06C84.3438 30.18 82.5938 30.74 80.5138 30.74C78.8738 30.74 77.4138 30.39 76.1338 29.69C74.8738 28.99 73.8838 27.99 73.1638 26.69C72.4638 25.39 72.1138 23.87 72.1138 22.13ZM105.878 21.86C105.878 22.34 105.848 22.84 105.788 23.36H94.1779C94.2579 24.4 94.5879 25.2 95.1679 25.76C95.7679 26.3 96.4979 26.57 97.3579 26.57C98.6379 26.57 99.5279 26.03 100.028 24.95H105.488C105.208 26.05 104.698 27.04 103.958 27.92C103.238 28.8 102.328 29.49 101.228 29.99C100.128 30.49 98.8979 30.74 97.5379 30.74C95.8979 30.74 94.4379 30.39 93.1579 29.69C91.8779 28.99 90.8779 27.99 90.1579 26.69C89.4379 25.39 89.0779 23.87 89.0779 22.13C89.0779 20.39 89.4279 18.87 90.1279 17.57C90.8479 16.27 91.8479 15.27 93.1279 14.57C94.4079 13.87 95.8779 13.52 97.5379 13.52C99.1579 13.52 100.598 13.86 101.858 14.54C103.118 15.22 104.098 16.19 104.798 17.45C105.518 18.71 105.878 20.18 105.878 21.86ZM100.628 20.51C100.628 19.63 100.328 18.93 99.7279 18.41C99.1279 17.89 98.3779 17.63 97.4779 17.63C96.6179 17.63 95.8879 17.88 95.2879 18.38C94.7079 18.88 94.3479 19.59 94.2079 20.51H100.628ZM112.514 16.55C113.114 15.63 113.864 14.91 114.764 14.39C115.664 13.85 116.664 13.58 117.764 13.58V19.01H116.354C115.074 19.01 114.114 19.29 113.474 19.85C112.834 20.39 112.514 21.35 112.514 22.73V30.5H107.384V13.76H112.514V16.55Z" fill="#F89320"/>
<defs>
<linearGradient id="paint0_linear_807_3905" x1="-2.40451" y1="27.445" x2="46.5769" y2="22.5295" gradientUnits="userSpaceOnUse">
<stop stop-color="#F15A24"/>
<stop offset="0.174" stop-color="#F36828"/>
<stop offset="0.324" stop-color="#F78530"/>
<stop offset="0.409" stop-color="#FA9C37"/>
<stop offset="0.519" stop-color="#FCAF3D"/>
<stop offset="0.614" stop-color="#FEBB40"/>
<stop offset="0.759" stop-color="#FFC342"/>
<stop offset="1" stop-color="#FFC543"/>
</linearGradient>
<linearGradient id="paint1_linear_807_3905" x1="14.0074" y1="30.2448" x2="35.8465" y2="21.4126" gradientUnits="userSpaceOnUse">
<stop stop-color="#F15A24"/>
<stop offset="0.03" stop-color="#F36828"/>
<stop offset="0.12" stop-color="#F78530"/>
<stop offset="0.22" stop-color="#FA9C37"/>
<stop offset="0.33" stop-color="#FCAF3D"/>
<stop offset="0.46" stop-color="#FEBB40"/>
<stop offset="0.63" stop-color="#FFC342"/>
<stop offset="1" stop-color="#FFC543"/>
</linearGradient>
</defs>
</svg>
