<svg id="Layer_1" data-name="Layer 1" xmlns="http://www.w3.org/2000/svg" xmlns:xlink="http://www.w3.org/1999/xlink" width="312.88" height="175.31" viewBox="0 0 312.88 175.31"><defs><style>.cls-1{font-size:59.42px;font-family:Montserrat-Light, Montserrat;font-weight:300;letter-spacing:-0.08em;}.cls-2{letter-spacing:-0.05em;}.cls-3{letter-spacing:-0.07em;}.cls-4{letter-spacing:-0.05em;}.cls-10,.cls-11,.cls-5,.cls-6,.cls-7,.cls-8,.cls-9{fill:#f79320;font-family:Montserrat-Bold, Montserrat;font-weight:700;}.cls-5{letter-spacing:-0.05em;}.cls-6{letter-spacing:-0.05em;}.cls-7{letter-spacing:-0.05em;}.cls-8{letter-spacing:-0.06em;}.cls-9{letter-spacing:-0.05em;}.cls-10{letter-spacing:-0.05em;}.cls-11{letter-spacing:-0.03em;}.cls-12{fill:url(#linear-gradient);}.cls-13{fill:url(#linear-gradient-2);}.cls-14{fill:url(#linear-gradient-3);}.cls-15{fill:url(#linear-gradient-4);}.cls-16{fill:url(#linear-gradient-5);}</style><linearGradient id="linear-gradient" x1="511.61" y1="445.02" x2="555.17" y2="445.02" gradientUnits="userSpaceOnUse"><stop offset="0" stop-color="#f15a24"/><stop offset="0.04" stop-color="#f26427"/><stop offset="0.23" stop-color="#f78731"/><stop offset="0.42" stop-color="#faa239"/><stop offset="0.61" stop-color="#fdb53e"/><stop offset="0.8" stop-color="#fec142"/><stop offset="1" stop-color="#ffc543"/></linearGradient><linearGradient id="linear-gradient-2" x1="559.01" y1="483.8" x2="603.01" y2="483.8" xlink:href="#linear-gradient"/><linearGradient id="linear-gradient-3" x1="473.06" y1="480.94" x2="590.44" y2="413.17" gradientUnits="userSpaceOnUse"><stop offset="0" stop-color="#f15a24"/><stop offset="0.03" stop-color="#f36828"/><stop offset="0.12" stop-color="#f78530"/><stop offset="0.22" stop-color="#fa9c37"/><stop offset="0.33" stop-color="#fcaf3d"/><stop offset="0.46" stop-color="#febb40"/><stop offset="0.63" stop-color="#ffc342"/><stop offset="1" stop-color="#ffc543"/></linearGradient><linearGradient id="linear-gradient-4" x1="495.05" y1="484.68" x2="546.21" y2="484.68" xlink:href="#linear-gradient"/><linearGradient id="linear-gradient-5" x1="518.48" y1="507.25" x2="571.62" y2="415.22" gradientUnits="userSpaceOnUse"><stop offset="0" stop-color="#f15a24"/><stop offset="0.11" stop-color="#f5772c"/><stop offset="0.25" stop-color="#f89335"/><stop offset="0.4" stop-color="#fba93b"/><stop offset="0.56" stop-color="#fdb93f"/><stop offset="0.74" stop-color="#ffc242"/><stop offset="1" stop-color="#ffc543"/></linearGradient></defs><text class="cls-1" transform="translate(0 159.92)">t<tspan class="cls-2" x="18.79" y="0">e</tspan><tspan class="cls-3" x="51.54" y="0">c</tspan><tspan class="cls-4" x="80.29" y="0">h</tspan><tspan class="cls-5" x="117.28" y="0">c</tspan><tspan class="cls-6" x="149.71" y="0">r</tspan><tspan class="cls-7" x="172.21" y="0">e</tspan><tspan class="cls-8" x="206.63" y="0">a</tspan><tspan class="cls-9" x="240.02" y="0">t</tspan><tspan class="cls-10" x="262.83" y="0">i</tspan><tspan class="cls-11" x="277.76" y="0">x</tspan></text><path class="cls-12" d="M540.7,462.41,511.61,433.7h0a20.31,20.31,0,0,1,28.77-.2l14.79,14.44Z" transform="translate(-383.56 -419.35)"/><path class="cls-13" d="M559,480.55l15,14.92a20.52,20.52,0,0,0,29-.05h0L573.4,466.16Z" transform="translate(-383.56 -419.35)"/><path class="cls-14" d="M602.36,433.81,540,495.6l-2.9,2.88-1.25,1.24-2.12,1.78a35.9,35.9,0,0,1-23.22,8.59h0a35.78,35.78,0,0,1-35.76-35.75l0-44.82a10.19,10.19,0,0,1,20.38,0v8.78l6.55-.05h.07a8.67,8.67,0,0,1,.09,17.33l-6.71.07v18.68h0c0,.43,0,.86.06,1.28a15.36,15.36,0,0,0,15.27,14h0A15.31,15.31,0,0,0,521,485.57c.19-.18.38-.36.56-.55l.49-.48L542,464.85l31.61-31.24A20.33,20.33,0,0,1,602.36,433.81Z" transform="translate(-383.56 -419.35)"/><path class="cls-15" d="M546.21,478.93A25.43,25.43,0,0,1,540,495.6a24.66,24.66,0,0,1-2.9,2.88,25.58,25.58,0,0,1-42.08-19.55,25.92,25.92,0,0,1,.21-3.31,15.36,15.36,0,0,0,15.27,14h0A15.31,15.31,0,0,0,521,485.57c.19-.18.38-.36.56-.55l.49-.48L542,464.85A25.35,25.35,0,0,1,546.21,478.93Z" transform="translate(-383.56 -419.35)"/><path class="cls-16" d="M602.36,433.82,540,495.61l-2.9,2.88a25.58,25.58,0,0,1-42.08-19.55,25.92,25.92,0,0,1,.21-3.31,15.37,15.37,0,0,0,15.27,14h0A15.31,15.31,0,0,0,521,485.58c.19-.18.38-.36.56-.55l.49-.48L542,464.86l31.61-31.24A20.33,20.33,0,0,1,602.36,433.82Z" transform="translate(-383.56 -419.35)"/></svg>