<svg width="148" height="30" viewBox="0 0 148 30" fill="none" xmlns="http://www.w3.org/2000/svg">
<path d="M15.8465 14.3848L9.33984 7.96312C9.75904 7.53695 10.2582 7.19766 10.8087 6.96471C11.3593 6.73175 11.9504 6.6097 12.5481 6.60555C13.1459 6.6014 13.7386 6.71522 14.2923 6.94051C14.8461 7.16579 15.3499 7.49811 15.775 7.91843L19.0836 11.1488L15.8465 14.3848Z" fill="url(#paint0_linear_265_766)"/>
<path d="M19.9414 18.4422L23.3003 21.7799C24.1622 22.6359 25.3282 23.1154 26.5429 23.1135C27.7576 23.1116 28.922 22.6285 29.7812 21.7698L23.1606 15.2241L19.9414 18.4422Z" fill="url(#paint1_linear_265_766)"/>
<path d="M29.6374 7.98772L15.6967 21.8089L15.0475 22.4536L14.7681 22.7307L14.2921 23.1274C12.8441 24.3645 11.003 25.0458 9.09845 25.0493C6.97809 25.0475 4.94505 24.2046 3.44551 22.7055C1.94598 21.2064 1.10246 19.1736 1.1001 17.0532L1.10792 7.02899C1.12111 6.43331 1.36701 5.86648 1.79295 5.44986C2.2189 5.03324 2.79104 4.79996 3.38686 4.79996C3.98268 4.79996 4.55482 5.03324 4.98076 5.44986C5.40671 5.86648 5.65261 6.43331 5.6658 7.02899V8.99115L7.13183 8.98221H7.14524C7.65119 8.99127 8.13352 9.1979 8.48911 9.55793C8.8447 9.91797 9.04532 10.4028 9.0481 10.9089C9.05087 11.4149 8.85557 11.9019 8.50395 12.2658C8.15233 12.6297 7.67229 12.8416 7.16647 12.8562L5.6658 12.8741V17.051C5.6658 17.1471 5.6658 17.2443 5.67809 17.3392C5.75522 18.1926 6.14822 18.9864 6.78008 19.5652C7.41194 20.1439 8.23713 20.4659 9.09398 20.468C9.96269 20.4739 10.8013 20.1501 11.4405 19.5618C11.4819 19.5227 11.5232 19.4824 11.5646 19.44L11.6763 19.3282L16.1325 14.9223L23.2012 7.93632C23.6269 7.51654 24.1311 7.18484 24.6852 6.96019C25.2392 6.73555 25.8321 6.62237 26.4299 6.62715C27.0278 6.63192 27.6188 6.75455 28.1692 6.98802C28.7195 7.22148 29.2185 7.5612 29.6374 7.98772Z" fill="url(#paint2_linear_265_766)"/>
<path d="M17.0788 18.0812C17.0578 19.5851 16.4456 21.0203 15.3747 22.0764C14.3038 23.1325 12.8601 23.7246 11.3561 23.7246C9.85201 23.7246 8.40838 23.1325 7.33744 22.0764C6.2665 21.0203 5.65432 19.5851 5.6333 18.0812C5.63307 17.8339 5.64874 17.5868 5.68024 17.3415C5.75737 18.1949 6.15036 18.9887 6.78223 19.5674C7.41409 20.1462 8.23928 20.4681 9.09613 20.4702C9.96484 20.4762 10.8035 20.1523 11.4427 19.564C11.484 19.5249 11.5254 19.4847 11.5667 19.4422L11.6784 19.3305L16.1346 14.9246C16.7543 15.8604 17.0829 16.9588 17.0788 18.0812Z" fill="url(#paint3_linear_265_766)"/>
<path d="M29.6373 7.9899L15.6966 21.811L15.0474 22.4558C14.2139 23.1596 13.1966 23.6105 12.1154 23.7554C11.0341 23.9003 9.93398 23.733 8.94462 23.2734C7.95526 22.8138 7.1179 22.0809 6.53122 21.1612C5.94454 20.2415 5.633 19.1732 5.6333 18.0823C5.6331 17.8349 5.64878 17.5879 5.68024 17.3425C5.75737 18.1959 6.15036 18.9897 6.78223 19.5685C7.41409 20.1472 8.23928 20.4692 9.09613 20.4713C9.96474 20.4767 10.8032 20.1529 11.4427 19.5651C11.484 19.526 11.5254 19.4846 11.5667 19.4433L11.6784 19.3315L16.1346 14.9267L23.2033 7.94074C23.6288 7.52115 24.1329 7.18955 24.6866 6.96492C25.2404 6.74028 25.8329 6.62701 26.4305 6.63157C27.0281 6.63614 27.6189 6.75845 28.1691 6.99153C28.7194 7.2246 29.2183 7.56386 29.6373 7.9899Z" fill="url(#paint4_linear_265_766)"/>
<path d="M55.76 10.84L52.74 22H48.96L47.2 14.76L45.38 22H41.62L38.58 10.84H42L43.58 18.82L45.46 10.84H49.08L50.98 18.78L52.54 10.84H55.76ZM61.5442 22.16C60.4509 22.16 59.4642 21.9267 58.5842 21.46C57.7176 20.9933 57.0309 20.3267 56.5242 19.46C56.0309 18.5933 55.7842 17.58 55.7842 16.42C55.7842 15.2733 56.0376 14.2667 56.5442 13.4C57.0509 12.52 57.7442 11.8467 58.6242 11.38C59.5042 10.9133 60.4909 10.68 61.5842 10.68C62.6776 10.68 63.6642 10.9133 64.5442 11.38C65.4242 11.8467 66.1176 12.52 66.6242 13.4C67.1309 14.2667 67.3842 15.2733 67.3842 16.42C67.3842 17.5667 67.1242 18.58 66.6042 19.46C66.0976 20.3267 65.3976 20.9933 64.5042 21.46C63.6242 21.9267 62.6376 22.16 61.5442 22.16ZM61.5442 19.2C62.1976 19.2 62.7509 18.96 63.2042 18.48C63.6709 18 63.9042 17.3133 63.9042 16.42C63.9042 15.5267 63.6776 14.84 63.2242 14.36C62.7842 13.88 62.2376 13.64 61.5842 13.64C60.9176 13.64 60.3642 13.88 59.9242 14.36C59.4842 14.8267 59.2642 15.5133 59.2642 16.42C59.2642 17.3133 59.4776 18 59.9042 18.48C60.3442 18.96 60.8909 19.2 61.5442 19.2ZM72.0186 12.7C72.4186 12.0867 72.9186 11.6067 73.5186 11.26C74.1186 10.9 74.7853 10.72 75.5186 10.72V14.34H74.5786C73.7253 14.34 73.0853 14.5267 72.6586 14.9C72.2319 15.26 72.0186 15.9 72.0186 16.82V22H68.5986V10.84H72.0186V12.7ZM83.3733 22L79.9733 17.32V22H76.5533V7.2H79.9733V15.38L83.3533 10.84H87.5733L82.9333 16.44L87.6133 22H83.3733ZM91.7366 12.42C92.0699 11.9 92.5299 11.48 93.1166 11.16C93.7032 10.84 94.3899 10.68 95.1766 10.68C96.0966 10.68 96.9299 10.9133 97.6766 11.38C98.4232 11.8467 99.0099 12.5133 99.4366 13.38C99.8766 14.2467 100.097 15.2533 100.097 16.4C100.097 17.5467 99.8766 18.56 99.4366 19.44C99.0099 20.3067 98.4232 20.98 97.6766 21.46C96.9299 21.9267 96.0966 22.16 95.1766 22.16C94.4032 22.16 93.7166 22 93.1166 21.68C92.5299 21.36 92.0699 20.9467 91.7366 20.44V27.32H88.3166V10.84H91.7366V12.42ZM96.6166 16.4C96.6166 15.5467 96.3766 14.88 95.8966 14.4C95.4299 13.9067 94.8499 13.66 94.1566 13.66C93.4766 13.66 92.8966 13.9067 92.4166 14.4C91.9499 14.8933 91.7166 15.5667 91.7166 16.42C91.7166 17.2733 91.9499 17.9467 92.4166 18.44C92.8966 18.9333 93.4766 19.18 94.1566 19.18C94.8366 19.18 95.4166 18.9333 95.8966 18.44C96.3766 17.9333 96.6166 17.2533 96.6166 16.4ZM106.371 22.16C105.277 22.16 104.291 21.9267 103.411 21.46C102.544 20.9933 101.857 20.3267 101.351 19.46C100.857 18.5933 100.611 17.58 100.611 16.42C100.611 15.2733 100.864 14.2667 101.371 13.4C101.877 12.52 102.571 11.8467 103.451 11.38C104.331 10.9133 105.317 10.68 106.411 10.68C107.504 10.68 108.491 10.9133 109.371 11.38C110.251 11.8467 110.944 12.52 111.451 13.4C111.957 14.2667 112.211 15.2733 112.211 16.42C112.211 17.5667 111.951 18.58 111.431 19.46C110.924 20.3267 110.224 20.9933 109.331 21.46C108.451 21.9267 107.464 22.16 106.371 22.16ZM106.371 19.2C107.024 19.2 107.577 18.96 108.031 18.48C108.497 18 108.731 17.3133 108.731 16.42C108.731 15.5267 108.504 14.84 108.051 14.36C107.611 13.88 107.064 13.64 106.411 13.64C105.744 13.64 105.191 13.88 104.751 14.36C104.311 14.8267 104.091 15.5133 104.091 16.42C104.091 17.3133 104.304 18 104.731 18.48C105.171 18.96 105.717 19.2 106.371 19.2ZM116.845 12.7C117.245 12.0867 117.745 11.6067 118.345 11.26C118.945 10.9 119.612 10.72 120.345 10.72V14.34H119.405C118.552 14.34 117.912 14.5267 117.485 14.9C117.058 15.26 116.845 15.9 116.845 16.82V22H113.425V10.84H116.845V12.7ZM127.6 19.1V22H125.86C124.62 22 123.653 21.7 122.96 21.1C122.267 20.4867 121.92 19.4933 121.92 18.12V13.68H120.56V10.84H121.92V8.12H125.34V10.84H127.58V13.68H125.34V18.16C125.34 18.4933 125.42 18.7333 125.58 18.88C125.74 19.0267 126.007 19.1 126.38 19.1H127.6ZM128.225 16.4C128.225 15.2533 128.438 14.2467 128.865 13.38C129.305 12.5133 129.898 11.8467 130.645 11.38C131.392 10.9133 132.225 10.68 133.145 10.68C133.932 10.68 134.618 10.84 135.205 11.16C135.805 11.48 136.265 11.9 136.585 12.42V10.84H140.005V22H136.585V20.42C136.252 20.94 135.785 21.36 135.185 21.68C134.598 22 133.912 22.16 133.125 22.16C132.218 22.16 131.392 21.9267 130.645 21.46C129.898 20.98 129.305 20.3067 128.865 19.44C128.438 18.56 128.225 17.5467 128.225 16.4ZM136.585 16.42C136.585 15.5667 136.345 14.8933 135.865 14.4C135.398 13.9067 134.825 13.66 134.145 13.66C133.465 13.66 132.885 13.9067 132.405 14.4C131.938 14.88 131.705 15.5467 131.705 16.4C131.705 17.2533 131.938 17.9333 132.405 18.44C132.885 18.9333 133.465 19.18 134.145 19.18C134.825 19.18 135.398 18.9333 135.865 18.44C136.345 17.9467 136.585 17.2733 136.585 16.42ZM145.299 7.2V22H141.879V7.2H145.299Z" fill="#F89320"/>
<defs>
<linearGradient id="paint0_linear_265_766" x1="9.33984" y1="10.4952" x2="19.0836" y2="10.4952" gradientUnits="userSpaceOnUse">
<stop stop-color="#F15A24"/>
<stop offset="0.04" stop-color="#F26427"/>
<stop offset="0.23" stop-color="#F78731"/>
<stop offset="0.42" stop-color="#FAA239"/>
<stop offset="0.61" stop-color="#FDB53E"/>
<stop offset="0.8" stop-color="#FEC142"/>
<stop offset="1" stop-color="#FFC543"/>
</linearGradient>
<linearGradient id="paint1_linear_265_766" x1="19.9414" y1="19.1685" x2="29.7835" y2="19.1685" gradientUnits="userSpaceOnUse">
<stop stop-color="#F15A24"/>
<stop offset="0.04" stop-color="#F26427"/>
<stop offset="0.23" stop-color="#F78731"/>
<stop offset="0.42" stop-color="#FAA239"/>
<stop offset="0.61" stop-color="#FDB53E"/>
<stop offset="0.8" stop-color="#FEC142"/>
<stop offset="1" stop-color="#FFC543"/>
</linearGradient>
<linearGradient id="paint2_linear_265_766" x1="0.715712" y1="18.5304" x2="26.9724" y2="3.37062" gradientUnits="userSpaceOnUse">
<stop stop-color="#F15A24"/>
<stop offset="0.03" stop-color="#F36828"/>
<stop offset="0.12" stop-color="#F78530"/>
<stop offset="0.22" stop-color="#FA9C37"/>
<stop offset="0.33" stop-color="#FCAF3D"/>
<stop offset="0.46" stop-color="#FEBB40"/>
<stop offset="0.63" stop-color="#FFC342"/>
<stop offset="1" stop-color="#FFC543"/>
</linearGradient>
<linearGradient id="paint3_linear_265_766" x1="5.6333" y1="19.3662" x2="17.0788" y2="19.3662" gradientUnits="userSpaceOnUse">
<stop stop-color="#F15A24"/>
<stop offset="0.04" stop-color="#F26427"/>
<stop offset="0.23" stop-color="#F78731"/>
<stop offset="0.42" stop-color="#FAA239"/>
<stop offset="0.61" stop-color="#FDB53E"/>
<stop offset="0.8" stop-color="#FEC142"/>
<stop offset="1" stop-color="#FFC543"/>
</linearGradient>
<linearGradient id="paint4_linear_265_766" x1="10.8761" y1="24.4146" x2="22.7619" y2="3.8287" gradientUnits="userSpaceOnUse">
<stop stop-color="#F15A24"/>
<stop offset="0.11" stop-color="#F5772C"/>
<stop offset="0.25" stop-color="#F89335"/>
<stop offset="0.4" stop-color="#FBA93B"/>
<stop offset="0.56" stop-color="#FDB93F"/>
<stop offset="0.74" stop-color="#FFC242"/>
<stop offset="1" stop-color="#FFC543"/>
</linearGradient>
</defs>
</svg>
