<svg width="16" height="16" viewBox="0 0 16 16" fill="none" xmlns="http://www.w3.org/2000/svg">
<g clip-path="url(#clip0_1176_2076)">
<path fill-rule="evenodd" clip-rule="evenodd" d="M7.7716 0.000343848L7.77126 0L-0.000488281 7.82878L1.85797 9.70088L1.85811 9.70075L6.25096 14.1258L8.10943 12.2537L3.71657 7.82865L7.77131 3.74415L12.1644 8.16946L14.0228 6.29736L7.77165 0.000295742L7.7716 0.000343848Z" fill="url(#paint0_linear_1176_2076)"/>
<path fill-rule="evenodd" clip-rule="evenodd" d="M12.3936 10.4425L14.1413 8.68194L15.9998 10.554L10.5933 16.0001L8.73488 14.128L10.5351 12.3146L6.25098 7.99905L8.10944 6.12695L12.3936 10.4425Z" fill="#D9D9D9"/>
<path fill-rule="evenodd" clip-rule="evenodd" d="M12.3936 10.4425L14.1413 8.68194L15.9998 10.554L10.5933 16.0001L8.73488 14.128L10.5351 12.3146L6.25098 7.99905L8.10944 6.12695L12.3936 10.4425Z" fill="url(#paint1_linear_1176_2076)"/>
</g>
<defs>
<linearGradient id="paint0_linear_1176_2076" x1="-1.60266" y1="11.5035" x2="21.4481" y2="9.19023" gradientUnits="userSpaceOnUse">
<stop stop-color="#F15A24"/>
<stop offset="0.174" stop-color="#F36828"/>
<stop offset="0.324" stop-color="#F78530"/>
<stop offset="0.409" stop-color="#FA9C37"/>
<stop offset="0.519" stop-color="#FCAF3D"/>
<stop offset="0.614" stop-color="#FEBB40"/>
<stop offset="0.759" stop-color="#FFC342"/>
<stop offset="1" stop-color="#FFC543"/>
</linearGradient>
<linearGradient id="paint1_linear_1176_2076" x1="6.12092" y1="12.8211" x2="16.3981" y2="8.66483" gradientUnits="userSpaceOnUse">
<stop stop-color="#F15A24"/>
<stop offset="0.03" stop-color="#F36828"/>
<stop offset="0.12" stop-color="#F78530"/>
<stop offset="0.22" stop-color="#FA9C37"/>
<stop offset="0.33" stop-color="#FCAF3D"/>
<stop offset="0.46" stop-color="#FEBB40"/>
<stop offset="0.63" stop-color="#FFC342"/>
<stop offset="1" stop-color="#FFC543"/>
</linearGradient>
<clipPath id="clip0_1176_2076">
<rect width="16" height="16" fill="white"/>
</clipPath>
</defs>
</svg>
