<svg width="480" height="241" viewBox="0 0 480 241" fill="none" xmlns="http://www.w3.org/2000/svg">
<rect width="480" height="241" fill="#FDE7CE"/>
<path opacity="0.5" d="M167.428 210.126C210.589 230.693 280.566 230.693 323.727 210.126C366.889 189.559 366.883 156.214 323.727 135.631C280.571 115.048 210.589 115.059 167.428 135.631C124.266 156.204 124.272 189.553 167.428 210.126Z" fill="#EBEBEB"/>
<path d="M307.295 171.638C323.766 171.638 337.119 165.274 337.119 157.422C337.119 149.571 323.766 143.206 307.295 143.206C290.824 143.206 277.471 149.571 277.471 157.422C277.471 165.274 290.824 171.638 307.295 171.638Z" fill="#E0E0E0"/>
<path d="M262.193 214.013C254.225 217.813 241.308 217.813 233.34 214.013C225.372 210.212 225.372 204.061 233.34 200.26C241.308 196.459 254.225 196.486 262.193 200.26C270.161 204.034 270.183 210.217 262.193 214.013Z" fill="#E0E0E0"/>
<path d="M155.028 165.514L159.411 162.986C159.411 162.986 161.724 152.672 158.279 139.572C154.834 126.472 144.898 116.676 139.717 118.73C134.536 120.784 134.671 124.66 137.528 128.59C139.901 131.825 147.594 139.696 151.292 148.764C153.495 154.09 154.759 159.757 155.028 165.514Z" fill="#F89320"/>
<path opacity="0.1" d="M155.028 165.514L159.411 162.986C159.411 162.986 161.724 152.672 158.279 139.572C154.834 126.472 144.898 116.676 139.717 118.73C134.536 120.784 134.671 124.66 137.528 128.59C139.901 131.825 147.594 139.696 151.292 148.764C153.495 154.09 154.759 159.757 155.028 165.514Z" fill="black"/>
<path d="M157.362 164.436H157.325C157.255 164.425 157.192 164.388 157.15 164.331C157.107 164.275 157.089 164.204 157.098 164.134C160.09 142.569 146.726 125.135 140.645 121.496C140.609 121.48 140.578 121.458 140.552 121.429C140.526 121.401 140.507 121.367 140.495 121.331C140.483 121.294 140.479 121.255 140.484 121.217C140.488 121.179 140.501 121.142 140.52 121.109C140.54 121.077 140.567 121.048 140.598 121.026C140.63 121.005 140.666 120.99 140.704 120.983C140.741 120.976 140.78 120.977 140.817 120.987C140.855 120.996 140.889 121.013 140.919 121.037C147.092 124.725 160.662 142.392 157.632 164.209C157.621 164.273 157.587 164.33 157.538 164.371C157.489 164.413 157.427 164.436 157.362 164.436Z" fill="white"/>
<path d="M155.028 165.514L148.462 169.288C147.09 168.603 145.605 168.175 144.079 168.026C141.286 167.676 139.426 164.98 139.701 162.97C139.884 161.611 140.321 160.064 140.111 158.689C139.927 157.46 138.736 156.355 137.625 155.923C136.68 155.628 135.693 155.488 134.703 155.508C133.124 155.433 131.469 155.255 130.137 154.43C128.806 153.605 127.824 151.955 128.256 150.43C128.546 149.64 129.017 148.929 129.63 148.354C130.242 147.778 130.738 147.09 131.091 146.327C131.674 144.807 130.644 143.836 129.42 143.13C125.107 140.65 123.166 138.693 124.719 136.817C126.272 134.941 130.536 134.122 134.908 136.418C139.281 138.715 142.909 136.251 145.793 136.736C150.311 137.491 150.575 140.683 150.014 143.454C149.454 146.225 155.044 147.405 156.43 150.732C157.47 153.147 158.322 161.083 155.028 165.514Z" fill="#F89320"/>
<path d="M152.839 167.045C152.77 167.045 152.703 167.018 152.652 166.97C152.602 166.922 152.572 166.856 152.57 166.786C152.031 151.395 132.304 137.971 127.652 137.2C127.617 137.195 127.583 137.183 127.553 137.164C127.522 137.146 127.496 137.122 127.475 137.093C127.454 137.065 127.439 137.032 127.43 136.998C127.422 136.963 127.42 136.928 127.425 136.893C127.439 136.822 127.479 136.76 127.537 136.719C127.595 136.677 127.668 136.661 127.738 136.672C132.639 137.48 152.564 150.802 153.109 166.765C153.11 166.8 153.105 166.836 153.092 166.869C153.08 166.902 153.062 166.933 153.038 166.959C153.013 166.985 152.985 167.006 152.952 167.021C152.92 167.035 152.885 167.044 152.85 167.045H152.839Z" fill="white"/>
<path d="M237.437 194.847C237.221 192.152 235.14 187.548 232.046 184.27C228.951 180.992 224.034 179.418 220.994 180.733C218.163 181.962 218.789 185.758 222.525 188.006C226.261 190.254 231.825 193.003 233.733 197.257L237.421 202.362L237.437 194.847Z" fill="#F89320"/>
<path opacity="0.1" d="M237.437 194.847C237.221 192.152 235.14 187.548 232.046 184.27C228.951 180.992 224.034 179.418 220.994 180.733C218.163 181.962 218.789 185.758 222.525 188.006C226.261 190.254 231.825 193.003 233.733 197.257L237.421 202.362L237.437 194.847Z" fill="black"/>
<path d="M237.437 199.786H237.491C237.539 199.779 237.585 199.763 237.626 199.738C237.668 199.714 237.704 199.682 237.733 199.643C237.762 199.604 237.783 199.56 237.796 199.514C237.808 199.467 237.81 199.418 237.803 199.37C236.461 189.381 226.309 182.431 222.272 181.666C222.224 181.657 222.175 181.657 222.128 181.666C222.08 181.676 222.035 181.695 221.995 181.722C221.955 181.749 221.921 181.784 221.894 181.824C221.868 181.864 221.849 181.91 221.84 181.957C221.831 182.005 221.831 182.053 221.841 182.101C221.85 182.148 221.869 182.193 221.896 182.233C221.923 182.273 221.958 182.308 221.998 182.334C222.039 182.361 222.084 182.379 222.131 182.388C225.905 183.105 235.792 189.979 237.07 199.467C237.083 199.556 237.127 199.636 237.194 199.695C237.262 199.753 237.348 199.785 237.437 199.786Z" fill="white"/>
<path d="M237.038 206.007C236.499 204.524 234.428 202.168 231.264 200.346C227.765 198.325 223.49 197.608 222.379 195.909C221.048 193.861 222.687 191.699 226.121 191.844C229.555 191.99 235.922 196.157 237.442 203.074L237.038 206.007Z" fill="#F89320"/>
<path d="M237.297 204.551H237.367C237.415 204.542 237.461 204.524 237.501 204.497C237.542 204.47 237.577 204.435 237.604 204.394C237.631 204.354 237.65 204.308 237.659 204.26C237.669 204.212 237.668 204.162 237.658 204.115C236.639 198.993 229.215 193.688 224.417 193.467C224.321 193.467 224.227 193.502 224.155 193.567C224.084 193.632 224.039 193.721 224.029 193.818C224.026 193.916 224.062 194.011 224.128 194.084C224.195 194.156 224.287 194.2 224.385 194.206C228.838 194.411 235.992 199.516 236.935 204.26C236.953 204.343 236.998 204.417 237.064 204.47C237.13 204.523 237.212 204.552 237.297 204.551Z" fill="white"/>
<path d="M150.316 169.509C150.005 169.3 149.763 169.004 149.621 168.657C149.479 168.311 149.443 167.93 149.518 167.563L168.635 82.9544C168.865 82.1362 169.384 81.4294 170.096 80.965L283.849 15.3011C284.197 15.1172 284.583 15.0179 284.977 15.0113C285.37 15.0048 285.76 15.0911 286.113 15.2634C286.42 15.4733 286.657 15.7689 286.796 16.1131C286.935 16.4574 286.97 16.8351 286.895 17.1988L267.773 101.807C267.542 102.627 267.021 103.334 266.306 103.796L152.581 169.46C152.234 169.646 151.848 169.747 151.454 169.756C151.061 169.764 150.671 169.679 150.316 169.509Z" fill="#F0F0F0"/>
<path d="M170.824 84.2051L151.707 168.846C151.545 169.568 151.934 169.859 152.58 169.487L266.333 103.823C267.048 103.361 267.569 102.654 267.8 101.834L286.895 17.1988C287.057 16.471 286.669 16.1853 286.022 16.5573L172.269 82.2212C171.565 82.6874 171.052 83.3917 170.824 84.2051Z" fill="#E6E6E6"/>
<path d="M288.281 16.5141C287.926 16.3427 287.537 16.2573 287.143 16.2648C286.75 16.2723 286.364 16.3725 286.016 16.5572L172.263 82.2212C171.933 82.4348 171.668 82.7345 171.496 83.088C171.324 83.4414 171.252 83.8352 171.288 84.2267L186.259 189.025C186.332 189.422 186.483 189.801 186.705 190.139C186.926 190.476 187.212 190.767 187.547 190.993C187.9 191.165 188.289 191.251 188.682 191.244C189.075 191.236 189.46 191.135 189.806 190.949L303.537 125.302C303.868 125.088 304.134 124.787 304.306 124.433C304.478 124.078 304.55 123.683 304.513 123.291L289.591 18.4819C289.515 18.0828 289.36 17.703 289.135 17.365C288.91 17.0269 288.62 16.7376 288.281 16.5141Z" fill="#F0F0F0"/>
<path d="M173.498 85.4936L188.448 190.292C188.451 190.448 188.497 190.6 188.581 190.732C188.665 190.864 188.784 190.969 188.925 191.037C189.066 191.106 189.223 191.133 189.378 191.118C189.534 191.102 189.682 191.044 189.806 190.949L303.537 125.302C303.868 125.088 304.134 124.787 304.306 124.433C304.478 124.078 304.55 123.683 304.513 123.291L289.591 18.4819C289.589 18.3251 289.543 18.172 289.459 18.0396C289.375 17.9072 289.256 17.8007 289.115 17.7319C288.975 17.6632 288.817 17.6349 288.661 17.6502C288.505 17.6656 288.357 17.7239 288.232 17.8188L174.479 83.4827C174.147 83.6961 173.88 83.9964 173.707 84.3509C173.534 84.7055 173.462 85.1007 173.498 85.4936Z" fill="#FAFAFA"/>
<path d="M151.81 168.371L180.922 151.556L181.768 157.648L168.42 165.358C168.42 165.358 164.861 166.619 163.449 166.975C162.036 167.331 151.81 168.371 151.81 168.371Z" fill="#E0E0E0"/>
<path d="M181.784 157.654L186.151 188.275L168.436 165.358L181.784 157.654Z" fill="#E6E6E6"/>
<path d="M185.628 189.294L169.751 168.673C169.488 168.366 169.154 168.126 168.779 167.973C168.404 167.82 167.998 167.759 167.595 167.795L152.748 169.951C151.912 170.041 151.067 169.887 150.316 169.509C149.712 169.164 149.815 168.765 150.543 168.625L167.606 165.342C168.006 165.281 168.414 165.326 168.792 165.47C169.17 165.615 169.504 165.855 169.762 166.166L187.838 190.534C188.281 191.133 188.151 191.332 187.547 190.982C186.82 190.528 186.171 189.958 185.628 189.294Z" fill="#E0E0E0"/>
<path d="M286.922 16.7837C286.92 16.4799 286.843 16.1813 286.698 15.9143C286.554 15.6472 286.345 15.42 286.092 15.2526C285.737 15.0828 285.348 14.9983 284.954 15.0058C284.561 15.0133 284.175 15.1126 283.827 15.2957L170.075 80.9596C169.728 81.177 169.426 81.4588 169.185 81.7899C168.918 82.1342 168.722 82.5282 168.608 82.949L165.913 94.9011L168.102 96.1572L284.199 29.1455L286.895 17.1988C286.921 17.062 286.931 16.9228 286.927 16.7837H286.922Z" fill="#F89320"/>
<path opacity="0.2" d="M286.895 17.1988C287.057 16.471 286.669 16.1853 286.022 16.5573L172.269 82.2212C171.558 82.6846 171.04 83.3892 170.808 84.2051L168.112 96.1573L284.199 29.1455L286.895 17.1988Z" fill="black"/>
<path opacity="0.1" d="M171.396 83.0514C171.128 83.3927 170.933 83.7854 170.824 84.2051L168.128 96.1572L165.94 94.8957L168.635 82.9436C168.749 82.5228 168.945 82.1288 169.212 81.7845L171.396 83.0514Z" fill="black"/>
<path opacity="0.4" d="M286.922 16.7783C286.868 16.374 286.518 16.2392 286.016 16.5573L172.263 82.2158C171.914 82.4322 171.612 82.7163 171.374 83.0514L169.185 81.7845C169.426 81.4535 169.728 81.1716 170.075 80.9543L283.827 15.2903C284.175 15.1072 284.561 15.0079 284.954 15.0005C285.348 14.993 285.737 15.0775 286.092 15.2472C286.345 15.4146 286.554 15.6418 286.698 15.9089C286.843 16.1759 286.92 16.4745 286.922 16.7783Z" fill="white"/>
<path d="M289.704 19.4846L289.591 18.4819C289.582 18.4328 289.572 18.3842 289.558 18.3363C289.56 18.322 289.56 18.3075 289.558 18.2932C289.375 17.5677 288.932 16.9347 288.313 16.5141C287.959 16.3427 287.569 16.2573 287.176 16.2648C286.782 16.2723 286.396 16.3725 286.049 16.5572L172.296 82.2212C171.951 82.4344 171.679 82.7462 171.514 83.1161C171.346 83.4605 171.278 83.8456 171.32 84.2267L173.476 99.241L175.665 100.508L291.709 33.5016L289.704 19.4846Z" fill="#F89320"/>
<path opacity="0.1" d="M175.644 100.503L173.455 99.2356L171.298 84.2213C171.257 83.8402 171.324 83.4551 171.493 83.1107L173.687 84.3723C173.514 84.7155 173.445 85.1012 173.487 85.4828L175.644 100.503Z" fill="black"/>
<path opacity="0.4" d="M289.526 18.2932C289.495 18.1574 289.431 18.0315 289.338 17.9272C289.246 17.8228 289.129 17.7434 288.998 17.6961C288.867 17.6489 288.726 17.6353 288.589 17.6568C288.451 17.6782 288.321 17.7339 288.21 17.8188L174.458 83.4827C174.112 83.6944 173.839 84.0066 173.676 84.3776L171.525 83.1161C171.691 82.7457 171.963 82.4325 172.307 82.2158L286.059 16.5572C286.407 16.3725 286.793 16.2723 287.186 16.2648C287.58 16.2573 287.969 16.3427 288.324 16.5141C288.928 16.9408 289.355 17.5735 289.526 18.2932Z" fill="white"/>
<path d="M205.839 172.927L204.475 163.379C204.475 163.254 204.441 163.131 204.375 163.025C204.309 162.918 204.215 162.832 204.103 162.776C203.991 162.721 203.866 162.697 203.741 162.708C203.616 162.719 203.497 162.765 203.397 162.84L193.483 168.565C193.216 168.736 193.001 168.978 192.863 169.264C192.725 169.549 192.669 169.867 192.701 170.183L194.06 179.752C194.06 179.877 194.095 180 194.16 180.106C194.226 180.213 194.32 180.299 194.432 180.355C194.544 180.411 194.67 180.434 194.794 180.423C194.919 180.412 195.038 180.366 195.138 180.291L205.052 174.566C205.324 174.394 205.543 174.15 205.682 173.86C205.821 173.57 205.876 173.246 205.839 172.927Z" fill="#F89320"/>
<path d="M221.172 164.085L219.808 154.543C219.808 154.418 219.773 154.295 219.707 154.189C219.641 154.082 219.547 153.996 219.435 153.94C219.323 153.884 219.198 153.861 219.073 153.872C218.949 153.883 218.83 153.929 218.73 154.004L208.815 159.724C208.549 159.895 208.334 160.137 208.197 160.423C208.059 160.708 208.002 161.026 208.034 161.341L209.398 170.889C209.398 171.014 209.432 171.137 209.498 171.243C209.564 171.35 209.658 171.436 209.77 171.492C209.882 171.548 210.007 171.571 210.132 171.56C210.257 171.549 210.376 171.503 210.476 171.428L220.39 165.703C220.658 165.532 220.873 165.291 221.011 165.005C221.149 164.719 221.204 164.401 221.172 164.085Z" fill="#EBEBEB"/>
<path d="M236.504 155.244L235.14 145.702C235.14 145.577 235.105 145.454 235.039 145.347C234.974 145.241 234.88 145.155 234.768 145.099C234.656 145.043 234.53 145.019 234.406 145.031C234.281 145.042 234.162 145.088 234.062 145.163L224.142 150.893C223.876 151.065 223.661 151.306 223.523 151.592C223.385 151.877 223.329 152.195 223.361 152.511L224.724 162.058C224.724 162.184 224.759 162.306 224.825 162.413C224.891 162.519 224.985 162.605 225.097 162.661C225.209 162.717 225.334 162.741 225.459 162.73C225.584 162.718 225.703 162.673 225.803 162.598L235.717 156.872C235.987 156.702 236.204 156.459 236.344 156.171C236.483 155.883 236.538 155.562 236.504 155.244Z" fill="#EBEBEB"/>
<path d="M251.853 146.408L250.489 136.86C250.489 136.735 250.454 136.612 250.388 136.506C250.322 136.4 250.228 136.313 250.116 136.258C250.004 136.202 249.879 136.178 249.754 136.189C249.63 136.2 249.511 136.246 249.411 136.321L239.453 142.057C239.186 142.228 238.971 142.469 238.833 142.755C238.695 143.041 238.639 143.359 238.671 143.675L240.035 153.217C240.035 153.342 240.07 153.465 240.136 153.571C240.202 153.678 240.296 153.764 240.408 153.82C240.52 153.876 240.645 153.899 240.77 153.888C240.894 153.877 241.013 153.831 241.114 153.756L251.028 148.036C251.304 147.869 251.528 147.628 251.674 147.34C251.82 147.053 251.882 146.729 251.853 146.408Z" fill="#EBEBEB"/>
<path d="M267.169 137.566L265.805 127.997C265.805 127.872 265.77 127.749 265.704 127.643C265.638 127.537 265.544 127.45 265.432 127.394C265.32 127.339 265.195 127.315 265.07 127.326C264.946 127.337 264.827 127.383 264.727 127.458L254.812 133.184C254.545 133.354 254.33 133.596 254.192 133.881C254.054 134.167 253.998 134.485 254.031 134.801L255.395 144.343C255.395 144.468 255.429 144.591 255.495 144.697C255.561 144.804 255.655 144.89 255.767 144.946C255.879 145.002 256.004 145.026 256.129 145.014C256.254 145.003 256.373 144.957 256.473 144.882L266.409 139.173C266.67 139 266.878 138.759 267.012 138.476C267.146 138.192 267.2 137.878 267.169 137.566Z" fill="#EBEBEB"/>
<path d="M282.501 128.725L281.137 119.177C281.137 119.052 281.102 118.93 281.037 118.823C280.971 118.717 280.877 118.631 280.765 118.575C280.653 118.519 280.528 118.495 280.403 118.506C280.278 118.517 280.159 118.563 280.059 118.638L270.145 124.364C269.877 124.534 269.662 124.776 269.524 125.061C269.386 125.347 269.33 125.665 269.363 125.981L270.722 135.545C270.722 135.67 270.756 135.793 270.822 135.899C270.888 136.006 270.982 136.092 271.094 136.148C271.206 136.204 271.331 136.227 271.456 136.216C271.581 136.205 271.7 136.159 271.8 136.084L281.714 130.359C281.985 130.187 282.202 129.943 282.341 129.654C282.48 129.366 282.536 129.044 282.501 128.725Z" fill="#EBEBEB"/>
<path d="M297.834 119.911L296.47 110.363C296.47 110.238 296.435 110.115 296.369 110.009C296.303 109.902 296.209 109.816 296.097 109.76C295.985 109.704 295.86 109.68 295.735 109.692C295.611 109.703 295.492 109.749 295.391 109.824L285.477 115.549C285.21 115.72 284.995 115.962 284.857 116.247C284.719 116.533 284.663 116.851 284.695 117.166L286.054 126.714C286.056 126.839 286.092 126.96 286.158 127.065C286.224 127.17 286.318 127.256 286.429 127.311C286.541 127.367 286.665 127.391 286.789 127.381C286.913 127.37 287.032 127.326 287.132 127.253L297.046 121.528C297.315 121.358 297.53 121.116 297.669 120.831C297.808 120.545 297.865 120.227 297.834 119.911Z" fill="#EBEBEB"/>
<path d="M203.176 154.247L201.812 144.71C201.81 144.585 201.774 144.464 201.708 144.359C201.642 144.253 201.548 144.168 201.437 144.113C201.326 144.057 201.201 144.033 201.077 144.043C200.953 144.054 200.835 144.098 200.734 144.171L190.82 149.896C190.553 150.067 190.338 150.309 190.2 150.594C190.062 150.88 190.006 151.198 190.038 151.513L191.397 161.061C191.399 161.185 191.435 161.307 191.501 161.412C191.567 161.517 191.661 161.602 191.772 161.658C191.883 161.714 192.008 161.738 192.131 161.727C192.255 161.717 192.374 161.673 192.475 161.6L202.389 155.875C202.657 155.702 202.873 155.459 203.011 155.171C203.15 154.884 203.207 154.564 203.176 154.247Z" fill="#F89320"/>
<path d="M218.509 145.405L217.145 135.858C217.143 135.733 217.107 135.612 217.04 135.507C216.974 135.401 216.88 135.316 216.769 135.261C216.658 135.205 216.534 135.181 216.41 135.191C216.286 135.201 216.167 135.245 216.066 135.318L206.152 141.044C205.885 141.215 205.67 141.456 205.532 141.742C205.394 142.027 205.338 142.346 205.37 142.661L206.729 152.209C206.731 152.333 206.767 152.455 206.833 152.56C206.899 152.665 206.993 152.75 207.104 152.806C207.216 152.861 207.34 152.885 207.464 152.875C207.588 152.865 207.707 152.821 207.807 152.748L217.721 147.023C217.988 146.851 218.202 146.609 218.341 146.324C218.48 146.039 218.538 145.721 218.509 145.405Z" fill="#EBEBEB"/>
<path d="M233.841 136.564L232.477 127.016C232.475 126.892 232.439 126.77 232.373 126.665C232.307 126.56 232.213 126.475 232.102 126.419C231.99 126.364 231.866 126.34 231.742 126.35C231.618 126.36 231.499 126.404 231.399 126.477L221.484 132.202C221.217 132.373 221.003 132.615 220.865 132.9C220.727 133.186 220.671 133.504 220.703 133.82L222.061 143.367C222.063 143.492 222.099 143.613 222.165 143.718C222.232 143.824 222.326 143.909 222.437 143.964C222.548 144.02 222.672 144.044 222.796 144.034C222.92 144.024 223.039 143.98 223.14 143.906L233.054 138.181C233.32 138.009 233.534 137.767 233.673 137.482C233.812 137.197 233.87 136.88 233.841 136.564Z" fill="#EBEBEB"/>
<path d="M249.157 127.722L247.793 118.175C247.791 118.05 247.755 117.929 247.689 117.824C247.623 117.718 247.529 117.633 247.418 117.578C247.307 117.522 247.182 117.498 247.058 117.508C246.934 117.518 246.816 117.562 246.715 117.636L236.811 123.372C236.545 123.543 236.331 123.785 236.193 124.07C236.055 124.356 235.998 124.674 236.03 124.989L237.388 134.537C237.39 134.661 237.426 134.782 237.492 134.888C237.559 134.993 237.652 135.078 237.764 135.134C237.875 135.189 237.999 135.213 238.123 135.203C238.247 135.193 238.366 135.149 238.467 135.076L248.381 129.35C248.647 129.177 248.861 128.933 248.998 128.646C249.135 128.358 249.19 128.039 249.157 127.722Z" fill="#EBEBEB"/>
<path d="M264.506 118.881L263.142 109.339C263.142 109.213 263.107 109.091 263.041 108.984C262.975 108.878 262.881 108.792 262.769 108.736C262.657 108.68 262.532 108.656 262.407 108.667C262.283 108.679 262.164 108.724 262.063 108.799L252.144 114.519C251.877 114.691 251.663 114.933 251.525 115.218C251.387 115.503 251.331 115.821 251.362 116.137L252.721 125.684C252.723 125.809 252.759 125.93 252.825 126.035C252.891 126.141 252.985 126.226 253.096 126.281C253.207 126.337 253.332 126.361 253.456 126.351C253.579 126.341 253.698 126.297 253.799 126.224L263.713 120.487C263.979 120.317 264.194 120.078 264.333 119.795C264.473 119.511 264.533 119.195 264.506 118.881Z" fill="#EBEBEB"/>
<path d="M279.838 110.039L278.474 100.503C278.474 100.377 278.439 100.255 278.373 100.148C278.308 100.042 278.214 99.9558 278.102 99.8998C277.99 99.8438 277.864 99.8201 277.74 99.8314C277.615 99.8426 277.496 99.8883 277.396 99.9634L267.487 105.694C267.219 105.865 267.005 106.106 266.866 106.392C266.728 106.678 266.673 106.996 266.705 107.312L268.064 116.854C268.066 116.978 268.102 117.1 268.168 117.205C268.234 117.31 268.328 117.395 268.439 117.451C268.55 117.506 268.675 117.53 268.799 117.52C268.923 117.51 269.041 117.466 269.142 117.393L279.056 111.668C279.324 111.494 279.538 111.251 279.676 110.964C279.814 110.676 279.87 110.356 279.838 110.039Z" fill="#EBEBEB"/>
<path d="M295.17 101.203L293.806 91.6556C293.806 91.5305 293.772 91.4078 293.706 91.3014C293.64 91.1949 293.546 91.1089 293.434 91.0529C293.322 90.9969 293.197 90.9732 293.072 90.9845C292.947 90.9957 292.828 91.0414 292.728 91.1165L282.809 96.8419C282.542 97.0135 282.329 97.2554 282.192 97.5409C282.055 97.8264 282 98.1443 282.032 98.4592L283.391 108.002C283.393 108.126 283.429 108.247 283.495 108.353C283.561 108.458 283.655 108.543 283.766 108.598C283.877 108.654 284.002 108.678 284.126 108.668C284.25 108.658 284.368 108.614 284.469 108.541L294.383 102.821C294.649 102.648 294.863 102.407 295.002 102.121C295.141 101.836 295.199 101.519 295.17 101.203Z" fill="#EBEBEB"/>
<path d="M200.508 135.545L199.149 125.997C199.147 125.873 199.111 125.751 199.045 125.646C198.979 125.541 198.885 125.456 198.774 125.4C198.662 125.345 198.538 125.321 198.414 125.331C198.29 125.341 198.171 125.385 198.071 125.458L188.146 131.232C187.88 131.404 187.666 131.646 187.529 131.931C187.391 132.216 187.334 132.534 187.364 132.849L188.728 142.392C188.728 142.517 188.763 142.639 188.829 142.746C188.894 142.852 188.989 142.938 189.1 142.994C189.212 143.05 189.338 143.074 189.462 143.063C189.587 143.052 189.706 143.006 189.806 142.931L199.726 137.162C199.993 136.991 200.207 136.749 200.345 136.464C200.483 136.178 200.539 135.86 200.508 135.545Z" fill="#F89320"/>
<path d="M215.84 126.725L214.481 117.177C214.479 117.053 214.443 116.932 214.377 116.826C214.311 116.721 214.217 116.636 214.106 116.58C213.995 116.525 213.87 116.501 213.746 116.511C213.623 116.521 213.504 116.565 213.403 116.638L203.489 122.364C203.223 122.536 203.01 122.778 202.872 123.063C202.734 123.348 202.677 123.666 202.707 123.981L204.071 133.529C204.073 133.653 204.109 133.774 204.175 133.88C204.241 133.985 204.335 134.07 204.447 134.126C204.558 134.181 204.682 134.205 204.806 134.195C204.93 134.185 205.049 134.141 205.149 134.068L215.064 128.342C215.33 128.171 215.543 127.929 215.68 127.643C215.817 127.358 215.873 127.04 215.84 126.725Z" fill="#EBEBEB"/>
<path d="M231.172 117.884L229.814 108.336C229.812 108.211 229.776 108.09 229.71 107.985C229.643 107.88 229.55 107.794 229.438 107.739C229.327 107.683 229.203 107.659 229.079 107.669C228.955 107.68 228.836 107.724 228.736 107.797L218.821 113.522C218.556 113.695 218.343 113.937 218.205 114.222C218.067 114.507 218.01 114.824 218.04 115.139L219.404 124.687C219.405 124.811 219.442 124.933 219.508 125.038C219.574 125.143 219.668 125.228 219.779 125.284C219.89 125.34 220.015 125.364 220.138 125.353C220.262 125.343 220.381 125.299 220.482 125.226L230.396 119.501C230.662 119.329 230.876 119.087 231.013 118.802C231.15 118.516 231.205 118.198 231.172 117.884Z" fill="#EBEBEB"/>
<path d="M246.505 109.042L245.146 99.4944C245.144 99.3701 245.108 99.2486 245.042 99.1434C244.976 99.0381 244.882 98.9531 244.771 98.8974C244.66 98.8418 244.535 98.8178 244.411 98.828C244.287 98.8382 244.169 98.8822 244.068 98.9553L234.154 104.681C233.888 104.853 233.675 105.095 233.537 105.38C233.4 105.665 233.342 105.983 233.372 106.298L234.736 115.846C234.738 115.97 234.774 116.091 234.84 116.197C234.906 116.302 235 116.387 235.111 116.443C235.223 116.498 235.347 116.522 235.471 116.512C235.595 116.502 235.713 116.458 235.814 116.385L245.728 110.659C245.995 110.488 246.208 110.246 246.345 109.96C246.482 109.675 246.537 109.357 246.505 109.042Z" fill="#EBEBEB"/>
<path d="M261.837 100.201L260.478 90.6529C260.477 90.5286 260.44 90.4072 260.374 90.3019C260.308 90.1966 260.214 90.1116 260.103 90.056C259.992 90.0004 259.867 89.9763 259.744 89.9865C259.62 89.9967 259.501 90.0408 259.4 90.1138L249.486 95.8392C249.221 96.0118 249.007 96.2538 248.87 96.5389C248.732 96.8239 248.675 97.1413 248.704 97.4565L250.068 107.004C250.07 107.129 250.106 107.25 250.172 107.355C250.239 107.46 250.332 107.546 250.444 107.601C250.555 107.657 250.679 107.681 250.803 107.671C250.927 107.66 251.046 107.616 251.146 107.543L261.061 101.818C261.327 101.646 261.54 101.404 261.677 101.119C261.814 100.833 261.87 100.516 261.837 100.201Z" fill="#EBEBEB"/>
<path d="M277.191 91.3376L275.832 81.7899C275.83 81.6656 275.794 81.5442 275.728 81.4389C275.662 81.3336 275.568 81.2486 275.457 81.193C275.346 81.1373 275.221 81.1133 275.098 81.1235C274.974 81.1337 274.855 81.1778 274.754 81.2508L264.791 87.0247C264.526 87.1974 264.313 87.4393 264.175 87.7244C264.037 88.0095 263.98 88.3268 264.01 88.642L265.374 98.1897C265.376 98.3141 265.412 98.4355 265.478 98.5407C265.544 98.646 265.638 98.7311 265.749 98.7867C265.86 98.8423 265.985 98.8663 266.109 98.8561C266.232 98.8459 266.351 98.8019 266.452 98.7288L276.388 92.9549C276.659 92.7873 276.878 92.5469 277.02 92.261C277.162 91.9752 277.221 91.6553 277.191 91.3376Z" fill="#EBEBEB"/>
<path d="M292.502 82.5177L291.143 72.9754C291.141 72.8511 291.105 72.7297 291.039 72.6244C290.973 72.5191 290.879 72.4341 290.768 72.3785C290.657 72.3228 290.532 72.2988 290.408 72.309C290.284 72.3192 290.166 72.3632 290.065 72.4363L280.151 78.1563C279.885 78.3285 279.671 78.5704 279.534 78.8556C279.396 79.1408 279.339 79.4583 279.369 79.7736L280.733 89.3213C280.735 89.4456 280.771 89.567 280.837 89.6723C280.903 89.7776 280.997 89.8626 281.108 89.9182C281.22 89.9739 281.344 89.9979 281.468 89.9877C281.592 89.9775 281.711 89.9335 281.811 89.8604L291.747 84.1242C292.008 83.9513 292.216 83.71 292.349 83.4267C292.482 83.1433 292.535 82.8289 292.502 82.5177Z" fill="#EBEBEB"/>
<path d="M197.844 116.881L196.48 107.338C196.48 107.213 196.446 107.091 196.38 106.984C196.314 106.878 196.22 106.792 196.108 106.736C195.996 106.68 195.871 106.656 195.746 106.667C195.621 106.679 195.502 106.724 195.402 106.799L185.488 112.519C185.221 112.691 185.007 112.932 184.869 113.218C184.731 113.503 184.675 113.821 184.706 114.137L186.081 123.684C186.081 123.81 186.116 123.932 186.182 124.039C186.247 124.145 186.341 124.231 186.453 124.287C186.565 124.343 186.691 124.367 186.815 124.356C186.94 124.344 187.059 124.299 187.159 124.223L197.073 118.498C197.339 118.326 197.552 118.084 197.688 117.799C197.824 117.513 197.878 117.195 197.844 116.881Z" fill="#F89320"/>
<path d="M213.177 108.05L211.813 98.5078C211.813 98.3826 211.778 98.26 211.712 98.1535C211.646 98.047 211.552 97.961 211.44 97.905C211.328 97.8491 211.203 97.8254 211.078 97.8366C210.954 97.8479 210.835 97.8936 210.735 97.9687L200.82 103.694C200.553 103.865 200.338 104.106 200.2 104.392C200.062 104.677 200.006 104.996 200.039 105.311L201.403 114.854C201.403 114.979 201.437 115.102 201.503 115.208C201.569 115.314 201.663 115.4 201.775 115.456C201.887 115.512 202.012 115.536 202.137 115.525C202.262 115.514 202.381 115.468 202.481 115.393L212.395 109.667C212.663 109.497 212.877 109.255 213.016 108.97C213.154 108.684 213.209 108.366 213.177 108.05Z" fill="#EBEBEB"/>
<path d="M228.509 99.2033L227.145 89.6556C227.145 89.5304 227.11 89.4078 227.044 89.3013C226.979 89.1948 226.885 89.1088 226.773 89.0528C226.661 88.9969 226.535 88.9732 226.411 88.9844C226.286 88.9957 226.167 89.0414 226.067 89.1165L216.153 94.8418C215.885 95.0123 215.67 95.2539 215.532 95.5395C215.394 95.8252 215.338 96.1436 215.371 96.4592L216.735 106.001C216.735 106.127 216.77 106.249 216.836 106.356C216.901 106.462 216.995 106.548 217.107 106.604C217.219 106.66 217.345 106.684 217.469 106.673C217.594 106.661 217.713 106.616 217.813 106.541L227.727 100.821C227.994 100.649 228.208 100.408 228.346 100.122C228.484 99.8367 228.54 99.5187 228.509 99.2033Z" fill="#EBEBEB"/>
<path d="M243.841 90.3618L242.478 80.8141C242.478 80.6889 242.443 80.5663 242.377 80.4598C242.311 80.3533 242.217 80.2673 242.105 80.2113C241.993 80.1554 241.868 80.1317 241.743 80.1429C241.618 80.1542 241.499 80.1999 241.399 80.275L231.485 86.0004C231.217 86.1708 231.003 86.4124 230.865 86.698C230.726 86.9837 230.671 87.3021 230.703 87.6177L232.062 97.1654C232.064 97.2897 232.1 97.4111 232.166 97.5164C232.232 97.6217 232.326 97.7067 232.437 97.7623C232.548 97.8179 232.673 97.842 232.797 97.8318C232.921 97.8216 233.039 97.7775 233.14 97.7045L243.054 91.9791C243.322 91.8084 243.537 91.567 243.676 91.2816C243.815 90.9961 243.872 90.6777 243.841 90.3618Z" fill="#EBEBEB"/>
<path d="M259.174 81.5203L257.81 71.9727C257.81 71.8475 257.775 71.7248 257.709 71.6184C257.643 71.5119 257.549 71.4259 257.437 71.3699C257.325 71.3139 257.2 71.2903 257.075 71.3015C256.951 71.3127 256.832 71.3585 256.732 71.4335L246.817 77.1589C246.55 77.3294 246.335 77.571 246.197 77.8566C246.059 78.1422 246.003 78.4607 246.036 78.7763L247.394 88.3239C247.396 88.4483 247.432 88.5697 247.498 88.675C247.565 88.7802 247.658 88.8653 247.77 88.9209C247.881 88.9765 248.005 89.0005 248.129 88.9903C248.253 88.9801 248.372 88.9361 248.472 88.8631L258.387 83.1377C258.655 82.9675 258.87 82.7261 259.009 82.4405C259.148 82.155 259.205 81.8364 259.174 81.5203Z" fill="#EBEBEB"/>
<path d="M274.495 72.6789L273.132 63.1312C273.132 63.006 273.097 62.8834 273.031 62.7769C272.965 62.6705 272.871 62.5844 272.759 62.5285C272.647 62.4725 272.522 62.4488 272.397 62.46C272.272 62.4713 272.153 62.517 272.053 62.5921L262.139 68.3175C261.872 68.4884 261.657 68.73 261.519 69.0156C261.381 69.3011 261.325 69.6193 261.357 69.9348L262.721 79.4771C262.723 79.6014 262.759 79.7228 262.825 79.8281C262.892 79.9334 262.985 80.0184 263.097 80.0741C263.208 80.1297 263.332 80.1537 263.456 80.1435C263.58 80.1333 263.699 80.0893 263.799 80.0162L273.714 74.2908C273.98 74.1204 274.194 73.8796 274.332 73.5951C274.47 73.3106 274.526 72.9935 274.495 72.6789Z" fill="#EBEBEB"/>
<path d="M289.839 63.8429L288.475 54.2952C288.475 54.17 288.44 54.0473 288.374 53.9409C288.308 53.8344 288.214 53.7484 288.102 53.6924C287.99 53.6365 287.865 53.6128 287.74 53.624C287.616 53.6352 287.496 53.681 287.396 53.7561L277.482 59.4814C277.215 59.6523 277 59.894 276.862 60.1795C276.724 60.465 276.668 60.7833 276.7 61.0988L278.059 70.6465C278.061 70.7708 278.097 70.8922 278.163 70.9975C278.229 71.1027 278.323 71.1878 278.434 71.2434C278.546 71.299 278.67 71.323 278.794 71.3128C278.918 71.3026 279.037 71.2586 279.137 71.1856L289.051 65.4602C289.32 65.29 289.535 65.0486 289.674 64.763C289.813 64.4775 289.87 64.1589 289.839 63.8429Z" fill="#EBEBEB"/>
<path d="M195.488 100.007L195.143 97.5697C195.143 97.4446 195.109 97.3219 195.043 97.2154C194.977 97.109 194.883 97.023 194.771 96.967C194.659 96.911 194.534 96.8873 194.409 96.8986C194.284 96.9098 194.165 96.9555 194.065 97.0306L184.145 102.767C183.878 102.938 183.664 103.179 183.526 103.465C183.388 103.75 183.332 104.069 183.364 104.384L183.703 106.821C183.705 106.945 183.741 107.067 183.808 107.172C183.874 107.277 183.968 107.362 184.079 107.418C184.19 107.473 184.314 107.497 184.438 107.487C184.562 107.477 184.681 107.433 184.782 107.36L194.707 101.613C194.971 101.442 195.183 101.202 195.321 100.918C195.459 100.635 195.517 100.32 195.488 100.007Z" fill="#E6E6E6"/>
<path d="M210.821 91.1651L210.476 88.7283C210.476 88.6032 210.441 88.4805 210.375 88.374C210.309 88.2676 210.215 88.1815 210.103 88.1256C209.991 88.0696 209.866 88.0459 209.741 88.0571C209.617 88.0684 209.498 88.1141 209.398 88.1892L199.478 93.9254C199.211 94.0963 198.996 94.3379 198.858 94.6234C198.72 94.909 198.664 95.2272 198.696 95.5427L199.036 97.9795C199.038 98.1038 199.074 98.2252 199.14 98.3305C199.206 98.4357 199.3 98.5208 199.411 98.5764C199.522 98.632 199.647 98.6561 199.771 98.6459C199.895 98.6357 200.013 98.5916 200.114 98.5186L210.034 92.7932C210.302 92.6208 210.518 92.3775 210.657 92.0901C210.796 91.8028 210.852 91.4827 210.821 91.1651Z" fill="#E6E6E6"/>
<path d="M226.153 82.3236L225.808 79.8868C225.806 79.7625 225.77 79.6411 225.704 79.5358C225.638 79.4306 225.544 79.3455 225.433 79.2899C225.321 79.2343 225.197 79.2103 225.073 79.2205C224.949 79.2307 224.831 79.2747 224.73 79.3477L214.81 85.0839C214.543 85.2548 214.329 85.4964 214.191 85.782C214.053 86.0675 213.996 86.3857 214.028 86.7012L214.368 89.138C214.368 89.2632 214.403 89.3858 214.469 89.4923C214.535 89.5988 214.629 89.6848 214.741 89.7408C214.853 89.7967 214.978 89.8204 215.103 89.8092C215.227 89.7979 215.346 89.7522 215.446 89.6771L225.366 83.9517C225.635 83.7793 225.85 83.536 225.989 83.2487C226.128 82.9613 226.185 82.6412 226.153 82.3236Z" fill="#E6E6E6"/>
<path d="M241.486 73.4876L241.141 71.0454C241.139 70.921 241.103 70.7996 241.036 70.6944C240.97 70.5891 240.876 70.504 240.765 70.4484C240.654 70.3928 240.53 70.3688 240.406 70.379C240.282 70.3892 240.163 70.4332 240.062 70.5063L230.143 76.2424C229.875 76.4133 229.661 76.655 229.523 76.9405C229.385 77.226 229.329 77.5443 229.361 77.8598L229.701 80.2966C229.701 80.4217 229.735 80.5444 229.801 80.6508C229.867 80.7573 229.961 80.8433 230.073 80.8993C230.185 80.9553 230.31 80.979 230.435 80.9677C230.56 80.9565 230.679 80.9108 230.779 80.8357L240.698 75.1157C240.966 74.9424 241.181 74.6989 241.32 74.4118C241.459 74.1247 241.516 73.805 241.486 73.4876Z" fill="#E6E6E6"/>
<path d="M256.818 64.6461L256.473 62.2039C256.471 62.0796 256.435 61.9582 256.369 61.8529C256.302 61.7476 256.209 61.6626 256.097 61.607C255.986 61.5513 255.862 61.5273 255.738 61.5375C255.614 61.5477 255.495 61.5918 255.395 61.6648L245.475 67.401C245.208 67.5723 244.994 67.814 244.856 68.0995C244.718 68.3849 244.662 68.7029 244.693 69.0183L245.033 71.4551C245.033 71.5802 245.068 71.7029 245.134 71.8094C245.199 71.9158 245.293 72.0019 245.405 72.0578C245.517 72.1138 245.643 72.1375 245.767 72.1263C245.892 72.115 246.011 72.0693 246.111 71.9942L256.031 66.2742C256.298 66.1009 256.513 65.8574 256.652 65.5703C256.791 65.2832 256.848 64.9635 256.818 64.6461Z" fill="#E6E6E6"/>
<path d="M272.15 55.8047L271.805 53.3679C271.805 53.2427 271.77 53.1201 271.705 53.0136C271.639 52.9071 271.545 52.8211 271.433 52.7651C271.321 52.7092 271.195 52.6855 271.071 52.6967C270.946 52.708 270.827 52.7537 270.727 52.8288L260.807 58.5595C260.541 58.7309 260.326 58.9726 260.189 59.258C260.051 59.5435 259.994 59.8614 260.026 60.1769L260.365 62.6191C260.367 62.7434 260.403 62.8648 260.469 62.9701C260.536 63.0753 260.629 63.1604 260.741 63.216C260.852 63.2716 260.976 63.2956 261.1 63.2854C261.224 63.2752 261.343 63.2312 261.443 63.1582L271.363 57.4328C271.631 57.2599 271.847 57.0165 271.985 56.7293C272.124 56.4421 272.181 56.1222 272.15 55.8047Z" fill="#E6E6E6"/>
<path d="M287.477 46.9632L287.138 44.5264C287.138 44.4013 287.103 44.2786 287.037 44.1721C286.971 44.0657 286.877 43.9797 286.765 43.9237C286.653 43.8677 286.528 43.844 286.403 43.8553C286.279 43.8665 286.16 43.9122 286.059 43.9873L276.145 49.7127C275.878 49.8832 275.663 50.1247 275.525 50.4104C275.387 50.696 275.331 51.0145 275.363 51.33L275.703 53.7668C275.705 53.8912 275.741 54.0126 275.807 54.1178C275.873 54.2231 275.967 54.3082 276.078 54.3638C276.19 54.4194 276.314 54.4434 276.438 54.4332C276.562 54.423 276.681 54.379 276.781 54.3059L286.701 48.5806C286.967 48.4085 287.18 48.1665 287.317 47.8811C287.454 47.5958 287.509 47.2781 287.477 46.9632Z" fill="#E6E6E6"/>
<path opacity="0.2" d="M183.924 85.6122C183.876 84.8999 184.023 84.1878 184.35 83.553C184.676 82.9182 185.171 82.385 185.779 82.0109C186.987 81.3155 188.113 81.7953 188.302 83.0892C188.352 83.8023 188.205 84.5154 187.877 85.1506C187.549 85.7857 187.053 86.3184 186.442 86.6904C185.24 87.3859 184.113 86.9061 183.924 85.6122Z" fill="black"/>
<path opacity="0.2" d="M199.273 76.7816C199.223 76.0691 199.37 75.3565 199.697 74.7215C200.024 74.0865 200.519 73.5534 201.128 73.1803C202.335 72.4795 203.462 72.9593 203.651 74.2585C203.7 74.9708 203.553 75.6831 203.225 76.3173C202.897 76.9515 202.401 77.4833 201.791 77.8544C200.583 78.5283 199.456 78.0485 199.273 76.7816Z" fill="black"/>
<path opacity="0.2" d="M214.589 67.9131C214.539 67.2006 214.686 66.4881 215.013 65.8531C215.34 65.2181 215.835 64.685 216.444 64.3119C217.651 63.611 218.783 64.0908 218.967 65.3901C219.016 66.1018 218.87 66.8134 218.543 67.4475C218.216 68.0816 217.721 68.6137 217.112 68.986C215.905 69.6814 214.772 69.2016 214.589 67.9131Z" fill="black"/>
<path opacity="0.2" d="M245.243 50.2141C245.193 49.5016 245.34 48.789 245.667 48.154C245.994 47.519 246.489 46.9859 247.098 46.6128C248.305 45.9173 249.432 46.3972 249.615 47.691C249.668 48.4039 249.522 49.1173 249.195 49.7528C248.868 50.3882 248.372 50.921 247.761 51.2923C246.553 51.9824 245.426 51.5079 245.243 50.2141Z" fill="black"/>
<path opacity="0.2" d="M260.586 41.3618C260.535 40.6492 260.681 39.9362 261.008 39.3009C261.335 38.6657 261.831 38.1328 262.441 37.7606C263.648 37.0597 264.775 37.5395 264.964 38.8388C265.014 39.5519 264.867 40.265 264.539 40.9002C264.211 41.5354 263.714 42.0681 263.104 42.4401C261.896 43.1301 260.77 42.6503 260.586 41.3618Z" fill="black"/>
<path opacity="0.2" d="M275.903 32.515C275.853 31.8025 275.999 31.0899 276.326 30.455C276.653 29.82 277.148 29.2869 277.757 28.9137C278.965 28.2129 280.097 28.6927 280.28 29.992C280.33 30.7037 280.183 31.4153 279.856 32.0494C279.529 32.6834 279.034 33.2156 278.426 33.5878C277.191 34.2833 276.113 33.8035 275.903 32.515Z" fill="black"/>
<path d="M182.339 71.0454C180.722 70.1019 179.137 69.9671 177.93 70.6626C176.722 71.3581 176.053 72.7813 176.053 74.6736C176.064 75.5587 176.195 76.4383 176.442 77.2883L177.401 76.7492C177.229 76.0742 177.138 75.381 177.132 74.6844C177.132 73.1964 177.606 72.102 178.469 71.6061C178.823 71.4084 179.222 71.308 179.628 71.3149C180.392 71.3514 181.135 71.5834 181.784 71.9888C184.652 73.6493 186.987 77.6926 186.987 81.0028C186.988 81.2387 186.976 81.4746 186.949 81.709C186.936 82.1785 186.812 82.6381 186.587 83.0504C186.362 83.4627 186.043 83.8159 185.655 84.0811C185.161 84.3481 184.591 84.4393 184.038 84.3399C183.929 84.6884 183.883 85.0536 183.903 85.4181C184.104 85.4501 184.308 85.4664 184.512 85.4666C185.106 85.474 185.691 85.3213 186.205 85.0246C186.686 84.7227 187.094 84.3174 187.399 83.838C187.704 83.3587 187.898 82.8174 187.968 82.2535C188.04 81.8442 188.077 81.4293 188.076 81.0136C188.081 77.3207 185.504 72.873 182.339 71.0454Z" fill="#F5F5F5"/>
<path d="M197.683 62.1932C196.065 61.2497 194.48 61.1149 193.273 61.8104C192.065 62.5059 191.397 63.9291 191.397 65.8214C191.407 66.7065 191.538 67.5861 191.785 68.4361L192.744 67.897C192.572 67.222 192.482 66.5288 192.475 65.8322C192.475 64.3442 192.949 63.2498 193.812 62.7538C194.166 62.5562 194.566 62.4558 194.971 62.4627C195.736 62.4992 196.478 62.7312 197.127 63.1366C199.995 64.7971 202.33 68.8404 202.33 72.1506C202.331 72.3865 202.319 72.6224 202.292 72.8568C202.279 73.3263 202.155 73.7859 201.93 74.1982C201.705 74.6105 201.386 74.9637 200.998 75.2289C200.504 75.4959 199.934 75.5871 199.381 75.4877C199.272 75.8362 199.226 76.2014 199.246 76.5659C199.448 76.5979 199.651 76.6141 199.855 76.6144C200.449 76.6218 201.034 76.4691 201.548 76.1724C202.029 75.8705 202.437 75.4652 202.742 74.9858C203.047 74.5065 203.242 73.9652 203.311 73.4013C203.384 72.992 203.42 72.5771 203.419 72.1614C203.424 68.4846 200.847 64.0208 197.683 62.1932Z" fill="#F5F5F5"/>
<path d="M212.999 53.3463C211.381 52.4029 209.796 52.2681 208.589 52.9635C207.381 53.659 206.713 55.0823 206.713 56.9745C206.723 57.8597 206.854 58.7392 207.101 59.5892L208.061 59.0501C207.888 58.3751 207.798 57.6819 207.791 56.9853C207.791 55.4974 208.265 54.403 209.128 53.907C209.482 53.7094 209.882 53.6089 210.287 53.6159C211.052 53.6523 211.794 53.8844 212.444 54.2898C215.312 55.9502 217.646 59.9936 217.646 63.3037C217.648 63.5397 217.635 63.7755 217.608 64.01C217.595 64.4794 217.471 64.939 217.246 65.3513C217.021 65.7636 216.702 66.1168 216.314 66.3821C215.82 66.649 215.25 66.7402 214.697 66.6408C214.588 66.9893 214.543 67.3545 214.562 67.7191C214.764 67.7511 214.967 67.7673 215.171 67.7676C215.765 67.775 216.35 67.6223 216.864 67.3255C217.346 67.0237 217.754 66.6183 218.059 66.139C218.363 65.6596 218.558 65.1183 218.627 64.5545C218.7 64.1452 218.736 63.7302 218.735 63.3145C218.74 59.6378 216.163 55.1739 212.999 53.3463Z" fill="#F5F5F5"/>
<path d="M243.658 35.6742C242.041 34.7307 240.456 34.596 239.248 35.2914C238.041 35.9869 237.372 37.4101 237.372 39.3024C237.383 40.1875 237.513 41.0671 237.76 41.9171L238.72 41.378C238.548 40.703 238.457 40.0098 238.45 39.3132C238.45 37.8253 238.925 36.7309 239.787 36.2349C240.141 36.0372 240.541 35.9368 240.946 35.9437C241.711 35.9802 242.454 36.2122 243.103 36.6176C245.971 38.2781 248.305 42.3215 248.305 45.6316C248.307 45.8676 248.294 46.1034 248.268 46.3378C248.254 46.8073 248.13 47.2669 247.905 47.6792C247.681 48.0915 247.361 48.4447 246.974 48.7099C246.479 48.9769 245.909 49.0681 245.356 48.9687C245.248 49.3172 245.202 49.6824 245.222 50.0469C245.423 50.0789 245.627 50.0952 245.831 50.0955C246.425 50.1029 247.009 49.9501 247.524 49.6534C248.005 49.3515 248.413 48.9462 248.718 48.4669C249.023 47.9875 249.217 47.4462 249.287 46.8823C249.359 46.473 249.395 46.0581 249.394 45.6424C249.4 41.9656 246.823 37.5018 243.658 35.6742Z" fill="#F5F5F5"/>
<path d="M259.001 26.8166C257.384 25.8731 255.799 25.7384 254.591 26.4338C253.384 27.1293 252.715 28.5525 252.715 30.4448C252.726 31.3299 252.856 32.2095 253.103 33.0595L254.063 32.5204C253.891 31.8454 253.8 31.1522 253.793 30.4556C253.793 28.9676 254.268 27.8732 255.13 27.3773C255.484 27.1796 255.884 27.0792 256.29 27.0861C257.054 27.1226 257.797 27.3546 258.446 27.76C261.314 29.4205 263.648 33.4638 263.648 36.774C263.65 37.01 263.637 37.2458 263.611 37.4802C263.598 37.9497 263.473 38.4093 263.249 38.8216C263.024 39.2339 262.704 39.5871 262.317 39.8523C261.823 40.1193 261.252 40.2105 260.7 40.1111C260.591 40.4596 260.545 40.8248 260.565 41.1893C260.766 41.2213 260.97 41.2376 261.174 41.2379C261.768 41.2452 262.352 41.0925 262.867 40.7958C263.348 40.4939 263.756 40.0886 264.061 39.6093C264.366 39.1299 264.56 38.5886 264.63 38.0247C264.702 37.6154 264.738 37.2005 264.737 36.7848C264.743 33.1134 262.166 28.6442 259.001 26.8166Z" fill="#F5F5F5"/>
<path d="M274.318 17.9698C272.7 17.0263 271.115 16.8915 269.908 17.587C268.7 18.2824 268.026 19.7057 268.026 21.598C268.037 22.4831 268.167 23.3627 268.414 24.2127L269.374 23.6736C269.202 22.9986 269.111 22.3053 269.104 21.6088C269.104 20.1208 269.579 19.0264 270.441 18.5304C270.795 18.3328 271.195 18.2324 271.6 18.2393C272.365 18.2758 273.107 18.5078 273.757 18.9132C276.625 20.5737 278.959 24.617 278.959 27.9272C278.961 28.1631 278.948 28.399 278.922 28.6334C278.908 29.1028 278.784 29.5625 278.559 29.9748C278.334 30.387 278.015 30.7402 277.628 31.0055C277.133 31.2724 276.563 31.3637 276.01 31.2643C275.901 31.6128 275.856 31.9779 275.876 32.3425C276.077 32.3745 276.281 32.3907 276.485 32.391C277.078 32.3984 277.663 32.2457 278.178 31.9489C278.659 31.6471 279.067 31.2418 279.372 30.7624C279.677 30.2831 279.871 29.7418 279.94 29.1779C280.013 28.7686 280.049 28.3536 280.048 27.9379C280.059 24.2612 277.482 19.7973 274.318 17.9698Z" fill="#F5F5F5"/>
<path d="M290.248 158.188L286.625 164.479C286.387 164.872 286.315 165.344 286.425 165.79C286.535 166.237 286.817 166.621 287.21 166.859C287.604 167.097 288.075 167.169 288.522 167.06C288.968 166.95 289.353 166.667 289.591 166.274L293.235 159.945C293.585 159.341 293.208 158.463 292.389 157.988C291.569 157.514 290.599 157.6 290.248 158.188Z" fill="#455A64"/>
<path d="M319.08 147.109L325.371 150.732C325.565 150.851 325.78 150.931 326.005 150.967C326.229 151.003 326.459 150.993 326.68 150.94C326.901 150.886 327.109 150.788 327.292 150.653C327.475 150.518 327.629 150.348 327.746 150.153C327.862 149.958 327.939 149.741 327.971 149.516C328.003 149.291 327.99 149.061 327.933 148.841C327.875 148.621 327.775 148.415 327.637 148.234C327.499 148.053 327.326 147.902 327.129 147.788L320.8 144.171C320.196 143.82 319.317 144.198 318.843 145.017C318.368 145.836 318.476 146.758 319.08 147.109Z" fill="#455A64"/>
<path d="M326.051 118.746H326.018L310.692 109.899H310.648C307.284 107.985 302.648 108.282 297.532 111.225C287.251 117.156 278.916 131.599 278.916 143.47C278.916 149.4 280.992 153.546 284.34 155.497H284.367L299.694 164.35H299.731C303.095 166.274 307.737 165.967 312.859 163.029C323.134 157.099 331.469 142.656 331.469 130.79C331.469 124.86 329.399 120.698 326.051 118.746Z" fill="#F89320"/>
<path opacity="0.1" d="M299.446 164.172L284.35 155.47H284.318C280.97 153.513 278.9 149.352 278.9 143.443C278.9 138.149 280.56 132.348 283.305 127.021L298.631 135.868C295.882 141.195 294.227 146.996 294.227 152.29C294.238 158.058 296.222 162.166 299.446 164.172Z" fill="black"/>
<path opacity="0.4" d="M326.02 149.118C333.289 136.527 333.29 122.918 326.021 118.722C318.752 114.525 306.966 121.33 299.697 133.921C292.427 146.512 292.427 160.121 299.696 164.318C306.965 168.514 318.75 161.709 326.02 149.118Z" fill="white"/>
<path d="M304.54 161.783C298.653 161.783 298.017 155.131 298.017 152.268C298.017 141.799 305.678 128.547 314.729 123.296C317.037 121.965 319.258 121.264 321.156 121.264C327.043 121.264 327.679 127.916 327.679 130.779C327.679 141.249 320.018 154.5 310.966 159.751C308.654 161.083 306.432 161.783 304.54 161.783Z" fill="#FAFAFA"/>
<path d="M308.729 153.654C308.701 153.659 308.671 153.659 308.643 153.654C308.576 153.629 308.52 153.579 308.489 153.515C308.458 153.451 308.453 153.377 308.476 153.309L312.6 141.529C312.624 141.461 312.673 141.405 312.738 141.374C312.803 141.343 312.877 141.338 312.945 141.362C313.013 141.385 313.069 141.435 313.1 141.5C313.131 141.564 313.136 141.639 313.112 141.707L308.999 153.47C308.981 153.527 308.944 153.575 308.896 153.609C308.847 153.642 308.788 153.658 308.729 153.654Z" fill="#F89320"/>
<path d="M319.037 145.082C318.927 145.084 318.819 145.062 318.719 145.017L312.05 142.133V130.035C312.05 129.821 312.135 129.615 312.287 129.463C312.439 129.312 312.644 129.226 312.859 129.226C313.073 129.226 313.279 129.312 313.431 129.463C313.582 129.615 313.667 129.821 313.667 130.035V141.071L319.36 143.534C319.529 143.61 319.667 143.74 319.751 143.905C319.835 144.069 319.861 144.258 319.823 144.439C319.785 144.619 319.686 144.782 319.543 144.899C319.4 145.016 319.222 145.08 319.037 145.082Z" fill="#37474F"/>
<path d="M312.859 138.995C314.066 138.294 315.047 138.86 315.047 140.257C315.003 141.013 314.781 141.748 314.401 142.403C314.021 143.059 313.493 143.616 312.859 144.03C311.646 144.731 310.664 144.165 310.664 142.764C310.711 142.008 310.933 141.273 311.314 140.619C311.695 139.965 312.224 139.409 312.859 138.995Z" fill="#F89320"/>
<path d="M295.046 130.315C292.405 134.882 287.429 136.952 283.687 134.79C281.493 133.521 279.892 131.432 279.237 128.983C278.582 126.534 278.928 123.925 280.197 121.73C281.466 119.535 283.554 117.935 286.004 117.28C288.453 116.625 291.062 116.97 293.257 118.239C296.987 120.45 297.677 125.744 295.046 130.315Z" fill="#D3781E"/>
<path d="M283.687 134.79C287.429 136.947 292.405 134.882 295.046 130.315C295.637 129.292 296.074 128.188 296.346 127.038C296.195 127.237 291.796 132.844 286.329 131.264C280.765 129.647 279.719 125.372 280.199 121.727C279.57 122.814 279.162 124.014 278.997 125.259C278.831 126.503 278.913 127.768 279.237 128.981C279.561 130.194 280.121 131.332 280.884 132.328C281.648 133.325 282.6 134.162 283.687 134.79Z" fill="#8E4803"/>
<path d="M282.151 120.8L279.315 119.183C279.122 119.063 278.906 118.983 278.682 118.947C278.457 118.912 278.228 118.921 278.007 118.975C277.786 119.029 277.578 119.126 277.395 119.261C277.212 119.396 277.057 119.566 276.941 119.762C276.824 119.957 276.748 120.173 276.716 120.399C276.683 120.624 276.696 120.853 276.754 121.073C276.811 121.293 276.912 121.5 277.05 121.681C277.188 121.861 277.36 122.013 277.558 122.126L280.426 123.787C281.035 124.137 281.914 123.76 282.388 122.94C282.862 122.121 282.755 121.151 282.151 120.8Z" fill="#F89320"/>
<path d="M324.45 107.123L326.067 104.292C326.187 104.099 326.267 103.884 326.302 103.659C326.338 103.435 326.329 103.205 326.275 102.984C326.221 102.763 326.124 102.555 325.989 102.372C325.853 102.189 325.683 102.035 325.488 101.918C325.293 101.802 325.076 101.725 324.851 101.693C324.626 101.661 324.397 101.674 324.177 101.731C323.956 101.789 323.75 101.889 323.569 102.027C323.388 102.165 323.237 102.338 323.123 102.535L321.463 105.403C321.112 106.007 321.463 106.886 322.309 107.36C323.156 107.834 324.094 107.732 324.45 107.123Z" fill="#27DEBF"/>
<path d="M310.751 108.293C311.379 107.204 312.216 106.25 313.213 105.485C314.21 104.72 315.348 104.158 316.562 103.833C317.776 103.508 319.042 103.424 320.288 103.588C321.534 103.752 322.736 104.16 323.824 104.788C324.913 105.417 325.867 106.253 326.632 107.25C327.397 108.247 327.959 109.385 328.284 110.599C328.609 111.813 328.692 113.08 328.528 114.326C328.365 115.572 327.957 116.773 327.328 117.862L310.751 108.293Z" fill="#D3781E"/>
<path d="M325.226 105.807C325.765 106.934 327.231 111.705 325.226 112.891C323.22 114.077 313.958 110.142 313.958 110.142L327.328 117.862C328.442 115.924 328.841 113.657 328.457 111.454C328.073 109.252 326.93 107.254 325.226 105.807Z" fill="#8E4803"/>
<path d="M264.721 133.124C255.179 120.299 252.041 118.87 250.246 118.433L253.394 127.059L259.939 135.453" fill="#FFA8A7"/>
<path d="M249.313 118.293C249.313 118.293 251.34 117.679 254.273 120.552C257.206 123.426 260.743 127.615 260.743 127.615C260.743 127.615 259.788 131.038 256.807 132.1L252.494 127.615L249.313 118.293Z" fill="#F89320"/>
<path opacity="0.1" d="M249.313 118.293C249.313 118.293 251.34 117.679 254.273 120.552C257.206 123.426 260.743 127.615 260.743 127.615C260.743 127.615 259.788 131.038 256.807 132.1L252.494 127.615L249.313 118.293Z" fill="black"/>
<path d="M251.171 111.191C254.116 110.497 255.939 107.546 255.244 104.602C254.549 101.658 251.599 99.8347 248.655 100.53C245.711 101.224 243.887 104.175 244.582 107.119C245.277 110.063 248.227 111.886 251.171 111.191Z" fill="#263238"/>
<path d="M236.801 205.155H240.661V198.551H236.801V205.155Z" fill="#FFA8A7"/>
<path d="M249.384 200.357L253.238 200.486L253.432 193.499L249.578 193.365L249.384 200.357Z" fill="#FFA8A7"/>
<path d="M237.049 146.187V172.878C236.957 173.957 236.175 175.773 235.97 180.286C235.712 185.822 236.558 201.058 236.558 201.058C236.558 201.058 238.364 202.853 240.919 201.058C240.919 201.058 244.343 179.31 245.038 173.827C245.642 169.04 246.656 156.037 246.656 156.037L248.963 175.622C248.963 175.622 248.332 179.218 248.197 181.752C248.063 184.286 249.308 197.834 249.308 197.834C249.933 198.225 250.65 198.444 251.387 198.472C252.124 198.499 252.855 198.333 253.508 197.99C253.508 197.99 256.149 177.693 256.548 175.401C256.947 173.11 255.098 146.182 255.098 146.182L237.049 146.187Z" fill="#37474F"/>
<path d="M240.758 119.528C240.217 119.603 239.685 119.727 239.167 119.9C238.089 120.315 237.62 121.62 237.367 122.768C237.155 123.731 237.048 124.714 237.049 125.701V146.187C239.744 149.13 249.189 150.5 255.098 146.187C255.098 146.187 254.985 128.094 254.559 125.118C253.788 119.954 251.324 118.11 248.834 118.304L242.876 119.156L240.758 119.528Z" fill="#F89320"/>
<path d="M240.445 109.754C240.445 109.754 241.335 113.921 241.69 114.606C241.925 115.026 242.311 115.342 242.769 115.49L242.704 112.552L240.445 109.754Z" fill="#263238"/>
<path d="M241.561 103.775C241.25 103.74 240.936 103.775 240.641 103.879C240.345 103.982 240.078 104.151 239.857 104.373C239.13 105.123 239.539 107.462 240.445 109.764L242.122 109.953L241.561 103.775Z" fill="#263238"/>
<path d="M242.623 109.942C242.283 110.147 241.809 109.5 241.394 109.069C240.979 108.638 239.631 108.045 238.957 109.463C238.283 110.88 239.55 112.821 240.612 113.155C242.445 113.727 242.72 112.552 242.72 112.552L242.86 119.161C243.265 120.048 243.883 120.82 244.659 121.409C245.435 121.998 246.345 122.385 247.308 122.536C250.543 122.973 249.885 120.299 248.817 118.983V116.972C249.634 117.104 250.461 117.147 251.287 117.102C252.634 116.892 253.481 115.829 253.891 114.374C254.548 112.029 254.796 110.142 254.241 105.532C253.626 100.486 247.772 100.432 244.585 102.427C241.399 104.422 242.623 109.942 242.623 109.942Z" fill="#FFA8A7"/>
<path d="M242.623 110.508C242.451 110.508 241.809 109.43 241.394 109.069C240.817 108.53 241.561 103.775 241.561 103.775C241.407 103.364 241.375 102.918 241.471 102.49C241.567 102.062 241.785 101.671 242.1 101.365C242.887 100.492 244.213 100.4 246.472 100.044C247.658 99.8556 249.459 99.5052 250.645 99.3057C252.057 99.0415 253.227 98.7666 254.225 99.6292C254.618 99.9671 254.896 100.419 255.021 100.923C255.146 101.426 255.11 101.956 254.92 102.438C254.817 102.659 254.681 102.863 254.516 103.042C254.23 103.36 254.182 103.791 253.777 103.921C253.777 103.921 252.92 104.697 250.774 104.956C248.798 105.103 246.813 105.065 244.844 104.842C244.219 104.756 244.052 104.956 243.717 106.6C243.432 108.05 243.189 110.498 242.623 110.508Z" fill="#263238"/>
<path d="M241.566 104.147L239.539 103.069C239.603 102.932 239.695 102.81 239.808 102.71C239.92 102.609 240.053 102.533 240.196 102.486C240.339 102.438 240.491 102.421 240.641 102.434C240.791 102.447 240.937 102.49 241.07 102.562C241.339 102.713 241.54 102.962 241.632 103.256C241.724 103.551 241.701 103.869 241.566 104.147Z" fill="#263238"/>
<path d="M248.812 116.972C248.812 116.972 245.809 116.369 244.758 115.808C244.139 115.488 243.632 114.988 243.302 114.374C243.463 114.987 243.743 115.563 244.127 116.067C244.898 117.048 248.812 117.776 248.812 117.776V116.972Z" fill="#F28F8F"/>
<path d="M248.284 109.743C248.279 109.861 248.241 109.976 248.172 110.072C248.103 110.169 248.007 110.243 247.896 110.285C247.786 110.328 247.665 110.336 247.549 110.311C247.434 110.285 247.328 110.226 247.246 110.141C247.164 110.055 247.108 109.948 247.087 109.831C247.065 109.715 247.078 109.595 247.124 109.486C247.171 109.376 247.248 109.283 247.347 109.218C247.446 109.153 247.561 109.118 247.68 109.118C247.761 109.118 247.841 109.135 247.915 109.167C247.99 109.199 248.057 109.245 248.113 109.304C248.169 109.362 248.213 109.431 248.243 109.506C248.272 109.581 248.286 109.662 248.284 109.743Z" fill="#263238"/>
<path d="M247.642 107.473L246.354 108.179C246.263 108.003 246.244 107.798 246.301 107.607C246.357 107.417 246.484 107.255 246.656 107.155C246.741 107.109 246.835 107.081 246.931 107.072C247.027 107.063 247.125 107.074 247.217 107.103C247.309 107.133 247.394 107.181 247.467 107.245C247.541 107.308 247.6 107.386 247.642 107.473Z" fill="#263238"/>
<path d="M248.543 113.355L249.917 113.894C249.888 113.986 249.84 114.072 249.776 114.145C249.713 114.218 249.635 114.278 249.548 114.32C249.461 114.362 249.366 114.386 249.269 114.391C249.172 114.396 249.075 114.381 248.985 114.347C248.89 114.312 248.803 114.258 248.729 114.189C248.656 114.119 248.596 114.036 248.555 113.944C248.514 113.851 248.492 113.752 248.489 113.651C248.487 113.55 248.505 113.449 248.543 113.355Z" fill="#F28F8F"/>
<path d="M253.653 107.975L252.478 107.069C252.533 106.989 252.604 106.921 252.686 106.87C252.769 106.818 252.86 106.784 252.956 106.77C253.052 106.755 253.15 106.76 253.244 106.785C253.338 106.809 253.426 106.853 253.502 106.913C253.659 107.036 253.763 107.216 253.791 107.413C253.819 107.611 253.77 107.812 253.653 107.975Z" fill="#263238"/>
<path d="M253.292 109.576C253.294 109.656 253.279 109.736 253.249 109.811C253.22 109.886 253.176 109.954 253.119 110.012C253.063 110.069 252.996 110.115 252.922 110.147C252.848 110.178 252.769 110.195 252.688 110.196C252.564 110.2 252.44 110.167 252.335 110.101C252.229 110.034 252.145 109.938 252.095 109.824C252.044 109.71 252.029 109.583 252.051 109.46C252.073 109.337 252.132 109.224 252.219 109.134C252.306 109.045 252.418 108.984 252.54 108.958C252.662 108.933 252.789 108.945 252.905 108.992C253.02 109.04 253.119 109.121 253.188 109.225C253.257 109.329 253.293 109.451 253.292 109.576Z" fill="#263238"/>
<path d="M250.03 108.449L250.23 112.072L252.122 111.425L250.03 108.449Z" fill="#F28F8F"/>
<path d="M240.655 203.252V202.713C241.027 202.869 241.884 206.147 243.416 207.565C244.634 208.675 246.294 209.953 246.715 211.193C247.135 212.433 244.402 213.193 243.265 212.988C241.944 212.757 239.653 211.824 239.081 210.961C238.51 210.099 238.235 208.805 237.766 208.196C237.297 207.586 236.224 206.859 235.97 206.125C235.894 205.442 235.969 204.75 236.191 204.098C236.369 203.419 236.563 202.67 236.795 202.734C236.795 202.815 236.795 203.155 236.795 203.155C237.347 203.584 238.027 203.814 238.725 203.807C239.291 203.797 240.661 203.683 240.655 203.252Z" fill="#263238"/>
<path d="M253.276 199.3C253.481 199.3 253.643 199.591 254.085 200.071C254.746 200.733 255.513 201.279 256.354 201.689C257.799 202.416 260.608 203.527 261.88 204.098C262.673 204.46 262.635 205.419 261.815 205.964C260.996 206.508 259.012 206.902 256.635 206.368C255.335 206.082 253.648 204.88 252.58 204.945C251.513 205.01 249.513 204.999 248.726 204.454C247.939 203.91 248.251 202.751 248.472 201.759C248.715 200.68 249.065 199.004 249.427 199.063V199.408C249.896 200.109 252.257 200.395 253.276 199.883V199.3Z" fill="#263238"/>
<path d="M246.656 156.031C248.657 155.413 250.497 154.362 252.047 152.953C252.047 152.953 251.012 154.894 247.928 156.7L247.993 167.218L246.656 156.031Z" fill="#263238"/>
<path d="M239.34 155.869C238.704 155.33 238.305 154.635 237.345 153.929C236.65 153.499 236.068 152.909 235.647 152.209C235.108 151.303 234.569 148.284 234.407 145.416C234.311 142.213 234.761 139.017 235.739 135.965C237.049 132.348 239.706 127.496 240.591 125.447C241.475 123.399 241 122.369 240.208 121.328C239.281 120.11 237.561 120.105 235.938 122.881C233.776 126.74 232.051 130.829 230.795 135.07C229.948 138.244 229.633 141.536 229.862 144.812C230.04 147.847 230.703 150.166 231.555 153.082C231.792 153.875 231.765 154.522 232.035 156.09C232.106 156.746 232.273 157.387 232.531 157.994C232.896 158.722 233.363 159.395 233.916 159.994C234.618 160.753 235.509 161.312 236.499 161.611C237.043 161.773 237.617 161.804 238.175 161.703C238.737 161.601 239.243 161.303 239.604 160.862C239.68 160.774 239.732 160.668 239.755 160.554C239.753 160.353 239.674 160.16 239.534 160.015C238.768 159.118 238.048 158.182 237.377 157.212C236.882 156.376 236.644 155.713 236.838 155.751C237.032 155.789 237.286 156.29 238.008 156.743C238.731 157.196 239.626 157.179 239.836 156.775C240.046 156.371 239.992 156.419 239.34 155.869Z" fill="#FFA8A7"/>
<path d="M239.604 119.776C238.062 119.867 236.66 120.212 235.119 123.269C233.577 126.326 231.156 132.051 231.156 132.051C231.74 133.097 232.596 133.965 233.634 134.564C234.671 135.163 235.851 135.47 237.049 135.453C237.049 135.453 240.596 128.046 241.173 126.094C241.75 124.143 242.149 120.989 239.604 119.776Z" fill="#F89320"/>
<path opacity="0.1" d="M239.604 119.776C238.062 119.867 236.66 120.212 235.119 123.269C233.577 126.326 231.156 132.051 231.156 132.051C231.74 133.097 232.596 133.965 233.634 134.564C234.671 135.163 235.851 135.47 237.049 135.453C237.049 135.453 240.596 128.046 241.173 126.094C241.75 124.143 242.149 120.989 239.604 119.776Z" fill="black"/>
<path d="M259.939 135.453C259.589 136.478 256.225 139.599 253.75 140.591C253.164 140.793 252.534 140.83 251.928 140.699C251.348 140.455 250.724 140.334 250.095 140.343C249.373 140.408 248.64 140.548 247.912 140.634C247.76 140.639 247.611 140.676 247.475 140.742C247.033 140.985 247.286 141.356 247.637 141.491C248.202 141.695 248.78 141.859 249.367 141.982V142.138C247.862 142.664 246.291 142.98 244.699 143.076C244.416 143.079 244.141 143.174 243.917 143.346C243.825 143.448 243.761 143.572 243.73 143.706C243.699 143.84 243.702 143.979 243.739 144.111C243.814 144.374 243.943 144.618 244.116 144.828C244.766 145.812 245.777 146.499 246.931 146.742C248.096 146.831 249.268 146.685 250.375 146.311C250.911 146.16 251.439 145.993 251.96 145.81C253.486 145.248 254.972 144.583 256.408 143.82C259.483 142.206 262.335 140.2 264.894 137.852C266.446 136.337 266.064 134.882 264.759 133.124" fill="#FFA8A7"/>
<path d="M253.389 140.688C253.389 140.688 253.928 140.489 254.543 141.475C255.157 142.462 255.546 144.262 254.775 144.618C255.04 144.633 255.305 144.579 255.543 144.461C255.781 144.343 255.985 144.165 256.133 143.944C256.292 143.241 256.248 142.508 256.008 141.829C255.767 141.15 255.34 140.552 254.775 140.106C254.256 140.117 253.76 140.325 253.389 140.688Z" fill="#37474F"/>
<path d="M256.241 141.049C256.356 141.244 256.411 141.469 256.398 141.696C256.385 141.922 256.306 142.139 256.169 142.32C256.032 142.501 255.845 142.637 255.63 142.711C255.416 142.785 255.185 142.794 254.966 142.736C254.746 142.678 254.549 142.556 254.4 142.386C254.25 142.216 254.154 142.005 254.124 141.781C254.094 141.556 254.132 141.327 254.233 141.124C254.333 140.921 254.492 140.752 254.688 140.639C254.949 140.488 255.258 140.447 255.549 140.524C255.84 140.6 256.089 140.789 256.241 141.049Z" fill="#27DEBF"/>
<path d="M255.977 141.2C256.061 141.344 256.1 141.51 256.09 141.676C256.079 141.843 256.02 142.002 255.918 142.134C255.817 142.267 255.679 142.366 255.521 142.42C255.363 142.473 255.193 142.479 255.032 142.436C254.871 142.392 254.726 142.302 254.617 142.177C254.507 142.051 254.437 141.896 254.416 141.731C254.395 141.565 254.423 141.397 254.498 141.248C254.572 141.099 254.689 140.975 254.834 140.893C254.929 140.838 255.034 140.802 255.143 140.788C255.252 140.773 255.363 140.781 255.469 140.809C255.575 140.838 255.675 140.887 255.762 140.954C255.849 141.021 255.922 141.105 255.977 141.2Z" fill="#FAFAFA"/>
</svg>
