<svg width="1440" height="780" viewBox="0 0 1440 780" fill="none" xmlns="http://www.w3.org/2000/svg">
<g clip-path="url(#clip0_613_3804)">
<rect width="1440" height="780" fill="#F89320"/>
<path d="M1371.68 768.108L1208.85 605.281C1202.62 599.051 1192.52 599.051 1186.29 605.281L1186.28 605.287C1180.05 611.518 1180.05 621.619 1186.28 627.849L1349.11 790.676C1355.34 796.906 1365.44 796.906 1371.67 790.676L1371.68 790.669C1377.91 784.439 1377.91 774.338 1371.68 768.108Z" stroke="white" stroke-width="2" stroke-miterlimit="10"/>
<path d="M1459.9 768.282L1382.99 691.377C1376.76 685.146 1366.66 685.146 1360.43 691.377L1360.42 691.383C1354.19 697.614 1354.19 707.715 1360.42 713.945L1437.33 790.85C1443.56 797.08 1453.66 797.08 1459.89 790.85L1459.9 790.843C1466.13 784.613 1466.13 774.512 1459.9 768.282Z" stroke="white" stroke-width="2" stroke-miterlimit="10"/>
<g opacity="0.5">
<path d="M1499.38 -149.627C1497.4 -150.867 1495.38 -152.054 1493.38 -153.201L1253.8 86.3914C1254.95 88.4047 1256.12 90.3913 1257.36 92.3912L1499.38 -149.627Z" fill="white"/>
<path d="M1488.22 -156.001C1486.11 -157.112 1483.98 -158.169 1481.83 -159.174L1247.8 74.8451C1248.81 76.9962 1249.87 79.125 1250.97 81.2316L1488.22 -156.001Z" fill="white"/>
<path d="M1476.34 -161.681C1474.1 -162.654 1471.82 -163.574 1469.54 -164.44L1242.55 62.552C1243.44 64.8364 1244.36 67.103 1245.31 69.3519L1476.34 -161.681Z" fill="white"/>
<path d="M1519.67 -134.868C1517.89 -136.335 1516.12 -137.761 1514.34 -139.148L1267.84 107.417C1269.17 109.204 1270.67 110.964 1272.13 112.75L1519.67 -134.868Z" fill="white"/>
<path d="M1528.91 -126.535C1527.28 -128.108 1525.63 -129.651 1523.96 -131.162L1275.83 116.977C1277.34 118.648 1278.88 120.297 1280.45 121.923L1528.91 -126.535Z" fill="white"/>
<path d="M1509.86 -142.574C1508 -143.925 1506.12 -145.259 1504.22 -146.574L1260.49 97.1644C1261.75 99.0754 1263.07 100.955 1264.43 102.804L1509.86 -142.574Z" fill="white"/>
<path d="M1463.67 -166.56C1461.27 -167.387 1458.85 -168.16 1456.42 -168.88L1238.12 49.446C1238.82 51.8726 1239.59 54.2903 1240.43 56.6991L1463.67 -166.56Z" fill="white"/>
<path d="M1537.52 -117.602C1536.02 -119.282 1534.47 -120.922 1532.9 -122.548L1284.44 125.91C1286.07 127.483 1287.72 129.03 1289.39 130.523L1537.52 -117.602Z" fill="white"/>
<path d="M1420.02 -175.52C1416.99 -175.76 1413.95 -175.907 1410.91 -175.987L1231 3.99413C1231.08 7.03403 1231.24 10.0695 1231.47 13.1005L1420.02 -175.52Z" fill="white"/>
<path d="M1435.67 -173.64C1432.89 -174.093 1430.1 -174.489 1427.3 -174.827L1232.16 20.3135C1232.5 23.1134 1232.9 25.9045 1233.36 28.6866L1435.67 -173.64Z" fill="white"/>
<path d="M1450.17 -170.587C1447.58 -171.245 1444.99 -171.84 1442.39 -172.374L1234.61 35.4063C1235.15 38.0106 1235.74 40.6017 1236.4 43.1794L1450.17 -170.587Z" fill="white"/>
<path d="M1582.34 -4.55238C1582.26 -7.59228 1582.1 -10.6322 1581.87 -13.6721L1393.33 174.895C1396.35 175.122 1399.39 175.282 1402.43 175.348L1582.34 -4.55238Z" fill="white"/>
<path d="M1545.51 -108.002C1544.18 -109.789 1542.68 -111.536 1541.22 -113.335L1293.65 134.23C1295.4 135.696 1297.16 137.136 1298.98 138.523L1545.51 -108.002Z" fill="white"/>
<path d="M1581.84 13.4871C1582.11 10.1272 1582.28 6.76736 1582.35 3.40747L1410.35 175.402C1413.71 175.34 1417.07 175.171 1420.43 174.895L1581.84 13.4871Z" fill="white"/>
<path d="M1579.07 33.8064C1579.82 30.0199 1580.43 26.2111 1580.92 22.3801L1429.37 173.935C1433.19 173.429 1437.01 172.815 1440.79 172.069L1579.07 33.8064Z" fill="white"/>
<path d="M1581.19 -20.9385C1580.86 -23.7384 1580.46 -26.5383 1579.99 -29.3115L1377.68 173.002C1380.46 173.473 1383.25 173.868 1386.05 174.188L1581.19 -20.9385Z" fill="white"/>
<path d="M1559.55 -87.0163C1558.4 -89.0296 1557.23 -91.0162 1555.99 -93.0161L1313.97 149.003C1315.94 150.229 1317.97 151.416 1319.97 152.562L1559.55 -87.0163Z" fill="white"/>
<path d="M1578.74 -36.0047C1578.2 -38.6713 1577.6 -41.2046 1576.95 -43.7778L1363.18 169.948C1365.77 170.615 1368.36 171.202 1370.96 171.748L1578.74 -36.0047Z" fill="white"/>
<path d="M1552.86 -97.8694C1551.59 -99.7627 1550.26 -101.638 1548.86 -103.496L1303.49 141.936C1305.35 143.296 1307.23 144.607 1309.13 145.869L1552.86 -97.8694Z" fill="white"/>
<path d="M1565.55 -75.47C1564.54 -77.6211 1563.48 -79.7544 1562.38 -81.8699L1325.13 155.389C1327.24 156.5 1329.37 157.558 1331.52 158.562L1565.55 -75.47Z" fill="white"/>
<path d="M1570.8 -63.1771C1569.91 -65.4704 1568.99 -67.7414 1568.04 -69.9902L1337.01 161.042C1339.25 162.015 1341.53 162.935 1343.81 163.815L1570.8 -63.1771Z" fill="white"/>
<path d="M1575.23 -50.0709C1574.52 -52.5152 1573.75 -54.9329 1572.92 -57.324L1349.66 165.935C1352.06 166.749 1354.49 167.535 1356.92 168.242L1575.23 -50.0709Z" fill="white"/>
</g>
<path opacity="0.5" d="M-17.0065 945.987C91.2378 945.987 178.987 858.238 178.987 749.994C178.987 641.749 91.2378 554 -17.0065 554C-125.251 554 -213 641.749 -213 749.994C-213 858.238 -125.251 945.987 -17.0065 945.987Z" stroke="#E37C07" stroke-width="60" stroke-miterlimit="10"/>
<path opacity="0.5" d="M152.5 656C186.466 656 214 628.466 214 594.5C214 560.534 186.466 533 152.5 533C118.534 533 91 560.534 91 594.5C91 628.466 118.534 656 152.5 656Z" stroke="white" stroke-width="20" stroke-miterlimit="10"/>
<path d="M122.956 115.864L-50.8656 -57.9576C-57.5164 -64.6085 -68.2995 -64.6085 -74.9503 -57.9576L-74.9576 -57.9503C-81.6085 -51.2995 -81.6085 -40.5164 -74.9576 -33.8656L98.8644 139.956C105.515 146.607 116.298 146.607 122.949 139.956L122.956 139.949C129.607 133.298 129.607 122.515 122.956 115.864Z" stroke="white" stroke-width="2" stroke-miterlimit="10"/>
<path d="M217.136 116.051L135.037 33.952C128.386 27.3012 117.603 27.3012 110.953 33.952L110.945 33.9593C104.294 40.6102 104.294 51.3933 110.945 58.0441L193.044 140.143C199.694 146.793 210.478 146.793 217.128 140.143L217.136 140.135C223.787 133.484 223.787 122.701 217.136 116.051Z" stroke="white" stroke-width="2" stroke-miterlimit="10"/>
<path d="M864.479 102.958C865.848 102.958 866.958 101.848 866.958 100.479C866.958 99.1099 865.848 98 864.479 98C863.11 98 862 99.1099 862 100.479C862 101.848 863.11 102.958 864.479 102.958Z" fill="white"/>
<path d="M881.005 102.958C882.375 102.958 883.484 101.848 883.484 100.479C883.484 99.1099 882.375 98 881.005 98C879.636 98 878.526 99.1099 878.526 100.479C878.526 101.848 879.636 102.958 881.005 102.958Z" fill="white"/>
<path d="M897.532 102.958C898.901 102.958 900.011 101.848 900.011 100.479C900.011 99.1099 898.901 98 897.532 98C896.163 98 895.053 99.1099 895.053 100.479C895.053 101.848 896.163 102.958 897.532 102.958Z" fill="white"/>
<path d="M914.058 102.958C915.428 102.958 916.537 101.848 916.537 100.479C916.537 99.1099 915.428 98 914.058 98C912.689 98 911.579 99.1099 911.579 100.479C911.579 101.848 912.689 102.958 914.058 102.958Z" fill="white"/>
<path d="M930.585 102.958C931.954 102.958 933.064 101.848 933.064 100.479C933.064 99.1099 931.954 98 930.585 98C929.216 98 928.106 99.1099 928.106 100.479C928.106 101.848 929.216 102.958 930.585 102.958Z" fill="white"/>
<path d="M947.111 102.958C948.48 102.958 949.59 101.848 949.59 100.479C949.59 99.1099 948.48 98 947.111 98C945.742 98 944.632 99.1099 944.632 100.479C944.632 101.848 945.742 102.958 947.111 102.958Z" fill="white"/>
<path d="M864.479 119.484C865.848 119.484 866.958 118.375 866.958 117.005C866.958 115.636 865.848 114.526 864.479 114.526C863.11 114.526 862 115.636 862 117.005C862 118.375 863.11 119.484 864.479 119.484Z" fill="white"/>
<path d="M881.005 119.484C882.375 119.484 883.484 118.375 883.484 117.005C883.484 115.636 882.375 114.526 881.005 114.526C879.636 114.526 878.526 115.636 878.526 117.005C878.526 118.375 879.636 119.484 881.005 119.484Z" fill="white"/>
<path d="M897.532 119.484C898.901 119.484 900.011 118.375 900.011 117.005C900.011 115.636 898.901 114.526 897.532 114.526C896.163 114.526 895.053 115.636 895.053 117.005C895.053 118.375 896.163 119.484 897.532 119.484Z" fill="white"/>
<path d="M914.058 119.484C915.428 119.484 916.537 118.375 916.537 117.005C916.537 115.636 915.428 114.526 914.058 114.526C912.689 114.526 911.579 115.636 911.579 117.005C911.579 118.375 912.689 119.484 914.058 119.484Z" fill="white"/>
<path d="M930.585 119.484C931.954 119.484 933.064 118.375 933.064 117.005C933.064 115.636 931.954 114.526 930.585 114.526C929.216 114.526 928.106 115.636 928.106 117.005C928.106 118.375 929.216 119.484 930.585 119.484Z" fill="white"/>
<path d="M947.111 119.484C948.48 119.484 949.59 118.375 949.59 117.005C949.59 115.636 948.48 114.526 947.111 114.526C945.742 114.526 944.632 115.636 944.632 117.005C944.632 118.375 945.742 119.484 947.111 119.484Z" fill="white"/>
<path d="M864.479 136.011C865.848 136.011 866.958 134.901 866.958 133.532C866.958 132.163 865.848 131.053 864.479 131.053C863.11 131.053 862 132.163 862 133.532C862 134.901 863.11 136.011 864.479 136.011Z" fill="white"/>
<path d="M881.005 136.011C882.375 136.011 883.484 134.901 883.484 133.532C883.484 132.163 882.375 131.053 881.005 131.053C879.636 131.053 878.526 132.163 878.526 133.532C878.526 134.901 879.636 136.011 881.005 136.011Z" fill="white"/>
<path d="M897.532 136.011C898.901 136.011 900.011 134.901 900.011 133.532C900.011 132.163 898.901 131.053 897.532 131.053C896.163 131.053 895.053 132.163 895.053 133.532C895.053 134.901 896.163 136.011 897.532 136.011Z" fill="white"/>
<path d="M914.058 136.011C915.428 136.011 916.537 134.901 916.537 133.532C916.537 132.163 915.428 131.053 914.058 131.053C912.689 131.053 911.579 132.163 911.579 133.532C911.579 134.901 912.689 136.011 914.058 136.011Z" fill="white"/>
<path d="M930.585 136.011C931.954 136.011 933.064 134.901 933.064 133.532C933.064 132.163 931.954 131.053 930.585 131.053C929.216 131.053 928.106 132.163 928.106 133.532C928.106 134.901 929.216 136.011 930.585 136.011Z" fill="white"/>
<path d="M947.111 136.011C948.48 136.011 949.59 134.901 949.59 133.532C949.59 132.163 948.48 131.053 947.111 131.053C945.742 131.053 944.632 132.163 944.632 133.532C944.632 134.901 945.742 136.011 947.111 136.011Z" fill="white"/>
<path d="M864.479 152.537C865.848 152.537 866.958 151.428 866.958 150.058C866.958 148.689 865.848 147.579 864.479 147.579C863.11 147.579 862 148.689 862 150.058C862 151.428 863.11 152.537 864.479 152.537Z" fill="white"/>
<path d="M881.005 152.537C882.375 152.537 883.484 151.428 883.484 150.058C883.484 148.689 882.375 147.579 881.005 147.579C879.636 147.579 878.526 148.689 878.526 150.058C878.526 151.428 879.636 152.537 881.005 152.537Z" fill="white"/>
<path d="M897.532 152.537C898.901 152.537 900.011 151.428 900.011 150.058C900.011 148.689 898.901 147.579 897.532 147.579C896.163 147.579 895.053 148.689 895.053 150.058C895.053 151.428 896.163 152.537 897.532 152.537Z" fill="white"/>
<path d="M914.058 152.537C915.428 152.537 916.537 151.428 916.537 150.058C916.537 148.689 915.428 147.579 914.058 147.579C912.689 147.579 911.579 148.689 911.579 150.058C911.579 151.428 912.689 152.537 914.058 152.537Z" fill="white"/>
<path d="M930.585 152.537C931.954 152.537 933.064 151.428 933.064 150.058C933.064 148.689 931.954 147.579 930.585 147.579C929.216 147.579 928.106 148.689 928.106 150.058C928.106 151.428 929.216 152.537 930.585 152.537Z" fill="white"/>
<path d="M947.111 152.537C948.48 152.537 949.59 151.428 949.59 150.058C949.59 148.689 948.48 147.579 947.111 147.579C945.742 147.579 944.632 148.689 944.632 150.058C944.632 151.428 945.742 152.537 947.111 152.537Z" fill="white"/>
<path d="M864.479 169.064C865.848 169.064 866.958 167.954 866.958 166.585C866.958 165.216 865.848 164.106 864.479 164.106C863.11 164.106 862 165.216 862 166.585C862 167.954 863.11 169.064 864.479 169.064Z" fill="white"/>
<path d="M881.005 169.064C882.375 169.064 883.484 167.954 883.484 166.585C883.484 165.216 882.375 164.106 881.005 164.106C879.636 164.106 878.526 165.216 878.526 166.585C878.526 167.954 879.636 169.064 881.005 169.064Z" fill="white"/>
<path d="M897.532 169.064C898.901 169.064 900.011 167.954 900.011 166.585C900.011 165.216 898.901 164.106 897.532 164.106C896.163 164.106 895.053 165.216 895.053 166.585C895.053 167.954 896.163 169.064 897.532 169.064Z" fill="white"/>
<path d="M914.058 169.064C915.428 169.064 916.537 167.954 916.537 166.585C916.537 165.216 915.428 164.106 914.058 164.106C912.689 164.106 911.579 165.216 911.579 166.585C911.579 167.954 912.689 169.064 914.058 169.064Z" fill="white"/>
<path d="M930.585 169.064C931.954 169.064 933.064 167.954 933.064 166.585C933.064 165.216 931.954 164.106 930.585 164.106C929.216 164.106 928.106 165.216 928.106 166.585C928.106 167.954 929.216 169.064 930.585 169.064Z" fill="white"/>
<path d="M947.111 169.064C948.48 169.064 949.59 167.954 949.59 166.585C949.59 165.216 948.48 164.106 947.111 164.106C945.742 164.106 944.632 165.216 944.632 166.585C944.632 167.954 945.742 169.064 947.111 169.064Z" fill="white"/>
<path d="M864.479 185.59C865.848 185.59 866.958 184.48 866.958 183.111C866.958 181.742 865.848 180.632 864.479 180.632C863.11 180.632 862 181.742 862 183.111C862 184.48 863.11 185.59 864.479 185.59Z" fill="white"/>
<path d="M881.005 185.59C882.375 185.59 883.484 184.48 883.484 183.111C883.484 181.742 882.375 180.632 881.005 180.632C879.636 180.632 878.526 181.742 878.526 183.111C878.526 184.48 879.636 185.59 881.005 185.59Z" fill="white"/>
<path d="M897.532 185.59C898.901 185.59 900.011 184.48 900.011 183.111C900.011 181.742 898.901 180.632 897.532 180.632C896.163 180.632 895.053 181.742 895.053 183.111C895.053 184.48 896.163 185.59 897.532 185.59Z" fill="white"/>
<path d="M914.058 185.59C915.428 185.59 916.537 184.48 916.537 183.111C916.537 181.742 915.428 180.632 914.058 180.632C912.689 180.632 911.579 181.742 911.579 183.111C911.579 184.48 912.689 185.59 914.058 185.59Z" fill="white"/>
<path d="M930.585 185.59C931.954 185.59 933.064 184.48 933.064 183.111C933.064 181.742 931.954 180.632 930.585 180.632C929.216 180.632 928.106 181.742 928.106 183.111C928.106 184.48 929.216 185.59 930.585 185.59Z" fill="white"/>
<path d="M947.111 185.59C948.48 185.59 949.59 184.48 949.59 183.111C949.59 181.742 948.48 180.632 947.111 180.632C945.742 180.632 944.632 181.742 944.632 183.111C944.632 184.48 945.742 185.59 947.111 185.59Z" fill="white"/>
<path d="M864.479 202.117C865.848 202.117 866.958 201.007 866.958 199.638C866.958 198.269 865.848 197.159 864.479 197.159C863.11 197.159 862 198.269 862 199.638C862 201.007 863.11 202.117 864.479 202.117Z" fill="white"/>
<path d="M881.005 202.117C882.375 202.117 883.484 201.007 883.484 199.638C883.484 198.269 882.375 197.159 881.005 197.159C879.636 197.159 878.526 198.269 878.526 199.638C878.526 201.007 879.636 202.117 881.005 202.117Z" fill="white"/>
<path d="M897.532 202.117C898.901 202.117 900.011 201.007 900.011 199.638C900.011 198.269 898.901 197.159 897.532 197.159C896.163 197.159 895.053 198.269 895.053 199.638C895.053 201.007 896.163 202.117 897.532 202.117Z" fill="white"/>
<path d="M914.058 202.117C915.428 202.117 916.537 201.007 916.537 199.638C916.537 198.269 915.428 197.159 914.058 197.159C912.689 197.159 911.579 198.269 911.579 199.638C911.579 201.007 912.689 202.117 914.058 202.117Z" fill="white"/>
<path d="M930.585 202.117C931.954 202.117 933.064 201.007 933.064 199.638C933.064 198.269 931.954 197.159 930.585 197.159C929.216 197.159 928.106 198.269 928.106 199.638C928.106 201.007 929.216 202.117 930.585 202.117Z" fill="white"/>
<path d="M947.111 202.117C948.48 202.117 949.59 201.007 949.59 199.638C949.59 198.269 948.48 197.159 947.111 197.159C945.742 197.159 944.632 198.269 944.632 199.638C944.632 201.007 945.742 202.117 947.111 202.117Z" fill="white"/>
<path d="M864.479 218.643C865.848 218.643 866.958 217.533 866.958 216.164C866.958 214.795 865.848 213.685 864.479 213.685C863.11 213.685 862 214.795 862 216.164C862 217.533 863.11 218.643 864.479 218.643Z" fill="white"/>
<path d="M881.005 218.643C882.375 218.643 883.484 217.533 883.484 216.164C883.484 214.795 882.375 213.685 881.005 213.685C879.636 213.685 878.526 214.795 878.526 216.164C878.526 217.533 879.636 218.643 881.005 218.643Z" fill="white"/>
<path d="M897.532 218.643C898.901 218.643 900.011 217.533 900.011 216.164C900.011 214.795 898.901 213.685 897.532 213.685C896.163 213.685 895.053 214.795 895.053 216.164C895.053 217.533 896.163 218.643 897.532 218.643Z" fill="white"/>
<path d="M914.058 218.643C915.428 218.643 916.537 217.533 916.537 216.164C916.537 214.795 915.428 213.685 914.058 213.685C912.689 213.685 911.579 214.795 911.579 216.164C911.579 217.533 912.689 218.643 914.058 218.643Z" fill="white"/>
<path d="M930.585 218.643C931.954 218.643 933.064 217.533 933.064 216.164C933.064 214.795 931.954 213.685 930.585 213.685C929.216 213.685 928.106 214.795 928.106 216.164C928.106 217.533 929.216 218.643 930.585 218.643Z" fill="white"/>
<path d="M947.111 218.643C948.48 218.643 949.59 217.533 949.59 216.164C949.59 214.795 948.48 213.685 947.111 213.685C945.742 213.685 944.632 214.795 944.632 216.164C944.632 217.533 945.742 218.643 947.111 218.643Z" fill="white"/>
<path d="M864.479 235.17C865.848 235.17 866.958 234.06 866.958 232.691C866.958 231.322 865.848 230.212 864.479 230.212C863.11 230.212 862 231.322 862 232.691C862 234.06 863.11 235.17 864.479 235.17Z" fill="white"/>
<path d="M881.005 235.17C882.375 235.17 883.484 234.06 883.484 232.691C883.484 231.322 882.375 230.212 881.005 230.212C879.636 230.212 878.526 231.322 878.526 232.691C878.526 234.06 879.636 235.17 881.005 235.17Z" fill="white"/>
<path d="M897.532 235.17C898.901 235.17 900.011 234.06 900.011 232.691C900.011 231.322 898.901 230.212 897.532 230.212C896.163 230.212 895.053 231.322 895.053 232.691C895.053 234.06 896.163 235.17 897.532 235.17Z" fill="white"/>
<path d="M914.058 235.17C915.428 235.17 916.537 234.06 916.537 232.691C916.537 231.322 915.428 230.212 914.058 230.212C912.689 230.212 911.579 231.322 911.579 232.691C911.579 234.06 912.689 235.17 914.058 235.17Z" fill="white"/>
<path d="M930.585 235.17C931.954 235.17 933.064 234.06 933.064 232.691C933.064 231.322 931.954 230.212 930.585 230.212C929.216 230.212 928.106 231.322 928.106 232.691C928.106 234.06 929.216 235.17 930.585 235.17Z" fill="white"/>
<path d="M947.111 235.17C948.48 235.17 949.59 234.06 949.59 232.691C949.59 231.322 948.48 230.212 947.111 230.212C945.742 230.212 944.632 231.322 944.632 232.691C944.632 234.06 945.742 235.17 947.111 235.17Z" fill="white"/>
<path d="M481.479 553.958C482.848 553.958 483.958 552.848 483.958 551.479C483.958 550.11 482.848 549 481.479 549C480.11 549 479 550.11 479 551.479C479 552.848 480.11 553.958 481.479 553.958Z" fill="white"/>
<path d="M498.005 553.958C499.375 553.958 500.484 552.848 500.484 551.479C500.484 550.11 499.375 549 498.005 549C496.636 549 495.526 550.11 495.526 551.479C495.526 552.848 496.636 553.958 498.005 553.958Z" fill="white"/>
<path d="M514.532 553.958C515.901 553.958 517.011 552.848 517.011 551.479C517.011 550.11 515.901 549 514.532 549C513.163 549 512.053 550.11 512.053 551.479C512.053 552.848 513.163 553.958 514.532 553.958Z" fill="white"/>
<path d="M531.058 553.958C532.428 553.958 533.537 552.848 533.537 551.479C533.537 550.11 532.428 549 531.058 549C529.689 549 528.579 550.11 528.579 551.479C528.579 552.848 529.689 553.958 531.058 553.958Z" fill="white"/>
<path d="M547.585 553.958C548.954 553.958 550.064 552.848 550.064 551.479C550.064 550.11 548.954 549 547.585 549C546.216 549 545.106 550.11 545.106 551.479C545.106 552.848 546.216 553.958 547.585 553.958Z" fill="white"/>
<path d="M564.111 553.958C565.48 553.958 566.59 552.848 566.59 551.479C566.59 550.11 565.48 549 564.111 549C562.742 549 561.632 550.11 561.632 551.479C561.632 552.848 562.742 553.958 564.111 553.958Z" fill="white"/>
<path d="M481.479 570.484C482.848 570.484 483.958 569.375 483.958 568.005C483.958 566.636 482.848 565.526 481.479 565.526C480.11 565.526 479 566.636 479 568.005C479 569.375 480.11 570.484 481.479 570.484Z" fill="white"/>
<path d="M498.005 570.484C499.375 570.484 500.484 569.375 500.484 568.005C500.484 566.636 499.375 565.526 498.005 565.526C496.636 565.526 495.526 566.636 495.526 568.005C495.526 569.375 496.636 570.484 498.005 570.484Z" fill="white"/>
<path d="M514.532 570.484C515.901 570.484 517.011 569.375 517.011 568.005C517.011 566.636 515.901 565.526 514.532 565.526C513.163 565.526 512.053 566.636 512.053 568.005C512.053 569.375 513.163 570.484 514.532 570.484Z" fill="white"/>
<path d="M531.058 570.484C532.428 570.484 533.537 569.375 533.537 568.005C533.537 566.636 532.428 565.526 531.058 565.526C529.689 565.526 528.579 566.636 528.579 568.005C528.579 569.375 529.689 570.484 531.058 570.484Z" fill="white"/>
<path d="M547.585 570.484C548.954 570.484 550.064 569.375 550.064 568.005C550.064 566.636 548.954 565.526 547.585 565.526C546.216 565.526 545.106 566.636 545.106 568.005C545.106 569.375 546.216 570.484 547.585 570.484Z" fill="white"/>
<path d="M564.111 570.484C565.48 570.484 566.59 569.375 566.59 568.005C566.59 566.636 565.48 565.526 564.111 565.526C562.742 565.526 561.632 566.636 561.632 568.005C561.632 569.375 562.742 570.484 564.111 570.484Z" fill="white"/>
<path d="M481.479 587.011C482.848 587.011 483.958 585.901 483.958 584.532C483.958 583.163 482.848 582.053 481.479 582.053C480.11 582.053 479 583.163 479 584.532C479 585.901 480.11 587.011 481.479 587.011Z" fill="white"/>
<path d="M498.005 587.011C499.375 587.011 500.484 585.901 500.484 584.532C500.484 583.163 499.375 582.053 498.005 582.053C496.636 582.053 495.526 583.163 495.526 584.532C495.526 585.901 496.636 587.011 498.005 587.011Z" fill="white"/>
<path d="M514.532 587.011C515.901 587.011 517.011 585.901 517.011 584.532C517.011 583.163 515.901 582.053 514.532 582.053C513.163 582.053 512.053 583.163 512.053 584.532C512.053 585.901 513.163 587.011 514.532 587.011Z" fill="white"/>
<path d="M531.058 587.011C532.428 587.011 533.537 585.901 533.537 584.532C533.537 583.163 532.428 582.053 531.058 582.053C529.689 582.053 528.579 583.163 528.579 584.532C528.579 585.901 529.689 587.011 531.058 587.011Z" fill="white"/>
<path d="M547.585 587.011C548.954 587.011 550.064 585.901 550.064 584.532C550.064 583.163 548.954 582.053 547.585 582.053C546.216 582.053 545.106 583.163 545.106 584.532C545.106 585.901 546.216 587.011 547.585 587.011Z" fill="white"/>
<path d="M564.111 587.011C565.48 587.011 566.59 585.901 566.59 584.532C566.59 583.163 565.48 582.053 564.111 582.053C562.742 582.053 561.632 583.163 561.632 584.532C561.632 585.901 562.742 587.011 564.111 587.011Z" fill="white"/>
<path d="M481.479 603.537C482.848 603.537 483.958 602.428 483.958 601.058C483.958 599.689 482.848 598.579 481.479 598.579C480.11 598.579 479 599.689 479 601.058C479 602.428 480.11 603.537 481.479 603.537Z" fill="white"/>
<path d="M498.005 603.537C499.375 603.537 500.484 602.428 500.484 601.058C500.484 599.689 499.375 598.579 498.005 598.579C496.636 598.579 495.526 599.689 495.526 601.058C495.526 602.428 496.636 603.537 498.005 603.537Z" fill="white"/>
<path d="M514.532 603.537C515.901 603.537 517.011 602.428 517.011 601.058C517.011 599.689 515.901 598.579 514.532 598.579C513.163 598.579 512.053 599.689 512.053 601.058C512.053 602.428 513.163 603.537 514.532 603.537Z" fill="white"/>
<path d="M531.058 603.537C532.428 603.537 533.537 602.428 533.537 601.058C533.537 599.689 532.428 598.579 531.058 598.579C529.689 598.579 528.579 599.689 528.579 601.058C528.579 602.428 529.689 603.537 531.058 603.537Z" fill="white"/>
<path d="M547.585 603.537C548.954 603.537 550.064 602.428 550.064 601.058C550.064 599.689 548.954 598.579 547.585 598.579C546.216 598.579 545.106 599.689 545.106 601.058C545.106 602.428 546.216 603.537 547.585 603.537Z" fill="white"/>
<path d="M564.111 603.537C565.48 603.537 566.59 602.428 566.59 601.058C566.59 599.689 565.48 598.579 564.111 598.579C562.742 598.579 561.632 599.689 561.632 601.058C561.632 602.428 562.742 603.537 564.111 603.537Z" fill="white"/>
<path d="M481.479 620.064C482.848 620.064 483.958 618.954 483.958 617.585C483.958 616.216 482.848 615.106 481.479 615.106C480.11 615.106 479 616.216 479 617.585C479 618.954 480.11 620.064 481.479 620.064Z" fill="white"/>
<path d="M498.005 620.064C499.375 620.064 500.484 618.954 500.484 617.585C500.484 616.216 499.375 615.106 498.005 615.106C496.636 615.106 495.526 616.216 495.526 617.585C495.526 618.954 496.636 620.064 498.005 620.064Z" fill="white"/>
<path d="M514.532 620.064C515.901 620.064 517.011 618.954 517.011 617.585C517.011 616.216 515.901 615.106 514.532 615.106C513.163 615.106 512.053 616.216 512.053 617.585C512.053 618.954 513.163 620.064 514.532 620.064Z" fill="white"/>
<path d="M531.058 620.064C532.428 620.064 533.537 618.954 533.537 617.585C533.537 616.216 532.428 615.106 531.058 615.106C529.689 615.106 528.579 616.216 528.579 617.585C528.579 618.954 529.689 620.064 531.058 620.064Z" fill="white"/>
<path d="M547.585 620.064C548.954 620.064 550.064 618.954 550.064 617.585C550.064 616.216 548.954 615.106 547.585 615.106C546.216 615.106 545.106 616.216 545.106 617.585C545.106 618.954 546.216 620.064 547.585 620.064Z" fill="white"/>
<path d="M564.111 620.064C565.48 620.064 566.59 618.954 566.59 617.585C566.59 616.216 565.48 615.106 564.111 615.106C562.742 615.106 561.632 616.216 561.632 617.585C561.632 618.954 562.742 620.064 564.111 620.064Z" fill="white"/>
<path d="M481.479 636.59C482.848 636.59 483.958 635.48 483.958 634.111C483.958 632.742 482.848 631.632 481.479 631.632C480.11 631.632 479 632.742 479 634.111C479 635.48 480.11 636.59 481.479 636.59Z" fill="white"/>
<path d="M498.005 636.59C499.375 636.59 500.484 635.48 500.484 634.111C500.484 632.742 499.375 631.632 498.005 631.632C496.636 631.632 495.526 632.742 495.526 634.111C495.526 635.48 496.636 636.59 498.005 636.59Z" fill="white"/>
<path d="M514.532 636.59C515.901 636.59 517.011 635.48 517.011 634.111C517.011 632.742 515.901 631.632 514.532 631.632C513.163 631.632 512.053 632.742 512.053 634.111C512.053 635.48 513.163 636.59 514.532 636.59Z" fill="white"/>
<path d="M531.058 636.59C532.428 636.59 533.537 635.48 533.537 634.111C533.537 632.742 532.428 631.632 531.058 631.632C529.689 631.632 528.579 632.742 528.579 634.111C528.579 635.48 529.689 636.59 531.058 636.59Z" fill="white"/>
<path d="M547.585 636.59C548.954 636.59 550.064 635.48 550.064 634.111C550.064 632.742 548.954 631.632 547.585 631.632C546.216 631.632 545.106 632.742 545.106 634.111C545.106 635.48 546.216 636.59 547.585 636.59Z" fill="white"/>
<path d="M564.111 636.59C565.48 636.59 566.59 635.48 566.59 634.111C566.59 632.742 565.48 631.632 564.111 631.632C562.742 631.632 561.632 632.742 561.632 634.111C561.632 635.48 562.742 636.59 564.111 636.59Z" fill="white"/>
<path d="M481.479 653.117C482.848 653.117 483.958 652.007 483.958 650.638C483.958 649.269 482.848 648.159 481.479 648.159C480.11 648.159 479 649.269 479 650.638C479 652.007 480.11 653.117 481.479 653.117Z" fill="white"/>
<path d="M498.005 653.117C499.375 653.117 500.484 652.007 500.484 650.638C500.484 649.269 499.375 648.159 498.005 648.159C496.636 648.159 495.526 649.269 495.526 650.638C495.526 652.007 496.636 653.117 498.005 653.117Z" fill="white"/>
<path d="M514.532 653.117C515.901 653.117 517.011 652.007 517.011 650.638C517.011 649.269 515.901 648.159 514.532 648.159C513.163 648.159 512.053 649.269 512.053 650.638C512.053 652.007 513.163 653.117 514.532 653.117Z" fill="white"/>
<path d="M531.058 653.117C532.428 653.117 533.537 652.007 533.537 650.638C533.537 649.269 532.428 648.159 531.058 648.159C529.689 648.159 528.579 649.269 528.579 650.638C528.579 652.007 529.689 653.117 531.058 653.117Z" fill="white"/>
<path d="M547.585 653.117C548.954 653.117 550.064 652.007 550.064 650.638C550.064 649.269 548.954 648.159 547.585 648.159C546.216 648.159 545.106 649.269 545.106 650.638C545.106 652.007 546.216 653.117 547.585 653.117Z" fill="white"/>
<path d="M564.111 653.117C565.48 653.117 566.59 652.007 566.59 650.638C566.59 649.269 565.48 648.159 564.111 648.159C562.742 648.159 561.632 649.269 561.632 650.638C561.632 652.007 562.742 653.117 564.111 653.117Z" fill="white"/>
<path d="M481.479 669.643C482.848 669.643 483.958 668.533 483.958 667.164C483.958 665.795 482.848 664.685 481.479 664.685C480.11 664.685 479 665.795 479 667.164C479 668.533 480.11 669.643 481.479 669.643Z" fill="white"/>
<path d="M498.005 669.643C499.375 669.643 500.484 668.533 500.484 667.164C500.484 665.795 499.375 664.685 498.005 664.685C496.636 664.685 495.526 665.795 495.526 667.164C495.526 668.533 496.636 669.643 498.005 669.643Z" fill="white"/>
<path d="M514.532 669.643C515.901 669.643 517.011 668.533 517.011 667.164C517.011 665.795 515.901 664.685 514.532 664.685C513.163 664.685 512.053 665.795 512.053 667.164C512.053 668.533 513.163 669.643 514.532 669.643Z" fill="white"/>
<path d="M531.058 669.643C532.428 669.643 533.537 668.533 533.537 667.164C533.537 665.795 532.428 664.685 531.058 664.685C529.689 664.685 528.579 665.795 528.579 667.164C528.579 668.533 529.689 669.643 531.058 669.643Z" fill="white"/>
<path d="M547.585 669.643C548.954 669.643 550.064 668.533 550.064 667.164C550.064 665.795 548.954 664.685 547.585 664.685C546.216 664.685 545.106 665.795 545.106 667.164C545.106 668.533 546.216 669.643 547.585 669.643Z" fill="white"/>
<path d="M564.111 669.643C565.48 669.643 566.59 668.533 566.59 667.164C566.59 665.795 565.48 664.685 564.111 664.685C562.742 664.685 561.632 665.795 561.632 667.164C561.632 668.533 562.742 669.643 564.111 669.643Z" fill="white"/>
<path d="M481.479 686.17C482.848 686.17 483.958 685.06 483.958 683.691C483.958 682.322 482.848 681.212 481.479 681.212C480.11 681.212 479 682.322 479 683.691C479 685.06 480.11 686.17 481.479 686.17Z" fill="white"/>
<path d="M498.005 686.17C499.375 686.17 500.484 685.06 500.484 683.691C500.484 682.322 499.375 681.212 498.005 681.212C496.636 681.212 495.526 682.322 495.526 683.691C495.526 685.06 496.636 686.17 498.005 686.17Z" fill="white"/>
<path d="M514.532 686.17C515.901 686.17 517.011 685.06 517.011 683.691C517.011 682.322 515.901 681.212 514.532 681.212C513.163 681.212 512.053 682.322 512.053 683.691C512.053 685.06 513.163 686.17 514.532 686.17Z" fill="white"/>
<path d="M531.058 686.17C532.428 686.17 533.537 685.06 533.537 683.691C533.537 682.322 532.428 681.212 531.058 681.212C529.689 681.212 528.579 682.322 528.579 683.691C528.579 685.06 529.689 686.17 531.058 686.17Z" fill="white"/>
<path d="M547.585 686.17C548.954 686.17 550.064 685.06 550.064 683.691C550.064 682.322 548.954 681.212 547.585 681.212C546.216 681.212 545.106 682.322 545.106 683.691C545.106 685.06 546.216 686.17 547.585 686.17Z" fill="white"/>
<path d="M564.111 686.17C565.48 686.17 566.59 685.06 566.59 683.691C566.59 682.322 565.48 681.212 564.111 681.212C562.742 681.212 561.632 682.322 561.632 683.691C561.632 685.06 562.742 686.17 564.111 686.17Z" fill="white"/>
<g filter="url(#filter0_bd_613_3804)">
<rect x="520" y="139" width="400" height="502" rx="10" fill="white"/>
<rect x="520.5" y="139.5" width="399" height="501" rx="9.5" stroke="white" stroke-opacity="0.3"/>
</g>
</g>
<defs>
<filter id="filter0_bd_613_3804" x="480" y="103" width="480" height="582" filterUnits="userSpaceOnUse" color-interpolation-filters="sRGB">
<feFlood flood-opacity="0" result="BackgroundImageFix"/>
<feGaussianBlur in="BackgroundImageFix" stdDeviation="10"/>
<feComposite in2="SourceAlpha" operator="in" result="effect1_backgroundBlur_613_3804"/>
<feColorMatrix in="SourceAlpha" type="matrix" values="0 0 0 0 0 0 0 0 0 0 0 0 0 0 0 0 0 0 127 0" result="hardAlpha"/>
<feOffset dy="4"/>
<feGaussianBlur stdDeviation="20"/>
<feComposite in2="hardAlpha" operator="out"/>
<feColorMatrix type="matrix" values="0 0 0 0 0 0 0 0 0 0 0 0 0 0 0 0 0 0 0.05 0"/>
<feBlend mode="normal" in2="effect1_backgroundBlur_613_3804" result="effect2_dropShadow_613_3804"/>
<feBlend mode="normal" in="SourceGraphic" in2="effect2_dropShadow_613_3804" result="shape"/>
</filter>
<clipPath id="clip0_613_3804">
<rect width="1440" height="780" fill="white"/>
</clipPath>
</defs>
</svg>
