<svg width="1946" height="900" viewBox="0 0 1946 900" fill="none" xmlns="http://www.w3.org/2000/svg">
<rect width="1946" height="900" fill="white"/>
<g clip-path="url(#clip0_637_3683)">
<rect width="973" height="900" fill="#F89320"/>
<g opacity="0.5">
<path d="M1065.38 -149.627C1063.4 -150.867 1061.38 -152.054 1059.38 -153.201L819.799 86.3914C820.946 88.4047 822.119 90.3913 823.359 92.3912L1065.38 -149.627Z" fill="white"/>
<path d="M1054.22 -156.001C1052.11 -157.112 1049.98 -158.169 1047.83 -159.174L813.8 74.8451C814.813 76.9962 815.871 79.125 816.973 81.2316L1054.22 -156.001Z" fill="white"/>
<path d="M1042.34 -161.681C1040.1 -162.654 1037.82 -163.574 1035.54 -164.44L808.546 62.552C809.435 64.8364 810.355 67.103 811.306 69.3519L1042.34 -161.681Z" fill="white"/>
<path d="M1085.67 -134.868C1083.89 -136.335 1082.12 -137.761 1080.34 -139.148L833.839 107.417C835.172 109.204 836.665 110.964 838.132 112.75L1085.67 -134.868Z" fill="white"/>
<path d="M1094.91 -126.535C1093.28 -128.108 1091.63 -129.651 1089.96 -131.162L841.825 116.977C843.336 118.648 844.878 120.297 846.452 121.923L1094.91 -126.535Z" fill="white"/>
<path d="M1075.86 -142.574C1074 -143.925 1072.12 -145.259 1070.22 -146.574L826.492 97.1644C827.755 99.0754 829.066 100.955 830.426 102.804L1075.86 -142.574Z" fill="white"/>
<path d="M1029.67 -166.56C1027.27 -167.387 1024.85 -168.16 1022.42 -168.88L804.12 49.446C804.822 51.8726 805.591 54.2903 806.426 56.6991L1029.67 -166.56Z" fill="white"/>
<path d="M1103.52 -117.602C1102.02 -119.282 1100.47 -120.922 1098.9 -122.548L850.438 125.91C852.065 127.483 853.718 129.03 855.385 130.523L1103.52 -117.602Z" fill="white"/>
<path d="M986.02 -175.52C982.994 -175.76 979.954 -175.907 976.914 -175.987L797 3.99413C797.08 7.03403 797.236 10.0695 797.467 13.1005L986.02 -175.52Z" fill="white"/>
<path d="M1001.67 -173.64C998.891 -174.093 996.1 -174.489 993.3 -174.827L798.16 20.3135C798.498 23.1134 798.898 25.9045 799.36 28.6866L1001.67 -173.64Z" fill="white"/>
<path d="M1016.17 -170.587C1013.58 -171.245 1010.99 -171.84 1008.39 -172.374L800.613 35.4063C801.147 38.0106 801.742 40.6017 802.4 43.1794L1016.17 -170.587Z" fill="white"/>
<path d="M1148.34 -4.55238C1148.26 -7.59228 1148.1 -10.6322 1147.87 -13.6721L959.328 174.895C962.355 175.122 965.394 175.282 968.434 175.348L1148.34 -4.55238Z" fill="white"/>
<path d="M1111.51 -108.002C1110.18 -109.789 1108.68 -111.536 1107.22 -113.335L859.651 134.23C861.398 135.696 863.158 137.136 864.984 138.523L1111.51 -108.002Z" fill="white"/>
<path d="M1147.19 -20.9385C1146.86 -23.7384 1146.46 -26.5383 1145.99 -29.3115L943.675 173.002C946.457 173.473 949.248 173.868 952.048 174.188L1147.19 -20.9385Z" fill="white"/>
<path d="M1125.55 -87.0163C1124.4 -89.0296 1123.23 -91.0162 1121.99 -93.0161L879.971 149.003C881.944 150.229 883.97 151.416 885.97 152.562L1125.55 -87.0163Z" fill="white"/>
<path d="M1144.74 -36.0047C1144.2 -38.6713 1143.6 -41.2046 1142.95 -43.7778L929.182 169.948C931.769 170.615 934.355 171.202 936.955 171.748L1144.74 -36.0047Z" fill="white"/>
<path d="M1118.86 -97.8694C1117.59 -99.7627 1116.26 -101.638 1114.86 -103.496L869.491 141.936C871.349 143.296 873.229 144.607 875.131 145.869L1118.86 -97.8694Z" fill="white"/>
<path d="M1131.55 -75.47C1130.54 -77.6211 1129.48 -79.7544 1128.38 -81.8699L891.13 155.389C893.237 156.5 895.366 157.558 897.517 158.562L1131.55 -75.47Z" fill="white"/>
<path d="M1136.8 -63.1771C1135.91 -65.4704 1134.99 -67.7414 1134.04 -69.9902L903.01 161.042C905.25 162.015 907.53 162.935 909.81 163.815L1136.8 -63.1771Z" fill="white"/>
<path d="M1141.23 -50.0709C1140.52 -52.5152 1139.75 -54.9329 1138.92 -57.324L915.663 165.935C918.063 166.749 920.489 167.535 922.916 168.242L1141.23 -50.0709Z" fill="white"/>
</g>
<path opacity="0.5" d="M-17.0065 1106.99C91.2378 1106.99 178.987 1019.24 178.987 910.994C178.987 802.749 91.2378 715 -17.0065 715C-125.251 715 -213 802.749 -213 910.994C-213 1019.24 -125.251 1106.99 -17.0065 1106.99Z" stroke="#E37C07" stroke-width="60" stroke-miterlimit="10"/>
<path opacity="0.5" d="M152.5 817C186.466 817 214 789.466 214 755.5C214 721.534 186.466 694 152.5 694C118.534 694 91 721.534 91 755.5C91 789.466 118.534 817 152.5 817Z" stroke="white" stroke-width="20" stroke-miterlimit="10"/>
<path d="M911.676 889.108L748.849 726.281C742.619 720.051 732.518 720.051 726.287 726.281L726.281 726.287C720.051 732.518 720.051 742.619 726.281 748.849L889.108 911.676C895.338 917.906 905.439 917.906 911.669 911.676L911.676 911.669C917.906 905.439 917.906 895.338 911.676 889.108Z" stroke="white" stroke-width="2" stroke-miterlimit="10"/>
<path d="M999.898 889.282L922.992 812.377C916.762 806.146 906.661 806.146 900.431 812.377L900.424 812.383C894.194 818.614 894.194 828.715 900.424 834.945L977.329 911.85C983.56 918.08 993.661 918.08 999.891 911.85L999.898 911.843C1006.13 905.613 1006.13 895.512 999.898 889.282Z" stroke="white" stroke-width="2" stroke-miterlimit="10"/>
<path d="M107.956 138.864L-65.8656 -34.9576C-72.5164 -41.6085 -83.2995 -41.6085 -89.9503 -34.9576L-89.9576 -34.9503C-96.6085 -28.2995 -96.6085 -17.5164 -89.9576 -10.8656L83.8644 162.956C90.5152 169.607 101.298 169.607 107.949 162.956L107.956 162.949C114.607 156.298 114.607 145.515 107.956 138.864Z" stroke="white" stroke-width="2" stroke-miterlimit="10"/>
<path d="M202.136 139.051L120.037 56.952C113.386 50.3012 102.603 50.3012 95.9525 56.952L95.9452 56.9593C89.2944 63.6102 89.2944 74.3933 95.9452 81.0441L178.044 163.143C184.694 169.793 195.478 169.793 202.128 163.143L202.136 163.135C208.787 156.484 208.787 145.701 202.136 139.051Z" stroke="white" stroke-width="2" stroke-miterlimit="10"/>
<rect width="10.8814" height="36.6012" transform="matrix(0.704517 -0.709687 0.704517 0.709687 370 416.294)" fill="white"/>
<rect width="10.8814" height="36.6012" transform="matrix(0.704517 -0.709687 0.704517 0.709687 394.392 391.723)" fill="white"/>
<rect width="10.8814" height="45.5041" transform="matrix(0.704517 0.709687 -0.704517 0.709687 402.058 384)" fill="white"/>
<path fill-rule="evenodd" clip-rule="evenodd" d="M421.124 427.075L428.334 419.812L436 427.535L413.699 450L406.032 442.278L413.458 434.797L395.786 416.996L403.452 409.273L421.124 427.075Z" fill="white"/>
<path d="M474.38 429.3V438H469.16C465.44 438 462.54 437.1 460.46 435.3C458.38 433.46 457.34 430.48 457.34 426.36V413.04H453.26V404.52H457.34V396.36H467.6V404.52H474.32V413.04H467.6V426.48C467.6 427.48 467.84 428.2 468.32 428.64C468.8 429.08 469.6 429.3 470.72 429.3H474.38ZM509.255 420.72C509.255 421.68 509.195 422.68 509.075 423.72H485.855C486.015 425.8 486.675 427.4 487.835 428.52C489.035 429.6 490.495 430.14 492.215 430.14C494.775 430.14 496.555 429.06 497.555 426.9H508.475C507.915 429.1 506.895 431.08 505.415 432.84C503.975 434.6 502.155 435.98 499.955 436.98C497.755 437.98 495.295 438.48 492.575 438.48C489.295 438.48 486.375 437.78 483.815 436.38C481.255 434.98 479.255 432.98 477.815 430.38C476.375 427.78 475.655 424.74 475.655 421.26C475.655 417.78 476.355 414.74 477.755 412.14C479.195 409.54 481.195 407.54 483.755 406.14C486.315 404.74 489.255 404.04 492.575 404.04C495.815 404.04 498.695 404.72 501.215 406.08C503.735 407.44 505.695 409.38 507.095 411.9C508.535 414.42 509.255 417.36 509.255 420.72ZM498.755 418.02C498.755 416.26 498.155 414.86 496.955 413.82C495.755 412.78 494.255 412.26 492.455 412.26C490.735 412.26 489.275 412.76 488.075 413.76C486.915 414.76 486.195 416.18 485.915 418.02H498.755ZM510.228 421.26C510.228 417.78 510.928 414.74 512.328 412.14C513.768 409.54 515.748 407.54 518.268 406.14C520.828 404.74 523.748 404.04 527.028 404.04C531.228 404.04 534.728 405.14 537.528 407.34C540.368 409.54 542.228 412.64 543.108 416.64H532.188C531.268 414.08 529.488 412.8 526.848 412.8C524.968 412.8 523.468 413.54 522.348 415.02C521.228 416.46 520.668 418.54 520.668 421.26C520.668 423.98 521.228 426.08 522.348 427.56C523.468 429 524.968 429.72 526.848 429.72C529.488 429.72 531.268 428.44 532.188 425.88H543.108C542.228 429.8 540.368 432.88 537.528 435.12C534.688 437.36 531.188 438.48 527.028 438.48C523.748 438.48 520.828 437.78 518.268 436.38C515.748 434.98 513.768 432.98 512.328 430.38C510.928 427.78 510.228 424.74 510.228 421.26ZM577.756 420.72C577.756 421.68 577.696 422.68 577.576 423.72H554.356C554.516 425.8 555.176 427.4 556.336 428.52C557.536 429.6 558.996 430.14 560.716 430.14C563.276 430.14 565.056 429.06 566.056 426.9H576.976C576.416 429.1 575.396 431.08 573.916 432.84C572.476 434.6 570.656 435.98 568.456 436.98C566.256 437.98 563.796 438.48 561.076 438.48C557.796 438.48 554.876 437.78 552.316 436.38C549.756 434.98 547.756 432.98 546.316 430.38C544.876 427.78 544.156 424.74 544.156 421.26C544.156 417.78 544.856 414.74 546.256 412.14C547.696 409.54 549.696 407.54 552.256 406.14C554.816 404.74 557.756 404.04 561.076 404.04C564.316 404.04 567.196 404.72 569.716 406.08C572.236 407.44 574.196 409.38 575.596 411.9C577.036 414.42 577.756 417.36 577.756 420.72ZM567.256 418.02C567.256 416.26 566.656 414.86 565.456 413.82C564.256 412.78 562.756 412.26 560.956 412.26C559.236 412.26 557.776 412.76 556.576 413.76C555.416 414.76 554.696 416.18 554.416 418.02H567.256ZM591.028 410.1C592.228 408.26 593.728 406.82 595.528 405.78C597.328 404.7 599.328 404.16 601.528 404.16V415.02H598.708C596.148 415.02 594.228 415.58 592.948 416.7C591.668 417.78 591.028 419.7 591.028 422.46V438H580.768V404.52H591.028V410.1Z" fill="white"/>
</g>
<defs>
<clipPath id="clip0_637_3683">
<rect width="973" height="900" fill="white"/>
</clipPath>
</defs>
</svg>
