<svg width="480" height="242" viewBox="0 0 480 242" fill="none" xmlns="http://www.w3.org/2000/svg">
<rect y="0.232758" width="480" height="241" fill="#FDE7CE"/>
<path d="M180.491 126.017C148.635 144.415 148.635 174.231 180.491 192.624C212.347 211.018 264 211.022 295.855 192.624C327.711 174.227 327.711 144.411 295.855 126.017C264 107.624 212.347 107.624 180.491 126.017Z" fill="#FAFAFA"/>
<path d="M225.49 41.1078L223.89 41.9077V38.2282C223.89 35.4606 221.682 34.8007 219.287 36.1805C216.887 37.5643 214.951 40.9279 214.951 43.6955V44.2034C214.616 44.1021 214.263 44.0772 213.917 44.1305C213.57 44.1838 213.241 44.3139 212.952 44.5114C212.043 45.1043 211.288 45.9028 210.746 46.8422C210.204 47.7817 209.891 48.8356 209.832 49.9187V50.1506L207.62 51.4265C207.022 51.8162 206.524 52.3417 206.167 52.9602C205.809 53.5787 205.603 54.2728 205.565 54.986C205.565 56.2978 206.484 56.8297 207.62 56.1858L225.49 45.8672C226.089 45.4777 226.587 44.9523 226.944 44.3337C227.301 43.7151 227.508 43.021 227.546 42.3077C227.546 40.9839 226.626 40.4519 225.49 41.1078Z" fill="#F0F0F0"/>
<path d="M253.158 36.4004L250.287 38.0602C250.302 37.9342 250.31 37.8073 250.311 37.6803V36.8484C250.311 35.3686 249.271 34.7687 247.991 35.5086C247.438 35.8452 246.966 36.2983 246.607 36.8364C246.395 34.9766 244.935 34.2807 243.16 35.3086C241.244 36.4124 239.688 39.1081 239.688 41.3078V42.5516C239.675 43.0487 239.775 43.5423 239.98 43.9954L237.58 45.3712C237.205 45.6156 236.893 45.9451 236.669 46.3329C236.445 46.7207 236.316 47.1558 236.292 47.6029C236.292 48.4028 236.868 48.7548 237.58 48.3468L253.142 39.36C253.517 39.1157 253.83 38.7862 254.053 38.3984C254.277 38.0106 254.406 37.5755 254.43 37.1284C254.446 36.3245 253.87 35.9925 253.158 36.4004Z" fill="#F0F0F0"/>
<path d="M203.889 176.158C207.918 176.158 211.184 174.272 211.184 171.946C211.184 169.62 207.918 167.735 203.889 167.735C199.86 167.735 196.594 169.62 196.594 171.946C196.594 174.272 199.86 176.158 203.889 176.158Z" fill="#E0E0E0"/>
<path d="M187.119 170.286C189.967 171.93 194.582 171.93 197.434 170.286C200.285 168.643 200.281 165.975 197.434 164.331C194.586 162.687 189.967 162.687 187.119 164.331C184.272 165.975 184.268 168.643 187.119 170.286Z" fill="#E0E0E0"/>
<path d="M224.882 174.966C224.735 174.881 224.613 174.759 224.528 174.612C224.443 174.465 224.399 174.298 224.399 174.128C224.399 173.958 224.443 173.791 224.528 173.644C224.613 173.497 224.735 173.375 224.882 173.29L276.983 143.218C277.13 143.132 277.297 143.086 277.467 143.086C277.637 143.086 277.804 143.132 277.951 143.218C278.099 143.302 278.222 143.424 278.308 143.571C278.393 143.718 278.438 143.886 278.438 144.056C278.438 144.226 278.393 144.393 278.308 144.541C278.222 144.688 278.099 144.81 277.951 144.894L225.85 174.966C225.703 175.052 225.536 175.098 225.366 175.098C225.196 175.098 225.029 175.052 224.882 174.966Z" fill="#E0E0E0"/>
<path d="M290.937 145.798L288.046 147.47C287.702 147.668 287.312 147.772 286.916 147.772C286.519 147.772 286.129 147.668 285.786 147.47L274.451 140.926C274.303 140.842 274.181 140.719 274.095 140.572C274.01 140.424 273.965 140.257 273.965 140.086C273.965 139.916 274.01 139.749 274.095 139.601C274.181 139.454 274.303 139.331 274.451 139.247L277.339 137.575C277.683 137.377 278.072 137.272 278.469 137.272C278.866 137.272 279.255 137.377 279.599 137.575L290.937 144.118C291.085 144.203 291.208 144.325 291.294 144.472C291.379 144.62 291.424 144.787 291.424 144.958C291.424 145.128 291.379 145.296 291.294 145.443C291.208 145.591 291.085 145.713 290.937 145.798Z" fill="#E0E0E0"/>
<path d="M271.94 157.816L274.687 156.216C275.152 155.979 275.667 155.855 276.189 155.855C276.711 155.855 277.226 155.979 277.691 156.216L278.651 156.768L282.226 154.705C282.408 154.612 282.609 154.564 282.812 154.564C283.016 154.564 283.217 154.612 283.398 154.705H283.422C283.493 154.728 283.555 154.773 283.599 154.834C283.643 154.895 283.666 154.968 283.666 155.042C283.666 155.117 283.643 155.19 283.599 155.251C283.555 155.312 283.493 155.357 283.422 155.38L279.843 157.448L280.043 157.56C280.871 158.04 280.871 158.82 280.043 159.3L277.291 160.9L273.292 163.219L267.936 160.128L271.94 157.816Z" fill="#E0E0E0"/>
<path d="M311.474 166.159C321.617 166.159 329.84 161.412 329.84 155.556C329.84 149.701 321.617 144.954 311.474 144.954C301.331 144.954 293.109 149.701 293.109 155.556C293.109 161.412 301.331 166.159 311.474 166.159Z" fill="#E0E0E0"/>
<path d="M169.366 190.16C179.509 190.16 187.731 185.413 187.731 179.557C187.731 173.702 179.509 168.955 169.366 168.955C159.223 168.955 151 173.702 151 179.557C151 185.413 159.223 190.16 169.366 190.16Z" fill="#E0E0E0"/>
<path d="M198.502 156.844L186.315 156.68L186.211 166.631C186.211 167.531 186.787 168.439 187.967 169.139C190.335 170.538 194.19 170.578 196.586 169.231C197.786 168.551 198.398 167.631 198.398 166.739L198.502 156.844Z" fill="#37474F"/>
<path d="M188.151 154.213C185.751 155.56 185.751 157.788 188.095 159.188C190.439 160.588 194.318 160.632 196.714 159.284C199.11 157.936 199.114 155.684 196.766 154.305C194.418 152.925 190.523 152.865 188.151 154.213Z" fill="#455A64"/>
<path d="M197.978 156.804C197.975 156.968 197.947 157.13 197.894 157.284C197.613 157.959 197.093 158.506 196.434 158.82C195.172 159.437 193.784 159.75 192.38 159.736C190.976 159.721 189.595 159.379 188.347 158.736C187.704 158.411 187.201 157.864 186.931 157.196C186.875 157.031 186.847 156.858 186.847 156.684C186.847 155.944 187.403 155.228 188.391 154.685C189.653 154.067 191.042 153.754 192.447 153.769C193.852 153.784 195.234 154.128 196.482 154.773C197.454 155.34 197.986 156.064 197.978 156.804Z" fill="#263238"/>
<path d="M197.894 157.292C197.613 157.967 197.093 158.514 196.434 158.828C195.172 159.445 193.784 159.758 192.38 159.744C190.976 159.729 189.595 159.387 188.347 158.744C187.704 158.419 187.201 157.872 186.931 157.204C187.211 156.53 187.731 155.984 188.391 155.672C189.652 155.052 191.042 154.737 192.447 154.752C193.852 154.768 195.234 155.113 196.482 155.76C197.122 156.084 197.623 156.628 197.894 157.292Z" fill="#F5F5F5"/>
<path opacity="0.15" d="M196.434 158.82C196.627 158.711 196.813 158.59 196.99 158.456C194.762 159.656 190.939 159.148 189.747 158.208C188.555 157.268 188.391 155.668 190.331 154.953C189.652 155.092 188.999 155.332 188.391 155.664C187.731 155.976 187.211 156.522 186.931 157.196C187.201 157.864 187.704 158.411 188.347 158.736C189.595 159.379 190.976 159.721 192.38 159.736C193.784 159.75 195.172 159.437 196.434 158.82Z" fill="black"/>
<path d="M195.006 160.572C195.274 160.424 195.486 160.548 195.486 160.856C195.475 161.023 195.425 161.185 195.339 161.329C195.254 161.472 195.135 161.594 194.994 161.684C194.726 161.836 194.514 161.708 194.518 161.4C194.529 161.233 194.579 161.071 194.664 160.928C194.748 160.784 194.866 160.662 195.006 160.572Z" fill="#263238"/>
<path d="M186.295 158.428C185.627 159.748 184.296 162.891 186.023 164.171C186.099 164.223 186.163 164.271 186.235 164.315V164.955C186.063 164.847 185.883 164.727 185.711 164.603C183.124 162.687 186.043 157.768 186.167 157.56C186.2 157.505 186.253 157.465 186.315 157.448L186.295 158.428Z" fill="#E0E0E0"/>
<path d="M195.234 161.256C195.162 161.408 193.278 165.007 190.183 165.731C189.833 165.813 189.474 165.855 189.115 165.855C188.088 165.836 187.087 165.523 186.231 164.955V164.315C187.511 165.207 188.799 165.515 190.059 165.219C192.914 164.547 194.746 161.044 194.758 161.008C194.791 160.945 194.848 160.899 194.915 160.878C194.982 160.857 195.055 160.863 195.118 160.896C195.15 160.911 195.179 160.933 195.202 160.959C195.225 160.986 195.243 161.017 195.254 161.051C195.265 161.084 195.268 161.12 195.265 161.155C195.262 161.19 195.251 161.225 195.234 161.256Z" fill="#E0E0E0"/>
<path d="M210.116 161.484L197.93 161.316L197.822 171.266C197.822 172.17 198.394 173.078 199.577 173.778C201.941 175.174 205.801 175.218 208.196 173.87C209.396 173.19 210.008 172.27 210.004 171.378L210.116 161.484Z" fill="#37474F"/>
<path d="M199.749 158.852C197.35 160.2 197.35 162.427 199.697 163.827C202.045 165.227 205.921 165.267 208.316 163.919C210.712 162.571 210.716 160.344 208.368 158.944C206.021 157.544 202.149 157.5 199.749 158.852Z" fill="#455A64"/>
<path d="M209.592 161.444C209.588 161.606 209.558 161.767 209.504 161.92C209.226 162.595 208.707 163.144 208.048 163.459C206.786 164.074 205.397 164.387 203.992 164.371C202.588 164.356 201.206 164.014 199.957 163.371C199.316 163.047 198.814 162.502 198.546 161.836C198.487 161.671 198.457 161.498 198.458 161.324C198.458 160.58 199.017 159.864 200.005 159.324C201.254 158.673 202.65 158.357 204.057 158.408C205.465 158.39 206.855 158.734 208.092 159.408C209.068 159.976 209.596 160.7 209.592 161.444Z" fill="#263238"/>
<path d="M209.504 161.92C209.226 162.595 208.707 163.144 208.048 163.459C206.786 164.074 205.397 164.387 203.992 164.371C202.588 164.356 201.206 164.014 199.957 163.371C199.316 163.047 198.815 162.502 198.546 161.836C198.822 161.159 199.343 160.612 200.005 160.304C201.254 159.654 202.649 159.335 204.057 159.38C205.466 159.368 206.854 159.715 208.092 160.388C208.731 160.713 209.232 161.256 209.504 161.92Z" fill="#F89320"/>
<path opacity="0.15" d="M208.048 163.459C208.241 163.35 208.425 163.227 208.6 163.091C206.377 164.291 202.549 163.783 201.357 162.847C200.165 161.912 200.005 160.308 201.945 159.592C201.266 159.729 200.612 159.969 200.005 160.304C199.343 160.612 198.822 161.159 198.546 161.836C198.815 162.502 199.316 163.047 199.957 163.371C201.206 164.014 202.588 164.356 203.992 164.371C205.397 164.387 206.786 164.074 208.048 163.459Z" fill="black"/>
<path d="M206.621 165.211C206.888 165.059 207.1 165.187 207.096 165.495C207.085 165.662 207.036 165.823 206.951 165.967C206.866 166.111 206.749 166.233 206.609 166.323C206.341 166.471 206.125 166.347 206.129 166.039C206.14 165.872 206.19 165.71 206.275 165.566C206.361 165.422 206.479 165.301 206.621 165.211Z" fill="#263238"/>
<path d="M197.91 163.067C197.238 164.387 195.91 167.527 197.638 168.807C197.71 168.863 197.778 168.907 197.85 168.955V169.591C197.678 169.487 197.498 169.367 197.326 169.239C194.742 167.323 197.658 162.403 197.786 162.2C197.8 162.172 197.821 162.147 197.846 162.128C197.871 162.109 197.899 162.095 197.93 162.088L197.91 163.067Z" fill="#E0E0E0"/>
<path d="M206.844 165.891C206.772 166.043 204.889 169.643 201.793 170.366C201.444 170.453 201.085 170.496 200.725 170.494C199.698 170.474 198.697 170.161 197.842 169.591V168.955C199.122 169.842 200.409 170.154 201.665 169.854C204.525 169.187 206.353 165.679 206.369 165.647C206.384 165.616 206.406 165.588 206.432 165.566C206.459 165.543 206.49 165.526 206.523 165.516C206.556 165.505 206.591 165.502 206.626 165.505C206.66 165.508 206.694 165.519 206.724 165.535C206.757 165.549 206.786 165.57 206.81 165.596C206.834 165.622 206.853 165.653 206.864 165.686C206.875 165.72 206.88 165.755 206.876 165.791C206.873 165.826 206.862 165.86 206.844 165.891Z" fill="#E0E0E0"/>
<path d="M276.715 143.694C276.676 143.694 276.639 143.681 276.608 143.657C276.578 143.634 276.556 143.601 276.546 143.564C276.536 143.526 276.538 143.487 276.553 143.451C276.568 143.415 276.594 143.386 276.627 143.366L278.871 142.074C278.911 142.054 278.957 142.05 279 142.063C279.043 142.076 279.079 142.105 279.101 142.144C279.124 142.182 279.13 142.228 279.12 142.272C279.11 142.315 279.084 142.353 279.047 142.378L276.803 143.674C276.775 143.686 276.745 143.693 276.715 143.694Z" fill="#37474F"/>
<path d="M277.043 142.614C277.233 142.74 277.392 142.908 277.505 143.106C277.618 143.304 277.683 143.526 277.695 143.754C277.703 143.837 277.689 143.92 277.653 143.995C277.618 144.071 277.564 144.135 277.495 144.182L225.586 174.15L224.666 172.55L276.571 142.586C276.645 142.548 276.728 142.53 276.811 142.535C276.894 142.54 276.974 142.567 277.043 142.614Z" fill="#455A64"/>
<path d="M225.782 173.726C225.782 174.146 225.482 174.314 225.122 174.102C224.931 173.976 224.771 173.807 224.658 173.608C224.544 173.41 224.478 173.187 224.466 172.958C224.466 172.538 224.766 172.37 225.126 172.582C225.317 172.708 225.477 172.877 225.59 173.076C225.704 173.274 225.77 173.497 225.782 173.726Z" fill="#37474F"/>
<path d="M274.139 138.787C274.109 138.787 274.078 138.778 274.052 138.763C274.025 138.748 274.003 138.725 273.987 138.699C273.975 138.679 273.967 138.657 273.964 138.634C273.961 138.611 273.962 138.587 273.968 138.565C273.974 138.543 273.985 138.522 273.999 138.503C274.013 138.485 274.031 138.47 274.051 138.459L277.143 136.675C277.183 136.652 277.231 136.645 277.276 136.657C277.321 136.669 277.36 136.699 277.383 136.739C277.406 136.779 277.413 136.827 277.401 136.872C277.389 136.917 277.359 136.956 277.319 136.979L274.227 138.767C274.2 138.779 274.17 138.786 274.139 138.787Z" fill="#37474F"/>
<path d="M276.211 133.835C275.6 134.234 275.091 134.772 274.726 135.404C274.361 136.036 274.151 136.746 274.111 137.475C274.082 137.74 274.126 138.007 274.239 138.249C274.351 138.491 274.526 138.698 274.747 138.847L287.174 146.006L290.169 140.87L277.739 133.695C277.339 133.467 276.815 133.487 276.211 133.835Z" fill="#F89320"/>
<path d="M286.538 144.634C286.577 143.904 286.788 143.194 287.153 142.562C287.519 141.929 288.029 141.392 288.641 140.994C289.801 140.322 290.741 140.866 290.741 142.194C290.702 142.924 290.491 143.634 290.126 144.266C289.76 144.899 289.25 145.436 288.637 145.834C287.478 146.518 286.538 145.974 286.538 144.634Z" fill="#C86D05"/>
<path opacity="0.25" d="M286.538 144.634C286.577 143.904 286.788 143.194 287.153 142.562C287.519 141.929 288.029 141.392 288.641 140.994C289.801 140.322 290.741 140.866 290.741 142.194C290.702 142.924 290.491 143.634 290.126 144.266C289.76 144.899 289.25 145.436 288.637 145.834C287.478 146.518 286.538 145.974 286.538 144.634Z" fill="#C86D05"/>
<path d="M288.094 143.734C288.104 143.545 288.159 143.36 288.254 143.196C288.349 143.032 288.482 142.893 288.641 142.79C288.941 142.614 289.185 142.754 289.185 143.106C289.176 143.295 289.121 143.479 289.027 143.643C288.932 143.807 288.8 143.947 288.641 144.05C288.338 144.226 288.094 144.094 288.094 143.734Z" fill="black"/>
<path d="M284.834 145.614C284.611 145.614 284.392 145.556 284.198 145.446L274.051 139.587C273.953 139.529 273.871 139.447 273.814 139.348C273.757 139.249 273.727 139.137 273.727 139.023C273.727 138.908 273.757 138.796 273.814 138.697C273.871 138.598 273.953 138.516 274.051 138.459C274.092 138.437 274.14 138.432 274.185 138.444C274.23 138.457 274.268 138.487 274.291 138.527C274.315 138.567 274.321 138.615 274.309 138.66C274.297 138.705 274.268 138.743 274.227 138.767C274.181 138.791 274.143 138.828 274.116 138.873C274.089 138.919 274.075 138.97 274.075 139.023C274.075 139.076 274.089 139.128 274.116 139.173C274.143 139.219 274.181 139.257 274.227 139.283L284.374 145.138C284.513 145.22 284.672 145.264 284.834 145.264C284.996 145.264 285.155 145.22 285.294 145.138L288.553 143.258C288.594 143.235 288.643 143.229 288.688 143.241C288.733 143.253 288.772 143.283 288.795 143.324C288.819 143.365 288.825 143.413 288.813 143.459C288.8 143.504 288.77 143.543 288.729 143.566L285.47 145.446C285.276 145.556 285.057 145.614 284.834 145.614Z" fill="#37474F"/>
<path d="M277.467 157.692L282.666 154.701C282.722 154.66 282.767 154.605 282.796 154.542C282.825 154.479 282.836 154.41 282.83 154.341C282.82 154.147 282.765 153.959 282.668 153.792C282.572 153.624 282.437 153.482 282.274 153.377C282.217 153.335 282.15 153.31 282.08 153.303C282.009 153.296 281.939 153.307 281.874 153.337L276.675 156.324L277.467 157.692Z" fill="#455A64"/>
<path d="M278.019 155.556L279.591 156.468L277.467 157.692L276.683 156.328L278.019 155.556Z" fill="#37474F"/>
<path d="M272.14 158.04L273.196 157.428L272.14 156.816L274.307 155.56C274.675 155.374 275.081 155.277 275.493 155.277C275.905 155.277 276.312 155.374 276.679 155.56L278.531 156.632C278.659 156.691 278.77 156.781 278.856 156.893C278.941 157.005 278.997 157.137 279.019 157.276C279.019 157.3 279.019 158.348 279.019 158.576C278.998 158.716 278.943 158.849 278.858 158.962C278.772 159.076 278.66 159.166 278.531 159.224L276.339 160.492L272.14 158.04Z" fill="#37474F"/>
<path d="M278.515 156.636L276.663 155.564C276.296 155.378 275.891 155.281 275.479 155.281C275.068 155.281 274.662 155.378 274.295 155.564L272.14 156.816L276.359 159.26L278.531 158.004C279.167 157.628 279.171 157.016 278.515 156.636Z" fill="#455A64"/>
<path d="M276.343 159.26L272.124 156.816L268.952 158.644L273.176 161.088L276.343 159.26Z" fill="#F0F0F0"/>
<path d="M276.343 159.26L273.176 161.088L273.172 162.308L276.343 160.484V159.26Z" fill="#EBEBEB"/>
<path d="M277.287 158.716L273.064 156.272L273.495 156.024L277.739 158.456L277.287 158.716Z" fill="#F89320"/>
<path d="M277.287 158.716L277.283 159.936L277.739 159.676V158.456L277.287 158.716Z" fill="#F89320"/>
<path opacity="0.1" d="M277.287 158.716L277.283 159.936L277.739 159.676V158.456L277.287 158.716Z" fill="black"/>
<path d="M274.139 161.748C274.139 161.748 274.719 161.004 274.407 160.376L273.176 161.088V162.308L274.139 161.748Z" fill="#F89320"/>
<path opacity="0.1" d="M273.947 161.588C273.947 161.588 274.527 160.844 274.215 160.216L272.984 160.928V162.148L273.947 161.588Z" fill="black"/>
<path d="M274.407 160.376C274.373 160.125 274.276 159.887 274.125 159.684C273.974 159.482 273.774 159.32 273.544 159.216C272.968 158.964 271.748 159.472 271.24 158.644C271.144 158.433 271.097 158.202 271.103 157.97C271.11 157.738 271.169 157.51 271.276 157.304L268.94 158.644L273.164 161.088L274.407 160.376Z" fill="#F89320"/>
<path d="M268.952 158.644V159.864L273.172 162.308L273.176 161.088L268.952 158.644Z" fill="#F89320"/>
<path opacity="0.15" d="M268.952 158.644V159.864L273.172 162.308L273.176 161.088L268.952 158.644Z" fill="#C86D05"/>
<path d="M281.071 82.6702L274.119 86.6817V104.847L279.819 108.139V89.9772L286.774 85.9578L281.071 82.6702Z" fill="#F89320"/>
<path d="M274.139 104.843C274.139 109.571 272.902 112.911 270.428 114.866C270.668 119.188 272.236 120.514 275.131 118.845C278.27 117.032 279.839 113.463 279.839 108.139L274.139 104.843Z" fill="#F89320"/>
<path opacity="0.1" d="M274.295 104.843C274.295 109.571 273.058 112.911 270.584 114.866C270.824 119.188 272.392 120.514 275.287 118.845C278.426 117.032 279.995 113.463 279.995 108.139L274.295 104.843Z" fill="black"/>
<path d="M264.669 92.1369L257.606 96.2124V114.666L263.313 117.957V99.5079L270.368 95.4325L264.669 92.1369Z" fill="#F89320"/>
<path d="M266.396 127.632C264.338 126.128 263.309 122.902 263.309 117.953L257.606 114.666C257.606 119.604 258.634 122.829 260.689 124.341C260.846 124.456 261.011 124.562 261.181 124.657C262.045 125.141 265.865 127.364 266.692 127.856C266.592 127.776 266.492 127.696 266.396 127.632Z" fill="#F89320"/>
<path opacity="0.1" d="M266.576 127.632C264.518 126.128 263.489 122.902 263.489 117.953L257.786 114.666C257.786 119.604 258.813 122.829 260.869 124.341C261.026 124.456 261.191 124.562 261.361 124.657C262.225 125.141 266.045 127.364 266.872 127.856C266.772 127.776 266.672 127.696 266.576 127.632Z" fill="black"/>
<path opacity="0.5" d="M279.819 89.9772L274.115 86.6817L281.071 82.6662L286.774 85.9618L279.819 89.9772Z" fill="white"/>
<path opacity="0.5" d="M263.309 99.5079L257.606 96.2164L264.665 92.1369L270.372 95.4325L263.309 99.5079Z" fill="white"/>
<path d="M266.392 127.636C264.337 126.127 263.309 122.901 263.309 117.957V99.508L270.368 95.4325V113.594C270.368 118.927 271.949 120.677 275.111 118.845C278.274 117.014 279.843 113.445 279.819 108.139V89.9732L286.774 85.9738V104.419C286.774 109.365 285.746 113.779 283.69 117.662C281.73 121.439 278.728 124.574 275.039 126.696C271.333 128.829 268.451 129.143 266.392 127.636Z" fill="#F89320"/>
<path d="M266.468 127.636C264.413 126.127 263.385 122.901 263.385 117.957V99.508L270.444 95.4325V113.594C270.444 118.927 272.025 120.677 275.187 118.845C278.35 117.014 279.919 113.445 279.895 108.139V89.9732L286.85 85.9738V104.419C286.85 109.365 285.822 113.779 283.766 117.662C281.806 121.439 278.804 124.574 275.115 126.696C271.409 128.829 268.527 129.143 266.468 127.636Z" fill="#FBB463"/>
<path d="M249.783 104.499C249.034 104.076 248.209 103.804 247.355 103.699C245.249 103.433 242.877 104.057 240.24 105.571C237.478 107.202 235.061 109.357 233.125 111.914L238.828 115.21C240.762 112.651 243.177 110.496 245.939 108.867C248.579 107.339 250.951 106.715 253.054 106.995C253.922 107.093 254.762 107.365 255.522 107.795C254.774 107.375 250.747 105.051 249.783 104.499Z" fill="#F89320"/>
<path opacity="0.5" d="M249.647 104.285C248.898 103.861 248.073 103.589 247.219 103.483C245.113 103.216 242.741 103.842 240.104 105.36C237.342 106.995 234.925 109.155 232.989 111.718L238.692 115.022C240.626 112.457 243.041 110.297 245.803 108.663C248.443 107.132 250.815 106.506 252.918 106.787C253.786 106.885 254.626 107.158 255.386 107.589C254.638 107.168 250.611 104.839 249.647 104.285Z" fill="white"/>
<path d="M233.125 111.918C231.004 114.651 229.331 117.703 228.17 120.961L233.869 124.257C235.035 121 236.709 117.948 238.828 115.214L233.125 111.918Z" fill="#F89320"/>
<path opacity="0.15" d="M233.145 111.822C231.024 114.555 229.351 117.607 228.19 120.865L233.889 124.161C235.055 120.904 236.729 117.852 238.848 115.118L233.145 111.822Z" fill="white"/>
<path d="M233.869 124.257L228.17 120.961C226.992 124.142 226.382 127.504 226.366 130.896C226.366 134.191 226.967 136.81 228.17 138.751L233.869 142.038C232.672 140.102 232.072 137.487 232.069 134.191C232.087 130.8 232.696 127.438 233.869 124.257Z" fill="#F89320"/>
<path d="M233.869 142.034L228.17 138.747C228.78 139.781 229.643 140.644 230.677 141.254L236.277 144.49C235.288 143.877 234.463 143.034 233.869 142.034Z" fill="#F89320"/>
<path opacity="0.1" d="M233.889 141.906L228.19 138.619C228.8 139.653 229.663 140.516 230.697 141.126L236.297 144.362C235.308 143.749 234.482 142.906 233.889 141.906Z" fill="black"/>
<path d="M249.367 115.878C248.46 115.73 247.53 115.87 246.707 116.278C246.898 117.167 246.99 118.075 246.979 118.985C246.979 120.849 246.678 122.701 246.087 124.469C245.536 126.171 244.718 127.775 243.664 129.22C242.753 130.502 241.587 131.581 240.24 132.392C239.991 132.538 239.735 132.671 239.472 132.791C239.595 133.399 239.805 133.985 240.096 134.531C240.322 135.022 240.659 135.453 241.079 135.792C241.5 136.132 241.993 136.369 242.52 136.487C243.54 136.687 244.683 136.427 245.939 135.687C247.288 134.88 248.455 133.803 249.367 132.524C250.421 131.078 251.239 129.474 251.79 127.772C252.383 126.005 252.684 124.153 252.682 122.289C252.682 120.422 252.385 118.937 251.79 117.833C251.563 117.344 251.227 116.912 250.806 116.573C250.386 116.234 249.894 115.996 249.367 115.878Z" fill="#F89320"/>
<path opacity="0.1" d="M249.283 115.879C248.376 115.731 247.446 115.871 246.623 116.279C246.814 117.168 246.906 118.077 246.895 118.987C246.895 120.85 246.594 122.702 246.003 124.47C245.452 126.172 244.634 127.776 243.58 129.221C242.669 130.503 241.503 131.583 240.156 132.393C239.907 132.539 239.651 132.672 239.388 132.793C239.511 133.4 239.721 133.986 240.012 134.532C240.238 135.023 240.575 135.454 240.995 135.794C241.416 136.133 241.908 136.371 242.436 136.488C243.456 136.688 244.599 136.428 245.855 135.688C247.204 134.881 248.371 133.804 249.283 132.525C250.337 131.079 251.155 129.476 251.706 127.773C252.299 126.006 252.6 124.154 252.598 122.29C252.598 120.424 252.301 118.939 251.706 117.835C251.479 117.345 251.143 116.914 250.722 116.575C250.302 116.235 249.81 115.997 249.283 115.879Z" fill="black"/>
<path d="M238.828 145.354C236.724 145.087 235.071 143.982 233.869 142.038C232.666 140.094 232.066 137.476 232.069 134.183C232.086 130.794 232.695 127.433 233.869 124.253C235.036 120.996 236.71 117.944 238.828 115.21C240.765 112.653 243.182 110.499 245.943 108.867C248.583 107.344 250.955 106.72 253.058 106.995C253.924 107.095 254.762 107.367 255.522 107.795C256.549 108.406 257.406 109.266 258.014 110.295C259.213 112.236 259.813 114.853 259.813 118.145C259.797 121.535 259.188 124.896 258.014 128.076C256.851 131.334 255.179 134.386 253.058 137.119C251.121 139.676 248.705 141.83 245.943 143.462C243.304 144.998 240.932 145.628 238.828 145.354ZM249.367 132.52C250.42 131.073 251.238 129.47 251.79 127.768C252.381 126 252.682 124.149 252.682 122.285C252.682 120.418 252.385 118.933 251.79 117.829C251.562 117.341 251.225 116.911 250.805 116.572C250.385 116.234 249.893 115.996 249.367 115.878C248.343 115.678 247.202 115.944 245.943 116.678C244.595 117.485 243.429 118.564 242.52 119.845C241.463 121.29 240.644 122.894 240.092 124.597C239.503 126.365 239.203 128.216 239.204 130.08C239.204 131.946 239.5 133.43 240.092 134.531C240.32 135.022 240.657 135.453 241.078 135.792C241.499 136.131 241.992 136.369 242.52 136.487C243.538 136.687 244.679 136.42 245.943 135.687C247.291 134.878 248.456 133.8 249.367 132.52Z" fill="#F89320"/>
<path d="M238.948 145.354C236.844 145.087 235.191 143.982 233.989 142.038C232.786 140.094 232.186 137.476 232.189 134.183C232.206 130.794 232.815 127.433 233.989 124.253C235.156 120.996 236.83 117.944 238.948 115.21C240.885 112.653 243.302 110.499 246.063 108.867C248.703 107.344 251.075 106.72 253.178 106.995C254.044 107.095 254.882 107.367 255.642 107.795C256.669 108.406 257.526 109.266 258.134 110.295C259.333 112.236 259.933 114.853 259.933 118.145C259.917 121.535 259.308 124.896 258.134 128.076C256.971 131.334 255.299 134.386 253.178 137.119C251.241 139.676 248.825 141.83 246.063 143.462C243.424 144.998 241.052 145.628 238.948 145.354ZM249.487 132.52C250.54 131.073 251.358 129.47 251.91 127.768C252.501 126 252.802 124.149 252.802 122.285C252.802 120.418 252.505 118.933 251.91 117.829C251.682 117.341 251.345 116.911 250.925 116.572C250.505 116.234 250.013 115.996 249.487 115.878C248.463 115.678 247.322 115.944 246.063 116.678C244.715 117.485 243.549 118.564 242.64 119.845C241.583 121.29 240.764 122.894 240.212 124.597C239.623 126.365 239.323 128.216 239.324 130.08C239.324 131.946 239.62 133.43 240.212 134.531C240.44 135.022 240.777 135.453 241.198 135.792C241.619 136.131 242.112 136.369 242.64 136.487C243.658 136.687 244.799 136.42 246.063 135.687C247.411 134.878 248.576 133.8 249.487 132.52Z" fill="#FBB463"/>
<path d="M226.938 113.922L220.091 117.873L215.547 130.64L213.956 128.004L208.252 124.709L200.797 129.012L210.32 144.722V156.8L216.023 160.092L223.086 156.016V144.082L232.641 117.214L226.938 113.922Z" fill="#F89320"/>
<path opacity="0.5" d="M226.734 113.822L219.887 117.774L215.343 130.54L213.752 127.904L208.048 124.609L200.593 128.912L210.116 144.622V156.7L215.819 159.992L222.882 155.916V143.982L232.437 117.114L226.734 113.822Z" fill="white"/>
<path d="M220.091 117.874L225.794 121.169L219.875 137.803L215.547 130.64L220.091 117.874Z" fill="#F89320"/>
<path d="M200.797 129.012L206.505 132.308L216.023 148.013L210.32 144.722L200.797 129.012Z" fill="#F89320"/>
<path d="M210.32 156.8L216.023 160.092V148.013L210.32 144.722V156.8Z" fill="#F89320"/>
<path opacity="0.1" d="M210.592 156.8L216.295 160.092V148.013L210.592 144.722V156.8Z" fill="black"/>
<path d="M223.082 144.094V156.028L216.023 160.092V148.013L206.501 132.304L213.956 128L219.875 137.803L225.794 121.165L232.641 117.214L223.082 144.094Z" fill="#F89320"/>
<path opacity="0.5" d="M223.174 144.094V156.028L216.115 160.092V148.013L206.593 132.304L214.048 128L219.967 137.803L225.886 121.165L232.733 117.214L223.174 144.094Z" fill="#FFD5A6"/>
<path d="M276.979 39.664L270.06 43.6555V58.7975L264.745 53.3102L259.041 50.0186L253.226 53.3742V86.6577L258.929 89.9493L265.849 85.9578V70.8158L271.164 76.3031L276.867 79.5947L282.682 76.2391V42.9556L276.979 39.664Z" fill="#C86D05"/>
<path d="M282.678 42.9556V76.2391L276.867 79.5946L265.849 68.2202V85.9578L258.93 89.9572V56.6657L264.741 53.3062L275.763 64.6806V46.951L282.678 42.9556Z" fill="#F89320"/>
<path d="M253.226 53.3742L258.929 56.6697L264.745 53.3102L259.041 50.0186L253.226 53.3742Z" fill="#F89320"/>
<path opacity="0.2" d="M253.226 53.3742L258.929 56.6697L264.745 53.3102L259.041 50.0186L253.226 53.3742Z" fill="white"/>
<path d="M270.06 43.6555L275.763 46.9511L282.682 42.9556L276.979 39.664L270.06 43.6555Z" fill="#F89320"/>
<path opacity="0.2" d="M270.06 43.6555L275.763 46.9511L282.682 42.9556L276.979 39.664L270.06 43.6555Z" fill="white"/>
<path d="M265.849 68.2202L276.867 79.5946L271.164 76.3031L265.849 70.8158V68.2202Z" fill="#C86D05"/>
<path d="M245.879 64.2007L240.176 60.9052L233.221 64.9046L222.202 104.547L227.906 107.843L235.105 103.683L237.064 96.0844L247.623 89.9892L249.583 95.3245L256.942 91.1051L245.879 64.2007Z" fill="#C86D05"/>
<path d="M247.627 90.0092L237.068 96.1004L235.109 103.699L227.91 107.859L238.944 68.2162L245.899 64.2167L256.942 91.1051L249.595 95.3445L247.627 90.0092ZM245.555 84.262L242.356 75.4632L239.156 87.9655L245.555 84.262Z" fill="#F89320"/>
<path d="M233.221 64.9246L238.924 68.2162L245.879 64.2047L240.176 60.9091L233.221 64.9246Z" fill="#F89320"/>
<path opacity="0.2" d="M233.389 64.6447L239.092 67.9362L246.047 63.9248L240.344 60.6292L233.389 64.6447Z" fill="white"/>
<path d="M245.555 84.258L240.796 81.5144L242.352 75.4672L245.555 84.258Z" fill="#995404"/>
<path d="M220.207 72.4396L213.144 76.5151V89.0214L209.22 91.2891V85.3699L203.517 82.0743L196.458 86.1498V119.433L202.161 122.729L209.22 118.653V105.671L213.144 103.407V109.799L218.847 113.094L225.91 109.015V75.7352L220.207 72.4396Z" fill="#C86D05"/>
<path d="M225.91 75.7312V109.015L218.847 113.094V100.1L209.22 105.659V118.637L202.149 122.729V89.4453L209.212 85.3659V97.8722L218.839 92.3129V79.8106L225.91 75.7312Z" fill="#F89320"/>
<path d="M196.458 86.1498L202.161 89.4453L209.22 85.3699L203.517 82.0743L196.458 86.1498Z" fill="#F89320"/>
<path opacity="0.2" d="M196.194 85.9378L201.897 89.2334L208.956 85.1579L203.253 81.8624L196.194 85.9378Z" fill="white"/>
<path d="M213.144 76.5151L218.847 79.8106L225.91 75.7352L220.207 72.4396L213.144 76.5151Z" fill="#F89320"/>
<path opacity="0.2" d="M212.88 76.3031L218.583 79.5986L225.646 75.5232L219.943 72.2276L212.88 76.3031Z" fill="white"/>
<path d="M213.144 89.0214L218.847 92.3129L209.22 97.8722V91.2891L213.144 89.0214Z" fill="#C86D05"/>
<path opacity="0.2" d="M213.144 89.0254L218.847 92.3169L209.22 97.8762V91.2931L213.144 89.0254Z" fill="white"/>
<path d="M218.847 100.112V113.094L213.144 109.799V103.407L218.847 100.112Z" fill="#C86D05"/>
<path d="M308.475 149.497L308.679 145.574L304.231 146.094C304.231 146.094 304.415 148.209 304.543 149.401C304.619 150.109 303.743 151.477 303.743 151.477C303.743 151.477 305.903 152.485 307.003 152.029C307.425 151.818 307.79 151.509 308.068 151.129C308.346 150.748 308.53 150.307 308.603 149.841C308.535 149.553 308.475 149.497 308.475 149.497Z" fill="#FFA8A7"/>
<path d="M298.056 156.172C297.993 156.35 297.983 156.541 298.026 156.724C298.069 156.907 298.164 157.074 298.3 157.204C299.348 157.825 300.588 158.04 301.784 157.808C303.487 157.536 304.399 157.008 305.063 156.444C305.727 155.88 306.663 155.084 307.431 154.897C308.042 154.767 308.622 154.52 309.139 154.169C309.363 153.953 309.295 153.029 309.295 153.029L298.056 156.172Z" fill="#263238"/>
<path d="M308.475 149.489C308.537 149.488 308.597 149.508 308.646 149.545C308.695 149.583 308.729 149.637 308.743 149.697C308.807 149.949 308.891 150.689 309.019 151.105C309.225 151.834 309.311 152.592 309.275 153.349C309.199 153.825 308.035 154.201 307.275 154.497C306.412 154.885 305.611 155.4 304.899 156.024C303.858 156.803 302.625 157.286 301.332 157.42C300.008 157.46 298.504 157.112 298.132 156.552C297.684 155.86 297.332 155.044 299.272 154.125C299.636 153.949 300.912 153.177 301.348 152.901C302.524 152.145 303.347 151.465 303.847 150.193C303.887 150.033 303.982 149.891 304.115 149.793C304.241 149.739 304.381 149.723 304.515 149.749C305.168 149.791 305.816 149.882 306.455 150.021C306.723 150.129 307.099 150.249 307.107 150.565C307.105 150.676 307.085 150.785 307.047 150.889C307.023 150.953 307.011 151.041 307.071 151.077C307.131 151.113 307.203 151.077 307.251 151.021C307.437 150.832 307.607 150.627 307.759 150.409C307.845 150.294 307.946 150.191 308.059 150.101C308.172 150.035 308.282 149.963 308.387 149.885C308.507 149.773 308.475 149.637 308.475 149.489Z" fill="#C86D05"/>
<path d="M304.935 156.024C305.267 155.739 305.614 155.472 305.975 155.224C305.975 155.224 303.719 156.624 302.776 156.064C302.602 155.976 302.469 155.823 302.406 155.639C302.343 155.455 302.353 155.253 302.436 155.076C302.436 154.929 300.288 153.957 299.7 153.913C299.54 154.001 299.408 154.077 299.324 154.117C297.396 155.036 297.724 155.852 298.184 156.544C298.548 157.104 299.644 157.512 301.352 157.448C302.652 157.301 303.889 156.809 304.935 156.024Z" fill="#37474F"/>
<path d="M302.556 154.645C301.356 155.144 301.884 155.34 302.228 155.372C302.572 155.404 304.579 154.209 305.795 153.233C307.011 152.257 307.847 151.133 308.315 150.761C308.491 150.621 308.683 150.449 308.847 150.293C308.807 150.041 308.771 149.813 308.743 149.697C308.729 149.637 308.695 149.583 308.646 149.545C308.597 149.508 308.537 149.488 308.475 149.489C308.475 149.637 308.507 149.773 308.395 149.889C308.29 149.967 308.18 150.039 308.067 150.105C307.954 150.195 307.853 150.298 307.767 150.413C307.615 150.631 307.445 150.836 307.259 151.025C305.934 152.518 304.338 153.746 302.556 154.645Z" fill="#37474F"/>
<path d="M302.308 155.2C302.336 155.201 302.363 155.191 302.384 155.172C302.395 155.162 302.404 155.15 302.41 155.136C302.416 155.122 302.419 155.108 302.419 155.092C302.419 155.077 302.416 155.063 302.41 155.049C302.404 155.035 302.395 155.023 302.384 155.012C302.028 154.633 300.36 153.757 299.468 153.885C299.453 153.886 299.437 153.89 299.424 153.897C299.41 153.904 299.398 153.914 299.388 153.926C299.378 153.938 299.371 153.952 299.367 153.967C299.363 153.982 299.362 153.997 299.364 154.013C299.37 154.043 299.387 154.07 299.413 154.088C299.438 154.106 299.469 154.113 299.5 154.109C300.336 153.993 301.92 154.861 302.204 155.164C302.217 155.178 302.233 155.189 302.251 155.195C302.269 155.201 302.289 155.203 302.308 155.2Z" fill="#263238"/>
<path d="M303.335 154.549C303.363 154.549 303.391 154.539 303.411 154.521C303.423 154.51 303.432 154.498 303.438 154.484C303.444 154.471 303.447 154.456 303.447 154.441C303.447 154.426 303.444 154.411 303.438 154.397C303.432 154.383 303.423 154.371 303.411 154.361C303.056 153.981 301.388 153.109 300.496 153.233C300.481 153.234 300.466 153.239 300.452 153.246C300.439 153.253 300.427 153.263 300.417 153.275C300.408 153.287 300.4 153.301 300.396 153.315C300.392 153.33 300.39 153.345 300.392 153.361C300.398 153.391 300.415 153.418 300.441 153.436C300.466 153.454 300.497 153.461 300.528 153.457C301.364 153.341 302.948 154.209 303.232 154.513C303.245 154.526 303.261 154.537 303.279 154.543C303.297 154.549 303.317 154.551 303.335 154.549Z" fill="#263238"/>
<path d="M304.387 153.929C304.401 153.929 304.415 153.927 304.428 153.922C304.441 153.918 304.453 153.91 304.463 153.901C304.475 153.891 304.483 153.878 304.49 153.864C304.496 153.851 304.499 153.836 304.499 153.821C304.499 153.806 304.496 153.791 304.49 153.777C304.483 153.763 304.475 153.751 304.463 153.741C304.103 153.361 302.436 152.485 301.544 152.613C301.528 152.614 301.514 152.619 301.5 152.626C301.487 152.633 301.475 152.643 301.465 152.655C301.455 152.667 301.448 152.681 301.444 152.695C301.439 152.71 301.438 152.726 301.44 152.741C301.447 152.772 301.465 152.799 301.491 152.816C301.517 152.834 301.549 152.842 301.58 152.837C302.412 152.721 303.979 153.589 304.279 153.893C304.293 153.907 304.31 153.917 304.329 153.923C304.348 153.93 304.368 153.931 304.387 153.929Z" fill="#263238"/>
<path d="M305.335 153.229C305.349 153.229 305.363 153.227 305.376 153.222C305.389 153.218 305.401 153.21 305.411 153.201C305.422 153.191 305.431 153.179 305.437 153.166C305.443 153.152 305.446 153.138 305.446 153.123C305.446 153.108 305.443 153.093 305.437 153.08C305.431 153.067 305.422 153.055 305.411 153.045C305.051 152.645 303.383 151.789 302.492 151.913C302.461 151.917 302.433 151.932 302.414 151.956C302.395 151.98 302.385 152.01 302.388 152.041C302.394 152.072 302.413 152.099 302.439 152.117C302.465 152.134 302.496 152.142 302.528 152.137C303.359 152.021 304.927 152.889 305.231 153.193C305.243 153.208 305.259 153.22 305.278 153.226C305.296 153.233 305.316 153.234 305.335 153.229Z" fill="#263238"/>
<path d="M306.287 152.533C306.315 152.531 306.341 152.522 306.363 152.505C306.374 152.495 306.383 152.482 306.389 152.469C306.395 152.455 306.399 152.44 306.399 152.425C306.399 152.41 306.395 152.395 306.389 152.381C306.383 152.367 306.374 152.355 306.363 152.345C305.871 151.805 304.131 151.089 303.24 151.213C303.224 151.214 303.209 151.219 303.196 151.226C303.182 151.234 303.17 151.243 303.161 151.255C303.151 151.267 303.144 151.281 303.14 151.296C303.135 151.31 303.134 151.326 303.136 151.341C303.142 151.372 303.161 151.399 303.187 151.417C303.213 151.435 303.244 151.442 303.276 151.437C304.075 151.325 305.743 152.013 306.179 152.493C306.193 152.508 306.209 152.519 306.228 152.526C306.247 152.533 306.267 152.535 306.287 152.533Z" fill="#263238"/>
<path d="M317.61 151.129L316.502 147.454L321.037 146.654L321.325 150.229C321.325 150.229 321.837 151.497 321.573 151.973C321.309 152.449 318.293 153.057 318.006 152.753C317.718 152.449 317.61 151.129 317.61 151.129Z" fill="#FFA8A7"/>
<path d="M318.265 159.184C318.441 160.328 318.709 161.06 319.229 161.664C319.749 162.268 320.637 162.34 321.501 162C322.365 161.66 323.445 160.952 323.613 159.912C323.762 158.991 323.68 158.047 323.377 157.164L318.265 159.184Z" fill="#263238"/>
<path d="M321.333 150.217C321.697 150.185 321.661 151.761 322.005 153.281C322.373 154.909 322.993 155.508 323.309 156.84C323.673 158.36 323.641 159.072 323.109 160.112C322.577 161.152 320.481 162.428 319.293 161.248C318.321 160.288 318.182 159.076 318.126 157.504C318.115 156.176 318.028 154.851 317.866 153.533C317.694 152.377 317.318 151.353 317.622 151.173C317.662 151.341 317.702 151.573 317.742 151.721C317.782 151.869 317.866 152.473 318.07 152.445C318.071 152.297 318.059 152.15 318.034 152.005C318.017 151.937 318.014 151.867 318.025 151.798C318.037 151.729 318.063 151.663 318.102 151.605C318.271 151.462 318.466 151.353 318.677 151.285C319.029 151.165 319.661 151.005 320.021 150.921C320.203 150.878 320.383 150.842 320.561 150.813C320.716 150.789 320.874 150.789 321.029 150.813C321.071 150.817 321.112 150.831 321.148 150.853C321.184 150.875 321.214 150.905 321.237 150.941C321.259 150.996 321.272 151.054 321.273 151.113C321.281 151.221 321.305 151.328 321.345 151.429C321.345 151.473 321.401 151.521 321.453 151.501C321.472 151.492 321.487 151.477 321.497 151.458C321.506 151.439 321.509 151.418 321.505 151.397C321.505 151.209 321.453 151.077 321.421 150.861C321.421 150.761 321.377 150.625 321.369 150.525C321.361 150.425 321.333 150.317 321.333 150.217Z" fill="#C86D05"/>
<path d="M323.181 156.408C323.237 156.628 323.581 158.08 323.145 158.408C322.709 158.736 322.305 157.652 322.305 157.652C322.305 157.652 321.105 157.52 319.505 158.452C319.609 158.68 319.421 159.516 318.941 159.424C318.461 159.332 318.141 157.652 318.141 157.628C318.197 159.132 318.357 160.304 319.301 161.228C320.501 162.407 322.585 161.136 323.117 160.092C323.649 159.048 323.681 158.34 323.317 156.82C323.271 156.682 323.226 156.544 323.181 156.408Z" fill="#37474F"/>
<path d="M322.181 157.788C322.237 158.348 322.849 158.06 322.805 157.26C322.761 156.46 322.109 154.649 322.005 153.281C321.829 151.401 321.697 150.185 321.333 150.217C321.333 150.237 321.333 150.257 321.333 150.273L321.449 151.073C321.471 151.183 321.488 151.293 321.497 151.405C321.605 152.553 321.701 154.789 321.897 155.804C322.033 156.459 322.128 157.122 322.181 157.788Z" fill="#37474F"/>
<path d="M319.685 158.416C319.472 157.786 319.3 157.144 319.169 156.492C318.953 155.472 318.261 153.437 317.918 152.341C317.831 152.143 317.769 151.934 317.734 151.721C317.698 151.565 317.658 151.373 317.622 151.209C317.62 151.198 317.62 151.188 317.622 151.177C317.402 151.309 317.51 152.197 317.646 152.657C317.782 153.117 317.946 153.601 318.117 154.257C318.545 155.544 318.653 157.504 318.917 158.256C319.181 159.008 319.853 158.952 319.685 158.416Z" fill="#37474F"/>
<path d="M319.461 158.516L319.509 158.492C320.345 157.993 321.308 157.748 322.281 157.788C322.316 157.791 322.351 157.781 322.38 157.761C322.408 157.74 322.428 157.71 322.437 157.676C322.44 157.66 322.439 157.644 322.435 157.628C322.431 157.612 322.424 157.598 322.413 157.585C322.403 157.573 322.39 157.562 322.376 157.555C322.361 157.548 322.345 157.544 322.329 157.544C321.288 157.496 320.256 157.759 319.365 158.3C319.351 158.308 319.338 158.319 319.327 158.332C319.317 158.345 319.309 158.36 319.305 158.376C319.301 158.393 319.3 158.409 319.303 158.426C319.306 158.442 319.312 158.458 319.321 158.472C319.338 158.492 319.36 158.507 319.385 158.515C319.41 158.522 319.436 158.523 319.461 158.516Z" fill="#263238"/>
<path d="M319.049 157.34L319.093 157.32C320.041 156.786 321.113 156.51 322.201 156.52C322.236 156.522 322.27 156.511 322.298 156.49C322.326 156.469 322.345 156.438 322.353 156.404C322.355 156.388 322.354 156.372 322.349 156.357C322.345 156.341 322.337 156.327 322.326 156.315C322.316 156.302 322.303 156.293 322.288 156.286C322.273 156.279 322.257 156.276 322.241 156.276C321.093 156.257 319.96 156.545 318.961 157.112C318.947 157.12 318.934 157.13 318.924 157.143C318.913 157.155 318.905 157.17 318.9 157.185C318.896 157.201 318.894 157.217 318.895 157.234C318.897 157.25 318.902 157.266 318.909 157.28C318.924 157.303 318.945 157.322 318.97 157.332C318.995 157.343 319.023 157.346 319.049 157.34Z" fill="#263238"/>
<path d="M322.013 155.384C322.04 155.382 322.065 155.372 322.086 155.355C322.107 155.339 322.123 155.317 322.133 155.292C322.137 155.277 322.138 155.261 322.135 155.245C322.132 155.23 322.126 155.215 322.117 155.202C322.108 155.189 322.096 155.178 322.082 155.17C322.068 155.162 322.053 155.158 322.037 155.156C320.369 154.929 318.837 155.92 318.757 155.956C318.743 155.965 318.731 155.976 318.722 155.99C318.712 156.003 318.705 156.018 318.701 156.034C318.698 156.05 318.697 156.067 318.7 156.083C318.703 156.099 318.709 156.114 318.717 156.128C318.74 156.154 318.772 156.169 318.806 156.173C318.84 156.177 318.874 156.168 318.901 156.148C318.901 156.148 320.417 155.176 321.969 155.392C321.984 155.392 321.999 155.389 322.013 155.384Z" fill="#263238"/>
<path d="M321.825 154.305C321.849 154.299 321.872 154.288 321.89 154.271C321.908 154.254 321.922 154.232 321.929 154.209C321.935 154.193 321.937 154.177 321.935 154.161C321.933 154.145 321.927 154.129 321.918 154.115C321.909 154.102 321.897 154.09 321.883 154.082C321.869 154.074 321.853 154.069 321.837 154.069C320.661 153.917 319.47 154.202 318.489 154.869C318.475 154.877 318.464 154.889 318.454 154.903C318.445 154.916 318.439 154.932 318.437 154.948C318.434 154.964 318.435 154.981 318.439 154.997C318.443 155.013 318.451 155.028 318.461 155.04C318.488 155.063 318.521 155.075 318.555 155.075C318.59 155.075 318.623 155.063 318.649 155.04C319.566 154.428 320.671 154.163 321.765 154.293L321.825 154.305Z" fill="#263238"/>
<path d="M321.605 153.093C321.63 153.087 321.653 153.076 321.672 153.059C321.69 153.042 321.705 153.021 321.713 152.997C321.718 152.981 321.719 152.965 321.717 152.949C321.715 152.933 321.709 152.917 321.7 152.903C321.692 152.89 321.68 152.878 321.666 152.869C321.653 152.861 321.637 152.855 321.621 152.853C319.897 152.565 318.321 153.653 318.253 153.701C318.239 153.709 318.227 153.721 318.218 153.734C318.208 153.747 318.201 153.763 318.198 153.779C318.195 153.795 318.195 153.812 318.198 153.828C318.201 153.844 318.208 153.859 318.217 153.873C318.243 153.896 318.277 153.909 318.311 153.909C318.346 153.909 318.38 153.896 318.405 153.873C318.405 153.873 319.945 152.813 321.545 153.073L321.605 153.093Z" fill="#263238"/>
<path d="M317.306 110.67C318.653 119.685 319.129 132.668 319.129 132.668C319.241 133.351 319.877 135.375 320.513 138.735C321.077 141.73 321.313 148.017 321.313 148.397C321.313 148.397 318.969 149.997 316.942 149.477C316.942 149.477 313.97 140.278 312.65 136.143C311.402 132.216 309.683 125.892 309.683 125.892L309.259 132.444C309.259 132.444 309.587 135.063 309.659 136.875C309.723 138.987 308.703 147.442 308.703 147.442C308.703 147.442 306.387 148.921 304.215 147.442C304.215 147.442 302.28 135.255 302.04 132.727C301.568 127.776 300.944 117.582 301.212 111.442L317.306 110.67Z" fill="#C86D05"/>
<path d="M309.695 125.892L308.211 119.513C308.211 119.513 305.791 119.333 304.479 118.289C304.479 118.289 305.379 119.729 307.679 120.149L309.115 125.948L309.267 132.444L309.695 125.892Z" fill="#263238"/>
<path d="M294.073 86.0778C294.529 88.1895 294.269 87.9495 295.481 89.6133C298.028 93.1088 301.08 97.2123 301.08 97.2123C303.807 98.2721 304.015 94.7366 305.663 92.9489C304.167 91.3851 303.551 91.3811 301.744 89.2814C300.608 87.9575 298.712 85.7698 298.712 85.7698C298.712 85.7698 297.856 83.5301 297.148 81.4864C296.252 78.9108 295.948 78.5428 296.348 77.303C296.502 76.7265 296.605 76.1377 296.656 75.5432C296.764 74.6753 296.744 73.8034 296.816 72.9356C296.83 72.8763 296.83 72.8148 296.816 72.7556C296.72 72.5356 296.416 72.6876 296.296 72.7836C296.13 72.9347 296.017 73.1351 295.972 73.3555C295.888 73.6315 295.816 73.9114 295.736 74.1874C295.716 74.2634 295.668 74.5233 295.561 74.5233C295.453 74.5233 295.465 74.2434 295.457 74.1754C295.457 73.8874 295.457 73.6035 295.457 73.3155C295.481 72.6036 295.509 71.8877 295.533 71.1718C295.542 71.074 295.535 70.9754 295.513 70.8798C295.413 70.4799 294.973 70.5519 294.801 70.9598C294.753 71.0692 294.717 71.1831 294.693 71.2998C294.619 71.6592 294.566 72.0224 294.533 72.3876C294.522 72.5379 294.503 72.6874 294.477 72.8356C294.477 72.8636 294.425 73.0715 294.369 72.9876C294.361 72.9641 294.361 72.939 294.369 72.9156C294.369 72.4276 294.393 71.9437 294.417 71.4598C294.417 71.2118 294.437 70.9678 294.437 70.7199C294.437 70.5559 294.481 70.2519 294.353 70.1239C294.306 70.084 294.249 70.0589 294.189 70.0519C294.095 70.0381 293.998 70.0506 293.911 70.088C293.823 70.1254 293.748 70.1863 293.693 70.2639C293.632 70.3545 293.584 70.4527 293.549 70.5559C293.513 70.6612 293.488 70.7697 293.473 70.8798C293.357 70.6039 292.989 70.6759 292.849 70.8798C292.663 71.2513 292.579 71.6652 292.605 72.0797C292.581 72.6156 292.569 72.8796 292.565 73.6795C292.565 73.8354 292.489 73.9314 292.461 73.7554C292.437 73.6098 292.421 73.4629 292.413 73.3155C292.413 73.1275 292.413 73.0675 292.393 72.8676C292.41 72.5759 292.383 72.2833 292.313 71.9997C292.225 71.8957 292.045 71.9477 291.953 72.0277C291.884 72.0906 291.833 72.1706 291.805 72.2596C291.622 72.8329 291.574 73.4406 291.665 74.0354C291.701 74.5153 291.741 74.9913 291.785 75.4672C291.795 76.3517 292.004 77.2225 292.397 78.0149C292.57 78.2958 292.704 78.5984 292.797 78.9148C293.077 79.9866 293.245 81.2024 293.469 82.4703C293.593 83.4421 293.737 84.474 294.073 86.0778Z" fill="#FFA8A7"/>
<path d="M294.797 74.9513C293.997 74.8913 293.661 75.9551 293.521 76.5511C293.493 76.675 293.541 77.043 293.669 76.775L293.801 76.4871C293.888 76.306 293.987 76.131 294.097 75.9631C294.28 75.667 294.53 75.4188 294.829 75.2392C294.913 75.1952 295.013 75.1272 294.989 75.0353C294.977 75.0077 294.957 74.9841 294.932 74.9672C294.908 74.9502 294.879 74.9405 294.849 74.9393L294.797 74.9513Z" fill="#F28F8F"/>
<path d="M293.449 70.9038C293.474 71.8571 293.408 72.8106 293.253 73.7515C293.18 72.7978 293.246 71.8385 293.449 70.9038Z" fill="#F28F8F"/>
<path d="M304.935 92.077C303.715 91.033 302.561 89.9136 301.48 88.7254C300.452 87.6256 298.848 85.7458 298.848 85.7458L296.688 80.1746C296.688 80.1746 296.408 80.7825 295.089 81.1585C293.769 81.5344 293.189 81.1065 293.189 81.1065C293.189 81.1065 293.509 83.9061 293.909 85.9338C294.309 87.9615 294.173 88.0255 295.457 89.8773C296.74 91.729 300.1 96.3204 300.984 97.4163C301.868 98.5121 302.876 100.728 302.876 100.668C302.876 100.608 304.935 92.077 304.935 92.077Z" fill="#C86D05"/>
<path d="M311.926 93.1928C313.59 93.63 315.211 94.2205 316.766 94.9566C316.766 94.9566 317.966 97.5402 317.422 103.447C317.338 104.391 317.122 106.943 317.022 108.907C316.93 110.507 316.965 112.111 317.126 113.706C317.126 113.706 314.674 115.914 308.203 115.518C303.124 115.21 301.568 113.146 301.568 113.146C301.568 113.146 301.492 106.299 301.568 102.556C301.672 97.6362 303.12 94.7806 304.203 93.9047L307.527 93.3008L311.926 93.1928Z" fill="#F0F0F0"/>
<path d="M312.51 93.2048V93.5328C312.51 93.5328 311.334 96.4764 311.31 102.244C311.286 108.011 311.546 117.242 311.546 117.242C311.546 117.242 315.482 117.102 318.094 114.938C318.094 114.938 317.53 109.947 317.554 107.651C317.578 105.355 318.162 102.052 318.753 98.7761C319.345 95.5005 314.686 91.1171 314.686 91.1171C314.104 91.9484 313.365 92.6577 312.51 93.2048Z" fill="#F89320"/>
<path d="M307.415 92.9409C306.235 92.8689 305.871 92.6489 304.923 92.077C303.194 94.2842 302.068 96.9027 301.656 99.6759C301.032 104.207 300.856 115.174 300.856 115.174C301.539 115.547 302.273 115.817 303.036 115.974C303.036 115.974 303.164 110.574 303.376 105.599C303.635 99.6 303.991 95.8165 307.431 93.3208L307.415 92.9409Z" fill="#F89320"/>
<path opacity="0.3" d="M313.47 103.087C312.902 103.663 312.346 104.243 311.794 104.835C312.418 104.286 313.034 103.729 313.642 103.163L313.686 103.119C313.438 102.632 313.202 102.136 312.946 101.648L312.286 100.376C312.814 100.176 313.338 99.9759 313.862 99.7519L313.946 99.7199V99.636C313.978 97.8482 313.994 95.9884 313.946 94.2007C313.814 95.9525 313.738 97.7802 313.686 99.54C313.089 99.7666 312.497 99.9999 311.91 100.24L311.982 100.368C312.418 101.168 313.018 102.296 313.47 103.087ZM301.808 101.488L301.828 101.532C302.172 102.288 302.52 103.039 302.888 103.779C302.616 103.016 302.324 102.26 302.024 101.508C302.468 100.848 302.908 100.18 303.336 99.508L303.384 99.436L303.336 99.36L302.692 98.4121C302.822 98.0033 302.977 97.6026 303.156 97.2123C303.748 95.9916 304.453 94.8294 305.263 93.7408C303.984 95.0886 303.004 96.6914 302.388 98.4441L302.428 98.4961L303.064 99.428C302.664 100.092 302.236 100.76 301.836 101.428L301.808 101.488Z" fill="black"/>
<path d="M313.334 82.9702C313.605 82.9887 313.869 83.0664 314.106 83.1977C314.344 83.3289 314.55 83.5107 314.71 83.7301C314.993 84.2593 315.153 84.8454 315.179 85.445C315.204 86.0445 315.095 86.6422 314.858 87.1936C314.246 88.7934 313.05 90.3332 312.786 90.7931C312.614 91.0691 312.342 91.2682 312.026 91.3491L312.162 89.3773L312.294 88.0055C312.294 88.0055 311.23 86.9536 311.178 85.9618C311.11 85.2723 311.27 84.5795 311.634 83.99L313.334 82.9702Z" fill="#263238"/>
<path d="M306.499 84.9819C307.078 84.7696 307.691 84.6665 308.307 84.6779L309.967 84.638L311.738 84.602C311.738 84.602 313.642 84.366 313.698 83.0302C313.713 82.6045 313.594 82.1848 313.358 81.8303C313.102 81.4532 312.784 81.1219 312.418 80.8505C311.675 80.2971 310.796 79.9557 309.875 79.8626C309.15 79.8006 308.42 79.8329 307.703 79.9586C307.222 80.0654 306.727 80.0871 306.239 80.0226C306.063 80.0036 305.898 79.9319 305.763 79.817C305.629 79.7021 305.533 79.5493 305.487 79.3787C305.292 79.6001 305.167 79.8738 305.125 80.1659C305.084 80.4579 305.129 80.7557 305.255 81.0224C305.017 81.0145 304.783 81.0844 304.588 81.2215C304.393 81.3586 304.248 81.5555 304.175 81.7823C304.12 82.0149 304.122 82.2576 304.182 82.4892C304.242 82.7207 304.358 82.9339 304.519 83.1102C304.487 83.0582 304.279 83.4301 304.263 83.4621C304.149 83.6793 304.106 83.9269 304.139 84.17C304.183 84.3412 304.265 84.5001 304.379 84.6346C304.494 84.7691 304.637 84.8756 304.799 84.9459C305.061 85.0826 305.35 85.157 305.645 85.1633C305.94 85.1695 306.232 85.1074 306.499 84.9819Z" fill="#263238"/>
<path d="M313.946 90.0252C312.902 90.4772 312.47 89.6493 312.47 89.6493L312.514 93.5328C310.85 96.4284 305.603 95.8684 307.119 93.5847L307.151 92.4409C306.854 92.4274 306.56 92.3858 306.271 92.3169C304.855 92.001 304.527 91.1371 304.351 90.1372C304.071 88.5814 304.215 86.4417 304.867 83.998C304.905 83.7517 304.996 83.5166 305.134 83.3093C305.272 83.102 305.454 82.9275 305.667 82.7982C306.779 82.3063 307.747 83.1222 309.235 83.7781C309.851 84.05 311.366 84.222 311.774 84.054C311.222 84.61 311.146 86.4537 311.89 87.2336C311.981 87.4289 312.105 87.6064 312.258 87.7575C312.578 88.0575 312.882 87.3296 313.17 87.0496C313.31 86.9418 313.473 86.868 313.646 86.834C313.82 86.8 313.999 86.8067 314.169 86.8537C314.339 86.9006 314.496 86.9864 314.627 87.1044C314.759 87.2224 314.861 87.3693 314.926 87.5336C315.03 87.7608 315.087 88.0067 315.094 88.2565C315.1 88.5064 315.057 88.755 314.965 88.9876C314.874 89.2201 314.736 89.4319 314.561 89.6102C314.386 89.7885 314.177 89.9296 313.946 90.0252Z" fill="#FFA8A7"/>
<path d="M307.151 92.4409C308.184 92.5363 309.226 92.3813 310.187 91.989C311.075 91.5153 311.754 90.7264 312.09 89.7773C312.01 91.281 311.422 91.965 310.335 92.4769C309.321 92.8903 308.229 93.0773 307.135 93.0248L307.151 92.4409Z" fill="#F28F8F"/>
<path d="M309.043 85.1019L309.927 85.7418C310.015 85.6185 310.051 85.4653 310.027 85.3155C310.003 85.1658 309.921 85.0315 309.799 84.9419C309.739 84.9014 309.672 84.8733 309.601 84.8594C309.53 84.8455 309.457 84.846 309.387 84.861C309.316 84.8759 309.249 84.905 309.19 84.9463C309.131 84.9877 309.081 85.0406 309.043 85.1019Z" fill="#263238"/>
<path d="M305.179 85.2459L306.183 84.8019C306.158 84.7347 306.119 84.6735 306.069 84.6219C306.019 84.5703 305.959 84.5296 305.893 84.5022C305.826 84.4748 305.755 84.4614 305.683 84.4627C305.611 84.4641 305.541 84.4801 305.475 84.51C305.341 84.5713 305.235 84.6819 305.18 84.8189C305.125 84.9558 305.125 85.1086 305.179 85.2459Z" fill="#263238"/>
<path d="M309.467 86.5337C309.46 86.6216 309.427 86.7055 309.372 86.7747C309.318 86.8439 309.244 86.8953 309.16 86.9223C309.076 86.9493 308.986 86.9506 308.901 86.9262C308.816 86.9018 308.741 86.8527 308.684 86.7852C308.627 86.7177 308.592 86.6349 308.583 86.5472C308.573 86.4595 308.59 86.3711 308.631 86.293C308.672 86.215 308.735 86.1509 308.813 86.109C308.891 86.0671 308.979 86.0493 309.067 86.0578C309.183 86.0679 309.29 86.1237 309.365 86.213C309.44 86.3022 309.477 86.4176 309.467 86.5337Z" fill="#263238"/>
<path d="M306.155 86.2537C306.148 86.3414 306.114 86.4248 306.059 86.4935C306.004 86.5621 305.93 86.6128 305.846 86.6392C305.762 86.6656 305.672 86.6664 305.588 86.6416C305.503 86.6168 305.428 86.5675 305.372 86.4999C305.315 86.4323 305.28 86.3495 305.271 86.262C305.262 86.1745 305.279 86.0862 305.32 86.0084C305.361 85.9306 305.425 85.8668 305.502 85.825C305.579 85.7832 305.668 85.7654 305.755 85.7738C305.815 85.7726 305.875 85.7849 305.929 85.8098C305.984 85.8347 306.032 85.8715 306.071 85.9176C306.109 85.9637 306.136 86.0178 306.151 86.076C306.166 86.1342 306.167 86.1949 306.155 86.2537Z" fill="#263238"/>
<path d="M307.619 85.7498L307.131 88.5494L305.663 87.9335C306.142 87.0676 306.811 86.3211 307.619 85.7498Z" fill="#F28F8F"/>
<path d="M308.643 88.8694L306.815 89.3013C306.879 89.5474 307.037 89.759 307.254 89.8918C307.471 90.0245 307.73 90.068 307.979 90.0132C308.099 89.9841 308.212 89.9309 308.311 89.857C308.41 89.783 308.493 89.6898 308.555 89.583C308.617 89.4761 308.657 89.3578 308.672 89.2352C308.687 89.1125 308.677 88.9881 308.643 88.8694Z" fill="#B16668"/>
<path d="M307.543 90.0132C307.623 89.7682 307.773 89.5517 307.974 89.3899C308.175 89.2281 308.418 89.1279 308.675 89.1013C308.681 89.3105 308.615 89.5155 308.489 89.6822C308.362 89.8488 308.182 89.967 307.979 90.0172C307.835 90.0499 307.686 90.0486 307.543 90.0132Z" fill="#F28F8F"/>
<path d="M306.479 58.1535L316.678 37.5243L310.974 34.2328L303.2 38.7202L298.884 47.391L293.537 44.2994L286.546 48.3349V81.6184L292.249 84.9139L299.24 80.8785V72.5556L300.892 69.248L303.308 71.9437L309.011 75.2352L317.214 70.4999L306.479 58.1535Z" fill="#C86D05"/>
<path d="M301.88 67.2763L299.24 72.5556V80.8785L292.249 84.9019V51.6304L299.24 47.595V61.4291L308.903 42.0157L316.678 37.5243L306.479 58.1535L317.214 70.5039L309.011 75.2392L301.88 67.2763Z" fill="#F89320"/>
<path d="M286.546 48.3349L292.249 51.6304L299.24 47.595L293.537 44.2994L286.546 48.3349Z" fill="#F89320"/>
<path opacity="0.2" d="M286.546 48.3349L292.249 51.6304L299.24 47.595L293.537 44.2994L286.546 48.3349Z" fill="white"/>
<path d="M303.2 38.7202L308.903 42.0157L316.678 37.5243L310.974 34.2328L303.2 38.7202Z" fill="#F89320"/>
<path opacity="0.2" d="M303.2 38.7202L308.903 42.0157L316.678 37.5243L310.974 34.2328L303.2 38.7202Z" fill="white"/>
<path d="M301.88 67.2763L309.011 75.2352L303.307 71.9437L300.892 69.248L301.88 67.2763Z" fill="#C86D05"/>
<path d="M309.555 71.8677C309.56 71.814 309.577 71.7622 309.606 71.7164C309.634 71.6706 309.673 71.632 309.719 71.6037C309.769 71.5771 309.825 71.5632 309.883 71.5632C309.94 71.5632 309.996 71.5771 310.047 71.6037C310.145 71.6654 310.233 71.7423 310.307 71.8317C310.555 72.113 310.787 72.408 311.002 72.7156C311.046 72.7836 311.402 73.2715 311.402 72.9915C311.387 72.8795 311.352 72.7711 311.298 72.6716C310.875 71.8037 310.475 70.9198 310.099 70.0279C310.019 69.836 309.967 69.512 310.163 69.372C310.258 69.3236 310.368 69.3094 310.473 69.332C310.577 69.3546 310.671 69.4125 310.739 69.496C310.822 69.5791 310.897 69.6702 310.962 69.768C311.167 70.0732 311.354 70.3897 311.522 70.7158C311.586 70.8542 311.66 70.9879 311.742 71.1158C311.742 71.1398 311.878 71.3118 311.898 71.2158C311.906 71.1911 311.906 71.1645 311.898 71.1398C311.726 70.6878 311.498 70.2519 311.306 69.812C311.202 69.588 311.102 69.364 311.01 69.1361C310.95 68.9801 310.795 68.7161 310.866 68.5521C310.893 68.4966 310.937 68.4505 310.99 68.4201C311.072 68.3711 311.165 68.3452 311.26 68.3452C311.356 68.3452 311.449 68.3711 311.53 68.4201C311.621 68.4811 311.703 68.5537 311.774 68.6361C311.845 68.722 311.909 68.8129 311.966 68.9081C311.966 68.6081 312.338 68.5361 312.55 68.6921C312.861 68.9666 313.095 69.3184 313.226 69.712C313.422 70.1359 313.602 70.5679 313.786 70.9958C313.926 71.3238 314.026 71.6717 314.186 71.9997C314.218 72.0677 314.262 72.1317 314.338 72.1237C314.358 71.4717 313.938 70.6998 314.594 70.2079C314.63 70.1778 314.672 70.1571 314.718 70.1479C314.942 70.1199 315.266 71.5557 315.334 71.7797C315.477 72.2186 315.571 72.672 315.614 73.1315C315.605 73.534 315.64 73.9363 315.718 74.3314C315.818 74.6706 315.957 74.9969 316.134 75.3032C316.493 75.865 316.911 76.3866 317.382 76.859C318.026 77.5429 318.581 78.0349 319.381 78.9347C318.896 79.3084 318.379 79.6402 317.838 79.9266C317.142 80.2707 316.402 80.5144 315.638 80.6505C315.042 79.6546 314.574 78.8867 313.938 77.8829L313.846 77.7469C313.806 77.6909 313.758 77.6389 313.714 77.5829C313.102 76.899 312.37 76.4431 311.766 75.7312C311.314 75.1523 310.913 74.5355 310.567 73.8874C310.407 73.6155 310.271 73.3275 310.107 73.0595C309.926 72.7939 309.772 72.5112 309.647 72.2156C309.597 72.1092 309.573 71.993 309.575 71.8757L309.555 71.8677Z" fill="#FFA8A7"/>
<path d="M311.942 68.9321C312.275 69.8246 312.693 70.6831 313.19 71.4957C312.9 70.5854 312.48 69.7219 311.942 68.9321Z" fill="#F28F8F"/>
<path d="M314.702 91.1171C315.471 89.7058 316.15 88.247 316.734 86.7497C317.306 85.3579 317.566 84.462 317.566 84.462L313.842 78.0069C313.842 78.0069 314.35 78.1469 315.546 77.423C316.742 76.6991 316.654 76.0671 316.654 76.0671C316.654 76.0671 320.621 79.6986 322.073 81.3464C323.445 82.9022 323.297 83.4981 322.761 85.6858C322.225 87.8735 320.477 92.8649 320.041 94.2007C319.605 95.5365 318.769 98.7761 318.769 98.7761C316.894 99.276 314.134 95.3005 314.702 91.1171Z" fill="#C86D05"/>
<path d="M183.884 179.977C184.072 179.937 184.116 180.509 184.076 180.777C184.036 181.045 183.344 181.933 181.988 182.377C180.632 182.821 178.684 182.777 177.856 182.829C177.028 182.881 175.821 183.421 175.029 183.677C173.185 184.277 172.053 183.713 171.513 183.301C171.423 183.217 171.352 183.116 171.305 183.002C171.257 182.889 171.234 182.767 171.237 182.645C171.193 182.097 171.237 181.985 171.297 181.981L183.884 179.977Z" fill="#C86D05"/>
<path d="M171.353 180.189C171.275 180.574 171.216 180.962 171.177 181.353C171.137 181.821 171.109 182.421 171.461 182.753C171.725 182.989 172.034 183.169 172.37 183.282C172.705 183.395 173.06 183.438 173.413 183.409C174.234 183.408 175.046 183.231 175.793 182.889C176.42 182.55 177.107 182.34 177.816 182.269C178.78 182.268 179.742 182.198 180.696 182.061C181.413 181.944 182.107 181.713 182.752 181.377C183.266 181.085 183.668 180.631 183.896 180.085C183.886 179.691 183.756 179.309 183.524 178.99C183.292 178.672 182.968 178.431 182.596 178.301C181.897 178.049 181.145 177.98 180.412 178.101C179.612 178.201 179.016 178.377 178.3 178.409C177.809 178.456 177.314 178.396 176.849 178.233C176.622 178.095 176.441 177.893 176.329 177.653C176.185 177.413 176.117 177.194 175.885 177.198C175.885 177.198 172.133 177.597 171.793 177.673C171.453 177.749 171.517 178.257 171.529 178.541C171.541 178.825 171.529 178.789 171.529 179.033C171.521 179.303 171.482 179.572 171.413 179.833C171.405 179.957 171.377 180.089 171.353 180.189Z" fill="#455A64"/>
<path d="M178.904 178.189C178.956 178.154 179.013 178.125 179.072 178.105C179.392 178.021 179.68 178.313 179.844 178.545C179.94 178.691 180.017 178.848 180.072 179.013C180.161 179.211 180.191 179.43 180.16 179.645C180.16 179.701 180.112 179.765 180.06 179.761C180.008 179.757 179.988 179.693 179.98 179.645C179.917 179.351 179.8 179.07 179.636 178.817C179.576 178.708 179.496 178.61 179.4 178.529C179.297 178.451 179.178 178.393 179.052 178.361C179 178.361 178.78 178.361 178.824 178.273C178.833 178.255 178.845 178.239 178.86 178.225L178.904 178.189Z" fill="#FAFAFA"/>
<path d="M177.964 178.301C178.116 178.269 178.275 178.294 178.408 178.373C178.547 178.475 178.654 178.613 178.716 178.773C178.816 178.935 178.881 179.115 178.907 179.303C178.933 179.491 178.92 179.683 178.868 179.865C178.816 179.969 178.724 179.929 178.68 179.841C178.643 179.733 178.616 179.622 178.6 179.509C178.534 179.265 178.439 179.03 178.316 178.809C178.273 178.72 178.217 178.637 178.152 178.561C178.107 178.511 178.053 178.471 177.992 178.441C177.963 178.428 177.932 178.419 177.9 178.413H177.808C177.808 178.365 177.852 178.333 177.896 178.321L177.964 178.301Z" fill="#FAFAFA"/>
<path d="M176.985 178.141C177.096 178.162 177.199 178.215 177.28 178.293C177.353 178.373 177.409 178.467 177.444 178.569C177.543 178.793 177.614 179.028 177.656 179.269C177.684 179.44 177.661 179.615 177.592 179.773C177.56 179.833 177.5 179.897 177.436 179.877C177.372 179.857 177.352 179.745 177.352 179.689C177.333 179.575 177.32 179.46 177.312 179.345C177.258 178.924 177.075 178.531 176.789 178.217C176.789 178.217 176.757 178.181 176.761 178.161C176.765 178.141 176.809 178.121 176.841 178.125C176.889 178.125 176.937 178.131 176.985 178.141Z" fill="#FAFAFA"/>
<path d="M179.916 178.165C180.248 178.125 180.996 178.497 181.448 179.477C181.732 180.203 181.868 180.978 181.848 181.757C182.529 181.594 183.14 181.217 183.592 180.681C183.765 180.497 183.901 180.281 183.992 180.045C184.012 179.771 183.977 179.496 183.888 179.236C183.798 178.976 183.657 178.737 183.472 178.533C182.924 178.009 182.14 177.733 180.96 177.789C179.636 177.865 179.56 178.229 179.56 178.229L179.916 178.165Z" fill="#FAFAFA"/>
<path d="M171.153 171.85C171.153 171.85 171.713 177.106 171.821 178.181C171.869 178.637 172.877 179.141 174.277 178.981C175.261 178.881 175.877 178.289 175.961 177.781C176.045 177.274 176.337 171.106 176.337 171.106L171.153 171.85Z" fill="#C8856A"/>
<path d="M156.915 170.522L158.379 165.127L163.474 166.995L159.843 173.226L156.915 170.522Z" fill="#C8856A"/>
<path d="M155.067 172.018C155.002 172.489 155.025 172.968 155.135 173.43C155.199 173.898 155.267 174.354 155.299 174.826C155.317 175.113 155.357 175.397 155.419 175.678C155.467 176.018 155.48 176.362 155.459 176.706C155.459 177.066 155.459 177.425 155.479 177.785C155.499 177.938 155.499 178.093 155.479 178.245C155.443 178.393 157.755 179.721 158.679 180.245L158.847 180.325C159.108 180.413 159.388 180.427 159.656 180.364C159.924 180.301 160.169 180.164 160.363 179.969C160.561 179.489 160.608 178.959 160.5 178.451C160.391 177.943 160.132 177.479 159.755 177.122C159.755 177.122 159.635 177.122 159.659 176.214C159.659 175.566 159.659 174.906 159.731 174.258C159.767 173.858 159.939 173.718 160.091 173.338C160.353 173.045 160.498 172.665 160.498 172.272C160.498 171.879 160.353 171.5 160.091 171.206C159.666 170.609 159.079 170.145 158.399 169.871C158.055 169.715 157.495 169.547 157.143 169.759C156.951 169.875 156.863 170.098 156.743 170.274C156.567 170.471 156.362 170.639 156.135 170.774C155.692 171.036 155.344 171.432 155.143 171.906C155.115 171.942 155.09 171.979 155.067 172.018Z" fill="#455A64"/>
<path d="M159.755 177.122C159.866 177.258 159.967 177.404 160.055 177.557C160.468 178.286 160.584 179.145 160.379 179.957C162.015 179.809 162.442 178.865 162.442 178.865C162.445 178.575 162.367 178.29 162.217 178.042C162.068 177.793 161.852 177.591 161.595 177.457C161.482 177.384 161.363 177.321 161.239 177.27C160.772 177.064 160.253 177.012 159.755 177.122Z" fill="#FAFAFA"/>
<path d="M154.688 172.27C154.256 172.438 154.368 173.618 154.64 174.754C154.911 175.89 155.039 176.286 154.919 177.234C154.799 178.181 154.704 178.601 155.091 178.949C155.479 179.297 158.555 180.725 158.555 180.725C158.138 179.587 157.907 178.389 157.871 177.178C157.791 175.082 157.651 173.734 156.671 172.778C156.428 172.506 156.11 172.313 155.757 172.223C155.403 172.132 155.031 172.149 154.688 172.27Z" fill="#263238"/>
<path d="M162.442 178.865C161.694 179.443 160.815 179.826 159.883 179.981C158.515 180.137 158.447 179.609 158.283 177.981C158.119 176.354 158.083 174.118 157.443 173.13C156.803 172.142 155.731 171.706 155.311 171.806C155.223 171.762 154.803 172.074 154.668 172.262C155 172.248 155.332 172.305 155.641 172.429C155.95 172.553 156.229 172.742 156.459 172.982C157.311 173.818 157.467 175.582 157.507 177.182C157.547 178.781 157.619 180.645 158.895 180.837C159.516 180.904 160.144 180.844 160.742 180.663C161.34 180.481 161.895 180.182 162.374 179.781C162.44 179.726 162.493 179.658 162.532 179.582C162.571 179.506 162.594 179.423 162.6 179.337C162.607 179.252 162.596 179.167 162.569 179.086C162.542 179.004 162.499 178.93 162.442 178.865Z" fill="#C86D05"/>
<path d="M159.651 176.526C159.7 176.56 159.742 176.604 159.774 176.655C159.807 176.706 159.829 176.762 159.839 176.822C159.847 176.991 159.809 177.16 159.727 177.309C159.645 177.458 159.523 177.582 159.375 177.665C159.203 177.761 159.055 177.721 159.331 177.385C159.512 177.132 159.623 176.836 159.651 176.526Z" fill="#FAFAFA"/>
<path d="M159.675 175.398C159.741 175.463 159.782 175.549 159.791 175.642C159.726 175.998 159.525 176.315 159.231 176.526C158.931 176.662 159.091 176.33 159.231 176.174C159.398 175.926 159.546 175.667 159.675 175.398Z" fill="#FAFAFA"/>
<path d="M159.755 174.154C159.792 174.174 159.825 174.202 159.849 174.237C159.873 174.272 159.889 174.312 159.895 174.354C159.895 174.486 159.287 174.95 159.095 174.934C158.903 174.918 158.855 174.858 159.095 174.694C159.324 174.526 159.545 174.345 159.755 174.154Z" fill="#FAFAFA"/>
<path d="M161.487 170.49C161.487 170.49 163.314 167.555 166.654 162.092C167.598 160.544 168.122 159.408 168.35 158.228C168.578 157.048 169.51 153.473 169.51 153.473L170.397 159.576C170.157 161.12 170.133 163.527 170.465 167.603C170.761 171.238 171.393 175.69 171.393 175.69C171.713 175.934 173.045 176.15 173.877 176.09C175.961 175.922 176.337 175.074 176.337 175.074C176.337 175.074 177.024 167.875 177.26 165.179C177.816 158.86 177.98 157.368 178.292 150.089C178.556 143.93 177.972 140.119 176.241 134.599C171.737 136.643 165.614 136.259 163.09 134.007C163.09 134.007 161.067 137.427 161.019 142.834C160.979 147.39 161.363 156.236 161.363 156.236C160.324 157.72 159.582 159.39 159.179 161.156C158.555 163.691 158.087 165.415 157.415 168.251C159.991 168.187 161.487 170.49 161.487 170.49Z" fill="#C86D05"/>
<path d="M161.035 168.735C161.363 168.119 161.687 167.507 162.019 166.895C162.634 165.747 164.018 163.407 164.598 162.244C165.82 159.92 166.767 157.463 167.422 154.921C167.591 154.227 167.724 153.524 167.822 152.817C167.87 152.445 167.906 152.069 167.93 151.693C167.97 151.101 167.93 150.493 168.006 149.909C168.006 149.829 168.15 149.649 168.198 149.809C168.344 150.477 168.379 151.165 168.302 151.845C168.268 152.525 168.199 153.204 168.094 153.877C167.875 155.205 167.535 156.51 167.078 157.776C166.154 160.352 164.102 163.975 162.806 166.379C162.438 167.062 162.069 167.743 161.699 168.423C161.447 168.887 161.199 169.367 160.935 169.835C160.839 169.731 160.727 169.627 160.607 169.519C160.747 169.255 160.895 168.991 161.035 168.735Z" fill="#263238"/>
<path d="M175.381 141.87C175.155 139.668 174.669 137.5 173.933 135.411L174.285 135.315C175.115 137.407 175.653 139.604 175.885 141.842C176.993 141.586 177.2 140.015 177.164 139.071C177.131 138.51 177.062 137.951 176.957 137.399C176.889 137.019 176.793 136.623 176.725 136.231C177.044 137.335 177.312 138.387 177.524 139.431C177.524 139.475 177.524 139.515 177.524 139.559C177.468 140.574 177.024 141.982 175.925 142.238C176.157 144.362 176.217 146.518 176.261 148.637C176.381 154.325 176.261 160.011 175.901 165.695C175.733 168.299 175.421 173.294 175.077 175.894C174.929 175.938 174.769 175.978 174.585 176.014C174.753 173.742 175.161 169.123 175.317 166.851C175.509 164.049 175.642 161.241 175.717 158.428C175.791 155.495 175.807 152.572 175.765 149.657C175.729 147.054 175.673 144.45 175.381 141.87Z" fill="#263238"/>
<path d="M176.241 134.603L175.873 132.408C173.882 133.433 171.66 133.929 169.422 133.847C167.329 133.724 165.312 133.019 163.598 131.812L163.09 134.011C163.09 134.011 164.582 136.195 169.458 136.127C174.333 136.059 176.241 134.603 176.241 134.603Z" fill="#263238"/>
<path d="M169.51 153.489L168.074 144.842C168.074 144.842 166.474 144.95 163.97 142.766C163.97 142.766 164.37 144.618 167.042 145.89L168.554 154.225L168.362 158.244L169.51 153.489Z" fill="#263238"/>
<path d="M180.952 98.2482C180.73 98.4181 180.539 98.6252 180.388 98.8601C180.164 99.1614 179.928 99.4533 179.68 99.736C179.652 99.7719 179.592 99.7999 179.572 99.764C179.567 99.7562 179.565 99.7472 179.565 99.738C179.565 99.7287 179.567 99.7197 179.572 99.712C179.635 99.5082 179.721 99.3123 179.828 99.128C180.1 98.6041 180.364 98.0722 180.596 97.5283C180.656 97.4015 180.698 97.2668 180.72 97.1283C180.734 97.0522 180.731 96.9739 180.711 96.8992C180.691 96.8245 180.654 96.7552 180.604 96.6964C180.554 96.6425 180.487 96.6072 180.415 96.5963C180.342 96.5854 180.268 96.5995 180.204 96.6364C180.246 96.569 180.273 96.4935 180.283 96.4149C180.294 96.3363 180.287 96.2563 180.264 96.1804C180.247 96.1146 180.214 96.0541 180.167 96.0048C180.12 95.9554 180.062 95.9188 179.997 95.8984C179.932 95.878 179.863 95.8745 179.796 95.8881C179.73 95.9018 179.668 95.9322 179.616 95.9765C179.532 96.0533 179.459 96.1422 179.4 96.2404C178.92 96.9803 178.536 97.7762 178.092 98.5441C178.028 98.6481 177.92 98.6441 177.952 98.5041C178.092 97.8482 178.432 97.2523 178.564 96.5964C178.616 96.3324 178.688 96.0564 178.456 95.8725C178.224 95.6885 177.964 95.8725 177.832 96.1284C177.377 97.008 176.967 97.9104 176.605 98.8321C176.529 99.024 176.117 100.124 175.989 99.428C175.937 99.156 175.897 98.8881 175.845 98.6281C175.822 98.4164 175.732 98.2176 175.589 98.0602C175.473 97.9562 175.213 97.7842 175.105 97.9842C175.078 98.036 175.067 98.0943 175.073 98.1522C175.073 98.9761 174.961 99.7959 174.981 100.624C174.976 101.19 175.019 101.756 175.109 102.316C175.229 102.88 174.253 105.215 173.249 107.415C174.049 108.419 175.149 109.067 177.136 108.711C177.608 106.975 178.052 105.315 178.152 104.975C178.152 104.975 178.444 104.175 178.62 103.775C178.796 103.375 178.96 103.107 179.136 102.772C179.312 102.436 179.476 102.068 179.652 101.72C180.008 101.012 180.38 100.308 180.804 99.632C181.011 99.3409 181.177 99.0234 181.3 98.6881C181.352 98.4081 181.26 98.0402 180.952 98.2482Z" fill="#C8856A"/>
<path d="M177.548 101.196C177.53 101.011 177.469 100.834 177.369 100.678C177.268 100.523 177.133 100.393 176.973 100.3C176.921 100.276 176.901 100.392 176.937 100.416C177.068 100.523 177.173 100.657 177.245 100.81C177.317 100.963 177.354 101.131 177.352 101.3C177.364 101.683 177.279 102.062 177.105 102.404C177.105 102.436 177.105 102.508 177.161 102.464C177.312 102.292 177.425 102.09 177.492 101.872C177.559 101.653 177.578 101.423 177.548 101.196Z" fill="#AF6152"/>
<path d="M179.164 98.7121C179.296 98.5001 179.396 98.2801 179.52 98.0642C179.644 97.8482 179.76 97.6402 179.868 97.4242C180.023 97.1914 180.13 96.9305 180.184 96.6563C180.184 96.6243 180.128 96.7163 180.116 96.7403C179.944 97.0123 179.544 97.7842 179.408 98.0282C179.168 98.4561 178.88 98.92 178.672 99.368C178.672 99.408 178.7 99.412 178.72 99.388C178.891 99.1782 179.039 98.9517 179.164 98.7121Z" fill="#AF6152"/>
<path d="M173.229 107.395C172.221 109.603 171.029 111.582 171.029 111.582C171.029 111.582 165.07 117.034 163.566 118.609C162.063 120.185 160.855 123.761 162.406 126.44C163.07 124.989 163.374 124.389 165.178 123.053C167.502 121.337 171.901 118.117 173.229 116.858C174.485 115.658 175.329 114.922 175.989 112.75C176.221 111.978 176.681 110.299 177.116 108.691C176.415 108.749 175.708 108.665 175.04 108.442C174.371 108.219 173.755 107.863 173.229 107.395Z" fill="#FCC98F"/>
<path d="M172.605 110.331C172.605 110.331 174.261 111.714 174.177 111.902C174.093 112.09 173.533 112.414 173.533 112.414L172.605 110.331Z" fill="#AF6152"/>
<path d="M168.738 106.899C169.638 107.079 171.137 107.111 172.389 109.215C172.605 109.579 172.617 110.227 172.817 110.702C173.041 111.238 173.453 111.786 173.589 112.226C174.305 114.526 173.885 115.606 173.589 116.098C173.353 116.498 171.717 117.07 170.789 117.05C169.59 117.026 166.934 116.542 165.33 115.074C163.446 113.346 162.394 110.63 163.586 109.119C165.254 106.983 167.838 106.715 168.738 106.899Z" fill="#C8856A"/>
<path d="M173.517 116.182C173.189 116.506 172.105 116.906 171.245 117.018L170.845 116.39C171.321 116.439 171.799 116.457 172.277 116.442C172.701 116.42 173.12 116.332 173.517 116.182Z" fill="#AF6152"/>
<path d="M171.385 116.314L171.125 119.357C169.56 119.769 167.915 119.769 166.35 119.357L166.61 117.71C167.112 116.949 167.867 116.392 168.742 116.136C169.616 115.88 170.553 115.943 171.385 116.314Z" fill="#C8856A"/>
<path d="M169.697 105.491C169.777 105.485 169.858 105.485 169.937 105.491C170.378 105.522 170.805 105.659 171.181 105.891C171.747 106.25 172.195 106.768 172.469 107.379C172.667 107.754 172.739 108.183 172.677 108.603C172.556 109.027 172.304 109.402 171.957 109.675C171.995 109.445 171.966 109.21 171.873 108.997C171.78 108.784 171.627 108.603 171.433 108.475C171.641 108.948 171.659 109.483 171.485 109.97C171.311 110.457 170.958 110.859 170.497 111.094C170.729 111.346 170.87 111.669 170.897 112.01C170.911 112.108 170.896 112.209 170.853 112.298C170.729 112.538 170.453 112.41 170.289 112.298C170.125 112.186 170.077 112.122 169.969 112.038C169.835 111.909 169.672 111.812 169.493 111.757C169.315 111.701 169.126 111.688 168.942 111.718C168.745 111.759 168.564 111.857 168.422 111.999C168.28 112.141 168.183 112.321 168.142 112.518C168.131 112.815 168.182 113.111 168.293 113.387C168.404 113.662 168.572 113.911 168.786 114.118C168.93 114.276 169.109 114.397 169.31 114.473C169.51 114.548 169.725 114.574 169.937 114.55C170.109 114.514 170.497 114.322 170.569 114.05C170.569 114.05 171.277 115.906 169.901 116.95C168.906 117.502 167.779 117.772 166.642 117.729C166.454 117.71 166.042 117.278 165.878 117.162C165.562 116.942 165.238 116.73 164.914 116.522C164.407 116.17 163.937 115.768 163.51 115.322C162.563 114.326 161.928 113.075 161.683 111.722C161.576 110.95 161.646 110.164 161.887 109.423C161.996 108.899 162.168 108.39 162.398 107.907C162.69 107.429 163.067 107.009 163.51 106.667C164.465 105.931 165.607 105.477 166.806 105.355C167.489 105.276 168.181 105.31 168.854 105.455C169.008 105.502 169.166 105.535 169.326 105.555C169.451 105.542 169.575 105.521 169.697 105.491Z" fill="#263238"/>
<path d="M162.626 121.149C162.99 119.769 163.426 118.865 166.062 118.985H166.426C167.358 119.121 168.086 119.141 170.269 118.925C172.453 118.709 173.069 118.581 173.701 118.761C173.701 118.761 176.501 121.581 177.432 124.573C177.691 125.336 177.741 126.153 177.578 126.942C177.414 127.731 177.044 128.462 176.505 129.06C176.569 131.84 177.029 136.619 177.029 136.619C177.029 136.619 174.857 139.207 168.714 138.979C164.714 138.835 162.518 136.643 162.067 135.939C162.067 135.939 163.218 132.943 163.266 131.04C162.954 128.28 161.567 125.177 162.626 121.149Z" fill="#F89320"/>
<path d="M159.411 110.41C159.05 111.132 158.924 111.949 159.051 112.746C159.251 113.994 159.959 115.102 160.251 116.346C160.543 117.59 159.575 118.789 159.279 119.945C159.043 120.922 159.093 121.946 159.423 122.896C159.752 123.845 160.348 124.68 161.139 125.3C160.99 124.798 160.947 124.269 161.015 123.749C161.045 124.109 161.153 124.459 161.331 124.773C161.509 125.088 161.753 125.361 162.047 125.572C162.632 125.994 163.278 126.324 163.962 126.552C163.286 126.016 163.126 125.029 163.314 124.189C163.564 123.362 163.926 122.573 164.39 121.845C164.77 121.095 165.061 120.303 165.258 119.485C165.458 118.506 165.309 117.487 164.838 116.606C164.338 115.644 163.896 114.653 163.514 113.638C163.129 112.618 163.03 111.511 163.23 110.438C163.307 110.189 163.353 109.931 163.366 109.671C163.366 109.507 163.33 109.345 163.259 109.197C163.189 109.049 163.086 108.919 162.959 108.815C162.832 108.712 162.683 108.638 162.524 108.599C162.365 108.56 162.199 108.557 162.039 108.591C161.217 108.688 160.459 109.082 159.907 109.699C159.713 109.915 159.546 110.154 159.411 110.41Z" fill="#263238"/>
<path d="M194.034 68.0602L171.677 80.9705V88.4335L177.38 91.729L179.344 90.5932V109.827L185.047 113.118L192.106 109.043V83.2262L199.737 78.8188V71.3518L194.034 68.0602Z" fill="#C86D05"/>
<path d="M185.043 87.3016L177.376 91.725V84.262L199.749 71.3517V78.8187L192.118 83.2181V109.039L185.055 113.114L185.043 87.3016Z" fill="#F89320"/>
<path d="M171.677 80.9705L177.38 84.262L199.737 71.3518L194.034 68.0602L171.677 80.9705Z" fill="#F89320"/>
<path opacity="0.2" d="M171.797 80.7385L177.5 84.0301L199.857 71.1198L194.154 67.8282L171.797 80.7385Z" fill="white"/>
<path d="M185.047 87.3016L179.344 90.5932V109.827L185.047 113.118V87.3016Z" fill="#C86D05"/>
<path d="M186.871 114.574C185.671 115.898 184.368 117.298 184.368 117.298C184.368 117.298 178.976 118.169 176.253 118.413C175.453 118.485 174.653 118.653 173.701 118.773C173.701 118.773 172.901 120.753 174.297 123.297C174.792 124.118 175.579 124.722 176.501 124.989C177.42 123.693 180.9 123.213 184.132 122.241C186.259 121.605 186.891 121.245 187.539 120.441C187.967 119.905 189.103 118.097 190.047 116.57C188.783 116.294 187.627 115.93 186.871 114.574Z" fill="#FCC98F"/>
<path d="M193.682 109.451C193.537 109.239 193.473 108.982 193.502 108.727C193.532 108.449 193.471 108.168 193.33 107.927C193.273 107.859 193.22 107.787 193.174 107.711C193.09 107.466 193.061 107.205 193.09 106.947C193.104 106.708 193.026 106.473 192.87 106.291C192.746 106.133 192.668 105.943 192.646 105.743C192.614 105.567 192.606 104.987 192.302 105.071C192.142 105.115 191.967 105.371 191.903 105.499C191.755 105.76 191.649 106.042 191.587 106.335C191.515 106.651 191.523 106.963 191.471 107.279C191.349 108.021 191.077 108.73 190.671 109.363C190.611 109.459 190.471 109.663 190.339 109.603C190.28 109.568 190.235 109.514 190.211 109.451C190.165 109.328 190.133 109.201 190.115 109.071C190.079 108.931 190.039 108.799 190.003 108.671C189.934 108.354 189.743 108.076 189.471 107.899C189.267 107.791 188.995 107.771 188.987 108.067C188.979 108.363 189.079 108.595 189.063 108.867C189.047 109.139 188.967 109.451 188.939 109.743C188.883 110.188 188.891 110.639 188.963 111.082C189.056 111.466 189.046 111.867 188.935 112.246C188.907 112.33 187.923 113.422 186.875 114.57C187.631 115.926 188.787 116.29 190.051 116.57C190.791 115.37 191.411 114.346 191.483 114.238C191.643 113.99 191.847 113.778 192.027 113.542C192.206 113.306 192.402 113.002 192.594 112.742C192.967 112.248 193.28 111.711 193.526 111.142C193.726 110.662 193.97 109.959 193.682 109.451Z" fill="#C8856A"/>
<path d="M174.901 68.5601L173.149 65.2686L174.553 61.2011V58.7135L170.241 61.2011V63.7048L172.093 66.9044C172.124 66.9537 172.168 66.9928 172.221 67.0164L174.901 68.5601Z" fill="#BA68C8"/>
<path opacity="0.2" d="M174.901 68.5601L173.149 65.2686L174.553 61.2011V58.7135L170.241 61.2011V63.7048L172.093 66.9044C172.124 66.9537 172.168 66.9928 172.221 67.0164L174.901 68.5601Z" fill="black"/>
<path d="M185.195 38.9321C185.171 38.4831 185.041 38.0463 184.816 37.6571C184.591 37.2679 184.277 36.9374 183.9 36.6924L182.848 36.0845C182.447 35.8814 182.005 35.7756 181.556 35.7756C181.107 35.7756 180.664 35.8814 180.264 36.0845L164.13 45.4193C163.754 45.6635 163.44 45.9934 163.216 46.382C162.991 46.7706 162.862 47.2068 162.838 47.655V65.4086C162.862 65.8573 162.991 66.2942 163.215 66.6835C163.44 67.0727 163.753 67.4033 164.13 67.6483L165.182 68.2562C165.582 68.4593 166.025 68.5651 166.474 68.5651C166.923 68.5651 167.365 68.4593 167.766 68.2562L172.965 65.2566L174.813 68.4562C174.839 68.502 174.878 68.5393 174.925 68.5635C174.972 68.5878 175.025 68.598 175.078 68.5929C175.131 68.5879 175.181 68.5678 175.223 68.535C175.264 68.5022 175.295 68.4582 175.313 68.4082L177.268 62.7689L183.912 58.9214C184.287 58.6756 184.6 58.3447 184.825 57.9557C185.049 57.5666 185.179 57.1302 185.203 56.6817L185.195 38.9321Z" fill="#F89320"/>
<path opacity="0.2" d="M162.838 65.4126C162.862 65.8607 162.991 66.2969 163.216 66.6855C163.44 67.0741 163.754 67.404 164.13 67.6483L165.182 68.2562C165.546 68.4392 165.945 68.5431 166.353 68.561C166.76 68.5789 167.167 68.5105 167.546 68.3602C166.938 68.5921 166.474 68.2482 166.474 67.5083V49.7547C166.489 49.3057 166.619 48.868 166.85 48.4828L163.214 46.3831C162.983 46.7683 162.854 47.206 162.838 47.6549V65.4126Z" fill="black"/>
<path opacity="0.3" d="M185.151 38.5642C184.999 38.0162 184.499 37.8403 183.904 38.1642L167.754 47.519C167.37 47.7545 167.056 48.087 166.842 48.4828L163.218 46.3871C163.434 45.9921 163.748 45.66 164.13 45.4232L180.264 36.0845C180.665 35.8833 181.107 35.7785 181.556 35.7785C182.004 35.7785 182.447 35.8833 182.848 36.0845L183.904 36.6964C184.227 36.907 184.505 37.1812 184.719 37.5022C184.934 37.8233 185.081 38.1846 185.151 38.5642Z" fill="white"/>
<path d="M170.953 53.5901C170.963 52.5969 171.17 51.6155 171.561 50.7025C171.92 49.7503 172.56 48.93 173.397 48.3509C174.649 47.615 175.697 49.1267 175.865 50.9065C176.009 48.9428 177.036 46.2151 178.288 45.4792C179.02 45.0513 179.684 45.1593 180.136 45.6712C180.592 46.2958 180.816 47.0591 180.772 47.8309C180.772 50.8385 178.988 53.5582 177.484 56.4178L175.861 59.1854L174.293 58.2895C172.793 57.2017 170.977 56.5977 170.953 53.5901Z" fill="#FAFAFA"/>
</svg>
