<svg width="24" height="25" viewBox="0 0 24 25" fill="none" xmlns="http://www.w3.org/2000/svg">
<path d="M12 0.232788C5.37259 0.232788 0 5.60538 0 12.2328C0 18.8602 5.37259 24.2328 12 24.2328C18.6274 24.2328 24 18.8602 24 12.2328C24 5.60538 18.6274 0.232788 12 0.232788ZM17.246 9.54431C17.2601 10.4392 17.1416 14.9137 12.8949 16.8525C8.64816 18.7915 5.43749 16.3753 5.43749 16.3753C7.81296 16.599 9.37099 15.2567 9.37099 15.2567C7.44696 15.1747 6.88766 13.3849 6.88766 13.3849C7.57378 13.5042 8.04854 13.3128 8.04854 13.3128C5.90088 12.7362 5.9555 10.648 5.9555 10.648C6.56702 11.0109 7.10395 10.9463 7.10395 10.9463C5.11531 9.5145 6.3324 7.38172 6.3324 7.38172C8.56958 10.1409 11.9208 10.2179 11.9208 10.2179C11.8733 9.99656 11.8499 9.77072 11.8509 9.54431C11.8509 7.75458 13.4278 6.85972 14.5355 6.85972C15.6432 6.85972 16.463 7.69492 16.463 7.69492C17.3057 7.65743 18.208 7.0834 18.208 7.0834C17.85 8.17218 17.0971 8.5749 17.0971 8.5749C17.7794 8.50031 18.5628 8.15725 18.5628 8.15725C18.298 8.73896 17.246 9.54431 17.246 9.54431Z" fill="#F79320"/>
</svg>
