<svg width="22" height="24" viewBox="0 0 22 24" fill="none" xmlns="http://www.w3.org/2000/svg">
<path fill-rule="evenodd" clip-rule="evenodd" d="M16.0931 0.922341L16.0942 1.82189C19.3998 2.08096 21.5834 4.33343 21.5869 7.7877L21.6 17.8986C21.6047 21.6648 19.2387 23.982 15.4462 23.988L6.18226 24C2.41343 24.0048 0.0177799 21.6324 0.0130407 17.8555L7.9797e-06 7.86326C-0.00473119 4.38621 2.10183 2.13973 5.40741 1.83628L5.40622 0.936734C5.40504 0.408998 5.79602 0.0119967 6.31733 0.0119967C6.83864 0.0107973 7.22962 0.406599 7.2308 0.934335L7.23199 1.77391L14.2697 1.76432L14.2685 0.924739C14.2673 0.397004 14.6583 0.00120212 15.1796 2.71859e-06C15.689 -0.00119668 16.0919 0.394605 16.0931 0.922341ZM1.82579 8.23391L19.7636 8.20992V7.79013C19.7126 5.21142 18.4188 3.8585 16.0966 3.657L16.0978 4.58054C16.0978 5.09628 15.6962 5.50528 15.1867 5.50528C14.6654 5.50647 14.2732 5.09868 14.2732 4.58294L14.272 3.61142L7.23438 3.62102L7.23556 4.59133C7.23556 5.10827 6.84576 5.51607 6.32446 5.51607C5.80315 5.51727 5.41098 5.11067 5.41098 4.59373L5.40979 3.67019C3.09945 3.90168 1.82106 5.2594 1.82461 7.8609L1.82579 8.23391ZM14.6879 13.6851V13.6983C14.6998 14.25 15.15 14.6686 15.6962 14.6566C16.2294 14.6434 16.6547 14.1865 16.6428 13.6347C16.618 13.107 16.1903 12.6764 15.6583 12.6776C15.1133 12.6896 14.6868 13.1334 14.6879 13.6851ZM15.6666 19.0704C15.1216 19.0584 14.682 18.6039 14.6808 18.0521C14.669 17.5004 15.1062 17.0434 15.6512 17.0302H15.663C16.2199 17.0302 16.6713 17.4848 16.6713 18.0485C16.6725 18.6123 16.2223 19.0692 15.6666 19.0704ZM9.80656 13.7043C9.83026 14.256 10.2817 14.6866 10.8267 14.6626C11.3598 14.6374 11.7852 14.1817 11.7615 13.6299C11.7484 13.0902 11.3101 12.6704 10.7769 12.6716C10.2319 12.6956 9.80538 13.1526 9.80656 13.7043ZM10.8314 19.0164C10.2864 19.0404 9.8362 18.6098 9.81132 18.0581C9.81132 17.5064 10.2367 17.0506 10.7817 17.0254C11.3148 17.0242 11.7544 17.444 11.7662 17.9825C11.7911 18.5355 11.3646 18.9912 10.8314 19.0164ZM4.92526 13.7463C4.94896 14.2981 5.40037 14.7298 5.94537 14.7047C6.47853 14.6807 6.90387 14.2237 6.87899 13.672C6.86714 13.1322 6.42877 12.7124 5.89443 12.7136C5.34942 12.7376 4.92408 13.1946 4.92526 13.7463ZM5.95003 19.0224C5.40503 19.0476 4.95481 18.6159 4.92993 18.0641C4.92874 17.5124 5.35527 17.0554 5.90027 17.0314C6.43343 17.0302 6.87299 17.45 6.88484 17.9898C6.90972 18.5415 6.48438 18.9985 5.95003 19.0224Z" fill="#899DAB"/>
</svg>
