<svg width="40" height="40" viewBox="0 0 40 40" fill="none" xmlns="http://www.w3.org/2000/svg">
<circle cx="20" cy="20" r="20" fill="#F0F3F4"/>
<path fill-rule="evenodd" clip-rule="evenodd" d="M27.8053 16.7402C27.8053 18.1146 28.1686 18.9248 28.9681 19.8584C29.5739 20.5461 29.7675 21.429 29.7675 22.3869C29.7675 23.3436 29.4532 24.2518 28.8234 24.9892C27.9989 25.8732 26.8362 26.4376 25.6496 26.5357C23.93 26.6823 22.2093 26.8057 20.4657 26.8057C18.7211 26.8057 17.0015 26.7319 15.2819 26.5357C14.0941 26.4376 12.9314 25.8732 12.108 24.9892C11.4783 24.2518 11.1628 23.3436 11.1628 22.3869C11.1628 21.429 11.3575 20.5461 11.9623 19.8584C12.7867 18.9248 13.1261 18.1146 13.1261 16.7402V16.2739C13.1261 14.4332 13.5851 13.2296 14.5303 12.0513C15.9356 10.3329 18.1881 9.30231 20.4168 9.30231H20.5147C22.7912 9.30231 25.1166 10.3825 26.4979 12.1747C27.3942 13.3288 27.8053 14.4817 27.8053 16.2739V16.7402ZM17.2626 28.7343C17.2626 28.1832 17.7684 27.9308 18.2361 27.8228C18.7832 27.707 22.1169 27.707 22.664 27.8228C23.1317 27.9308 23.6375 28.1832 23.6375 28.7343C23.6103 29.259 23.3025 29.7241 22.8772 30.0195C22.3257 30.4494 21.6786 30.7216 21.002 30.8197C20.6279 30.8682 20.2602 30.8693 19.8991 30.8197C19.2215 30.7216 18.5744 30.4494 18.024 30.0184C17.5976 29.7241 17.2898 29.259 17.2626 28.7343Z" fill="#899DAB"/>
</svg>
