<svg width="54" height="54" viewBox="0 0 54 54" fill="none" xmlns="http://www.w3.org/2000/svg">
<circle cx="27" cy="27" r="27" fill="#FCDBCF"/>
<path fill-rule="evenodd" clip-rule="evenodd" d="M38.9307 16.8645C39.5142 16.8645 40 17.3489 40 17.9654V18.5354C40 19.1369 39.5142 19.6364 38.9307 19.6364H14.0708C13.4858 19.6364 13 19.1369 13 18.5354V17.9654C13 17.3489 13.4858 16.8645 14.0708 16.8645H18.4443C19.3328 16.8645 20.106 16.233 20.3058 15.342L20.5349 14.319C20.8908 12.9255 22.0622 12 23.4029 12H29.5971C30.9232 12 32.1077 12.9255 32.4506 14.2455L32.6956 15.3405C32.894 16.233 33.6672 16.8645 34.5571 16.8645H38.9307ZM36.7088 37.7009C37.1654 33.4454 37.9648 23.3355 37.9648 23.2335C37.994 22.9245 37.8933 22.632 37.6935 22.3965C37.479 22.176 37.2077 22.0455 36.9086 22.0455H16.1028C15.8023 22.0455 15.5164 22.176 15.318 22.3965C15.1167 22.632 15.0175 22.9245 15.032 23.2335C15.0347 23.2523 15.0634 23.6084 15.1114 24.2038C15.3244 26.8486 15.9178 34.2151 16.3012 37.7009C16.5726 40.2689 18.2575 41.8828 20.6981 41.9413C22.5815 41.9848 24.5217 41.9998 26.5057 41.9998C28.3745 41.9998 30.2724 41.9848 32.2141 41.9413C34.7394 41.8978 36.4228 40.3123 36.7088 37.7009Z" fill="#F15A24"/>
</svg>
