<svg width="28" height="28" viewBox="0 0 28 28" fill="none" xmlns="http://www.w3.org/2000/svg">
<path d="M12.7349 4.53024H4.38553C3.75285 4.53024 3.14608 4.78157 2.69871 5.22894C2.25133 5.67631 2 6.28308 2 6.91577V23.6145C2 24.2472 2.25133 24.8539 2.69871 25.3013C3.14608 25.7487 3.75285 26 4.38553 26H21.0842C21.7169 26 22.3237 25.7487 22.7711 25.3013C23.2184 24.8539 23.4698 24.2472 23.4698 23.6145V15.2651M21.6806 2.74109C22.1551 2.26658 22.7987 2 23.4698 2C24.1408 2 24.7844 2.26658 25.2589 2.74109C25.7334 3.2156 26 3.85918 26 4.53024C26 5.2013 25.7334 5.84487 25.2589 6.31938L13.9276 17.6506L9.15659 18.8434L10.3494 14.0724L21.6806 2.74109Z" stroke="#F89320" stroke-width="2.5" stroke-linecap="round" stroke-linejoin="round"/>
</svg>
