<svg width="168" height="27" viewBox="0 0 168 27" fill="none" xmlns="http://www.w3.org/2000/svg">
<path d="M19.6144 12.8167L10.9608 4.27224C11.5185 3.7055 12.1824 3.25433 12.9147 2.9446C13.647 2.63487 14.4332 2.47265 15.2282 2.46725C16.0233 2.46184 16.8116 2.61335 17.548 2.91309C18.2845 3.21283 18.9545 3.65491 19.5198 4.21402L23.9194 8.51171L19.6144 12.8167Z" fill="url(#paint0_linear_1047_2745)"/>
<path d="M25.0622 18.2133L29.5273 22.6493C30.672 23.7911 32.2228 24.4323 33.8396 24.4323C35.4563 24.4323 37.0071 23.7911 38.1518 22.6493L29.3417 13.9448L25.0622 18.2133Z" fill="url(#paint1_linear_1047_2745)"/>
<path d="M37.9551 4.30861L19.4179 22.6894L18.5518 23.5445L18.1879 23.9084L17.5438 24.4434C15.6145 26.0863 13.1636 26.9893 10.6296 26.9907C7.81227 26.9869 5.11138 25.8662 3.11888 23.8744C1.12638 21.8826 0.00481334 19.1821 0 16.3647V3.03131C0 2.22736 0.31937 1.45633 0.887851 0.887852C1.45633 0.319371 2.22736 0 3.03131 0C3.83527 0 4.60629 0.319371 5.17478 0.887852C5.74326 1.45633 6.06263 2.22736 6.06263 3.03131V5.6405H8.01315C8.67305 5.66558 9.29814 5.94311 9.75933 6.41577C10.2205 6.88843 10.4826 7.52013 10.4915 8.18046C10.5004 8.84078 10.2553 9.4793 9.80701 9.96418C9.35868 10.4491 8.74128 10.7433 8.08229 10.7861L6.0881 10.8079V16.3647C6.0881 16.4921 6.0881 16.6195 6.0881 16.7468C6.19054 17.8817 6.71289 18.9376 7.5529 19.7076C8.39291 20.4776 9.49009 20.9063 10.6296 20.9099C11.7839 20.9162 12.8979 20.486 13.7483 19.7054L13.912 19.5416L14.0576 19.3997L29.3852 4.25039C29.9507 3.68964 30.6214 3.24617 31.3589 2.94546C32.0963 2.64475 32.8859 2.49273 33.6822 2.49814C34.4786 2.50355 35.2661 2.66629 35.9993 2.97699C36.7326 3.28769 37.3973 3.74023 37.9551 4.30861Z" fill="url(#paint2_linear_1047_2745)"/>
<path d="M37.9551 4.30861L19.4179 22.6894L18.5519 23.5482C17.4431 24.4844 16.0897 25.0841 14.6513 25.2764C13.213 25.4687 11.7496 25.2457 10.4338 24.6337C9.11795 24.0217 8.00458 23.0462 7.22496 21.8223C6.44533 20.5983 6.03196 19.1769 6.03359 17.7257C6.0338 17.3973 6.05446 17.0691 6.09546 16.7432C6.19686 17.8779 6.71768 18.934 7.55616 19.7052C8.39463 20.4763 9.49051 20.9072 10.6297 20.9135C11.784 20.9199 12.898 20.4896 13.7483 19.709L13.9121 19.5453L14.0577 19.4033L29.3852 4.25039C29.9509 3.69008 30.6218 3.24702 31.3592 2.94658C32.0966 2.64615 32.8861 2.49427 33.6823 2.49968C34.4785 2.50509 35.2659 2.66768 35.9991 2.9781C36.7324 3.28853 37.397 3.74066 37.9551 4.30861Z" fill="url(#paint3_linear_1047_2745)"/>
<path d="M154.785 21.3745L160.211 14.2604L160.143 16.1965L154.943 9.2626H158.882L162.169 13.7877L160.683 13.8327L164.083 9.2626H167.82L162.597 16.129V14.2379L168 21.3745H164.015L160.571 16.5567L162.034 16.7594L158.612 21.3745H154.785Z" fill="#F79320"/>
<path d="M150.446 21.3753V9.26339H153.958V21.3753H150.446ZM152.202 7.57493C151.557 7.57493 151.032 7.38733 150.627 7.01212C150.221 6.6369 150.019 6.17164 150.019 5.61632C150.019 5.06101 150.221 4.59575 150.627 4.22053C151.032 3.84532 151.557 3.65771 152.202 3.65771C152.848 3.65771 153.373 3.83782 153.778 4.19802C154.184 4.54322 154.386 4.99347 154.386 5.54879C154.386 6.13412 154.184 6.62189 153.778 7.01212C153.388 7.38733 152.863 7.57493 152.202 7.57493Z" fill="#F79320"/>
<path d="M146.517 21.5559C145.091 21.5559 143.98 21.1957 143.185 20.4753C142.389 19.7399 141.992 18.6518 141.992 17.2109V6.58493H145.504V17.1659C145.504 17.6762 145.639 18.0739 145.909 18.3591C146.179 18.6293 146.547 18.7643 147.012 18.7643C147.567 18.7643 148.04 18.6142 148.43 18.3141L149.376 20.7905C149.016 21.0456 148.58 21.2407 148.07 21.3758C147.575 21.4959 147.057 21.5559 146.517 21.5559ZM140.123 12.2356V9.5341H148.52V12.2356H140.123Z" fill="#F79320"/>
<path d="M135.999 21.3758V19.012L135.774 18.4942V14.2618C135.774 13.5114 135.542 12.926 135.076 12.5058C134.626 12.0856 133.928 11.8754 132.983 11.8754C132.337 11.8754 131.699 11.9805 131.069 12.1906C130.454 12.3857 129.928 12.6559 129.493 13.0011L128.232 10.5472C128.893 10.0819 129.688 9.72172 130.619 9.46658C131.549 9.21143 132.495 9.08386 133.455 9.08386C135.301 9.08386 136.735 9.51911 137.755 10.3896C138.776 11.2601 139.286 12.6184 139.286 14.4644V21.3758H135.999ZM132.307 21.5559C131.362 21.5559 130.551 21.3983 129.876 21.0832C129.2 20.753 128.683 20.3102 128.322 19.7549C127.962 19.1996 127.782 18.5767 127.782 17.8863C127.782 17.1659 127.955 16.5356 128.3 15.9953C128.66 15.455 129.223 15.0347 129.988 14.7346C130.754 14.4194 131.752 14.2618 132.983 14.2618H136.202V16.3105H133.365C132.54 16.3105 131.97 16.4455 131.654 16.7157C131.354 16.9858 131.204 17.3235 131.204 17.7288C131.204 18.179 131.377 18.5392 131.722 18.8094C132.082 19.0645 132.57 19.1921 133.185 19.1921C133.771 19.1921 134.296 19.057 134.761 18.7869C135.226 18.5017 135.564 18.089 135.774 17.5487L136.315 19.1696C136.059 19.95 135.594 20.5429 134.919 20.9481C134.243 21.3533 133.373 21.5559 132.307 21.5559Z" fill="#F79320"/>
<path d="M121.607 21.556C120.226 21.556 119.01 21.2858 117.96 20.7455C116.924 20.2052 116.121 19.4698 115.551 18.5392C114.98 17.5937 114.695 16.5206 114.695 15.3199C114.695 14.1042 114.973 13.0311 115.528 12.1006C116.098 11.1551 116.871 10.4196 117.847 9.89435C118.823 9.35405 119.926 9.08389 121.156 9.08389C122.342 9.08389 123.408 9.33904 124.353 9.84933C125.314 10.3446 126.072 11.065 126.627 12.0106C127.182 12.9411 127.46 14.0592 127.46 15.3649C127.46 15.5 127.452 15.6576 127.437 15.8377C127.422 16.0028 127.407 16.1604 127.392 16.3105H117.554V14.2618H125.546L124.196 14.8697C124.196 14.2393 124.068 13.6915 123.813 13.2262C123.558 12.761 123.205 12.4008 122.755 12.1456C122.304 11.8755 121.779 11.7404 121.179 11.7404C120.579 11.7404 120.046 11.8755 119.58 12.1456C119.13 12.4008 118.778 12.7685 118.522 13.2488C118.267 13.714 118.14 14.2693 118.14 14.9147V15.455C118.14 16.1154 118.282 16.7007 118.567 17.211C118.868 17.7063 119.28 18.089 119.806 18.3591C120.346 18.6143 120.976 18.7419 121.697 18.7419C122.342 18.7419 122.905 18.6443 123.385 18.4492C123.88 18.2541 124.331 17.9614 124.736 17.5712L126.604 19.5973C126.049 20.2277 125.351 20.7155 124.511 21.0607C123.67 21.3909 122.702 21.556 121.607 21.556Z" fill="#F79320"/>
<path d="M107 21.3759V9.26399H110.354V12.6859L109.881 11.6954C110.242 10.8399 110.819 10.1945 111.615 9.75927C112.41 9.30902 113.378 9.08389 114.519 9.08389V12.3257C114.369 12.3107 114.234 12.3032 114.114 12.3032C113.994 12.2882 113.866 12.2807 113.731 12.2807C112.771 12.2807 111.99 12.5584 111.39 13.1137C110.804 13.654 110.512 14.502 110.512 15.6576V21.3759H107Z" fill="#F79320"/>
<path d="M100.452 21.556C99.1467 21.556 97.9836 21.2933 96.963 20.768C95.9424 20.2277 95.1395 19.4848 94.5541 18.5392C93.9838 17.5937 93.6987 16.5206 93.6987 15.3199C93.6987 14.1042 93.9838 13.0311 94.5541 12.1006C95.1395 11.1551 95.9424 10.4196 96.963 9.89435C97.9836 9.35405 99.1467 9.08389 100.452 9.08389C101.728 9.08389 102.839 9.35405 103.784 9.89435C104.73 10.4196 105.428 11.1776 105.878 12.1681L103.154 13.6315C102.839 13.0611 102.441 12.6409 101.961 12.3708C101.496 12.1006 100.985 11.9655 100.43 11.9655C99.8296 11.9655 99.2893 12.1006 98.809 12.3708C98.3288 12.6409 97.9461 13.0236 97.6609 13.5189C97.3907 14.0142 97.2557 14.6145 97.2557 15.3199C97.2557 16.0253 97.3907 16.6257 97.6609 17.1209C97.9461 17.6162 98.3288 17.9989 98.809 18.2691C99.2893 18.5392 99.8296 18.6743 100.43 18.6743C100.985 18.6743 101.496 18.5468 101.961 18.2916C102.441 18.0215 102.839 17.5937 103.154 17.0084L105.878 18.4942C105.428 19.4698 104.73 20.2277 103.784 20.768C102.839 21.2933 101.728 21.556 100.452 21.556Z" fill="#F79320"/>
<path d="M86.8567 9.53246C87.8172 9.53246 88.6502 9.72007 89.3556 10.0953C90.076 10.4555 90.6313 11.0108 91.0215 11.7612C91.4268 12.4966 91.6294 13.4122 91.6294 14.5078V21.3742H90.5037V14.5978C90.5037 13.2771 90.166 12.2715 89.4907 11.5811C88.8303 10.8907 87.8998 10.5455 86.6991 10.5455C85.7836 10.5455 84.9881 10.7331 84.3127 11.1084C83.6373 11.4836 83.1196 12.0089 82.7594 12.6842C82.4142 13.3596 82.2416 14.1701 82.2416 15.1156V21.3742H81.1159V4.66971H82.2416V12.8869L82.0389 12.5267C82.3991 11.5961 82.992 10.8682 83.8175 10.3429C84.6429 9.80262 85.656 9.53246 86.8567 9.53246Z" fill="black"/>
<path d="M74.3868 21.4646C73.2461 21.4646 72.2255 21.2095 71.325 20.6992C70.4395 20.1889 69.7341 19.4835 69.2088 18.583C68.6985 17.6825 68.4434 16.6544 68.4434 15.4987C68.4434 14.3281 68.6985 13.2925 69.2088 12.392C69.7341 11.4915 70.4395 10.7936 71.325 10.2983C72.2255 9.78801 73.2461 9.53287 74.3868 9.53287C75.3323 9.53287 76.1878 9.71297 76.9532 10.0732C77.7337 10.4334 78.364 10.9737 78.8443 11.6941L78.0113 12.3019C77.5911 11.7016 77.0658 11.2588 76.4354 10.9737C75.8051 10.6885 75.1222 10.5459 74.3868 10.5459C73.4712 10.5459 72.6458 10.7561 71.9104 11.1763C71.1899 11.5815 70.6196 12.1594 70.1994 12.9098C69.7942 13.6452 69.5915 14.5082 69.5915 15.4987C69.5915 16.4893 69.7942 17.3598 70.1994 18.1102C70.6196 18.8456 71.1899 19.4235 71.9104 19.8437C72.6458 20.2489 73.4712 20.4516 74.3868 20.4516C75.1222 20.4516 75.8051 20.309 76.4354 20.0238C77.0658 19.7386 77.5911 19.2959 78.0113 18.6956L78.8443 19.3034C78.364 20.0238 77.7337 20.5641 76.9532 20.9243C76.1878 21.2845 75.3323 21.4646 74.3868 21.4646Z" fill="black"/>
<path d="M61.9684 21.4646C60.7827 21.4646 59.7321 21.2095 58.8166 20.6992C57.9161 20.1889 57.2032 19.4835 56.6779 18.583C56.1676 17.6825 55.9125 16.6544 55.9125 15.4987C55.9125 14.3281 56.1526 13.3 56.6329 12.4145C57.1282 11.514 57.8035 10.8086 58.659 10.2983C59.5145 9.78801 60.4751 9.53287 61.5407 9.53287C62.6063 9.53287 63.5593 9.78051 64.3998 10.2758C65.2553 10.7711 65.9231 11.469 66.4034 12.3695C66.8987 13.255 67.1463 14.2831 67.1463 15.4537C67.1463 15.4987 67.1388 15.5513 67.1238 15.6113C67.1238 15.6563 67.1238 15.7089 67.1238 15.7689H56.7454V14.8909H66.516L66.0657 15.3186C66.0807 14.4031 65.8856 13.5852 65.4804 12.8648C65.0902 12.1293 64.5574 11.559 63.882 11.1538C63.2066 10.7335 62.4262 10.5234 61.5407 10.5234C60.6702 10.5234 59.8897 10.7335 59.1993 11.1538C58.524 11.559 57.9912 12.1293 57.6009 12.8648C57.2107 13.5852 57.0156 14.4106 57.0156 15.3412V15.5438C57.0156 16.5043 57.2257 17.3598 57.646 18.1102C58.0812 18.8456 58.674 19.4235 59.4245 19.8437C60.1749 20.2489 61.0304 20.4516 61.9909 20.4516C62.7413 20.4516 63.4392 20.3165 64.0846 20.0463C64.745 19.7762 65.3003 19.3634 65.7505 18.8081L66.4034 19.551C65.8931 20.1814 65.2478 20.6617 64.4673 20.9919C63.7019 21.307 62.8689 21.4646 61.9684 21.4646Z" fill="black"/>
<path d="M52.9655 21.4655C51.9299 21.4655 51.1345 21.1803 50.5792 20.61C50.0388 20.0397 49.7687 19.2593 49.7687 18.2687V7.05734H50.8943V18.1561C50.8943 18.9066 51.0819 19.4844 51.4571 19.8896C51.8324 20.2948 52.3727 20.4975 53.0781 20.4975C53.8135 20.4975 54.4213 20.2798 54.9016 19.8446L55.3744 20.6325C55.0742 20.9177 54.7065 21.1278 54.2712 21.2629C53.851 21.398 53.4158 21.4655 52.9655 21.4655ZM47.6075 10.5918V9.6238H54.6314V10.5918H47.6075Z" fill="black"/>
<defs>
<linearGradient id="paint0_linear_1047_2745" x1="0" y1="13.4956" x2="38.1518" y2="13.4956" gradientUnits="userSpaceOnUse">
<stop stop-color="#F15A24"/>
<stop offset="0.04" stop-color="#F26427"/>
<stop offset="0.23" stop-color="#F78731"/>
<stop offset="0.42" stop-color="#FAA239"/>
<stop offset="0.61" stop-color="#FDB53E"/>
<stop offset="0.8" stop-color="#FEC142"/>
<stop offset="1" stop-color="#FFC543"/>
</linearGradient>
<linearGradient id="paint1_linear_1047_2745" x1="0" y1="13.4675" x2="38.1518" y2="13.4675" gradientUnits="userSpaceOnUse">
<stop stop-color="#F15A24"/>
<stop offset="0.04" stop-color="#F26427"/>
<stop offset="0.23" stop-color="#F78731"/>
<stop offset="0.42" stop-color="#FAA239"/>
<stop offset="0.61" stop-color="#FDB53E"/>
<stop offset="0.8" stop-color="#FEC142"/>
<stop offset="1" stop-color="#FFC543"/>
</linearGradient>
<linearGradient id="paint2_linear_1047_2745" x1="-0.508448" y1="18.3298" x2="34.4981" y2="-1.99082" gradientUnits="userSpaceOnUse">
<stop stop-color="#F15A24"/>
<stop offset="0.03" stop-color="#F36828"/>
<stop offset="0.12" stop-color="#F78530"/>
<stop offset="0.22" stop-color="#FA9C37"/>
<stop offset="0.33" stop-color="#FCAF3D"/>
<stop offset="0.46" stop-color="#FEBB40"/>
<stop offset="0.63" stop-color="#FFC342"/>
<stop offset="1" stop-color="#FFC543"/>
</linearGradient>
<linearGradient id="paint3_linear_1047_2745" x1="13.0058" y1="26.1539" x2="28.8102" y2="-1.22253" gradientUnits="userSpaceOnUse">
<stop stop-color="#F15A24"/>
<stop offset="0.11" stop-color="#F5772C"/>
<stop offset="0.25" stop-color="#F89335"/>
<stop offset="0.4" stop-color="#FBA93B"/>
<stop offset="0.56" stop-color="#FDB93F"/>
<stop offset="0.74" stop-color="#FFC242"/>
<stop offset="1" stop-color="#FFC543"/>
</linearGradient>
</defs>
</svg>
