<svg width="24" height="23" viewBox="0 0 24 23" fill="none" xmlns="http://www.w3.org/2000/svg">
<path fill-rule="evenodd" clip-rule="evenodd" d="M8.99998 12.0644C12.3055 12.0644 14.9551 9.38046 14.9551 6.03221C14.9551 2.68396 12.3055 0 8.99998 0C5.6945 0 3.04482 2.68396 3.04482 6.03221C3.04482 9.38046 5.6945 12.0644 8.99998 12.0644ZM9 15.0182C4.14507 15.0182 0 15.7945 0 18.8957C0 21.9958 4.11985 22.8 9 22.8C13.8537 22.8 18 22.0238 18 18.9225C18 15.8212 13.8802 15.0182 9 15.0182ZM21.4775 8.50543H22.9212C23.5155 8.50543 24 8.99677 24 9.59937C24 10.202 23.5155 10.6933 22.9212 10.6933H21.4775V12.1061C21.4775 12.7087 20.9942 13.2 20.3988 13.2C19.8045 13.2 19.32 12.7087 19.32 12.1061V10.6933H17.8788C17.2833 10.6933 16.8 10.202 16.8 9.59937C16.8 8.99677 17.2833 8.50543 17.8788 8.50543H19.32V7.09394C19.32 6.49134 19.8045 6 20.3988 6C20.9942 6 21.4775 6.49134 21.4775 7.09394V8.50543Z" fill="#899DAB"/>
</svg>
