<svg width="24" height="25" viewBox="0 0 24 25" fill="none" xmlns="http://www.w3.org/2000/svg">
<path d="M12 0.232788C5.37298 0.232788 0 5.60504 0 12.2328C0 18.8598 5.37298 24.2328 12 24.2328C18.627 24.2328 24 18.8598 24 12.2328C24 5.60504 18.627 0.232788 12 0.232788ZM8.88298 16.9405H6.43498V9.57556H8.88298V16.9405ZM7.65898 8.56981H7.64323C6.82123 8.56981 6.29026 8.00356 6.29026 7.29704C6.29026 6.57479 6.83774 6.02504 7.67477 6.02504C8.51174 6.02504 9.02774 6.57479 9.04349 7.29704C9.04349 8.00428 8.51174 8.56981 7.65898 8.56981ZM17.7097 16.9405H15.2617V13C15.2617 12.01 14.9077 11.335 14.0212 11.335C13.3455 11.335 12.9428 11.7903 12.7657 12.2305C12.7012 12.388 12.6848 12.6078 12.6848 12.8276V16.9405H10.2375C10.2375 16.9405 10.2697 10.267 10.2375 9.57556H12.6855V10.6188C13.0103 10.117 13.5923 9.40228 14.892 9.40228C16.5023 9.40228 17.7097 10.4553 17.7097 12.7173V16.9405Z" fill="#F79320"/>
</svg>
