<svg width="1946" height="900" viewBox="0 0 1946 900" fill="none" xmlns="http://www.w3.org/2000/svg">
<g clip-path="url(#clip0_631_3509)">
<rect width="1946" height="900" fill="#F89320"/>
<g opacity="0.5">
<path d="M2005.38 -118.627C2003.4 -119.867 2001.38 -121.054 1999.38 -122.201L1759.8 117.391C1760.95 119.405 1762.12 121.391 1763.36 123.391L2005.38 -118.627Z" fill="white"/>
<path d="M1994.22 -125.001C1992.11 -126.112 1989.98 -127.169 1987.83 -128.174L1753.8 105.845C1754.81 107.996 1755.87 110.125 1756.97 112.232L1994.22 -125.001Z" fill="white"/>
<path d="M1982.34 -130.681C1980.1 -131.654 1977.82 -132.574 1975.54 -133.44L1748.55 93.552C1749.44 95.8364 1750.36 98.103 1751.31 100.352L1982.34 -130.681Z" fill="white"/>
<path d="M2025.67 -103.868C2023.89 -105.335 2022.12 -106.761 2020.34 -108.148L1773.84 138.417C1775.17 140.204 1776.67 141.964 1778.13 143.75L2025.67 -103.868Z" fill="white"/>
<path d="M2034.91 -95.5351C2033.28 -97.1084 2031.63 -98.6506 2029.96 -100.162L1781.83 147.977C1783.34 149.648 1784.88 151.297 1786.45 152.923L2034.91 -95.5351Z" fill="white"/>
<path d="M2015.86 -111.574C2014 -112.925 2012.12 -114.259 2010.22 -115.574L1766.49 128.164C1767.75 130.075 1769.07 131.955 1770.43 133.804L2015.86 -111.574Z" fill="white"/>
<path d="M1969.67 -135.56C1967.27 -136.387 1964.85 -137.16 1962.42 -137.88L1744.12 80.446C1744.82 82.8726 1745.59 85.2903 1746.43 87.6991L1969.67 -135.56Z" fill="white"/>
<path d="M1908.95 -145C1905.59 -144.929 1902.23 -144.76 1898.87 -144.493L1737.55 16.8347C1737.28 20.1945 1737.11 23.5011 1737.04 26.901L1908.95 -145Z" fill="white"/>
<path d="M1889.98 -143.56C1886.15 -143.062 1882.34 -142.445 1878.56 -141.707L1740.35 -3.43135C1739.6 0.355194 1738.98 4.16397 1738.49 7.99495L1889.98 -143.56Z" fill="white"/>
<path d="M2043.52 -86.6019C2042.02 -88.2818 2040.47 -89.9217 2038.9 -91.5483L1790.44 156.91C1792.06 158.483 1793.72 160.03 1795.38 161.523L2043.52 -86.6019Z" fill="white"/>
<path d="M1926.02 -144.52C1922.99 -144.76 1919.95 -144.907 1916.91 -144.987L1737 34.9941C1737.08 38.034 1737.24 41.0695 1737.47 44.1005L1926.02 -144.52Z" fill="white"/>
<path d="M1941.67 -142.64C1938.89 -143.093 1936.1 -143.489 1933.3 -143.827L1738.16 51.3135C1738.5 54.1134 1738.9 56.9045 1739.36 59.6866L1941.67 -142.64Z" fill="white"/>
<path d="M1956.17 -139.587C1953.58 -140.245 1950.99 -140.84 1948.39 -141.374L1740.61 66.4063C1741.15 69.0106 1741.74 71.6017 1742.4 74.1794L1956.17 -139.587Z" fill="white"/>
<path d="M2088.34 26.4476C2088.26 23.4077 2088.1 20.3678 2087.87 17.3279L1899.33 205.895C1902.35 206.122 1905.39 206.282 1908.43 206.348L2088.34 26.4476Z" fill="white"/>
<path d="M2051.51 -77.0023C2050.18 -78.7889 2048.68 -80.5355 2047.22 -82.3354L1799.65 165.23C1801.4 166.696 1803.16 168.136 1804.98 169.523L2051.51 -77.0023Z" fill="white"/>
<path d="M2087.84 44.4871C2088.11 41.1272 2088.28 37.7674 2088.35 34.4075L1916.35 206.402C1919.71 206.34 1923.07 206.171 1926.43 205.895L2087.84 44.4871Z" fill="white"/>
<path d="M2085.07 64.8064C2085.82 61.0199 2086.43 57.2111 2086.92 53.3801L1935.37 204.935C1939.19 204.429 1943.01 203.815 1946.79 203.069L2085.07 64.8064Z" fill="white"/>
<path d="M2087.19 10.0615C2086.86 7.26158 2086.46 4.46172 2085.99 1.68848L1883.68 204.002C1886.46 204.473 1889.25 204.868 1892.05 205.188L2087.19 10.0615Z" fill="white"/>
<path d="M2065.55 -56.0163C2064.4 -58.0296 2063.23 -60.0162 2061.99 -62.0161L1819.97 180.003C1821.94 181.229 1823.97 182.416 1825.97 183.562L2065.55 -56.0163Z" fill="white"/>
<path d="M2084.74 -5.00473C2084.2 -7.67131 2083.6 -10.2046 2082.95 -12.7778L1869.18 200.948C1871.77 201.615 1874.36 202.202 1876.96 202.748L2084.74 -5.00473Z" fill="white"/>
<path d="M2058.86 -66.8694C2057.59 -68.7627 2056.26 -70.6381 2054.86 -72.4958L1809.49 172.936C1811.35 174.296 1813.23 175.607 1815.13 176.869L2058.86 -66.8694Z" fill="white"/>
<path d="M2071.55 -44.47C2070.54 -46.6211 2069.48 -48.7544 2068.38 -50.8699L1831.13 186.389C1833.24 187.5 1835.37 188.558 1837.52 189.562L2071.55 -44.47Z" fill="white"/>
<path d="M2076.8 -32.1771C2075.91 -34.4704 2074.99 -36.7414 2074.04 -38.9902L1843.01 192.042C1845.25 193.015 1847.53 193.935 1849.81 194.815L2076.8 -32.1771Z" fill="white"/>
<path d="M2081.23 -19.0709C2080.52 -21.5152 2079.75 -23.9329 2078.92 -26.324L1855.66 196.935C1858.06 197.749 1860.49 198.535 1862.92 199.242L2081.23 -19.0709Z" fill="white"/>
</g>
<path d="M1901.68 885.108L1738.85 722.281C1732.62 716.051 1722.52 716.051 1716.29 722.281L1716.28 722.287C1710.05 728.518 1710.05 738.619 1716.28 744.849L1879.11 907.676C1885.34 913.906 1895.44 913.906 1901.67 907.676L1901.68 907.669C1907.91 901.439 1907.91 891.338 1901.68 885.108Z" stroke="white" stroke-width="2" stroke-miterlimit="10"/>
<path d="M1989.9 885.282L1912.99 808.377C1906.76 802.146 1896.66 802.146 1890.43 808.377L1890.42 808.383C1884.19 814.614 1884.19 824.715 1890.42 830.945L1967.33 907.85C1973.56 914.08 1983.66 914.08 1989.89 907.85L1989.9 907.843C1996.13 901.613 1996.13 891.512 1989.9 885.282Z" stroke="white" stroke-width="2" stroke-miterlimit="10"/>
<path opacity="0.5" d="M24.9935 1036.99C133.238 1036.99 220.987 949.238 220.987 840.994C220.987 732.749 133.238 645 24.9935 645C-83.2507 645 -171 732.749 -171 840.994C-171 949.238 -83.2507 1036.99 24.9935 1036.99Z" stroke="#E37C07" stroke-width="60" stroke-miterlimit="10"/>
<path opacity="0.5" d="M194.5 747C228.466 747 256 719.466 256 685.5C256 651.534 228.466 624 194.5 624C160.534 624 133 651.534 133 685.5C133 719.466 160.534 747 194.5 747Z" stroke="white" stroke-width="20" stroke-miterlimit="10"/>
<path d="M141.956 131.864L-31.8656 -41.9576C-38.5164 -48.6085 -49.2995 -48.6085 -55.9503 -41.9576L-55.9576 -41.9503C-62.6085 -35.2995 -62.6085 -24.5164 -55.9576 -17.8656L117.864 155.956C124.515 162.607 135.298 162.607 141.949 155.956L141.956 155.949C148.607 149.298 148.607 138.515 141.956 131.864Z" stroke="white" stroke-width="2" stroke-miterlimit="10"/>
<path d="M236.136 132.051L154.037 49.952C147.386 43.3012 136.603 43.3012 129.953 49.952L129.945 49.9593C123.294 56.6102 123.294 67.3933 129.945 74.0441L212.044 156.143C218.694 162.793 229.478 162.793 236.128 156.143L236.136 156.135C242.787 149.484 242.787 138.701 236.136 132.051Z" stroke="white" stroke-width="2" stroke-miterlimit="10"/>
</g>
<defs>
<clipPath id="clip0_631_3509">
<rect width="1946" height="900" fill="white"/>
</clipPath>
</defs>
</svg>
