<svg width="1440" height="780" viewBox="0 0 1440 780" fill="none" xmlns="http://www.w3.org/2000/svg">
<rect width="1440" height="780" fill="white"/>
<path d="M834.479 553.958C835.848 553.958 836.958 552.848 836.958 551.479C836.958 550.11 835.848 549 834.479 549C833.11 549 832 550.11 832 551.479C832 552.848 833.11 553.958 834.479 553.958Z" fill="#F89320"/>
<path d="M851.005 553.958C852.375 553.958 853.484 552.848 853.484 551.479C853.484 550.11 852.375 549 851.005 549C849.636 549 848.527 550.11 848.527 551.479C848.527 552.848 849.636 553.958 851.005 553.958Z" fill="#F89320"/>
<path d="M867.532 553.958C868.901 553.958 870.011 552.848 870.011 551.479C870.011 550.11 868.901 549 867.532 549C866.163 549 865.053 550.11 865.053 551.479C865.053 552.848 866.163 553.958 867.532 553.958Z" fill="#F89320"/>
<path d="M884.058 553.958C885.428 553.958 886.537 552.848 886.537 551.479C886.537 550.11 885.428 549 884.058 549C882.689 549 881.579 550.11 881.579 551.479C881.579 552.848 882.689 553.958 884.058 553.958Z" fill="#F89320"/>
<path d="M900.585 553.958C901.954 553.958 903.064 552.848 903.064 551.479C903.064 550.11 901.954 549 900.585 549C899.216 549 898.106 550.11 898.106 551.479C898.106 552.848 899.216 553.958 900.585 553.958Z" fill="#F89320"/>
<path d="M917.111 553.958C918.48 553.958 919.59 552.848 919.59 551.479C919.59 550.11 918.48 549 917.111 549C915.742 549 914.632 550.11 914.632 551.479C914.632 552.848 915.742 553.958 917.111 553.958Z" fill="#F89320"/>
<path d="M834.479 570.484C835.848 570.484 836.958 569.375 836.958 568.005C836.958 566.636 835.848 565.526 834.479 565.526C833.11 565.526 832 566.636 832 568.005C832 569.375 833.11 570.484 834.479 570.484Z" fill="#F89320"/>
<path d="M851.005 570.484C852.375 570.484 853.484 569.375 853.484 568.005C853.484 566.636 852.375 565.526 851.005 565.526C849.636 565.526 848.527 566.636 848.527 568.005C848.527 569.375 849.636 570.484 851.005 570.484Z" fill="#F89320"/>
<path d="M867.532 570.484C868.901 570.484 870.011 569.375 870.011 568.005C870.011 566.636 868.901 565.526 867.532 565.526C866.163 565.526 865.053 566.636 865.053 568.005C865.053 569.375 866.163 570.484 867.532 570.484Z" fill="#F89320"/>
<path d="M884.058 570.484C885.428 570.484 886.537 569.375 886.537 568.005C886.537 566.636 885.428 565.526 884.058 565.526C882.689 565.526 881.579 566.636 881.579 568.005C881.579 569.375 882.689 570.484 884.058 570.484Z" fill="#F89320"/>
<path d="M900.585 570.484C901.954 570.484 903.064 569.375 903.064 568.005C903.064 566.636 901.954 565.526 900.585 565.526C899.216 565.526 898.106 566.636 898.106 568.005C898.106 569.375 899.216 570.484 900.585 570.484Z" fill="#F89320"/>
<path d="M917.111 570.484C918.48 570.484 919.59 569.375 919.59 568.005C919.59 566.636 918.48 565.526 917.111 565.526C915.742 565.526 914.632 566.636 914.632 568.005C914.632 569.375 915.742 570.484 917.111 570.484Z" fill="#F89320"/>
<path d="M834.479 587.011C835.848 587.011 836.958 585.901 836.958 584.532C836.958 583.163 835.848 582.053 834.479 582.053C833.11 582.053 832 583.163 832 584.532C832 585.901 833.11 587.011 834.479 587.011Z" fill="#F89320"/>
<path d="M851.005 587.011C852.375 587.011 853.484 585.901 853.484 584.532C853.484 583.163 852.375 582.053 851.005 582.053C849.636 582.053 848.527 583.163 848.527 584.532C848.527 585.901 849.636 587.011 851.005 587.011Z" fill="#F89320"/>
<path d="M867.532 587.011C868.901 587.011 870.011 585.901 870.011 584.532C870.011 583.163 868.901 582.053 867.532 582.053C866.163 582.053 865.053 583.163 865.053 584.532C865.053 585.901 866.163 587.011 867.532 587.011Z" fill="#F89320"/>
<path d="M884.058 587.011C885.428 587.011 886.537 585.901 886.537 584.532C886.537 583.163 885.428 582.053 884.058 582.053C882.689 582.053 881.579 583.163 881.579 584.532C881.579 585.901 882.689 587.011 884.058 587.011Z" fill="#F89320"/>
<path d="M900.585 587.011C901.954 587.011 903.064 585.901 903.064 584.532C903.064 583.163 901.954 582.053 900.585 582.053C899.216 582.053 898.106 583.163 898.106 584.532C898.106 585.901 899.216 587.011 900.585 587.011Z" fill="#F89320"/>
<path d="M917.111 587.011C918.48 587.011 919.59 585.901 919.59 584.532C919.59 583.163 918.48 582.053 917.111 582.053C915.742 582.053 914.632 583.163 914.632 584.532C914.632 585.901 915.742 587.011 917.111 587.011Z" fill="#F89320"/>
<path d="M834.479 603.537C835.848 603.537 836.958 602.427 836.958 601.058C836.958 599.689 835.848 598.579 834.479 598.579C833.11 598.579 832 599.689 832 601.058C832 602.427 833.11 603.537 834.479 603.537Z" fill="#F89320"/>
<path d="M851.005 603.537C852.375 603.537 853.484 602.427 853.484 601.058C853.484 599.689 852.375 598.579 851.005 598.579C849.636 598.579 848.527 599.689 848.527 601.058C848.527 602.427 849.636 603.537 851.005 603.537Z" fill="#F89320"/>
<path d="M867.532 603.537C868.901 603.537 870.011 602.427 870.011 601.058C870.011 599.689 868.901 598.579 867.532 598.579C866.163 598.579 865.053 599.689 865.053 601.058C865.053 602.427 866.163 603.537 867.532 603.537Z" fill="#F89320"/>
<path d="M884.058 603.537C885.428 603.537 886.537 602.427 886.537 601.058C886.537 599.689 885.428 598.579 884.058 598.579C882.689 598.579 881.579 599.689 881.579 601.058C881.579 602.427 882.689 603.537 884.058 603.537Z" fill="#F89320"/>
<path d="M900.585 603.537C901.954 603.537 903.064 602.427 903.064 601.058C903.064 599.689 901.954 598.579 900.585 598.579C899.216 598.579 898.106 599.689 898.106 601.058C898.106 602.427 899.216 603.537 900.585 603.537Z" fill="#F89320"/>
<path d="M917.111 603.537C918.48 603.537 919.59 602.427 919.59 601.058C919.59 599.689 918.48 598.579 917.111 598.579C915.742 598.579 914.632 599.689 914.632 601.058C914.632 602.427 915.742 603.537 917.111 603.537Z" fill="#F89320"/>
<path d="M834.479 620.064C835.848 620.064 836.958 618.954 836.958 617.585C836.958 616.216 835.848 615.106 834.479 615.106C833.11 615.106 832 616.216 832 617.585C832 618.954 833.11 620.064 834.479 620.064Z" fill="#F89320"/>
<path d="M851.005 620.064C852.375 620.064 853.484 618.954 853.484 617.585C853.484 616.216 852.375 615.106 851.005 615.106C849.636 615.106 848.527 616.216 848.527 617.585C848.527 618.954 849.636 620.064 851.005 620.064Z" fill="#F89320"/>
<path d="M867.532 620.064C868.901 620.064 870.011 618.954 870.011 617.585C870.011 616.216 868.901 615.106 867.532 615.106C866.163 615.106 865.053 616.216 865.053 617.585C865.053 618.954 866.163 620.064 867.532 620.064Z" fill="#F89320"/>
<path d="M884.058 620.064C885.428 620.064 886.537 618.954 886.537 617.585C886.537 616.216 885.428 615.106 884.058 615.106C882.689 615.106 881.579 616.216 881.579 617.585C881.579 618.954 882.689 620.064 884.058 620.064Z" fill="#F89320"/>
<path d="M900.585 620.064C901.954 620.064 903.064 618.954 903.064 617.585C903.064 616.216 901.954 615.106 900.585 615.106C899.216 615.106 898.106 616.216 898.106 617.585C898.106 618.954 899.216 620.064 900.585 620.064Z" fill="#F89320"/>
<path d="M917.111 620.064C918.48 620.064 919.59 618.954 919.59 617.585C919.59 616.216 918.48 615.106 917.111 615.106C915.742 615.106 914.632 616.216 914.632 617.585C914.632 618.954 915.742 620.064 917.111 620.064Z" fill="#F89320"/>
<path d="M834.479 636.59C835.848 636.59 836.958 635.48 836.958 634.111C836.958 632.742 835.848 631.632 834.479 631.632C833.11 631.632 832 632.742 832 634.111C832 635.48 833.11 636.59 834.479 636.59Z" fill="#F89320"/>
<path d="M851.005 636.59C852.375 636.59 853.484 635.48 853.484 634.111C853.484 632.742 852.375 631.632 851.005 631.632C849.636 631.632 848.527 632.742 848.527 634.111C848.527 635.48 849.636 636.59 851.005 636.59Z" fill="#F89320"/>
<path d="M867.532 636.59C868.901 636.59 870.011 635.48 870.011 634.111C870.011 632.742 868.901 631.632 867.532 631.632C866.163 631.632 865.053 632.742 865.053 634.111C865.053 635.48 866.163 636.59 867.532 636.59Z" fill="#F89320"/>
<path d="M884.058 636.59C885.428 636.59 886.537 635.48 886.537 634.111C886.537 632.742 885.428 631.632 884.058 631.632C882.689 631.632 881.579 632.742 881.579 634.111C881.579 635.48 882.689 636.59 884.058 636.59Z" fill="#F89320"/>
<path d="M900.585 636.59C901.954 636.59 903.064 635.48 903.064 634.111C903.064 632.742 901.954 631.632 900.585 631.632C899.216 631.632 898.106 632.742 898.106 634.111C898.106 635.48 899.216 636.59 900.585 636.59Z" fill="#F89320"/>
<path d="M917.111 636.59C918.48 636.59 919.59 635.48 919.59 634.111C919.59 632.742 918.48 631.632 917.111 631.632C915.742 631.632 914.632 632.742 914.632 634.111C914.632 635.48 915.742 636.59 917.111 636.59Z" fill="#F89320"/>
<path d="M834.479 653.117C835.848 653.117 836.958 652.007 836.958 650.638C836.958 649.269 835.848 648.159 834.479 648.159C833.11 648.159 832 649.269 832 650.638C832 652.007 833.11 653.117 834.479 653.117Z" fill="#F89320"/>
<path d="M851.005 653.117C852.375 653.117 853.484 652.007 853.484 650.638C853.484 649.269 852.375 648.159 851.005 648.159C849.636 648.159 848.527 649.269 848.527 650.638C848.527 652.007 849.636 653.117 851.005 653.117Z" fill="#F89320"/>
<path d="M867.532 653.117C868.901 653.117 870.011 652.007 870.011 650.638C870.011 649.269 868.901 648.159 867.532 648.159C866.163 648.159 865.053 649.269 865.053 650.638C865.053 652.007 866.163 653.117 867.532 653.117Z" fill="#F89320"/>
<path d="M884.058 653.117C885.428 653.117 886.537 652.007 886.537 650.638C886.537 649.269 885.428 648.159 884.058 648.159C882.689 648.159 881.579 649.269 881.579 650.638C881.579 652.007 882.689 653.117 884.058 653.117Z" fill="#F89320"/>
<path d="M900.585 653.117C901.954 653.117 903.064 652.007 903.064 650.638C903.064 649.269 901.954 648.159 900.585 648.159C899.216 648.159 898.106 649.269 898.106 650.638C898.106 652.007 899.216 653.117 900.585 653.117Z" fill="#F89320"/>
<path d="M917.111 653.117C918.48 653.117 919.59 652.007 919.59 650.638C919.59 649.269 918.48 648.159 917.111 648.159C915.742 648.159 914.632 649.269 914.632 650.638C914.632 652.007 915.742 653.117 917.111 653.117Z" fill="#F89320"/>
<path d="M834.479 669.643C835.848 669.643 836.958 668.533 836.958 667.164C836.958 665.795 835.848 664.685 834.479 664.685C833.11 664.685 832 665.795 832 667.164C832 668.533 833.11 669.643 834.479 669.643Z" fill="#F89320"/>
<path d="M851.005 669.643C852.375 669.643 853.484 668.533 853.484 667.164C853.484 665.795 852.375 664.685 851.005 664.685C849.636 664.685 848.527 665.795 848.527 667.164C848.527 668.533 849.636 669.643 851.005 669.643Z" fill="#F89320"/>
<path d="M867.532 669.643C868.901 669.643 870.011 668.533 870.011 667.164C870.011 665.795 868.901 664.685 867.532 664.685C866.163 664.685 865.053 665.795 865.053 667.164C865.053 668.533 866.163 669.643 867.532 669.643Z" fill="#F89320"/>
<path d="M884.058 669.643C885.428 669.643 886.537 668.533 886.537 667.164C886.537 665.795 885.428 664.685 884.058 664.685C882.689 664.685 881.579 665.795 881.579 667.164C881.579 668.533 882.689 669.643 884.058 669.643Z" fill="#F89320"/>
<path d="M900.585 669.643C901.954 669.643 903.064 668.533 903.064 667.164C903.064 665.795 901.954 664.685 900.585 664.685C899.216 664.685 898.106 665.795 898.106 667.164C898.106 668.533 899.216 669.643 900.585 669.643Z" fill="#F89320"/>
<path d="M917.111 669.643C918.48 669.643 919.59 668.533 919.59 667.164C919.59 665.795 918.48 664.685 917.111 664.685C915.742 664.685 914.632 665.795 914.632 667.164C914.632 668.533 915.742 669.643 917.111 669.643Z" fill="#F89320"/>
<path d="M834.479 686.17C835.848 686.17 836.958 685.06 836.958 683.691C836.958 682.322 835.848 681.212 834.479 681.212C833.11 681.212 832 682.322 832 683.691C832 685.06 833.11 686.17 834.479 686.17Z" fill="#F89320"/>
<path d="M851.005 686.17C852.375 686.17 853.484 685.06 853.484 683.691C853.484 682.322 852.375 681.212 851.005 681.212C849.636 681.212 848.527 682.322 848.527 683.691C848.527 685.06 849.636 686.17 851.005 686.17Z" fill="#F89320"/>
<path d="M867.532 686.17C868.901 686.17 870.011 685.06 870.011 683.691C870.011 682.322 868.901 681.212 867.532 681.212C866.163 681.212 865.053 682.322 865.053 683.691C865.053 685.06 866.163 686.17 867.532 686.17Z" fill="#F89320"/>
<path d="M884.058 686.17C885.428 686.17 886.537 685.06 886.537 683.691C886.537 682.322 885.428 681.212 884.058 681.212C882.689 681.212 881.579 682.322 881.579 683.691C881.579 685.06 882.689 686.17 884.058 686.17Z" fill="#F89320"/>
<path d="M900.585 686.17C901.954 686.17 903.064 685.06 903.064 683.691C903.064 682.322 901.954 681.212 900.585 681.212C899.216 681.212 898.106 682.322 898.106 683.691C898.106 685.06 899.216 686.17 900.585 686.17Z" fill="#F89320"/>
<path d="M917.111 686.17C918.48 686.17 919.59 685.06 919.59 683.691C919.59 682.322 918.48 681.212 917.111 681.212C915.742 681.212 914.632 682.322 914.632 683.691C914.632 685.06 915.742 686.17 917.111 686.17Z" fill="#F89320"/>
<path d="M1222.48 100.958C1223.85 100.958 1224.96 99.8481 1224.96 98.479C1224.96 97.1099 1223.85 96 1222.48 96C1221.11 96 1220 97.1099 1220 98.479C1220 99.8481 1221.11 100.958 1222.48 100.958Z" fill="#F89320"/>
<path d="M1239.01 100.958C1240.37 100.958 1241.48 99.8481 1241.48 98.479C1241.48 97.1099 1240.37 96 1239.01 96C1237.64 96 1236.53 97.1099 1236.53 98.479C1236.53 99.8481 1237.64 100.958 1239.01 100.958Z" fill="#F89320"/>
<path d="M1255.53 100.958C1256.9 100.958 1258.01 99.8481 1258.01 98.479C1258.01 97.1099 1256.9 96 1255.53 96C1254.16 96 1253.05 97.1099 1253.05 98.479C1253.05 99.8481 1254.16 100.958 1255.53 100.958Z" fill="#F89320"/>
<path d="M1272.06 100.958C1273.43 100.958 1274.54 99.8481 1274.54 98.479C1274.54 97.1099 1273.43 96 1272.06 96C1270.69 96 1269.58 97.1099 1269.58 98.479C1269.58 99.8481 1270.69 100.958 1272.06 100.958Z" fill="#F89320"/>
<path d="M1288.58 100.958C1289.95 100.958 1291.06 99.8481 1291.06 98.479C1291.06 97.1099 1289.95 96 1288.58 96C1287.22 96 1286.11 97.1099 1286.11 98.479C1286.11 99.8481 1287.22 100.958 1288.58 100.958Z" fill="#F89320"/>
<path d="M1305.11 100.958C1306.48 100.958 1307.59 99.8481 1307.59 98.479C1307.59 97.1099 1306.48 96 1305.11 96C1303.74 96 1302.63 97.1099 1302.63 98.479C1302.63 99.8481 1303.74 100.958 1305.11 100.958Z" fill="#F89320"/>
<path d="M1222.48 117.484C1223.85 117.484 1224.96 116.375 1224.96 115.005C1224.96 113.636 1223.85 112.526 1222.48 112.526C1221.11 112.526 1220 113.636 1220 115.005C1220 116.375 1221.11 117.484 1222.48 117.484Z" fill="#F89320"/>
<path d="M1239.01 117.484C1240.37 117.484 1241.48 116.375 1241.48 115.005C1241.48 113.636 1240.37 112.526 1239.01 112.526C1237.64 112.526 1236.53 113.636 1236.53 115.005C1236.53 116.375 1237.64 117.484 1239.01 117.484Z" fill="#F89320"/>
<path d="M1255.53 117.484C1256.9 117.484 1258.01 116.375 1258.01 115.005C1258.01 113.636 1256.9 112.526 1255.53 112.526C1254.16 112.526 1253.05 113.636 1253.05 115.005C1253.05 116.375 1254.16 117.484 1255.53 117.484Z" fill="#F89320"/>
<path d="M1272.06 117.484C1273.43 117.484 1274.54 116.375 1274.54 115.005C1274.54 113.636 1273.43 112.526 1272.06 112.526C1270.69 112.526 1269.58 113.636 1269.58 115.005C1269.58 116.375 1270.69 117.484 1272.06 117.484Z" fill="#F89320"/>
<path d="M1288.58 117.484C1289.95 117.484 1291.06 116.375 1291.06 115.005C1291.06 113.636 1289.95 112.526 1288.58 112.526C1287.22 112.526 1286.11 113.636 1286.11 115.005C1286.11 116.375 1287.22 117.484 1288.58 117.484Z" fill="#F89320"/>
<path d="M1305.11 117.484C1306.48 117.484 1307.59 116.375 1307.59 115.005C1307.59 113.636 1306.48 112.526 1305.11 112.526C1303.74 112.526 1302.63 113.636 1302.63 115.005C1302.63 116.375 1303.74 117.484 1305.11 117.484Z" fill="#F89320"/>
<path d="M1222.48 134.011C1223.85 134.011 1224.96 132.901 1224.96 131.532C1224.96 130.163 1223.85 129.053 1222.48 129.053C1221.11 129.053 1220 130.163 1220 131.532C1220 132.901 1221.11 134.011 1222.48 134.011Z" fill="#F89320"/>
<path d="M1239.01 134.011C1240.37 134.011 1241.48 132.901 1241.48 131.532C1241.48 130.163 1240.37 129.053 1239.01 129.053C1237.64 129.053 1236.53 130.163 1236.53 131.532C1236.53 132.901 1237.64 134.011 1239.01 134.011Z" fill="#F89320"/>
<path d="M1255.53 134.011C1256.9 134.011 1258.01 132.901 1258.01 131.532C1258.01 130.163 1256.9 129.053 1255.53 129.053C1254.16 129.053 1253.05 130.163 1253.05 131.532C1253.05 132.901 1254.16 134.011 1255.53 134.011Z" fill="#F89320"/>
<path d="M1272.06 134.011C1273.43 134.011 1274.54 132.901 1274.54 131.532C1274.54 130.163 1273.43 129.053 1272.06 129.053C1270.69 129.053 1269.58 130.163 1269.58 131.532C1269.58 132.901 1270.69 134.011 1272.06 134.011Z" fill="#F89320"/>
<path d="M1288.58 134.011C1289.95 134.011 1291.06 132.901 1291.06 131.532C1291.06 130.163 1289.95 129.053 1288.58 129.053C1287.22 129.053 1286.11 130.163 1286.11 131.532C1286.11 132.901 1287.22 134.011 1288.58 134.011Z" fill="#F89320"/>
<path d="M1305.11 134.011C1306.48 134.011 1307.59 132.901 1307.59 131.532C1307.59 130.163 1306.48 129.053 1305.11 129.053C1303.74 129.053 1302.63 130.163 1302.63 131.532C1302.63 132.901 1303.74 134.011 1305.11 134.011Z" fill="#F89320"/>
<path d="M1222.48 150.537C1223.85 150.537 1224.96 149.428 1224.96 148.058C1224.96 146.689 1223.85 145.579 1222.48 145.579C1221.11 145.579 1220 146.689 1220 148.058C1220 149.428 1221.11 150.537 1222.48 150.537Z" fill="#F89320"/>
<path d="M1239.01 150.537C1240.37 150.537 1241.48 149.428 1241.48 148.058C1241.48 146.689 1240.37 145.579 1239.01 145.579C1237.64 145.579 1236.53 146.689 1236.53 148.058C1236.53 149.428 1237.64 150.537 1239.01 150.537Z" fill="#F89320"/>
<path d="M1255.53 150.537C1256.9 150.537 1258.01 149.428 1258.01 148.058C1258.01 146.689 1256.9 145.579 1255.53 145.579C1254.16 145.579 1253.05 146.689 1253.05 148.058C1253.05 149.428 1254.16 150.537 1255.53 150.537Z" fill="#F89320"/>
<path d="M1272.06 150.537C1273.43 150.537 1274.54 149.428 1274.54 148.058C1274.54 146.689 1273.43 145.579 1272.06 145.579C1270.69 145.579 1269.58 146.689 1269.58 148.058C1269.58 149.428 1270.69 150.537 1272.06 150.537Z" fill="#F89320"/>
<path d="M1288.58 150.537C1289.95 150.537 1291.06 149.428 1291.06 148.058C1291.06 146.689 1289.95 145.579 1288.58 145.579C1287.22 145.579 1286.11 146.689 1286.11 148.058C1286.11 149.428 1287.22 150.537 1288.58 150.537Z" fill="#F89320"/>
<path d="M1305.11 150.537C1306.48 150.537 1307.59 149.428 1307.59 148.058C1307.59 146.689 1306.48 145.579 1305.11 145.579C1303.74 145.579 1302.63 146.689 1302.63 148.058C1302.63 149.428 1303.74 150.537 1305.11 150.537Z" fill="#F89320"/>
<path d="M1222.48 167.064C1223.85 167.064 1224.96 165.954 1224.96 164.585C1224.96 163.216 1223.85 162.106 1222.48 162.106C1221.11 162.106 1220 163.216 1220 164.585C1220 165.954 1221.11 167.064 1222.48 167.064Z" fill="#F89320"/>
<path d="M1239.01 167.064C1240.37 167.064 1241.48 165.954 1241.48 164.585C1241.48 163.216 1240.37 162.106 1239.01 162.106C1237.64 162.106 1236.53 163.216 1236.53 164.585C1236.53 165.954 1237.64 167.064 1239.01 167.064Z" fill="#F89320"/>
<path d="M1255.53 167.064C1256.9 167.064 1258.01 165.954 1258.01 164.585C1258.01 163.216 1256.9 162.106 1255.53 162.106C1254.16 162.106 1253.05 163.216 1253.05 164.585C1253.05 165.954 1254.16 167.064 1255.53 167.064Z" fill="#F89320"/>
<path d="M1272.06 167.064C1273.43 167.064 1274.54 165.954 1274.54 164.585C1274.54 163.216 1273.43 162.106 1272.06 162.106C1270.69 162.106 1269.58 163.216 1269.58 164.585C1269.58 165.954 1270.69 167.064 1272.06 167.064Z" fill="#F89320"/>
<path d="M1288.58 167.064C1289.95 167.064 1291.06 165.954 1291.06 164.585C1291.06 163.216 1289.95 162.106 1288.58 162.106C1287.22 162.106 1286.11 163.216 1286.11 164.585C1286.11 165.954 1287.22 167.064 1288.58 167.064Z" fill="#F89320"/>
<path d="M1305.11 167.064C1306.48 167.064 1307.59 165.954 1307.59 164.585C1307.59 163.216 1306.48 162.106 1305.11 162.106C1303.74 162.106 1302.63 163.216 1302.63 164.585C1302.63 165.954 1303.74 167.064 1305.11 167.064Z" fill="#F89320"/>
<path d="M1222.48 183.59C1223.85 183.59 1224.96 182.48 1224.96 181.111C1224.96 179.742 1223.85 178.632 1222.48 178.632C1221.11 178.632 1220 179.742 1220 181.111C1220 182.48 1221.11 183.59 1222.48 183.59Z" fill="#F89320"/>
<path d="M1239.01 183.59C1240.37 183.59 1241.48 182.48 1241.48 181.111C1241.48 179.742 1240.37 178.632 1239.01 178.632C1237.64 178.632 1236.53 179.742 1236.53 181.111C1236.53 182.48 1237.64 183.59 1239.01 183.59Z" fill="#F89320"/>
<path d="M1255.53 183.59C1256.9 183.59 1258.01 182.48 1258.01 181.111C1258.01 179.742 1256.9 178.632 1255.53 178.632C1254.16 178.632 1253.05 179.742 1253.05 181.111C1253.05 182.48 1254.16 183.59 1255.53 183.59Z" fill="#F89320"/>
<path d="M1272.06 183.59C1273.43 183.59 1274.54 182.48 1274.54 181.111C1274.54 179.742 1273.43 178.632 1272.06 178.632C1270.69 178.632 1269.58 179.742 1269.58 181.111C1269.58 182.48 1270.69 183.59 1272.06 183.59Z" fill="#F89320"/>
<path d="M1288.58 183.59C1289.95 183.59 1291.06 182.48 1291.06 181.111C1291.06 179.742 1289.95 178.632 1288.58 178.632C1287.22 178.632 1286.11 179.742 1286.11 181.111C1286.11 182.48 1287.22 183.59 1288.58 183.59Z" fill="#F89320"/>
<path d="M1305.11 183.59C1306.48 183.59 1307.59 182.48 1307.59 181.111C1307.59 179.742 1306.48 178.632 1305.11 178.632C1303.74 178.632 1302.63 179.742 1302.63 181.111C1302.63 182.48 1303.74 183.59 1305.11 183.59Z" fill="#F89320"/>
<path d="M1222.48 200.117C1223.85 200.117 1224.96 199.007 1224.96 197.638C1224.96 196.269 1223.85 195.159 1222.48 195.159C1221.11 195.159 1220 196.269 1220 197.638C1220 199.007 1221.11 200.117 1222.48 200.117Z" fill="#F89320"/>
<path d="M1239.01 200.117C1240.37 200.117 1241.48 199.007 1241.48 197.638C1241.48 196.269 1240.37 195.159 1239.01 195.159C1237.64 195.159 1236.53 196.269 1236.53 197.638C1236.53 199.007 1237.64 200.117 1239.01 200.117Z" fill="#F89320"/>
<path d="M1255.53 200.117C1256.9 200.117 1258.01 199.007 1258.01 197.638C1258.01 196.269 1256.9 195.159 1255.53 195.159C1254.16 195.159 1253.05 196.269 1253.05 197.638C1253.05 199.007 1254.16 200.117 1255.53 200.117Z" fill="#F89320"/>
<path d="M1272.06 200.117C1273.43 200.117 1274.54 199.007 1274.54 197.638C1274.54 196.269 1273.43 195.159 1272.06 195.159C1270.69 195.159 1269.58 196.269 1269.58 197.638C1269.58 199.007 1270.69 200.117 1272.06 200.117Z" fill="#F89320"/>
<path d="M1288.58 200.117C1289.95 200.117 1291.06 199.007 1291.06 197.638C1291.06 196.269 1289.95 195.159 1288.58 195.159C1287.22 195.159 1286.11 196.269 1286.11 197.638C1286.11 199.007 1287.22 200.117 1288.58 200.117Z" fill="#F89320"/>
<path d="M1305.11 200.117C1306.48 200.117 1307.59 199.007 1307.59 197.638C1307.59 196.269 1306.48 195.159 1305.11 195.159C1303.74 195.159 1302.63 196.269 1302.63 197.638C1302.63 199.007 1303.74 200.117 1305.11 200.117Z" fill="#F89320"/>
<path d="M1222.48 216.643C1223.85 216.643 1224.96 215.533 1224.96 214.164C1224.96 212.795 1223.85 211.685 1222.48 211.685C1221.11 211.685 1220 212.795 1220 214.164C1220 215.533 1221.11 216.643 1222.48 216.643Z" fill="#F89320"/>
<path d="M1239.01 216.643C1240.37 216.643 1241.48 215.533 1241.48 214.164C1241.48 212.795 1240.37 211.685 1239.01 211.685C1237.64 211.685 1236.53 212.795 1236.53 214.164C1236.53 215.533 1237.64 216.643 1239.01 216.643Z" fill="#F89320"/>
<path d="M1255.53 216.643C1256.9 216.643 1258.01 215.533 1258.01 214.164C1258.01 212.795 1256.9 211.685 1255.53 211.685C1254.16 211.685 1253.05 212.795 1253.05 214.164C1253.05 215.533 1254.16 216.643 1255.53 216.643Z" fill="#F89320"/>
<path d="M1272.06 216.643C1273.43 216.643 1274.54 215.533 1274.54 214.164C1274.54 212.795 1273.43 211.685 1272.06 211.685C1270.69 211.685 1269.58 212.795 1269.58 214.164C1269.58 215.533 1270.69 216.643 1272.06 216.643Z" fill="#F89320"/>
<path d="M1288.58 216.643C1289.95 216.643 1291.06 215.533 1291.06 214.164C1291.06 212.795 1289.95 211.685 1288.58 211.685C1287.22 211.685 1286.11 212.795 1286.11 214.164C1286.11 215.533 1287.22 216.643 1288.58 216.643Z" fill="#F89320"/>
<path d="M1305.11 216.643C1306.48 216.643 1307.59 215.533 1307.59 214.164C1307.59 212.795 1306.48 211.685 1305.11 211.685C1303.74 211.685 1302.63 212.795 1302.63 214.164C1302.63 215.533 1303.74 216.643 1305.11 216.643Z" fill="#F89320"/>
<path d="M1222.48 233.17C1223.85 233.17 1224.96 232.06 1224.96 230.691C1224.96 229.322 1223.85 228.212 1222.48 228.212C1221.11 228.212 1220 229.322 1220 230.691C1220 232.06 1221.11 233.17 1222.48 233.17Z" fill="#F89320"/>
<path d="M1239.01 233.17C1240.37 233.17 1241.48 232.06 1241.48 230.691C1241.48 229.322 1240.37 228.212 1239.01 228.212C1237.64 228.212 1236.53 229.322 1236.53 230.691C1236.53 232.06 1237.64 233.17 1239.01 233.17Z" fill="#F89320"/>
<path d="M1255.53 233.17C1256.9 233.17 1258.01 232.06 1258.01 230.691C1258.01 229.322 1256.9 228.212 1255.53 228.212C1254.16 228.212 1253.05 229.322 1253.05 230.691C1253.05 232.06 1254.16 233.17 1255.53 233.17Z" fill="#F89320"/>
<path d="M1272.06 233.17C1273.43 233.17 1274.54 232.06 1274.54 230.691C1274.54 229.322 1273.43 228.212 1272.06 228.212C1270.69 228.212 1269.58 229.322 1269.58 230.691C1269.58 232.06 1270.69 233.17 1272.06 233.17Z" fill="#F89320"/>
<path d="M1288.58 233.17C1289.95 233.17 1291.06 232.06 1291.06 230.691C1291.06 229.322 1289.95 228.212 1288.58 228.212C1287.22 228.212 1286.11 229.322 1286.11 230.691C1286.11 232.06 1287.22 233.17 1288.58 233.17Z" fill="#F89320"/>
<path d="M1305.11 233.17C1306.48 233.17 1307.59 232.06 1307.59 230.691C1307.59 229.322 1306.48 228.212 1305.11 228.212C1303.74 228.212 1302.63 229.322 1302.63 230.691C1302.63 232.06 1303.74 233.17 1305.11 233.17Z" fill="#F89320"/>
<g clip-path="url(#clip0_520_5400)">
<rect width="703" height="780" fill="#F89320"/>
<path opacity="0.5" d="M-18.0065 986.987C90.2378 986.987 177.987 899.238 177.987 790.994C177.987 682.749 90.2378 595 -18.0065 595C-126.251 595 -214 682.749 -214 790.994C-214 899.238 -126.251 986.987 -18.0065 986.987Z" stroke="#E37C07" stroke-width="60" stroke-miterlimit="10"/>
<path opacity="0.5" d="M151.5 697C185.466 697 213 669.466 213 635.5C213 601.534 185.466 574 151.5 574C117.534 574 90 601.534 90 635.5C90 669.466 117.534 697 151.5 697Z" stroke="white" stroke-width="20" stroke-miterlimit="10"/>
<g opacity="0.5">
<path d="M763.378 -169.628C761.405 -170.867 759.378 -172.054 757.378 -173.201L517.799 66.3913C518.946 68.4046 520.119 70.3912 521.359 72.3911L763.378 -169.628Z" fill="white"/>
<path d="M752.218 -176.001C750.112 -177.112 747.983 -178.169 745.832 -179.174L511.8 54.8451C512.813 56.9961 513.871 59.1249 514.973 61.2315L752.218 -176.001Z" fill="white"/>
<path d="M740.339 -181.68C738.099 -182.654 735.819 -183.574 733.539 -184.44L506.546 42.5521C507.435 44.8365 508.355 47.1032 509.306 49.352L740.339 -181.68Z" fill="white"/>
<path d="M783.671 -154.868C781.893 -156.335 780.115 -157.761 778.337 -159.148L531.839 87.4173C533.172 89.2039 534.665 90.9638 536.132 92.7504L783.671 -154.868Z" fill="white"/>
<path d="M792.91 -146.535C791.284 -148.108 789.635 -149.65 787.964 -151.161L539.825 96.9769C541.336 98.648 542.878 100.297 544.452 101.923L792.91 -146.535Z" fill="white"/>
<path d="M773.858 -162.574C772 -163.925 770.12 -165.259 768.218 -166.574L524.492 77.1643C525.755 79.0754 527.066 80.9553 528.426 82.8041L773.858 -162.574Z" fill="white"/>
<path d="M727.672 -186.56C725.272 -187.387 722.846 -188.16 720.419 -188.88L502.12 29.446C502.822 31.8726 503.591 34.2903 504.426 36.6991L727.672 -186.56Z" fill="white"/>
<path d="M801.523 -137.602C800.017 -139.282 798.47 -140.922 796.897 -142.548L548.438 105.91C550.065 107.483 551.718 109.03 553.385 110.523L801.523 -137.602Z" fill="white"/>
<path d="M699.673 -193.64C696.891 -194.093 694.1 -194.489 691.3 -194.827L496.16 0.313476C496.498 3.11338 496.898 5.90444 497.36 8.68657L699.673 -193.64Z" fill="white"/>
<path d="M714.166 -190.587C711.58 -191.245 708.989 -191.84 706.393 -192.373L498.613 15.4064C499.147 18.0107 499.742 20.6018 500.4 23.1795L714.166 -190.587Z" fill="white"/>
<path d="M846.335 -24.5523C846.255 -27.5922 846.1 -30.6322 845.868 -33.6721L657.328 154.895C660.355 155.122 663.394 155.282 666.434 155.348L846.335 -24.5523Z" fill="white"/>
<path d="M809.51 -128.002C808.176 -129.789 806.683 -131.535 805.216 -133.335L557.651 114.23C559.398 115.696 561.158 117.136 562.984 118.523L809.51 -128.002Z" fill="white"/>
<path d="M845.842 -6.51293C846.108 -9.87282 846.277 -13.2327 846.348 -16.5926L674.354 155.402C677.714 155.34 681.074 155.171 684.434 154.895L845.842 -6.51293Z" fill="white"/>
<path d="M843.069 13.8064C843.815 10.0198 844.433 6.21105 844.922 2.38007L693.367 153.935C697.193 153.428 701.006 152.815 704.793 152.068L843.069 13.8064Z" fill="white"/>
<path d="M845.188 -40.9384C844.855 -43.7384 844.455 -46.5382 843.988 -49.3115L641.675 153.002C644.457 153.473 647.248 153.868 650.048 154.188L845.188 -40.9384Z" fill="white"/>
<path d="M823.549 -107.016C822.403 -109.03 821.229 -111.016 819.989 -113.016L577.971 129.003C579.944 130.229 581.97 131.416 583.97 132.563L823.549 -107.016Z" fill="white"/>
<path d="M842.735 -56.0047C842.202 -58.6713 841.602 -61.2045 840.948 -63.7778L627.182 149.948C629.769 150.615 632.355 151.202 634.955 151.748L842.735 -56.0047Z" fill="white"/>
<path d="M816.856 -117.869C815.594 -119.763 814.261 -121.638 812.856 -123.496L567.491 121.936C569.349 123.296 571.229 124.607 573.131 125.869L816.856 -117.869Z" fill="white"/>
<path d="M829.549 -95.47C828.536 -97.621 827.478 -99.7543 826.376 -101.87L589.13 135.389C591.237 136.5 593.366 137.558 595.517 138.562L829.549 -95.47Z" fill="white"/>
<path d="M834.802 -83.1771C833.913 -85.4703 832.993 -87.7414 832.042 -89.9902L601.01 141.042C603.25 142.015 605.53 142.935 607.81 143.815L834.802 -83.1771Z" fill="white"/>
<path d="M839.229 -70.0708C838.518 -72.5152 837.749 -74.9329 836.922 -77.3239L613.663 145.935C616.063 146.749 618.489 147.535 620.916 148.242L839.229 -70.0708Z" fill="white"/>
</g>
<path d="M660.676 794.108L497.849 631.281C491.619 625.051 481.518 625.051 475.287 631.281L475.281 631.287C469.051 637.518 469.051 647.619 475.281 653.849L638.108 816.676C644.338 822.906 654.439 822.906 660.669 816.676L660.676 816.669C666.906 810.439 666.906 800.338 660.676 794.108Z" stroke="white" stroke-width="2" stroke-miterlimit="10"/>
<path d="M748.898 794.282L671.992 717.377C665.762 711.146 655.661 711.146 649.431 717.377L649.424 717.383C643.194 723.614 643.194 733.715 649.424 739.945L726.329 816.85C732.56 823.08 742.661 823.08 748.891 816.85L748.898 816.843C755.128 810.613 755.128 800.512 748.898 794.282Z" stroke="white" stroke-width="2" stroke-miterlimit="10"/>
<path d="M106.956 113.864L-66.8656 -59.9576C-73.5164 -66.6085 -84.2995 -66.6085 -90.9503 -59.9576L-90.9576 -59.9503C-97.6085 -53.2995 -97.6085 -42.5164 -90.9576 -35.8656L82.8644 137.956C89.5152 144.607 100.298 144.607 106.949 137.956L106.956 137.949C113.607 131.298 113.607 120.515 106.956 113.864Z" stroke="white" stroke-width="2" stroke-miterlimit="10"/>
<path d="M201.136 114.05L119.037 31.952C112.386 25.3012 101.603 25.3012 94.9525 31.952L94.9452 31.9593C88.2944 38.6101 88.2944 49.3932 94.9452 56.044L177.044 138.142C183.694 144.793 194.478 144.793 201.128 138.142L201.136 138.135C207.787 131.484 207.787 120.701 201.136 114.05Z" stroke="white" stroke-width="2" stroke-miterlimit="10"/>
<rect width="10.8814" height="36.6012" transform="matrix(0.704517 -0.709687 0.704517 0.709687 235 389.294)" fill="white"/>
<rect width="10.8814" height="36.6012" transform="matrix(0.704517 -0.709687 0.704517 0.709687 259.392 364.723)" fill="white"/>
<rect width="10.8814" height="45.5041" transform="matrix(0.704517 0.709687 -0.704517 0.709687 267.058 357)" fill="white"/>
<path fill-rule="evenodd" clip-rule="evenodd" d="M286.124 400.075L293.334 392.812L301 400.535L278.699 423L271.032 415.277L278.458 407.797L260.786 389.996L268.452 382.273L286.124 400.075Z" fill="white"/>
<path d="M339.38 402.3V411H334.16C330.44 411 327.54 410.1 325.46 408.3C323.38 406.46 322.34 403.48 322.34 399.36V386.04H318.26V377.52H322.34V369.36H332.6V377.52H339.32V386.04H332.6V399.48C332.6 400.48 332.84 401.2 333.32 401.64C333.8 402.08 334.6 402.3 335.72 402.3H339.38ZM374.255 393.72C374.255 394.68 374.195 395.68 374.075 396.72H350.855C351.015 398.8 351.675 400.4 352.835 401.52C354.035 402.6 355.495 403.14 357.215 403.14C359.775 403.14 361.555 402.06 362.555 399.9H373.475C372.915 402.1 371.895 404.08 370.415 405.84C368.975 407.6 367.155 408.98 364.955 409.98C362.755 410.98 360.295 411.48 357.575 411.48C354.295 411.48 351.375 410.78 348.815 409.38C346.255 407.98 344.255 405.98 342.815 403.38C341.375 400.78 340.655 397.74 340.655 394.26C340.655 390.78 341.355 387.74 342.755 385.14C344.195 382.54 346.195 380.54 348.755 379.14C351.315 377.74 354.255 377.04 357.575 377.04C360.815 377.04 363.695 377.72 366.215 379.08C368.735 380.44 370.695 382.38 372.095 384.9C373.535 387.42 374.255 390.36 374.255 393.72ZM363.755 391.02C363.755 389.26 363.155 387.86 361.955 386.82C360.755 385.78 359.255 385.26 357.455 385.26C355.735 385.26 354.275 385.76 353.075 386.76C351.915 387.76 351.195 389.18 350.915 391.02H363.755ZM375.228 394.26C375.228 390.78 375.928 387.74 377.328 385.14C378.768 382.54 380.748 380.54 383.268 379.14C385.828 377.74 388.748 377.04 392.028 377.04C396.228 377.04 399.728 378.14 402.528 380.34C405.368 382.54 407.228 385.64 408.108 389.64H397.188C396.268 387.08 394.488 385.8 391.848 385.8C389.968 385.8 388.468 386.54 387.348 388.02C386.228 389.46 385.668 391.54 385.668 394.26C385.668 396.98 386.228 399.08 387.348 400.56C388.468 402 389.968 402.72 391.848 402.72C394.488 402.72 396.268 401.44 397.188 398.88H408.108C407.228 402.8 405.368 405.88 402.528 408.12C399.688 410.36 396.188 411.48 392.028 411.48C388.748 411.48 385.828 410.78 383.268 409.38C380.748 407.98 378.768 405.98 377.328 403.38C375.928 400.78 375.228 397.74 375.228 394.26ZM442.756 393.72C442.756 394.68 442.696 395.68 442.576 396.72H419.356C419.516 398.8 420.176 400.4 421.336 401.52C422.536 402.6 423.996 403.14 425.716 403.14C428.276 403.14 430.056 402.06 431.056 399.9H441.976C441.416 402.1 440.396 404.08 438.916 405.84C437.476 407.6 435.656 408.98 433.456 409.98C431.256 410.98 428.796 411.48 426.076 411.48C422.796 411.48 419.876 410.78 417.316 409.38C414.756 407.98 412.756 405.98 411.316 403.38C409.876 400.78 409.156 397.74 409.156 394.26C409.156 390.78 409.856 387.74 411.256 385.14C412.696 382.54 414.696 380.54 417.256 379.14C419.816 377.74 422.756 377.04 426.076 377.04C429.316 377.04 432.196 377.72 434.716 379.08C437.236 380.44 439.196 382.38 440.596 384.9C442.036 387.42 442.756 390.36 442.756 393.72ZM432.256 391.02C432.256 389.26 431.656 387.86 430.456 386.82C429.256 385.78 427.756 385.26 425.956 385.26C424.236 385.26 422.776 385.76 421.576 386.76C420.416 387.76 419.696 389.18 419.416 391.02H432.256ZM456.028 383.1C457.228 381.26 458.728 379.82 460.528 378.78C462.328 377.7 464.328 377.16 466.528 377.16V388.02H463.708C461.148 388.02 459.228 388.58 457.948 389.7C456.668 390.78 456.028 392.7 456.028 395.46V411H445.768V377.52H456.028V383.1Z" fill="white"/>
</g>
<defs>
<clipPath id="clip0_520_5400">
<rect width="703" height="780" fill="white"/>
</clipPath>
</defs>
</svg>
