<svg width="24" height="24" viewBox="0 0 24 24" fill="none" xmlns="http://www.w3.org/2000/svg">
<path d="M24 12C23.9969 8.81834 22.7317 5.76787 20.4819 3.51809C18.2321 1.26832 15.1817 0.00305488 12 0C8.8174 0 5.76516 1.26428 3.51472 3.51472C1.26428 5.76516 0 8.8174 0 12C0 15.1826 1.26428 18.2348 3.51472 20.4853C5.76516 22.7357 8.8174 24 12 24C15.1817 23.9969 18.2321 22.7317 20.4819 20.4819C22.7317 18.2321 23.9969 15.1817 24 12ZM22.1077 11.0769H17.5154C17.3308 7.66154 16.1308 4.5 14.1115 2.06538C16.2301 2.52049 18.1482 3.63996 19.5864 5.2608C21.0246 6.88164 21.9079 8.91923 22.1077 11.0769ZM8.34231 12.9231H15.6577C15.45 16.2462 14.1231 19.35 12 21.5077C9.87692 19.35 8.55 16.2462 8.34231 12.9231ZM8.34231 11.0769C8.55 7.75385 9.87692 4.65 12 2.49231C14.1231 4.65 15.45 7.75385 15.6577 11.0769H8.34231ZM14.1115 21.9346C16.1308 19.5 17.3308 16.3385 17.5154 12.9231H22.1077C21.9079 15.0808 21.0246 17.1184 19.5864 18.7392C18.1482 20.36 16.2301 21.4795 14.1115 21.9346Z" fill="#F89320"/>
</svg>
