<svg width="122" height="45" viewBox="0 0 122 45" fill="none" xmlns="http://www.w3.org/2000/svg">
<path fill-rule="evenodd" clip-rule="evenodd" d="M22.0942 0.000109697L22.0941 0L0.518311 21.5757L5.67773 26.7352L5.67777 26.7351L17.8728 38.9302L23.0323 33.7708L10.8372 21.5757L22.0941 10.3188L34.2892 22.5139L39.4486 17.3545L22.0942 5.34543e-05L22.0942 0.000109697Z" fill="url(#paint0_linear_133_121)"/>
<path fill-rule="evenodd" clip-rule="evenodd" d="M34.9255 28.7787L39.7776 23.9266L44.9371 29.086L29.9279 44.0952L24.7684 38.9358L29.766 33.9382L17.8727 22.0448L23.0321 16.8854L34.9255 28.7787Z" fill="#D9D9D9"/>
<path fill-rule="evenodd" clip-rule="evenodd" d="M34.9255 28.7787L39.7776 23.9266L44.9371 29.086L29.9279 44.0952L24.7684 38.9358L29.766 33.9382L17.8727 22.0448L23.0321 16.8854L34.9255 28.7787Z" fill="url(#paint1_linear_133_121)"/>
<path d="M70.5451 13.6996V16.9876H66.0811V30.5476H61.9771V16.9876H57.5131V13.6996H70.5451ZM84.2688 23.6356C84.2688 24.0196 84.2448 24.4196 84.1968 24.8356H74.9088C74.9728 25.6676 75.2368 26.3076 75.7008 26.7556C76.1808 27.1876 76.7648 27.4036 77.4528 27.4036C78.4768 27.4036 79.1888 26.9716 79.5888 26.1076H83.9568C83.7328 26.9876 83.3248 27.7796 82.7328 28.4836C82.1568 29.1876 81.4288 29.7396 80.5488 30.1396C79.6688 30.5396 78.6848 30.7396 77.5968 30.7396C76.2848 30.7396 75.1168 30.4596 74.0928 29.8996C73.0688 29.3396 72.2688 28.5396 71.6928 27.4996C71.1168 26.4596 70.8288 25.2436 70.8288 23.8516C70.8288 22.4596 71.1088 21.2436 71.6688 20.2036C72.2448 19.1636 73.0448 18.3636 74.0688 17.8036C75.0928 17.2436 76.2688 16.9636 77.5968 16.9636C78.8928 16.9636 80.0448 17.2356 81.0528 17.7796C82.0608 18.3236 82.8448 19.0996 83.4048 20.1076C83.9808 21.1156 84.2688 22.2916 84.2688 23.6356ZM80.0688 22.5556C80.0688 21.8516 79.8288 21.2916 79.3488 20.8756C78.8688 20.4596 78.2688 20.2516 77.5488 20.2516C76.8608 20.2516 76.2768 20.4516 75.7968 20.8516C75.3328 21.2516 75.0448 21.8196 74.9328 22.5556H80.0688ZM84.6579 23.8516C84.6579 22.4596 84.9379 21.2436 85.4979 20.2036C86.0739 19.1636 86.8659 18.3636 87.8739 17.8036C88.8979 17.2436 90.0659 16.9636 91.3779 16.9636C93.0579 16.9636 94.4579 17.4036 95.5779 18.2836C96.7139 19.1636 97.4579 20.4036 97.8099 22.0036H93.4419C93.0739 20.9796 92.3619 20.4676 91.3059 20.4676C90.5539 20.4676 89.9539 20.7636 89.5059 21.3556C89.0579 21.9316 88.8339 22.7636 88.8339 23.8516C88.8339 24.9396 89.0579 25.7796 89.5059 26.3716C89.9539 26.9476 90.5539 27.2356 91.3059 27.2356C92.3619 27.2356 93.0739 26.7236 93.4419 25.6996H97.8099C97.4579 27.2676 96.7139 28.4996 95.5779 29.3956C94.4419 30.2916 93.0419 30.7396 91.3779 30.7396C90.0659 30.7396 88.8979 30.4596 87.8739 29.8996C86.8659 29.3396 86.0739 28.5396 85.4979 27.4996C84.9379 26.4596 84.6579 25.2436 84.6579 23.8516ZM111.669 23.6356C111.669 24.0196 111.645 24.4196 111.597 24.8356H102.309C102.373 25.6676 102.637 26.3076 103.101 26.7556C103.581 27.1876 104.165 27.4036 104.853 27.4036C105.877 27.4036 106.589 26.9716 106.989 26.1076H111.357C111.133 26.9876 110.725 27.7796 110.133 28.4836C109.557 29.1876 108.829 29.7396 107.949 30.1396C107.069 30.5396 106.085 30.7396 104.997 30.7396C103.685 30.7396 102.517 30.4596 101.493 29.8996C100.469 29.3396 99.6691 28.5396 99.0931 27.4996C98.5171 26.4596 98.2291 25.2436 98.2291 23.8516C98.2291 22.4596 98.5091 21.2436 99.0691 20.2036C99.6451 19.1636 100.445 18.3636 101.469 17.8036C102.493 17.2436 103.669 16.9636 104.997 16.9636C106.293 16.9636 107.445 17.2356 108.453 17.7796C109.461 18.3236 110.245 19.0996 110.805 20.1076C111.381 21.1156 111.669 22.2916 111.669 23.6356ZM107.469 22.5556C107.469 21.8516 107.229 21.2916 106.749 20.8756C106.269 20.4596 105.669 20.2516 104.949 20.2516C104.261 20.2516 103.677 20.4516 103.197 20.8516C102.733 21.2516 102.445 21.8196 102.333 22.5556H107.469ZM116.978 19.3876C117.458 18.6516 118.058 18.0756 118.778 17.6596C119.498 17.2276 120.298 17.0116 121.178 17.0116V21.3556H120.05C119.026 21.3556 118.258 21.5796 117.746 22.0276C117.234 22.4596 116.978 23.2276 116.978 24.3316V30.5476H112.874V17.1556H116.978V19.3876Z" fill="#F89320"/>
<defs>
<linearGradient id="paint0_linear_133_121" x1="-3.92946" y1="31.7032" x2="60.0522" y2="25.2352" gradientUnits="userSpaceOnUse">
<stop stop-color="#F15A24"/>
<stop offset="0.174" stop-color="#F36828"/>
<stop offset="0.324" stop-color="#F78530"/>
<stop offset="0.409" stop-color="#FA9C37"/>
<stop offset="0.519" stop-color="#FCAF3D"/>
<stop offset="0.614" stop-color="#FEBB40"/>
<stop offset="0.759" stop-color="#FFC342"/>
<stop offset="1" stop-color="#FFC543"/>
</linearGradient>
<linearGradient id="paint1_linear_133_121" x1="17.5116" y1="35.3342" x2="45.984" y2="23.7349" gradientUnits="userSpaceOnUse">
<stop stop-color="#F15A24"/>
<stop offset="0.03" stop-color="#F36828"/>
<stop offset="0.12" stop-color="#F78530"/>
<stop offset="0.22" stop-color="#FA9C37"/>
<stop offset="0.33" stop-color="#FCAF3D"/>
<stop offset="0.46" stop-color="#FEBB40"/>
<stop offset="0.63" stop-color="#FFC342"/>
<stop offset="1" stop-color="#FFC543"/>
</linearGradient>
</defs>
</svg>
