<svg width="1946" height="900" viewBox="0 0 1946 900" fill="none" xmlns="http://www.w3.org/2000/svg">
<g clip-path="url(#clip0_619_4443)">
<rect width="1946" height="900" fill="#F89320"/>
<g opacity="0.5">
<path d="M2005.38 -118.627C2003.4 -119.867 2001.38 -121.054 1999.38 -122.201L1759.8 117.391C1760.95 119.405 1762.12 121.391 1763.36 123.391L2005.38 -118.627Z" fill="white"/>
<path d="M1994.22 -125.001C1992.11 -126.112 1989.98 -127.169 1987.83 -128.174L1753.8 105.845C1754.81 107.996 1755.87 110.125 1756.97 112.232L1994.22 -125.001Z" fill="white"/>
<path d="M1982.34 -130.681C1980.1 -131.654 1977.82 -132.574 1975.54 -133.44L1748.55 93.552C1749.44 95.8364 1750.36 98.103 1751.31 100.352L1982.34 -130.681Z" fill="white"/>
<path d="M2025.67 -103.868C2023.89 -105.335 2022.12 -106.761 2020.34 -108.148L1773.84 138.417C1775.17 140.204 1776.67 141.964 1778.13 143.75L2025.67 -103.868Z" fill="white"/>
<path d="M2034.91 -95.5351C2033.28 -97.1084 2031.63 -98.6506 2029.96 -100.162L1781.83 147.977C1783.34 149.648 1784.88 151.297 1786.45 152.923L2034.91 -95.5351Z" fill="white"/>
<path d="M2015.86 -111.574C2014 -112.925 2012.12 -114.259 2010.22 -115.574L1766.49 128.164C1767.75 130.075 1769.07 131.955 1770.43 133.804L2015.86 -111.574Z" fill="white"/>
<path d="M1969.67 -135.56C1967.27 -136.387 1964.85 -137.16 1962.42 -137.88L1744.12 80.4458C1744.82 82.8724 1745.59 85.2901 1746.43 87.6989L1969.67 -135.56Z" fill="white"/>
<path d="M1908.95 -145C1905.59 -144.929 1902.23 -144.76 1898.87 -144.493L1737.55 16.8347C1737.28 20.1945 1737.11 23.5011 1737.04 26.901L1908.95 -145Z" fill="white"/>
<path d="M1889.98 -143.56C1886.15 -143.062 1882.34 -142.445 1878.56 -141.707L1740.35 -3.43135C1739.6 0.355193 1738.98 4.16397 1738.49 7.99495L1889.98 -143.56Z" fill="white"/>
<path d="M2043.52 -86.6019C2042.02 -88.2818 2040.47 -89.9217 2038.9 -91.5483L1790.44 156.91C1792.07 158.483 1793.72 160.03 1795.39 161.523L2043.52 -86.6019Z" fill="white"/>
<path d="M1926.02 -144.52C1922.99 -144.76 1919.95 -144.907 1916.91 -144.987L1737 34.9939C1737.08 38.0338 1737.24 41.0693 1737.47 44.1003L1926.02 -144.52Z" fill="white"/>
<path d="M1941.67 -142.64C1938.89 -143.093 1936.1 -143.489 1933.3 -143.827L1738.16 51.3135C1738.5 54.1134 1738.9 56.9045 1739.36 59.6866L1941.67 -142.64Z" fill="white"/>
<path d="M1956.17 -139.587C1953.58 -140.245 1950.99 -140.84 1948.39 -141.374L1740.61 66.4063C1741.15 69.0106 1741.74 71.6017 1742.4 74.1794L1956.17 -139.587Z" fill="white"/>
<path d="M2088.34 26.4479C2088.26 23.408 2088.1 20.368 2087.87 17.3281L1899.33 205.895C1902.35 206.122 1905.39 206.282 1908.43 206.349L2088.34 26.4479Z" fill="white"/>
<path d="M2051.51 -77.0023C2050.18 -78.7889 2048.68 -80.5355 2047.22 -82.3354L1799.65 165.23C1801.4 166.696 1803.16 168.136 1804.98 169.523L2051.51 -77.0023Z" fill="white"/>
<path d="M2087.84 44.4869C2088.11 41.127 2088.28 37.7671 2088.35 34.4072L1916.35 206.402C1919.71 206.339 1923.07 206.17 1926.43 205.895L2087.84 44.4869Z" fill="white"/>
<path d="M2085.07 64.8062C2085.82 61.0196 2086.43 57.2109 2086.92 53.3799L1935.37 204.935C1939.19 204.428 1943.01 203.815 1946.79 203.068L2085.07 64.8062Z" fill="white"/>
<path d="M2087.19 10.0615C2086.86 7.26158 2086.46 4.46172 2085.99 1.68848L1883.68 204.002C1886.46 204.473 1889.25 204.868 1892.05 205.188L2087.19 10.0615Z" fill="white"/>
<path d="M2065.55 -56.0163C2064.4 -58.0296 2063.23 -60.0162 2061.99 -62.0161L1819.97 180.003C1821.94 181.229 1823.97 182.416 1825.97 183.562L2065.55 -56.0163Z" fill="white"/>
<path d="M2084.74 -5.00473C2084.2 -7.67131 2083.6 -10.2046 2082.95 -12.7778L1869.18 200.948C1871.77 201.615 1874.36 202.202 1876.96 202.748L2084.74 -5.00473Z" fill="white"/>
<path d="M2058.86 -66.8692C2057.59 -68.7624 2056.26 -70.6379 2054.86 -72.4956L1809.49 172.936C1811.35 174.296 1813.23 175.607 1815.13 176.869L2058.86 -66.8692Z" fill="white"/>
<path d="M2071.55 -44.4698C2070.54 -46.6208 2069.48 -48.7541 2068.38 -50.8696L1831.13 186.389C1833.24 187.5 1835.37 188.558 1837.52 189.562L2071.55 -44.4698Z" fill="white"/>
<path d="M2076.8 -32.1771C2075.91 -34.4704 2074.99 -36.7414 2074.04 -38.9902L1843.01 192.042C1845.25 193.015 1847.53 193.935 1849.81 194.815L2076.8 -32.1771Z" fill="white"/>
<path d="M2081.23 -19.0706C2080.52 -21.515 2079.75 -23.9327 2078.92 -26.3237L1855.66 196.936C1858.06 197.749 1860.49 198.535 1862.92 199.242L2081.23 -19.0706Z" fill="white"/>
</g>
<path d="M1193.48 112.958C1194.85 112.958 1195.96 111.848 1195.96 110.479C1195.96 109.11 1194.85 108 1193.48 108C1192.11 108 1191 109.11 1191 110.479C1191 111.848 1192.11 112.958 1193.48 112.958Z" fill="white"/>
<path d="M1210.01 112.958C1211.37 112.958 1212.48 111.848 1212.48 110.479C1212.48 109.11 1211.37 108 1210.01 108C1208.64 108 1207.53 109.11 1207.53 110.479C1207.53 111.848 1208.64 112.958 1210.01 112.958Z" fill="white"/>
<path d="M1226.53 112.958C1227.9 112.958 1229.01 111.848 1229.01 110.479C1229.01 109.11 1227.9 108 1226.53 108C1225.16 108 1224.05 109.11 1224.05 110.479C1224.05 111.848 1225.16 112.958 1226.53 112.958Z" fill="white"/>
<path d="M1243.06 112.958C1244.43 112.958 1245.54 111.848 1245.54 110.479C1245.54 109.11 1244.43 108 1243.06 108C1241.69 108 1240.58 109.11 1240.58 110.479C1240.58 111.848 1241.69 112.958 1243.06 112.958Z" fill="white"/>
<path d="M1259.58 112.958C1260.95 112.958 1262.06 111.848 1262.06 110.479C1262.06 109.11 1260.95 108 1259.58 108C1258.22 108 1257.11 109.11 1257.11 110.479C1257.11 111.848 1258.22 112.958 1259.58 112.958Z" fill="white"/>
<path d="M1276.11 112.958C1277.48 112.958 1278.59 111.848 1278.59 110.479C1278.59 109.11 1277.48 108 1276.11 108C1274.74 108 1273.63 109.11 1273.63 110.479C1273.63 111.848 1274.74 112.958 1276.11 112.958Z" fill="white"/>
<path d="M1193.48 129.484C1194.85 129.484 1195.96 128.374 1195.96 127.005C1195.96 125.636 1194.85 124.526 1193.48 124.526C1192.11 124.526 1191 125.636 1191 127.005C1191 128.374 1192.11 129.484 1193.48 129.484Z" fill="white"/>
<path d="M1210.01 129.484C1211.37 129.484 1212.48 128.374 1212.48 127.005C1212.48 125.636 1211.37 124.526 1210.01 124.526C1208.64 124.526 1207.53 125.636 1207.53 127.005C1207.53 128.374 1208.64 129.484 1210.01 129.484Z" fill="white"/>
<path d="M1226.53 129.484C1227.9 129.484 1229.01 128.374 1229.01 127.005C1229.01 125.636 1227.9 124.526 1226.53 124.526C1225.16 124.526 1224.05 125.636 1224.05 127.005C1224.05 128.374 1225.16 129.484 1226.53 129.484Z" fill="white"/>
<path d="M1243.06 129.484C1244.43 129.484 1245.54 128.374 1245.54 127.005C1245.54 125.636 1244.43 124.526 1243.06 124.526C1241.69 124.526 1240.58 125.636 1240.58 127.005C1240.58 128.374 1241.69 129.484 1243.06 129.484Z" fill="white"/>
<path d="M1259.58 129.484C1260.95 129.484 1262.06 128.374 1262.06 127.005C1262.06 125.636 1260.95 124.526 1259.58 124.526C1258.22 124.526 1257.11 125.636 1257.11 127.005C1257.11 128.374 1258.22 129.484 1259.58 129.484Z" fill="white"/>
<path d="M1276.11 129.484C1277.48 129.484 1278.59 128.374 1278.59 127.005C1278.59 125.636 1277.48 124.526 1276.11 124.526C1274.74 124.526 1273.63 125.636 1273.63 127.005C1273.63 128.374 1274.74 129.484 1276.11 129.484Z" fill="white"/>
<path d="M1193.48 146.011C1194.85 146.011 1195.96 144.901 1195.96 143.532C1195.96 142.163 1194.85 141.053 1193.48 141.053C1192.11 141.053 1191 142.163 1191 143.532C1191 144.901 1192.11 146.011 1193.48 146.011Z" fill="white"/>
<path d="M1210.01 146.011C1211.37 146.011 1212.48 144.901 1212.48 143.532C1212.48 142.163 1211.37 141.053 1210.01 141.053C1208.64 141.053 1207.53 142.163 1207.53 143.532C1207.53 144.901 1208.64 146.011 1210.01 146.011Z" fill="white"/>
<path d="M1226.53 146.011C1227.9 146.011 1229.01 144.901 1229.01 143.532C1229.01 142.163 1227.9 141.053 1226.53 141.053C1225.16 141.053 1224.05 142.163 1224.05 143.532C1224.05 144.901 1225.16 146.011 1226.53 146.011Z" fill="white"/>
<path d="M1243.06 146.011C1244.43 146.011 1245.54 144.901 1245.54 143.532C1245.54 142.163 1244.43 141.053 1243.06 141.053C1241.69 141.053 1240.58 142.163 1240.58 143.532C1240.58 144.901 1241.69 146.011 1243.06 146.011Z" fill="white"/>
<path d="M1259.58 146.011C1260.95 146.011 1262.06 144.901 1262.06 143.532C1262.06 142.163 1260.95 141.053 1259.58 141.053C1258.22 141.053 1257.11 142.163 1257.11 143.532C1257.11 144.901 1258.22 146.011 1259.58 146.011Z" fill="white"/>
<path d="M1276.11 146.011C1277.48 146.011 1278.59 144.901 1278.59 143.532C1278.59 142.163 1277.48 141.053 1276.11 141.053C1274.74 141.053 1273.63 142.163 1273.63 143.532C1273.63 144.901 1274.74 146.011 1276.11 146.011Z" fill="white"/>
<path d="M1193.48 162.538C1194.85 162.538 1195.96 161.428 1195.96 160.059C1195.96 158.689 1194.85 157.58 1193.48 157.58C1192.11 157.58 1191 158.689 1191 160.059C1191 161.428 1192.11 162.538 1193.48 162.538Z" fill="white"/>
<path d="M1210.01 162.538C1211.37 162.538 1212.48 161.428 1212.48 160.059C1212.48 158.689 1211.37 157.58 1210.01 157.58C1208.64 157.58 1207.53 158.689 1207.53 160.059C1207.53 161.428 1208.64 162.538 1210.01 162.538Z" fill="white"/>
<path d="M1226.53 162.538C1227.9 162.538 1229.01 161.428 1229.01 160.059C1229.01 158.689 1227.9 157.58 1226.53 157.58C1225.16 157.58 1224.05 158.689 1224.05 160.059C1224.05 161.428 1225.16 162.538 1226.53 162.538Z" fill="white"/>
<path d="M1243.06 162.538C1244.43 162.538 1245.54 161.428 1245.54 160.059C1245.54 158.689 1244.43 157.58 1243.06 157.58C1241.69 157.58 1240.58 158.689 1240.58 160.059C1240.58 161.428 1241.69 162.538 1243.06 162.538Z" fill="white"/>
<path d="M1259.58 162.538C1260.95 162.538 1262.06 161.428 1262.06 160.059C1262.06 158.689 1260.95 157.58 1259.58 157.58C1258.22 157.58 1257.11 158.689 1257.11 160.059C1257.11 161.428 1258.22 162.538 1259.58 162.538Z" fill="white"/>
<path d="M1276.11 162.538C1277.48 162.538 1278.59 161.428 1278.59 160.059C1278.59 158.689 1277.48 157.58 1276.11 157.58C1274.74 157.58 1273.63 158.689 1273.63 160.059C1273.63 161.428 1274.74 162.538 1276.11 162.538Z" fill="white"/>
<path d="M1193.48 179.064C1194.85 179.064 1195.96 177.954 1195.96 176.585C1195.96 175.216 1194.85 174.106 1193.48 174.106C1192.11 174.106 1191 175.216 1191 176.585C1191 177.954 1192.11 179.064 1193.48 179.064Z" fill="white"/>
<path d="M1210.01 179.064C1211.37 179.064 1212.48 177.954 1212.48 176.585C1212.48 175.216 1211.37 174.106 1210.01 174.106C1208.64 174.106 1207.53 175.216 1207.53 176.585C1207.53 177.954 1208.64 179.064 1210.01 179.064Z" fill="white"/>
<path d="M1226.53 179.064C1227.9 179.064 1229.01 177.954 1229.01 176.585C1229.01 175.216 1227.9 174.106 1226.53 174.106C1225.16 174.106 1224.05 175.216 1224.05 176.585C1224.05 177.954 1225.16 179.064 1226.53 179.064Z" fill="white"/>
<path d="M1243.06 179.064C1244.43 179.064 1245.54 177.954 1245.54 176.585C1245.54 175.216 1244.43 174.106 1243.06 174.106C1241.69 174.106 1240.58 175.216 1240.58 176.585C1240.58 177.954 1241.69 179.064 1243.06 179.064Z" fill="white"/>
<path d="M1259.58 179.064C1260.95 179.064 1262.06 177.954 1262.06 176.585C1262.06 175.216 1260.95 174.106 1259.58 174.106C1258.22 174.106 1257.11 175.216 1257.11 176.585C1257.11 177.954 1258.22 179.064 1259.58 179.064Z" fill="white"/>
<path d="M1276.11 179.064C1277.48 179.064 1278.59 177.954 1278.59 176.585C1278.59 175.216 1277.48 174.106 1276.11 174.106C1274.74 174.106 1273.63 175.216 1273.63 176.585C1273.63 177.954 1274.74 179.064 1276.11 179.064Z" fill="white"/>
<path d="M1193.48 195.59C1194.85 195.59 1195.96 194.48 1195.96 193.111C1195.96 191.742 1194.85 190.632 1193.48 190.632C1192.11 190.632 1191 191.742 1191 193.111C1191 194.48 1192.11 195.59 1193.48 195.59Z" fill="white"/>
<path d="M1210.01 195.59C1211.37 195.59 1212.48 194.48 1212.48 193.111C1212.48 191.742 1211.37 190.632 1210.01 190.632C1208.64 190.632 1207.53 191.742 1207.53 193.111C1207.53 194.48 1208.64 195.59 1210.01 195.59Z" fill="white"/>
<path d="M1226.53 195.59C1227.9 195.59 1229.01 194.48 1229.01 193.111C1229.01 191.742 1227.9 190.632 1226.53 190.632C1225.16 190.632 1224.05 191.742 1224.05 193.111C1224.05 194.48 1225.16 195.59 1226.53 195.59Z" fill="white"/>
<path d="M1243.06 195.59C1244.43 195.59 1245.54 194.48 1245.54 193.111C1245.54 191.742 1244.43 190.632 1243.06 190.632C1241.69 190.632 1240.58 191.742 1240.58 193.111C1240.58 194.48 1241.69 195.59 1243.06 195.59Z" fill="white"/>
<path d="M1259.58 195.59C1260.95 195.59 1262.06 194.48 1262.06 193.111C1262.06 191.742 1260.95 190.632 1259.58 190.632C1258.22 190.632 1257.11 191.742 1257.11 193.111C1257.11 194.48 1258.22 195.59 1259.58 195.59Z" fill="white"/>
<path d="M1276.11 195.59C1277.48 195.59 1278.59 194.48 1278.59 193.111C1278.59 191.742 1277.48 190.632 1276.11 190.632C1274.74 190.632 1273.63 191.742 1273.63 193.111C1273.63 194.48 1274.74 195.59 1276.11 195.59Z" fill="white"/>
<path d="M1193.48 212.117C1194.85 212.117 1195.96 211.007 1195.96 209.638C1195.96 208.269 1194.85 207.159 1193.48 207.159C1192.11 207.159 1191 208.269 1191 209.638C1191 211.007 1192.11 212.117 1193.48 212.117Z" fill="white"/>
<path d="M1210.01 212.117C1211.37 212.117 1212.48 211.007 1212.48 209.638C1212.48 208.269 1211.37 207.159 1210.01 207.159C1208.64 207.159 1207.53 208.269 1207.53 209.638C1207.53 211.007 1208.64 212.117 1210.01 212.117Z" fill="white"/>
<path d="M1226.53 212.117C1227.9 212.117 1229.01 211.007 1229.01 209.638C1229.01 208.269 1227.9 207.159 1226.53 207.159C1225.16 207.159 1224.05 208.269 1224.05 209.638C1224.05 211.007 1225.16 212.117 1226.53 212.117Z" fill="white"/>
<path d="M1243.06 212.117C1244.43 212.117 1245.54 211.007 1245.54 209.638C1245.54 208.269 1244.43 207.159 1243.06 207.159C1241.69 207.159 1240.58 208.269 1240.58 209.638C1240.58 211.007 1241.69 212.117 1243.06 212.117Z" fill="white"/>
<path d="M1259.58 212.117C1260.95 212.117 1262.06 211.007 1262.06 209.638C1262.06 208.269 1260.95 207.159 1259.58 207.159C1258.22 207.159 1257.11 208.269 1257.11 209.638C1257.11 211.007 1258.22 212.117 1259.58 212.117Z" fill="white"/>
<path d="M1276.11 212.117C1277.48 212.117 1278.59 211.007 1278.59 209.638C1278.59 208.269 1277.48 207.159 1276.11 207.159C1274.74 207.159 1273.63 208.269 1273.63 209.638C1273.63 211.007 1274.74 212.117 1276.11 212.117Z" fill="white"/>
<path d="M1193.48 228.643C1194.85 228.643 1195.96 227.533 1195.96 226.164C1195.96 224.795 1194.85 223.685 1193.48 223.685C1192.11 223.685 1191 224.795 1191 226.164C1191 227.533 1192.11 228.643 1193.48 228.643Z" fill="white"/>
<path d="M1210.01 228.643C1211.37 228.643 1212.48 227.533 1212.48 226.164C1212.48 224.795 1211.37 223.685 1210.01 223.685C1208.64 223.685 1207.53 224.795 1207.53 226.164C1207.53 227.533 1208.64 228.643 1210.01 228.643Z" fill="white"/>
<path d="M1226.53 228.643C1227.9 228.643 1229.01 227.533 1229.01 226.164C1229.01 224.795 1227.9 223.685 1226.53 223.685C1225.16 223.685 1224.05 224.795 1224.05 226.164C1224.05 227.533 1225.16 228.643 1226.53 228.643Z" fill="white"/>
<path d="M1243.06 228.643C1244.43 228.643 1245.54 227.533 1245.54 226.164C1245.54 224.795 1244.43 223.685 1243.06 223.685C1241.69 223.685 1240.58 224.795 1240.58 226.164C1240.58 227.533 1241.69 228.643 1243.06 228.643Z" fill="white"/>
<path d="M1259.58 228.643C1260.95 228.643 1262.06 227.533 1262.06 226.164C1262.06 224.795 1260.95 223.685 1259.58 223.685C1258.22 223.685 1257.11 224.795 1257.11 226.164C1257.11 227.533 1258.22 228.643 1259.58 228.643Z" fill="white"/>
<path d="M1276.11 228.643C1277.48 228.643 1278.59 227.533 1278.59 226.164C1278.59 224.795 1277.48 223.685 1276.11 223.685C1274.74 223.685 1273.63 224.795 1273.63 226.164C1273.63 227.533 1274.74 228.643 1276.11 228.643Z" fill="white"/>
<path d="M1193.48 245.17C1194.85 245.17 1195.96 244.06 1195.96 242.691C1195.96 241.322 1194.85 240.212 1193.48 240.212C1192.11 240.212 1191 241.322 1191 242.691C1191 244.06 1192.11 245.17 1193.48 245.17Z" fill="white"/>
<path d="M1210.01 245.17C1211.37 245.17 1212.48 244.06 1212.48 242.691C1212.48 241.322 1211.37 240.212 1210.01 240.212C1208.64 240.212 1207.53 241.322 1207.53 242.691C1207.53 244.06 1208.64 245.17 1210.01 245.17Z" fill="white"/>
<path d="M1226.53 245.17C1227.9 245.17 1229.01 244.06 1229.01 242.691C1229.01 241.322 1227.9 240.212 1226.53 240.212C1225.16 240.212 1224.05 241.322 1224.05 242.691C1224.05 244.06 1225.16 245.17 1226.53 245.17Z" fill="white"/>
<path d="M1243.06 245.17C1244.43 245.17 1245.54 244.06 1245.54 242.691C1245.54 241.322 1244.43 240.212 1243.06 240.212C1241.69 240.212 1240.58 241.322 1240.58 242.691C1240.58 244.06 1241.69 245.17 1243.06 245.17Z" fill="white"/>
<path d="M1259.58 245.17C1260.95 245.17 1262.06 244.06 1262.06 242.691C1262.06 241.322 1260.95 240.212 1259.58 240.212C1258.22 240.212 1257.11 241.322 1257.11 242.691C1257.11 244.06 1258.22 245.17 1259.58 245.17Z" fill="white"/>
<path d="M1276.11 245.17C1277.48 245.17 1278.59 244.06 1278.59 242.691C1278.59 241.322 1277.48 240.212 1276.11 240.212C1274.74 240.212 1273.63 241.322 1273.63 242.691C1273.63 244.06 1274.74 245.17 1276.11 245.17Z" fill="white"/>
<path d="M683.479 671.958C684.848 671.958 685.958 670.848 685.958 669.479C685.958 668.11 684.848 667 683.479 667C682.11 667 681 668.11 681 669.479C681 670.848 682.11 671.958 683.479 671.958Z" fill="white"/>
<path d="M700.005 671.958C701.375 671.958 702.484 670.848 702.484 669.479C702.484 668.11 701.375 667 700.005 667C698.636 667 697.526 668.11 697.526 669.479C697.526 670.848 698.636 671.958 700.005 671.958Z" fill="white"/>
<path d="M716.532 671.958C717.901 671.958 719.011 670.848 719.011 669.479C719.011 668.11 717.901 667 716.532 667C715.163 667 714.053 668.11 714.053 669.479C714.053 670.848 715.163 671.958 716.532 671.958Z" fill="white"/>
<path d="M733.058 671.958C734.428 671.958 735.537 670.848 735.537 669.479C735.537 668.11 734.428 667 733.058 667C731.689 667 730.579 668.11 730.579 669.479C730.579 670.848 731.689 671.958 733.058 671.958Z" fill="white"/>
<path d="M749.585 671.958C750.954 671.958 752.064 670.848 752.064 669.479C752.064 668.11 750.954 667 749.585 667C748.216 667 747.106 668.11 747.106 669.479C747.106 670.848 748.216 671.958 749.585 671.958Z" fill="white"/>
<path d="M766.111 671.958C767.48 671.958 768.59 670.848 768.59 669.479C768.59 668.11 767.48 667 766.111 667C764.742 667 763.632 668.11 763.632 669.479C763.632 670.848 764.742 671.958 766.111 671.958Z" fill="white"/>
<path d="M683.479 688.484C684.848 688.484 685.958 687.374 685.958 686.005C685.958 684.636 684.848 683.526 683.479 683.526C682.11 683.526 681 684.636 681 686.005C681 687.374 682.11 688.484 683.479 688.484Z" fill="white"/>
<path d="M700.005 688.484C701.375 688.484 702.484 687.374 702.484 686.005C702.484 684.636 701.375 683.526 700.005 683.526C698.636 683.526 697.526 684.636 697.526 686.005C697.526 687.374 698.636 688.484 700.005 688.484Z" fill="white"/>
<path d="M716.532 688.484C717.901 688.484 719.011 687.374 719.011 686.005C719.011 684.636 717.901 683.526 716.532 683.526C715.163 683.526 714.053 684.636 714.053 686.005C714.053 687.374 715.163 688.484 716.532 688.484Z" fill="white"/>
<path d="M733.058 688.484C734.428 688.484 735.537 687.374 735.537 686.005C735.537 684.636 734.428 683.526 733.058 683.526C731.689 683.526 730.579 684.636 730.579 686.005C730.579 687.374 731.689 688.484 733.058 688.484Z" fill="white"/>
<path d="M749.585 688.484C750.954 688.484 752.064 687.374 752.064 686.005C752.064 684.636 750.954 683.526 749.585 683.526C748.216 683.526 747.106 684.636 747.106 686.005C747.106 687.374 748.216 688.484 749.585 688.484Z" fill="white"/>
<path d="M766.111 688.484C767.48 688.484 768.59 687.374 768.59 686.005C768.59 684.636 767.48 683.526 766.111 683.526C764.742 683.526 763.632 684.636 763.632 686.005C763.632 687.374 764.742 688.484 766.111 688.484Z" fill="white"/>
<path d="M683.479 705.011C684.848 705.011 685.958 703.901 685.958 702.532C685.958 701.163 684.848 700.053 683.479 700.053C682.11 700.053 681 701.163 681 702.532C681 703.901 682.11 705.011 683.479 705.011Z" fill="white"/>
<path d="M700.005 705.011C701.375 705.011 702.484 703.901 702.484 702.532C702.484 701.163 701.375 700.053 700.005 700.053C698.636 700.053 697.526 701.163 697.526 702.532C697.526 703.901 698.636 705.011 700.005 705.011Z" fill="white"/>
<path d="M716.532 705.011C717.901 705.011 719.011 703.901 719.011 702.532C719.011 701.163 717.901 700.053 716.532 700.053C715.163 700.053 714.053 701.163 714.053 702.532C714.053 703.901 715.163 705.011 716.532 705.011Z" fill="white"/>
<path d="M733.058 705.011C734.428 705.011 735.537 703.901 735.537 702.532C735.537 701.163 734.428 700.053 733.058 700.053C731.689 700.053 730.579 701.163 730.579 702.532C730.579 703.901 731.689 705.011 733.058 705.011Z" fill="white"/>
<path d="M749.585 705.011C750.954 705.011 752.064 703.901 752.064 702.532C752.064 701.163 750.954 700.053 749.585 700.053C748.216 700.053 747.106 701.163 747.106 702.532C747.106 703.901 748.216 705.011 749.585 705.011Z" fill="white"/>
<path d="M766.111 705.011C767.48 705.011 768.59 703.901 768.59 702.532C768.59 701.163 767.48 700.053 766.111 700.053C764.742 700.053 763.632 701.163 763.632 702.532C763.632 703.901 764.742 705.011 766.111 705.011Z" fill="white"/>
<path d="M683.479 721.537C684.848 721.537 685.958 720.427 685.958 719.058C685.958 717.689 684.848 716.579 683.479 716.579C682.11 716.579 681 717.689 681 719.058C681 720.427 682.11 721.537 683.479 721.537Z" fill="white"/>
<path d="M700.005 721.537C701.375 721.537 702.484 720.427 702.484 719.058C702.484 717.689 701.375 716.579 700.005 716.579C698.636 716.579 697.526 717.689 697.526 719.058C697.526 720.427 698.636 721.537 700.005 721.537Z" fill="white"/>
<path d="M716.532 721.537C717.901 721.537 719.011 720.427 719.011 719.058C719.011 717.689 717.901 716.579 716.532 716.579C715.163 716.579 714.053 717.689 714.053 719.058C714.053 720.427 715.163 721.537 716.532 721.537Z" fill="white"/>
<path d="M733.058 721.537C734.428 721.537 735.537 720.427 735.537 719.058C735.537 717.689 734.428 716.579 733.058 716.579C731.689 716.579 730.579 717.689 730.579 719.058C730.579 720.427 731.689 721.537 733.058 721.537Z" fill="white"/>
<path d="M749.585 721.537C750.954 721.537 752.064 720.427 752.064 719.058C752.064 717.689 750.954 716.579 749.585 716.579C748.216 716.579 747.106 717.689 747.106 719.058C747.106 720.427 748.216 721.537 749.585 721.537Z" fill="white"/>
<path d="M766.111 721.537C767.48 721.537 768.59 720.427 768.59 719.058C768.59 717.689 767.48 716.579 766.111 716.579C764.742 716.579 763.632 717.689 763.632 719.058C763.632 720.427 764.742 721.537 766.111 721.537Z" fill="white"/>
<path d="M683.479 738.064C684.848 738.064 685.958 736.954 685.958 735.585C685.958 734.216 684.848 733.106 683.479 733.106C682.11 733.106 681 734.216 681 735.585C681 736.954 682.11 738.064 683.479 738.064Z" fill="white"/>
<path d="M700.005 738.064C701.375 738.064 702.484 736.954 702.484 735.585C702.484 734.216 701.375 733.106 700.005 733.106C698.636 733.106 697.526 734.216 697.526 735.585C697.526 736.954 698.636 738.064 700.005 738.064Z" fill="white"/>
<path d="M716.532 738.064C717.901 738.064 719.011 736.954 719.011 735.585C719.011 734.216 717.901 733.106 716.532 733.106C715.163 733.106 714.053 734.216 714.053 735.585C714.053 736.954 715.163 738.064 716.532 738.064Z" fill="white"/>
<path d="M733.058 738.064C734.428 738.064 735.537 736.954 735.537 735.585C735.537 734.216 734.428 733.106 733.058 733.106C731.689 733.106 730.579 734.216 730.579 735.585C730.579 736.954 731.689 738.064 733.058 738.064Z" fill="white"/>
<path d="M749.585 738.064C750.954 738.064 752.064 736.954 752.064 735.585C752.064 734.216 750.954 733.106 749.585 733.106C748.216 733.106 747.106 734.216 747.106 735.585C747.106 736.954 748.216 738.064 749.585 738.064Z" fill="white"/>
<path d="M766.111 738.064C767.48 738.064 768.59 736.954 768.59 735.585C768.59 734.216 767.48 733.106 766.111 733.106C764.742 733.106 763.632 734.216 763.632 735.585C763.632 736.954 764.742 738.064 766.111 738.064Z" fill="white"/>
<path d="M683.479 754.59C684.848 754.59 685.958 753.48 685.958 752.111C685.958 750.742 684.848 749.632 683.479 749.632C682.11 749.632 681 750.742 681 752.111C681 753.48 682.11 754.59 683.479 754.59Z" fill="white"/>
<path d="M700.005 754.59C701.375 754.59 702.484 753.48 702.484 752.111C702.484 750.742 701.375 749.632 700.005 749.632C698.636 749.632 697.526 750.742 697.526 752.111C697.526 753.48 698.636 754.59 700.005 754.59Z" fill="white"/>
<path d="M716.532 754.59C717.901 754.59 719.011 753.48 719.011 752.111C719.011 750.742 717.901 749.632 716.532 749.632C715.163 749.632 714.053 750.742 714.053 752.111C714.053 753.48 715.163 754.59 716.532 754.59Z" fill="white"/>
<path d="M733.058 754.59C734.428 754.59 735.537 753.48 735.537 752.111C735.537 750.742 734.428 749.632 733.058 749.632C731.689 749.632 730.579 750.742 730.579 752.111C730.579 753.48 731.689 754.59 733.058 754.59Z" fill="white"/>
<path d="M749.585 754.59C750.954 754.59 752.064 753.48 752.064 752.111C752.064 750.742 750.954 749.632 749.585 749.632C748.216 749.632 747.106 750.742 747.106 752.111C747.106 753.48 748.216 754.59 749.585 754.59Z" fill="white"/>
<path d="M766.111 754.59C767.48 754.59 768.59 753.48 768.59 752.111C768.59 750.742 767.48 749.632 766.111 749.632C764.742 749.632 763.632 750.742 763.632 752.111C763.632 753.48 764.742 754.59 766.111 754.59Z" fill="white"/>
<path d="M683.479 771.117C684.848 771.117 685.958 770.007 685.958 768.638C685.958 767.269 684.848 766.159 683.479 766.159C682.11 766.159 681 767.269 681 768.638C681 770.007 682.11 771.117 683.479 771.117Z" fill="white"/>
<path d="M700.005 771.117C701.375 771.117 702.484 770.007 702.484 768.638C702.484 767.269 701.375 766.159 700.005 766.159C698.636 766.159 697.526 767.269 697.526 768.638C697.526 770.007 698.636 771.117 700.005 771.117Z" fill="white"/>
<path d="M716.532 771.117C717.901 771.117 719.011 770.007 719.011 768.638C719.011 767.269 717.901 766.159 716.532 766.159C715.163 766.159 714.053 767.269 714.053 768.638C714.053 770.007 715.163 771.117 716.532 771.117Z" fill="white"/>
<path d="M733.058 771.117C734.428 771.117 735.537 770.007 735.537 768.638C735.537 767.269 734.428 766.159 733.058 766.159C731.689 766.159 730.579 767.269 730.579 768.638C730.579 770.007 731.689 771.117 733.058 771.117Z" fill="white"/>
<path d="M749.585 771.117C750.954 771.117 752.064 770.007 752.064 768.638C752.064 767.269 750.954 766.159 749.585 766.159C748.216 766.159 747.106 767.269 747.106 768.638C747.106 770.007 748.216 771.117 749.585 771.117Z" fill="white"/>
<path d="M766.111 771.117C767.48 771.117 768.59 770.007 768.59 768.638C768.59 767.269 767.48 766.159 766.111 766.159C764.742 766.159 763.632 767.269 763.632 768.638C763.632 770.007 764.742 771.117 766.111 771.117Z" fill="white"/>
<path d="M683.479 787.643C684.848 787.643 685.958 786.533 685.958 785.164C685.958 783.795 684.848 782.685 683.479 782.685C682.11 782.685 681 783.795 681 785.164C681 786.533 682.11 787.643 683.479 787.643Z" fill="white"/>
<path d="M700.005 787.643C701.375 787.643 702.484 786.533 702.484 785.164C702.484 783.795 701.375 782.685 700.005 782.685C698.636 782.685 697.526 783.795 697.526 785.164C697.526 786.533 698.636 787.643 700.005 787.643Z" fill="white"/>
<path d="M716.532 787.643C717.901 787.643 719.011 786.533 719.011 785.164C719.011 783.795 717.901 782.685 716.532 782.685C715.163 782.685 714.053 783.795 714.053 785.164C714.053 786.533 715.163 787.643 716.532 787.643Z" fill="white"/>
<path d="M733.058 787.643C734.428 787.643 735.537 786.533 735.537 785.164C735.537 783.795 734.428 782.685 733.058 782.685C731.689 782.685 730.579 783.795 730.579 785.164C730.579 786.533 731.689 787.643 733.058 787.643Z" fill="white"/>
<path d="M749.585 787.643C750.954 787.643 752.064 786.533 752.064 785.164C752.064 783.795 750.954 782.685 749.585 782.685C748.216 782.685 747.106 783.795 747.106 785.164C747.106 786.533 748.216 787.643 749.585 787.643Z" fill="white"/>
<path d="M766.111 787.643C767.48 787.643 768.59 786.533 768.59 785.164C768.59 783.795 767.48 782.685 766.111 782.685C764.742 782.685 763.632 783.795 763.632 785.164C763.632 786.533 764.742 787.643 766.111 787.643Z" fill="white"/>
<path d="M683.479 804.17C684.848 804.17 685.958 803.06 685.958 801.691C685.958 800.322 684.848 799.212 683.479 799.212C682.11 799.212 681 800.322 681 801.691C681 803.06 682.11 804.17 683.479 804.17Z" fill="white"/>
<path d="M700.005 804.17C701.375 804.17 702.484 803.06 702.484 801.691C702.484 800.322 701.375 799.212 700.005 799.212C698.636 799.212 697.526 800.322 697.526 801.691C697.526 803.06 698.636 804.17 700.005 804.17Z" fill="white"/>
<path d="M716.532 804.17C717.901 804.17 719.011 803.06 719.011 801.691C719.011 800.322 717.901 799.212 716.532 799.212C715.163 799.212 714.053 800.322 714.053 801.691C714.053 803.06 715.163 804.17 716.532 804.17Z" fill="white"/>
<path d="M733.058 804.17C734.428 804.17 735.537 803.06 735.537 801.691C735.537 800.322 734.428 799.212 733.058 799.212C731.689 799.212 730.579 800.322 730.579 801.691C730.579 803.06 731.689 804.17 733.058 804.17Z" fill="white"/>
<path d="M749.585 804.17C750.954 804.17 752.064 803.06 752.064 801.691C752.064 800.322 750.954 799.212 749.585 799.212C748.216 799.212 747.106 800.322 747.106 801.691C747.106 803.06 748.216 804.17 749.585 804.17Z" fill="white"/>
<path d="M766.111 804.17C767.48 804.17 768.59 803.06 768.59 801.691C768.59 800.322 767.48 799.212 766.111 799.212C764.742 799.212 763.632 800.322 763.632 801.691C763.632 803.06 764.742 804.17 766.111 804.17Z" fill="white"/>
<g filter="url(#filter0_bd_619_4443)">
<rect x="734" y="153" width="478" height="593" rx="10" fill="white"/>
<rect x="734.5" y="153.5" width="477" height="592" rx="9.5" stroke="white" stroke-opacity="0.3"/>
</g>
<path d="M1901.68 885.108L1738.85 722.281C1732.62 716.051 1722.52 716.051 1716.29 722.281L1716.28 722.287C1710.05 728.518 1710.05 738.619 1716.28 744.849L1879.11 907.676C1885.34 913.906 1895.44 913.906 1901.67 907.676L1901.68 907.669C1907.91 901.439 1907.91 891.338 1901.68 885.108Z" stroke="white" stroke-width="2" stroke-miterlimit="10"/>
<path d="M1989.9 885.282L1912.99 808.377C1906.76 802.146 1896.66 802.146 1890.43 808.377L1890.42 808.383C1884.19 814.614 1884.19 824.715 1890.42 830.945L1967.33 907.85C1973.56 914.08 1983.66 914.08 1989.89 907.85L1989.9 907.843C1996.13 901.613 1996.13 891.512 1989.9 885.282Z" stroke="white" stroke-width="2" stroke-miterlimit="10"/>
<path opacity="0.5" d="M24.9935 1036.99C133.238 1036.99 220.987 949.238 220.987 840.994C220.987 732.749 133.238 645 24.9935 645C-83.2507 645 -171 732.749 -171 840.994C-171 949.238 -83.2507 1036.99 24.9935 1036.99Z" stroke="#E37C07" stroke-width="60" stroke-miterlimit="10"/>
<path opacity="0.5" d="M194.5 747C228.466 747 256 719.466 256 685.5C256 651.534 228.466 624 194.5 624C160.534 624 133 651.534 133 685.5C133 719.466 160.534 747 194.5 747Z" stroke="white" stroke-width="20" stroke-miterlimit="10"/>
<path d="M141.956 131.864L-31.8656 -41.9576C-38.5164 -48.6085 -49.2995 -48.6085 -55.9503 -41.9576L-55.9576 -41.9503C-62.6085 -35.2995 -62.6085 -24.5164 -55.9576 -17.8656L117.864 155.956C124.515 162.607 135.298 162.607 141.949 155.956L141.956 155.949C148.607 149.298 148.607 138.515 141.956 131.864Z" stroke="white" stroke-width="2" stroke-miterlimit="10"/>
<path d="M236.136 132.051L154.037 49.952C147.386 43.3012 136.603 43.3012 129.953 49.952L129.945 49.9593C123.294 56.6102 123.294 67.3933 129.945 74.0441L212.044 156.143C218.694 162.793 229.478 162.793 236.128 156.143L236.136 156.135C242.787 149.484 242.787 138.701 236.136 132.051Z" stroke="white" stroke-width="2" stroke-miterlimit="10"/>
</g>
<defs>
<filter id="filter0_bd_619_4443" x="694" y="117" width="558" height="673" filterUnits="userSpaceOnUse" color-interpolation-filters="sRGB">
<feFlood flood-opacity="0" result="BackgroundImageFix"/>
<feGaussianBlur in="BackgroundImageFix" stdDeviation="10"/>
<feComposite in2="SourceAlpha" operator="in" result="effect1_backgroundBlur_619_4443"/>
<feColorMatrix in="SourceAlpha" type="matrix" values="0 0 0 0 0 0 0 0 0 0 0 0 0 0 0 0 0 0 127 0" result="hardAlpha"/>
<feOffset dy="4"/>
<feGaussianBlur stdDeviation="20"/>
<feComposite in2="hardAlpha" operator="out"/>
<feColorMatrix type="matrix" values="0 0 0 0 0 0 0 0 0 0 0 0 0 0 0 0 0 0 0.05 0"/>
<feBlend mode="normal" in2="effect1_backgroundBlur_619_4443" result="effect2_dropShadow_619_4443"/>
<feBlend mode="normal" in="SourceGraphic" in2="effect2_dropShadow_619_4443" result="shape"/>
</filter>
<clipPath id="clip0_619_4443">
<rect width="1946" height="900" fill="white"/>
</clipPath>
</defs>
</svg>
